<?xml version="1.0" standalone="no"?>
<!DOCTYPE svg PUBLIC "-//W3C//DTD SVG 20010904//EN"
 "http://www.w3.org/TR/2001/REC-SVG-20010904/DTD/svg10.dtd">
<svg version="1.0" xmlns="http://www.w3.org/2000/svg"
 width="2730.000000pt" height="2053.000000pt" viewBox="0 0 2730.000000 2053.000000"
 preserveAspectRatio="xMidYMid meet">
<metadata>
Created by potrace 1.16, written by Peter Selinger 2001-2019
</metadata>
<g transform="translate(0.000000,2053.000000) scale(0.100000,-0.100000)"
fill="#000000" stroke="none">
<path d="M16310 16940 c-8 -6 -26 -15 -40 -20 -77 -31 -103 -56 -126 -121 -19
-51 -23 -75 -18 -119 4 -30 13 -64 20 -75 8 -11 14 -29 14 -41 0 -28 80 -94
128 -105 50 -12 109 -11 117 1 3 6 21 10 39 10 27 0 44 10 88 55 l55 56 6 75
c3 42 2 86 -3 98 -5 11 -11 33 -14 48 -3 14 -27 49 -53 76 -42 43 -55 51 -98
56 -27 4 -61 9 -75 11 -14 2 -32 0 -40 -5z"/>
<path d="M16203 16223 c-21 -8 -15 -59 8 -75 18 -12 21 -20 15 -49 -13 -71
-79 -73 -124 -3 -18 28 -28 35 -50 32 -62 -7 -18 -113 61 -149 53 -24 79 -24
126 0 49 26 56 36 69 101 12 64 5 88 -38 123 -31 27 -43 30 -67 20z"/>
<path d="M13660 14471 c-120 -39 -238 -160 -327 -336 l-36 -70 59 56 c33 30
79 68 104 84 25 16 69 51 97 78 93 85 182 107 272 67 61 -28 183 -150 251
-252 124 -184 198 -348 248 -546 24 -98 27 -123 26 -302 0 -177 -2 -206 -27
-311 -32 -136 -74 -264 -118 -359 l-31 -67 -255 -6 c-141 -4 -331 -7 -423 -7
l-166 0 -22 -45 c-12 -25 -22 -50 -22 -55 0 -15 71 -19 414 -23 l328 -5 70 67
71 66 -33 -64 c-121 -241 -352 -546 -629 -833 -73 -76 -139 -138 -145 -138 -8
0 -32 106 -71 308 -32 169 -61 313 -65 321 -15 28 -23 -197 -10 -262 6 -34 12
-78 12 -97 0 -19 12 -106 25 -192 l26 -157 -50 -46 c-67 -60 -247 -208 -293
-240 l-36 -25 -377 -7 c-207 -3 -377 -10 -377 -15 0 -4 107 -9 238 -9 130 -1
288 -4 350 -8 l112 -6 -65 -44 c-72 -49 -338 -307 -487 -474 -456 -507 -738
-1011 -813 -1452 -22 -128 -22 -325 0 -440 67 -358 313 -657 725 -882 238
-130 548 -231 807 -264 l91 -11 -48 -67 c-94 -130 -143 -212 -132 -223 7 -7
22 8 48 48 20 33 67 100 103 150 l66 92 141 0 c150 1 294 19 435 53 l86 21 -5
117 c-2 64 -5 117 -6 117 0 1 -51 -11 -113 -27 -387 -98 -797 -47 -1222 152
-94 44 -106 48 -121 34 -9 -8 -35 -15 -58 -15 -35 0 -59 12 -162 81 -337 227
-461 441 -462 799 -1 269 69 535 222 845 272 550 701 996 1623 1689 155 116
209 163 278 242 117 136 233 282 303 386 33 49 61 87 62 85 4 -4 -23 -169 -37
-232 -16 -69 -51 -134 -93 -174 -38 -37 -44 -51 -22 -51 22 0 86 78 113 137
14 30 31 93 39 141 34 208 40 227 139 422 107 209 185 434 222 640 26 144 23
423 -5 556 -64 300 -242 636 -441 835 -113 112 -192 153 -301 156 -41 1 -86
-1 -100 -6z"/>
<path d="M26037 14286 c-4 -27 -7 -86 -7 -132 l0 -83 -57 -3 -56 -3 -40 -108
c-22 -59 -43 -104 -47 -100 -4 4 -31 92 -60 196 -29 103 -55 185 -57 183 -6
-5 18 -138 59 -328 l31 -148 -33 -87 c-18 -49 -37 -99 -43 -113 -8 -22 -22 1
-139 235 -71 143 -126 247 -122 230 23 -98 121 -343 186 -467 40 -75 41 -77
28 -122 -7 -25 -16 -46 -20 -46 -11 0 -221 245 -303 354 -20 27 -37 46 -37 42
0 -17 101 -179 165 -266 116 -156 291 -328 440 -435 l40 -29 -45 50 c-25 27
-87 93 -140 147 l-95 97 45 0 c43 0 47 -3 77 -49 32 -50 181 -231 189 -231 3
0 -17 33 -44 73 -27 39 -68 102 -90 140 l-42 67 29 0 c23 0 31 6 38 27 9 26
11 23 32 -46 29 -96 82 -243 86 -239 3 3 -68 320 -81 361 -5 15 2 17 55 17
l61 0 1 -197 c1 -195 1 -197 15 -128 7 39 16 127 20 198 l7 127 39 0 c21 0 38
-5 38 -10 0 -6 -20 -94 -45 -197 -25 -102 -45 -188 -45 -192 1 -13 53 120 82
212 23 73 34 95 40 83 5 -9 16 -16 24 -16 11 0 -4 -38 -56 -137 -78 -151 -68
-146 46 25 68 99 79 112 105 112 16 0 29 -3 29 -6 0 -3 -52 -67 -116 -141 -64
-74 -114 -137 -111 -139 5 -6 314 287 316 299 1 4 36 52 80 106 108 136 251
341 237 341 -2 0 -77 -85 -167 -190 -89 -104 -165 -190 -169 -190 -4 0 -14 18
-23 41 l-16 41 66 136 c68 142 176 402 170 409 -2 2 -37 -59 -77 -134 -40 -76
-98 -185 -128 -242 l-55 -104 -33 89 c-39 101 -39 108 -20 201 21 99 59 364
53 369 -3 3 -27 -83 -53 -192 l-48 -197 -33 89 c-54 143 -47 134 -98 134 -42
0 -45 2 -46 28 0 15 -6 74 -13 132 -11 101 -12 103 -19 56z"/>
<path d="M17505 13750 c-343 -11 -860 -37 -1125 -55 -113 -8 -223 -15 -245
-16 -63 -3 -16 -7 235 -24 765 -50 1472 -69 2245 -62 705 7 1132 24 1787 69
l183 13 -158 11 c-191 15 -658 41 -972 55 -310 13 -1614 19 -1950 9z"/>
<path d="M25647 13144 c60 -137 66 -141 172 -113 44 12 80 24 78 26 -3 3 -260
172 -284 186 -6 4 9 -40 34 -99z"/>
<path d="M26410 13194 c-19 -14 -77 -50 -127 -81 -51 -30 -93 -58 -93 -62 0
-12 129 -49 150 -44 12 3 31 26 45 54 41 81 74 159 67 159 -4 -1 -23 -12 -42
-26z"/>
<path d="M24230 12460 l0 -360 115 0 115 0 0 145 0 145 45 0 c39 0 50 5 90 45
27 26 67 52 96 62 27 10 49 21 49 25 0 5 -63 8 -140 8 l-140 0 0 60 0 60 160
0 160 0 0 85 0 85 -275 0 -275 0 0 -360z"/>
<path d="M22500 12523 c-162 -1 -673 -7 -1135 -13 l-839 -12 -15 -21 c-8 -12
-31 -38 -52 -58 l-36 -36 421 -6 c1077 -17 1585 -20 1613 -10 15 6 71 21 123
33 52 12 167 46 255 75 l160 53 -100 -1 c-55 -1 -233 -3 -395 -4z"/>
<path d="M22940 12469 c-96 -33 -211 -69 -255 -82 l-80 -22 105 -6 c58 -4 315
-7 571 -8 l466 -1 -11 50 c-7 35 -7 63 1 90 l10 40 -316 -1 -316 -1 -175 -59z"/>
<path d="M14496 12481 c-9 -16 -20 -47 -25 -69 l-9 -41 122 -3 c174 -4 1411 9
2026 21 830 17 949 22 944 35 -2 6 8 18 22 27 25 16 10 17 -257 23 -156 4
-552 13 -879 21 -327 8 -895 15 -1262 15 l-667 0 -15 -29z"/>
<path d="M25528 12476 c18 -21 41 -54 50 -72 21 -44 53 -45 123 -2 44 28 64
33 126 36 67 4 80 1 137 -27 62 -30 67 -31 202 -31 182 0 945 19 1052 26 82 6
82 6 82 34 0 28 0 28 -82 34 -103 7 -791 24 -1323 33 l-400 6 33 -37z"/>
<path d="M12385 12470 c-99 -4 -271 -11 -382 -15 -112 -4 -203 -11 -203 -15 0
-4 71 -10 158 -13 425 -18 761 -28 802 -25 l44 3 -55 38 c-61 42 -32 40 -364
27z"/>
<path d="M22738 11153 c-2 -175 -2 -338 0 -362 l4 -43 217 4 c202 4 219 6 265
28 68 33 121 90 146 158 19 50 21 74 18 183 -3 121 -4 129 -38 194 -67 130
-136 155 -432 155 l-175 0 -5 -317z m379 121 c38 -24 53 -73 53 -170 0 -92
-17 -146 -52 -165 -10 -6 -50 -13 -89 -16 l-69 -6 0 193 0 193 66 -6 c37 -4
78 -14 91 -23z"/>
<path d="M18525 11144 c-1436 -6 -4499 -38 -4753 -50 -122 -6 -123 -6 -137
-34 l-14 -28 152 -6 c84 -3 346 -8 582 -11 237 -3 783 -10 1215 -15 1365 -18
4250 -29 5493 -23 l1198 6 -6 21 c-4 12 -9 47 -12 79 l-5 57 -473 0 c-259 0
-930 2 -1491 3 -560 2 -1347 2 -1749 1z"/>
<path d="M23834 11060 l0 -65 167 3 167 3 -33 49 c-18 27 -35 53 -37 59 -1 5
-61 11 -133 13 l-130 3 -1 -65z"/>
<path d="M26095 11060 l-17 -33 498 7 c525 7 724 14 724 26 0 12 -190 19 -702
26 l-486 7 -17 -33z"/>
<path d="M13433 10828 c-29 -19 -43 -36 -43 -51 0 -12 18 -132 40 -267 67
-408 130 -808 130 -828 0 -16 -10 -21 -57 -27 -84 -10 -214 -50 -291 -89 -129
-65 -214 -142 -289 -260 -34 -54 -36 -53 -48 18 -9 57 -59 150 -108 203 -47
52 -122 103 -149 103 -29 0 -21 -15 18 -33 48 -23 130 -102 161 -155 54 -92
78 -230 52 -299 -47 -123 -64 -402 -33 -533 20 -86 74 -194 127 -255 57 -64
81 -53 30 13 -101 132 -141 323 -108 516 55 321 185 503 425 596 72 27 221 60
274 60 21 0 26 -22 121 -596 l98 -596 92 -101 c50 -56 108 -133 129 -172 21
-38 41 -74 46 -78 4 -5 -5 54 -20 130 -18 85 -25 140 -18 144 5 3 16 18 23 32
13 26 13 27 -15 27 -34 0 -29 -16 -75 220 -31 155 -47 211 -100 345 -52 130
-66 178 -75 255 -22 183 -51 348 -140 790 -90 448 -143 760 -134 783 2 7 -1
40 -8 74 l-13 61 -42 -30z"/>
<path d="M21240 9690 l0 -360 223 0 c228 1 311 11 362 44 31 20 71 90 79 138
14 78 -32 165 -105 197 l-37 17 29 13 c40 17 71 65 77 116 6 59 -3 88 -39 130
-50 57 -96 65 -361 65 l-228 0 0 -360z m399 184 c26 -33 26 -36 2 -65 -16 -20
-30 -24 -95 -27 l-76 -4 0 61 0 61 74 0 c69 0 76 -2 95 -26z m11 -247 c43 -22
40 -95 -5 -115 -14 -7 -59 -12 -100 -12 l-75 0 0 70 0 70 78 0 c42 0 88 -6
102 -13z"/>
<path d="M14333 9764 c-13 -3 -23 -7 -23 -10 0 -12 60 -121 76 -139 19 -20 32
-20 3191 -17 l3172 3 -2 52 c-1 29 1 64 6 80 l7 27 -3017 0 c-1660 0 -3101 2
-3203 4 -102 3 -195 2 -207 0z"/>
<path d="M22325 9730 c8 -16 15 -52 15 -80 l0 -50 322 0 c177 0 319 2 317 4
-2 2 -39 18 -82 36 -43 18 -76 34 -74 36 2 3 48 -11 102 -31 54 -19 100 -34
102 -32 5 5 -76 39 -234 98 l-133 49 -175 0 -176 0 16 -30z"/>
<path d="M22791 9756 c2 -2 56 -24 119 -49 63 -25 147 -59 185 -77 l70 -32
200 5 c285 8 546 52 800 136 l60 20 -719 0 c-396 1 -717 -1 -715 -3z"/>
<path d="M25245 9735 c-158 -34 -475 -112 -521 -129 -35 -13 13 -14 421 -10
815 8 2074 38 2133 50 17 3 22 11 22 34 0 23 -5 31 -22 34 -21 5 -375 16 -968
32 -236 7 -244 6 -230 -11 14 -17 11 -18 -85 -11 -55 4 -154 14 -220 22 -187
22 -397 18 -530 -11z"/>
<path d="M14086 9553 c-4 -27 -9 -59 -12 -73 -4 -22 3 -30 51 -58 325 -194
491 -608 394 -978 -40 -155 -111 -275 -225 -385 -52 -49 -168 -137 -191 -144
-1 0 16 -36 38 -79 21 -43 39 -84 39 -91 0 -30 23 -24 92 22 104 70 219 182
284 278 l57 84 24 -51 c13 -28 44 -80 69 -115 61 -85 84 -139 84 -196 0 -61
24 -60 28 2 4 51 -25 118 -97 225 -29 42 -61 97 -72 123 l-20 47 26 57 c56
125 69 199 69 399 1 163 -2 195 -22 274 -64 238 -195 441 -372 575 -75 56
-205 131 -229 131 -5 0 -12 -21 -15 -47z"/>
<path d="M20060 8836 l0 -134 -47 -7 c-63 -9 -109 -29 -156 -66 -21 -17 -40
-29 -42 -28 -1 2 -15 49 -31 104 -35 122 -42 106 -15 -33 l20 -102 -24 -52
c-88 -193 -25 -436 133 -517 35 -18 39 -25 81 -150 24 -72 45 -130 47 -128 2
2 -9 57 -24 123 -16 65 -28 120 -27 122 1 1 23 -1 48 -4 l47 -7 0 -115 c0 -63
2 -113 4 -111 3 3 10 55 17 117 l12 112 29 0 c15 0 28 -2 28 -5 0 -3 -11 -53
-25 -112 -14 -58 -24 -108 -22 -110 5 -4 49 117 68 186 7 23 18 44 23 46 6 2
24 6 39 9 27 6 27 6 14 -16 -8 -13 -40 -72 -71 -133 -67 -130 -39 -103 66 63
59 93 76 112 135 152 l68 45 5 100 c5 82 11 109 32 150 39 75 130 296 125 302
-3 2 -35 -53 -73 -124 -89 -170 -83 -160 -84 -145 0 8 -23 12 -81 12 -79 0
-81 1 -75 23 3 12 6 32 6 44 0 19 9 23 69 33 69 11 70 12 60 36 -17 45 -31 69
-61 101 l-30 31 11 87 c7 48 10 89 8 91 -2 2 -12 -32 -22 -76 -10 -44 -21 -80
-24 -80 -3 0 -28 7 -55 15 -27 8 -77 15 -111 15 l-62 0 -13 135 c-7 74 -14
135 -16 135 -2 0 -4 -60 -4 -134z m103 -317 c20 -5 44 -21 53 -34 9 -14 25
-25 35 -25 21 0 22 -3 13 -49 l-6 -31 -74 0 -74 0 0 44 c0 24 -3 58 -6 75 -7
35 -1 37 59 20z m-99 -15 c10 -26 7 -364 -4 -364 -25 0 -63 27 -83 59 -19 31
-22 50 -22 131 0 81 3 100 22 131 19 31 51 56 74 58 4 1 10 -6 13 -15z"/>
<path d="M19490 8649 c0 -3 13 -43 29 -90 97 -285 224 -527 386 -734 88 -113
107 -124 42 -25 -98 152 -208 350 -333 605 -68 138 -124 247 -124 244z"/>
<path d="M20623 8253 c-310 -360 -473 -553 -465 -553 16 0 202 182 289 283
127 147 318 407 299 407 -3 0 -58 -62 -123 -137z"/>
<path d="M19375 8350 c88 -176 299 -425 490 -579 135 -109 134 -108 -80 119
-113 119 -250 277 -345 395 -82 103 -86 107 -65 65z"/>
<path d="M20894 8373 l-51 -4 1 -69 1 -68 100 -7 c201 -14 4337 1 5225 19 465
9 909 19 988 22 l142 6 0 28 0 28 -142 6 c-79 3 -523 13 -988 22 -641 13
-1375 18 -3035 19 -1204 1 -2213 0 -2241 -2z"/>
<path d="M17820 8350 c-140 -3 -246 -7 -234 -8 11 -1 101 -23 200 -49 l179
-46 649 -4 649 -5 -6 24 c-4 13 -7 40 -7 61 l0 37 -587 -2 c-324 -1 -703 -5
-843 -8z"/>
<path d="M16830 8344 c-19 -2 -120 -21 -225 -42 l-190 -37 100 -6 c55 -4 366
-7 690 -7 l590 0 -70 19 c-38 10 -137 30 -220 45 -130 23 -182 27 -395 29
-135 2 -261 1 -280 -1z"/>
<path d="M15097 8333 l-147 -4 15 -28 14 -29 258 -7 c400 -12 966 1 1105 25
287 49 292 48 -432 47 -366 -1 -731 -3 -813 -4z"/>
<path d="M19664 7781 c69 -161 72 -162 174 -135 81 21 91 28 61 45 -13 7 -77
47 -142 91 -66 43 -120 78 -123 78 -2 0 12 -35 30 -79z"/>
<path d="M20445 7813 c-22 -15 -86 -55 -141 -89 l-102 -61 74 -23 c100 -32
108 -27 166 99 25 55 46 101 44 101 -1 0 -19 -12 -41 -27z"/>
<path d="M18258 7021 c-2 -176 -2 -338 0 -360 l4 -41 294 0 294 0 0 85 0 85
-190 0 -190 0 0 65 0 65 175 0 175 0 0 75 0 75 -175 0 -175 0 0 50 0 50 185 0
185 0 0 85 0 85 -289 0 -289 0 -4 -319z"/>
<path d="M14175 7206 c-4 -53 -4 -138 -1 -188 13 -175 -22 -494 -80 -722 -37
-148 -69 -239 -124 -352 -42 -87 -59 -111 -125 -172 -136 -127 -256 -190 -449
-235 -76 -17 -125 -21 -291 -21 -180 -1 -208 1 -279 22 -193 56 -363 185 -434
331 -37 75 -37 77 -37 201 0 136 11 182 77 316 72 148 244 248 397 230 121
-14 212 -87 276 -221 138 -288 53 -462 -237 -491 -110 -11 -81 -27 40 -22 132
5 192 28 255 98 52 57 68 107 68 204 0 83 -3 101 -38 208 -44 139 -131 245
-242 296 -80 37 -230 43 -328 13 -147 -44 -254 -142 -333 -305 -70 -144 -84
-206 -84 -356 0 -109 4 -133 26 -192 97 -256 339 -443 649 -503 116 -22 392
-22 524 0 612 102 937 582 885 1305 -5 75 -13 150 -16 167 l-6 31 663 1 c365
0 891 5 1169 11 1213 25 1454 30 1458 35 3 3 -2 5 -12 5 -9 0 -15 4 -12 9 4 5
56 13 116 16 61 4 110 11 110 15 0 4 -170 10 -377 14 -208 4 -637 13 -953 21
-316 8 -937 15 -1380 15 l-806 0 -28 152 c-15 84 -29 154 -31 156 -2 2 -6 -40
-10 -92z"/>
<path d="M22005 6999 c-231 -3 -445 -7 -475 -9 l-55 -2 75 -19 c77 -20 409
-35 920 -41 l205 -3 180 42 180 41 -305 -1 c-168 0 -494 -4 -725 -8z"/>
<path d="M23210 6999 c-202 -30 -396 -71 -416 -90 -11 -11 -69 -31 -135 -48
l-114 -29 940 0 c517 0 960 3 984 6 43 7 42 7 -90 46 -74 22 -201 57 -284 79
l-150 41 -335 2 c-184 1 -364 -2 -400 -7z"/>
<path d="M24270 6954 c102 -30 243 -68 313 -85 125 -28 136 -29 390 -29 429 0
2068 34 2245 46 82 6 82 6 82 34 0 28 0 28 -82 34 -193 13 -1621 40 -2623 50
l-510 5 185 -55z"/>
<path d="M13415 6979 c-236 -5 -472 -11 -524 -15 l-93 -6 43 -25 c24 -13 53
-33 64 -43 19 -17 52 -19 450 -24 237 -4 472 -9 524 -12 l93 -6 -6 43 c-16
106 -12 99 -69 97 -29 0 -245 -5 -482 -9z"/>
<path d="M12040 6937 c-219 -8 -250 -11 -239 -21 2 -2 130 -8 283 -15 l280
-11 38 26 c21 15 38 28 38 30 0 5 -119 3 -400 -9z"/>
<path d="M19935 6914 c-22 -2 -118 -9 -213 -15 -95 -7 -171 -13 -170 -14 3 -3
855 -20 1418 -29 287 -5 292 -5 195 9 -232 34 -446 47 -815 50 -206 2 -393 1
-415 -1z"/>
<path d="M4266 6748 c-19 -29 -38 -66 -42 -83 -4 -16 -14 -40 -21 -52 -10 -15
-12 -33 -8 -54 5 -22 4 -29 -4 -25 -6 4 -11 14 -11 21 0 8 -12 17 -27 20 -16
4 -43 13 -61 21 -44 19 -120 18 -162 -4 -43 -21 -93 -105 -85 -141 7 -30 56
-91 73 -91 7 0 23 -6 35 -14 23 -14 93 -15 159 -1 21 4 54 23 77 44 36 34 41
44 43 87 1 27 3 63 3 79 1 17 9 47 18 67 10 21 17 44 17 51 0 8 7 20 16 28 19
16 44 63 44 84 0 31 -30 14 -64 -37z"/>
<path d="M17070 6293 c0 -145 -1 -153 -20 -153 -49 0 -125 -25 -170 -55 l-50
-33 -21 71 c-39 135 -63 207 -67 202 -3 -2 8 -74 23 -159 l28 -155 -21 -48
c-41 -96 -50 -229 -22 -322 4 -14 11 -35 14 -46 4 -11 -57 106 -134 260 -77
154 -140 273 -140 264 0 -28 87 -272 136 -381 59 -133 149 -291 227 -400 64
-89 193 -238 206 -238 4 0 -3 39 -15 88 -49 197 -54 224 -37 218 8 -3 28 -6
45 -6 l30 0 -4 -140 c-2 -77 0 -140 3 -140 7 0 26 112 35 213 6 63 8 67 31 67
19 0 23 -4 19 -17 -8 -25 -66 -273 -66 -280 0 -37 179 220 276 397 117 213
316 665 284 645 -10 -6 -155 -272 -217 -398 -38 -78 -38 -78 -72 -72 -18 3
-43 10 -56 15 l-23 9 19 83 c10 46 19 88 19 95 0 6 23 16 50 23 58 14 59 21
10 102 l-29 48 19 132 c31 205 22 212 -25 23 -16 -60 -30 -112 -31 -114 -2 -2
-24 6 -49 18 -25 12 -72 24 -104 27 l-58 7 -13 136 c-7 75 -16 143 -21 151 -5
9 -9 -48 -9 -137z m139 -386 c13 -20 33 -37 43 -37 10 0 18 -5 18 -11 0 -26
-44 -188 -60 -219 -16 -32 -64 -70 -74 -59 -2 2 -6 90 -8 196 l-3 191 30 -12
c17 -7 41 -29 54 -49z m-139 -50 c0 -57 3 -145 7 -196 l6 -92 -34 14 c-48 19
-76 66 -84 141 -10 94 8 168 51 205 19 17 39 31 44 31 6 0 10 -44 10 -103z
m-154 -428 c24 -13 34 -27 43 -64 6 -26 27 -87 45 -136 19 -49 33 -89 31 -89
-5 0 -140 212 -182 285 -66 115 -67 119 -16 68 26 -26 62 -55 79 -64z"/>
<path d="M26115 6361 c-136 -48 -231 -164 -324 -396 -61 -152 -71 -212 -77
-455 -6 -217 -14 -260 -47 -260 -6 0 -46 27 -87 60 -86 69 -131 86 -189 70
-50 -13 -104 -74 -122 -138 -20 -67 -15 -185 9 -255 26 -73 152 -257 206 -301
23 -18 73 -49 111 -67 48 -23 91 -54 137 -101 81 -81 92 -116 59 -185 -11 -24
-21 -49 -21 -56 0 -7 20 -47 46 -89 61 -104 65 -135 24 -176 l-32 -32 -126 4
c-125 5 -318 33 -417 60 -27 8 -67 17 -87 20 -20 4 -195 52 -390 107 -430 122
-487 136 -680 169 -385 66 -706 40 -974 -80 -70 -32 -171 -53 -180 -38 -3 4
-10 6 -15 3 -5 -4 -9 -2 -9 4 0 6 -7 8 -15 5 -8 -4 -15 -1 -15 5 0 11 -4 10
-55 -16 -37 -19 -83 -25 -104 -13 -11 6 -38 37 -60 68 -36 54 -39 64 -40 128
-1 109 0 106 -35 98 -32 -7 -55 -29 -56 -53 0 -7 16 -36 36 -63 l35 -50 -17
-48 c-9 -26 -14 -55 -11 -63 3 -9 25 -26 49 -38 51 -25 95 -70 104 -105 11
-45 -2 -112 -30 -148 l-26 -34 78 -7 c260 -22 390 -74 477 -193 68 -93 84
-174 106 -534 14 -226 4 -422 -27 -510 -22 -67 -96 -145 -167 -179 l-59 -27
49 -22 c109 -48 158 -101 189 -206 16 -53 18 -106 18 -504 0 -471 -20 -852
-50 -966 -39 -152 -133 -242 -284 -273 -30 -6 -154 -20 -275 -31 -627 -56
-1274 -78 -1858 -61 -585 17 -652 27 -745 107 -67 57 -90 107 -123 266 -16 78
-31 143 -32 144 -1 1 -45 19 -97 39 -52 21 -234 108 -405 194 -294 149 -426
209 -540 245 -91 29 -219 55 -300 61 -110 9 -153 21 -205 58 -25 18 -47 30
-50 27 -3 -2 -17 -21 -32 -41 -32 -44 -70 -73 -162 -124 -99 -54 -197 -153
-346 -349 -233 -309 -370 -426 -609 -520 -280 -111 -561 -120 -834 -26 -188
64 -309 134 -346 201 -21 37 -23 50 -18 113 7 74 27 142 72 239 l27 58 -29 36
c-15 19 -41 54 -57 77 -30 42 -75 86 -88 86 -11 0 -28 -36 -28 -58 0 -52 -33
-126 -75 -168 -40 -40 -49 -44 -92 -44 -38 0 -61 8 -113 40 -67 41 -126 53
-136 26 -3 -7 11 -42 30 -77 19 -35 48 -103 65 -151 39 -112 72 -178 131 -258
61 -83 70 -102 70 -140 0 -78 -73 -152 -225 -228 -139 -70 -290 -102 -452 -97
-141 5 -240 34 -403 118 -261 135 -284 146 -332 157 -115 24 -179 9 -321 -74
-157 -93 -206 -109 -317 -110 -128 -1 -197 21 -515 165 -11 4 -53 17 -93 28
-130 35 -227 18 -415 -75 -131 -65 -197 -84 -287 -84 -95 0 -152 20 -355 125
-265 137 -451 204 -680 244 -87 16 -144 19 -275 16 -218 -5 -339 -32 -610
-140 -112 -44 -141 -51 -375 -95 -102 -20 -246 -65 -540 -171 -114 -41 -125
-43 -230 -43 -97 0 -117 3 -167 26 -77 36 -123 69 -253 183 -72 63 -136 109
-184 133 -72 36 -80 37 -197 41 -140 4 -198 -6 -457 -75 -231 -62 -351 -84
-460 -84 -187 0 -310 54 -450 198 -243 251 -282 287 -359 330 -191 108 -377
136 -558 83 -83 -23 -137 -51 -327 -167 -186 -114 -223 -133 -338 -174 -116
-41 -248 -51 -344 -26 -136 35 -221 107 -352 297 -92 134 -148 189 -229 221
-83 33 -264 31 -470 -5 -202 -36 -351 -44 -448 -23 -206 44 -346 178 -431 413
-16 43 -32 93 -36 112 -7 33 -7 34 24 29 17 -2 31 -4 31 -3 0 1 -4 15 -10 31
-5 16 -11 43 -14 59 -7 42 -74 294 -88 330 -45 122 -126 268 -188 339 -66 76
-184 186 -199 186 -6 0 -14 6 -18 13 -4 7 -26 24 -48 37 -22 13 -42 26 -45 29
-10 11 -111 66 -140 76 -3 1 -18 7 -35 14 -42 18 -179 61 -182 57 -2 -2 25
-22 59 -45 35 -23 52 -39 38 -35 -214 63 -200 60 -390 63 -208 3 -226 5 -261
31 -36 26 -59 17 -94 -36 -67 -100 -296 -204 -450 -204 -72 0 -171 26 -232 61
-94 54 -121 94 -259 385 -63 132 -146 190 -307 215 -90 14 -134 34 -152 70
-27 50 -13 99 46 167 43 49 41 53 -46 68 -50 8 -69 18 -122 61 -27 21 -40 39
-36 48 3 8 0 15 -7 15 -7 0 -1 10 14 23 24 21 26 26 15 49 -8 20 -8 37 1 74
38 155 18 255 -65 336 -42 40 -105 35 -124 -9 -16 -41 -9 -68 56 -213 13 -30
28 -62 33 -71 5 -9 12 -32 15 -51 5 -28 2 -40 -20 -66 -22 -26 -24 -33 -12
-38 16 -6 33 -35 19 -32 -8 1 -40 -10 -65 -23 -13 -7 -22 -5 -33 6 -26 25 -39
17 -42 -25 -2 -31 7 -60 38 -123 31 -63 41 -95 42 -133 0 -60 -23 -110 -57
-126 l-25 -11 0 -1649 0 -1648 13650 0 13650 0 0 2955 c0 1625 -2 2955 -6
2955 -3 0 -37 -21 -77 -47 -186 -121 -319 -317 -381 -563 -14 -58 -40 -215
-56 -349 -50 -403 -84 -520 -195 -676 -46 -65 -62 -80 -147 -143 -86 -64 -182
-104 -260 -110 -66 -5 -68 -4 -101 29 -32 32 -34 38 -36 109 -1 41 5 101 13
132 15 54 27 82 91 206 33 63 27 74 -48 96 -80 23 -156 112 -152 176 3 34 57
260 75 310 4 14 25 88 45 165 75 284 119 416 211 625 68 157 94 240 94 311 0
83 -19 122 -78 160 -37 24 -56 29 -101 28 -31 -1 -65 -4 -76 -8z m-322 -1398
c19 -27 49 -75 66 -108 18 -33 37 -65 43 -72 15 -19 -1 -71 -29 -93 -84 -66
-168 42 -164 212 1 68 15 108 38 108 6 0 27 -21 46 -47z m-433 -1603 c73 -37
99 -61 148 -134 25 -38 71 -95 101 -126 73 -73 372 -311 483 -384 74 -48 375
-206 394 -206 20 0 69 -50 86 -87 27 -62 17 -105 -49 -210 -65 -105 -124 -169
-171 -184 -44 -15 -115 -5 -158 22 -40 24 -33 39 -74 -151 -28 -129 -82 -357
-96 -401 -4 -13 5 -18 43 -24 219 -32 323 -237 196 -385 -80 -94 -152 -114
-486 -136 -200 -13 -334 -15 -647 -10 -460 7 -660 23 -812 66 -67 19 -131 70
-160 129 -35 68 -35 113 -3 178 32 63 82 99 171 124 37 10 69 20 71 23 2 2
-21 93 -50 202 -30 110 -63 236 -73 281 l-18 81 -51 -5 c-74 -7 -126 24 -192
112 -113 150 -138 237 -91 313 18 29 46 46 167 104 80 38 147 71 150 73 11 11
-24 65 -49 75 -36 15 -59 41 -103 117 -48 83 -60 128 -46 178 22 80 148 162
355 231 121 40 163 40 224 0 41 -27 109 -143 117 -198 3 -21 8 -38 10 -38 3 0
38 28 79 62 58 49 78 73 95 115 43 107 105 167 212 205 69 25 165 20 227 -12z"/>
<path d="M25205 3233 c-16 -3 -34 -9 -39 -14 -6 -5 -18 -9 -27 -9 -9 0 -19 -7
-23 -15 -3 -8 -12 -15 -20 -15 -20 0 -37 -33 -50 -96 -10 -48 -18 -57 -113
-143 -56 -50 -107 -91 -113 -91 -5 0 -10 -4 -10 -8 0 -5 -22 -23 -49 -40 -26
-18 -62 -46 -79 -63 -30 -31 -52 -32 -52 -3 0 8 -11 34 -23 57 -13 23 -27 55
-31 71 -4 16 -16 41 -27 55 l-20 26 20 17 c12 9 26 18 33 20 8 3 6 13 -5 34
-9 16 -21 41 -27 57 -12 35 -44 35 -125 1 -33 -14 -69 -28 -80 -31 -18 -5
-155 -82 -155 -87 0 -1 9 -20 19 -42 26 -54 54 -78 86 -72 21 4 26 1 32 -21 3
-14 9 -31 14 -36 4 -6 15 -33 24 -60 18 -55 31 -87 52 -127 11 -22 11 -31 1
-48 -7 -11 -19 -20 -26 -20 -8 0 -57 -24 -110 -54 -54 -29 -125 -66 -159 -82
-35 -16 -63 -33 -63 -38 0 -5 18 -35 39 -67 22 -33 43 -68 46 -79 8 -26 47
-35 77 -18 68 38 147 94 148 104 0 11 62 64 74 64 6 0 178 128 186 139 3 3 24
19 48 35 24 16 46 36 51 43 4 8 19 22 33 31 14 9 54 41 89 70 35 29 79 65 98
80 47 36 188 179 194 194 3 10 8 10 18 2 8 -5 43 -11 79 -13 47 -1 68 -6 75
-18 19 -30 150 -155 190 -181 22 -15 45 -31 52 -37 23 -20 79 -65 153 -124 41
-33 84 -69 96 -81 12 -11 25 -20 29 -20 4 0 29 -19 57 -41 68 -57 106 -84 158
-113 25 -13 54 -33 64 -45 11 -12 25 -21 31 -21 7 0 18 -7 25 -15 14 -17 109
-65 128 -65 15 0 112 131 112 152 0 9 5 20 10 23 9 6 -10 18 -95 62 -11 6 -38
19 -59 29 -83 40 -133 67 -183 100 -28 19 -54 34 -57 34 -9 0 -154 100 -166
116 -7 8 -19 14 -27 14 -7 0 -16 6 -19 14 -3 8 -24 27 -47 43 -23 15 -62 47
-87 71 -25 24 -69 60 -97 79 -29 19 -64 49 -79 66 -14 18 -45 52 -68 76 -22
25 -55 67 -73 95 -30 46 -45 56 -113 78 -8 3 -28 3 -45 1z"/>
<path d="M24940 2485 c-21 -25 -10 -325 15 -405 12 -40 76 -47 320 -35 207 10
209 11 225 53 16 43 22 288 8 344 -8 36 -9 36 -71 42 -34 3 -157 7 -274 10
-174 4 -214 2 -223 -9z m274 -115 c6 -58 6 -84 -2 -89 -6 -4 -64 -7 -128 -6
l-116 0 -5 93 -5 93 124 -4 123 -4 9 -83z m256 73 c3 -2 5 -37 5 -76 l0 -72
-109 -8 c-59 -5 -109 -7 -111 -5 -1 2 -5 42 -8 89 l-6 85 112 -4 c62 -2 114
-6 117 -9z m8 -242 c2 -30 -2 -67 -9 -83 -10 -24 -17 -28 -53 -28 -22 0 -71
-2 -108 -4 l-66 -3 3 75 c4 84 11 93 67 90 21 -1 41 1 45 5 4 4 32 6 62 5 l56
-4 3 -53z m-264 -4 c0 -23 -2 -58 -3 -78 l-1 -36 -77 -5 c-73 -5 -137 4 -147
20 -2 4 -7 36 -11 72 l-7 65 124 2 124 3 -2 -43z"/>
<path d="M25052 1912 l-83 -3 1 -177 c0 -97 -1 -248 -1 -335 l-1 -159 -46 5
c-87 8 -217 28 -262 41 -34 9 -46 17 -48 34 -2 12 -5 22 -7 22 -45 0 -286 -59
-302 -74 -15 -14 -3 -76 17 -87 40 -20 218 -59 260 -57 35 1 223 -13 231 -18
13 -8 654 -7 844 1 178 7 205 9 295 19 30 3 69 7 85 9 42 4 125 63 125 88 0
36 -35 73 -81 86 -58 16 -200 32 -232 26 -13 -3 -29 -15 -35 -28 -13 -28 -63
-45 -137 -46 -27 0 -77 -6 -110 -13 -77 -16 -92 -12 -97 27 -1 18 -3 168 -3
334 l0 303 -65 0 c-36 0 -110 2 -165 3 -55 1 -137 1 -183 -1z"/>
<path d="M17608 5668 c-228 -266 -459 -538 -478 -563 -8 -11 5 -4 30 14 76 58
311 300 399 411 94 118 236 328 229 336 -3 3 -84 -86 -180 -198z"/>
<path d="M16350 5856 c0 -16 65 -133 116 -208 79 -116 165 -217 280 -328 89
-86 253 -220 269 -220 4 0 -61 71 -143 158 -180 189 -292 316 -423 480 -55 68
-99 121 -99 118z"/>
<path d="M19353 5814 c-21 -17 -60 -31 -122 -44 -100 -20 -280 -77 -296 -92
-12 -12 1001 -3 1079 9 l50 8 -90 42 c-165 77 -286 103 -467 103 -115 -1 -124
-2 -154 -26z"/>
<path d="M19938 5797 c46 -19 106 -49 133 -66 35 -22 63 -31 92 -31 45 0 383
36 432 47 27 5 28 6 9 13 -37 14 -416 52 -639 65 l-110 6 83 -34z"/>
<path d="M4111 5755 c-44 -24 -89 -75 -102 -113 -6 -20 -18 -46 -25 -57 -8
-11 -14 -33 -14 -50 0 -17 -9 -49 -21 -70 -12 -22 -22 -61 -23 -87 0 -26 -5
-50 -9 -54 -4 -4 -7 -24 -7 -44 0 -21 -7 -43 -15 -50 -21 -17 -39 -83 -31
-114 4 -15 21 -43 39 -64 19 -20 39 -51 46 -68 14 -37 82 -75 133 -75 199 -1
270 16 338 82 22 21 59 50 82 65 63 39 108 84 129 129 10 22 19 33 19 24 0
-40 104 -93 163 -83 71 12 84 23 112 89 40 93 21 127 -88 164 -64 21 -67 21
-104 4 -27 -13 -45 -31 -62 -65 l-23 -48 -22 32 c-25 37 -80 77 -116 85 -20 4
-32 21 -62 91 -21 48 -41 102 -45 121 -7 41 -102 136 -148 150 -56 17 -119 20
-144 6z"/>
<path d="M16640 5304 c0 -14 85 -201 98 -216 8 -10 27 -18 41 -18 35 0 161 33
161 42 0 4 -10 13 -22 19 -13 7 -80 49 -150 95 -71 46 -128 81 -128 78z"/>
<path d="M26279 5285 c-65 -35 -84 -164 -50 -342 13 -69 21 -146 20 -203 -1
-50 1 -93 3 -96 11 -10 76 22 106 53 75 75 130 257 118 391 -13 162 -101 249
-197 197z"/>
<path d="M17408 5227 c-53 -34 -120 -76 -149 -93 l-52 -31 63 -22 c66 -22 106
-26 127 -13 10 6 117 223 110 222 -1 0 -45 -29 -99 -63z"/>
<path d="M3564 5213 c-39 -19 -74 -88 -74 -144 0 -33 6 -47 34 -75 32 -32 38
-34 100 -34 64 0 69 2 109 39 39 37 41 42 39 91 -3 74 -22 105 -79 124 -55 19
-87 19 -129 -1z m124 -69 c2 -1 7 -18 12 -38 10 -47 -19 -76 -76 -76 -46 0
-64 14 -64 50 0 32 11 48 41 64 20 11 75 11 87 0z"/>
<path d="M686 5184 c-73 -26 -135 -83 -189 -174 -85 -141 -108 -301 -66 -463
21 -84 27 -99 86 -227 103 -222 123 -388 62 -514 -13 -27 -16 -43 -9 -50 5 -5
10 -18 10 -29 0 -26 23 -47 41 -36 8 5 24 9 35 9 12 0 26 6 32 13 6 7 34 19
62 27 42 11 62 25 107 75 79 86 183 248 199 310 37 140 56 314 49 430 -19 304
-47 426 -120 526 -35 47 -99 96 -138 106 -47 12 -124 10 -161 -3z"/>
<path d="M22455 4800 c-11 -5 -15 -9 -10 -9 6 -1 4 -5 -3 -10 -10 -6 -5 -14
22 -31 20 -12 48 -25 63 -29 29 -8 39 -21 47 -63 4 -15 13 -33 21 -41 8 -8 11
-17 8 -21 -4 -3 -1 -6 6 -6 7 0 9 -4 6 -10 -4 -6 2 -7 17 -1 15 5 27 22 35 49
12 42 7 86 -8 76 -5 -3 -9 0 -9 5 0 14 -36 14 -61 1 -18 -10 -25 -3 -20 23 1
5 -3 6 -8 2 -6 -3 -18 11 -28 32 -19 40 -41 49 -78 33z"/>
<path d="M10002 4740 c-51 -12 -144 -88 -170 -140 -12 -25 -26 -45 -30 -44 -4
0 -29 11 -56 23 -44 21 -60 23 -155 19 -125 -5 -191 -30 -265 -98 l-46 -42
-47 23 c-96 46 -213 34 -376 -38 -55 -25 -61 -25 -135 -15 -154 22 -377 -24
-494 -102 -83 -55 -225 -194 -275 -269 -52 -77 -95 -209 -74 -230 20 -20 38 3
51 63 23 108 92 204 233 325 119 101 200 139 342 159 118 17 166 19 203 10 21
-6 20 -8 -21 -44 -136 -120 -278 -380 -207 -380 14 0 22 11 30 43 7 23 22 60
35 82 31 54 143 195 174 220 65 52 156 98 256 131 120 39 147 40 230 4 l46
-20 -20 -29 c-32 -44 -51 -108 -54 -176 -2 -54 0 -60 18 -60 17 0 21 9 28 65
21 177 168 317 351 335 87 8 132 -3 200 -45 27 -17 54 -29 61 -26 7 2 15 19
18 36 13 63 39 99 99 140 44 29 70 40 97 40 44 -1 106 -22 132 -46 38 -34 99
-139 119 -203 38 -121 21 -186 -77 -297 -64 -72 -120 -112 -202 -144 -79 -31
-219 -57 -348 -65 l-111 -7 -7 -37 c-18 -98 -111 -201 -244 -270 -135 -70
-249 -91 -355 -67 -95 22 -116 21 -116 -6 0 -44 -47 -123 -100 -171 -123 -111
-272 -149 -420 -107 -133 37 -125 38 -140 -15 -28 -99 -106 -168 -235 -207
-63 -19 -77 -20 -147 -10 -131 19 -278 94 -278 142 0 19 25 43 53 53 22 8 19
40 -5 45 -9 2 -34 -13 -56 -32 -46 -42 -84 -147 -86 -236 -1 -49 1 -55 19 -55
15 0 21 7 22 30 2 17 8 54 14 83 l11 52 31 -26 c40 -33 125 -71 202 -89 176
-42 361 13 450 135 19 26 35 50 35 53 0 3 4 17 9 30 10 25 10 25 52 11 63 -22
167 -32 234 -23 142 19 323 148 361 257 17 49 21 53 44 47 14 -3 59 -8 100
-11 140 -11 273 33 418 135 83 59 135 123 158 197 l17 51 111 7 c146 8 266 36
369 85 72 34 97 53 161 122 104 112 119 146 114 257 -3 80 -7 96 -45 173 -23
46 -59 102 -80 123 -60 62 -156 93 -231 76z"/>
<path d="M25254 4666 c-20 -9 -35 -26 -42 -46 -32 -91 99 -212 281 -256 75
-19 117 -10 117 24 0 22 -91 183 -120 212 -11 11 -20 24 -20 30 0 5 -7 7 -15
4 -8 -4 -15 -2 -15 4 0 29 -138 49 -186 28z"/>
<path d="M7794 4519 c-65 -19 -91 -114 -45 -163 49 -52 124 -54 166 -4 36 43
34 89 -7 133 -37 39 -68 48 -114 34z"/>
<path d="M21900 4500 c-8 -5 -18 -6 -24 -3 -5 3 -6 1 -2 -6 4 -7 -2 -15 -16
-20 -13 -6 -18 -10 -11 -10 8 -1 9 -10 3 -29 -6 -22 -4 -31 9 -39 19 -12 103
-8 130 6 10 6 21 7 25 4 3 -3 6 0 6 7 0 7 3 11 6 7 9 -8 44 25 44 43 0 8 -10
22 -22 29 -27 17 -127 24 -148 11z"/>
<path d="M1697 4431 c-3 -16 -13 -31 -22 -35 -9 -3 -13 -2 -10 4 3 6 2 10 -3
10 -6 0 -12 -7 -15 -15 -8 -19 34 -52 76 -60 62 -13 69 -17 88 -62 11 -27 23
-42 30 -37 7 4 7 -2 -1 -17 -13 -24 -13 -24 8 -5 21 18 22 18 57 -13 20 -17
32 -31 27 -31 -5 0 -19 11 -32 25 -13 14 -27 25 -32 25 -5 0 7 -14 27 -32 27
-23 33 -33 23 -39 -10 -7 -9 -9 5 -9 9 0 17 5 17 10 0 6 15 10 33 10 18 0 39
6 46 13 11 10 13 9 8 -5 -8 -22 -1 -23 19 -4 8 8 10 17 6 20 -10 6 -9 67 1 83
4 6 1 17 -6 27 -10 13 -18 14 -45 7 -29 -9 -33 -8 -28 6 6 14 4 14 -11 2 -11
-9 -14 -10 -9 -1 5 8 0 12 -16 12 -18 0 -20 2 -8 10 13 8 13 10 1 10 -8 0 -29
15 -46 34 -23 26 -42 36 -78 41 -26 4 -58 16 -71 26 -31 25 -32 24 -39 -10z"/>
<path d="M1594 4398 c-9 -59 -8 -262 2 -350 l6 -58 -39 13 c-108 38 -194 -75
-144 -189 12 -25 21 -49 21 -51 0 -7 -62 4 -97 18 -27 11 -40 10 -90 -6 -71
-23 -83 -32 -83 -58 0 -67 200 -292 320 -359 133 -75 202 -133 234 -197 23
-45 58 -147 70 -204 4 -16 12 -27 19 -24 15 5 22 47 7 47 -21 0 62 139 111
185 48 45 51 46 74 31 28 -18 61 -21 70 -5 4 6 13 8 20 5 7 -2 16 -1 21 3 5 5
32 14 59 21 28 6 74 23 103 36 29 13 56 24 61 24 5 0 23 13 42 29 18 16 37 27
41 25 4 -3 8 -1 8 4 0 5 12 17 26 27 25 16 28 16 75 -5 39 -16 66 -20 127 -18
75 3 77 4 75 28 -2 34 -28 112 -63 187 -24 51 -34 62 -60 68 -26 6 -37 1 -81
-39 l-50 -45 -25 21 c-15 14 -20 24 -13 28 6 4 1 10 -13 14 -14 5 -18 9 -10
13 6 2 10 8 8 12 -3 4 20 7 51 6 47 -1 52 1 32 9 -13 6 -30 17 -38 26 -11 13
-22 14 -60 6 -69 -14 -113 -2 -158 44 l-39 39 -42 -19 c-65 -29 -85 -29 -100
3 -15 31 -23 32 -105 15 -56 -12 -60 -11 -106 15 -27 14 -51 24 -54 21 -6 -7
-149 -13 -160 -7 -4 2 -4 9 0 16 11 18 3 104 -18 207 -15 74 -19 132 -18 263
0 93 -1 171 -4 173 -3 3 -9 -19 -13 -48z"/>
<path d="M5685 4361 c-84 -38 -155 -87 -144 -98 7 -7 17 -9 25 -6 17 6 129
-61 149 -90 8 -12 15 -33 15 -47 0 -14 5 -31 11 -37 7 -7 6 -28 -5 -69 -23
-90 -55 -110 -220 -138 l-68 -12 73 -22 c245 -72 384 -100 432 -88 36 9 43 41
29 147 -20 145 -107 378 -166 442 -39 43 -69 47 -131 18z"/>
<path d="M6755 4197 c-29 -29 -35 -42 -35 -76 0 -75 45 -131 105 -131 76 0
148 95 125 164 -16 50 -43 69 -105 74 -52 4 -56 3 -90 -31z"/>
<path d="M15438 4111 c-33 -12 -94 -79 -121 -135 -80 -162 -52 -280 105 -438
145 -147 183 -210 187 -308 3 -73 -26 -138 -100 -231 -71 -88 -93 -139 -86
-202 12 -96 45 -142 210 -293 100 -90 129 -125 110 -131 -6 -2 4 -34 23 -71
27 -53 35 -79 35 -127 1 -86 -25 -137 -120 -229 -99 -97 -126 -147 -118 -215
9 -72 38 -121 113 -189 51 -46 79 -64 116 -72 26 -7 51 -16 54 -21 7 -13 24
-11 24 2 0 6 12 20 26 31 23 19 25 25 19 72 -11 93 44 217 155 346 50 58 68
87 76 123 23 98 6 188 -53 289 -21 35 -40 65 -43 68 -3 3 -23 26 -44 53 -23
27 -47 47 -58 47 -42 0 -181 128 -215 199 -52 104 -33 208 58 328 66 87 89
143 89 209 -1 120 -60 223 -236 416 -49 53 -110 152 -135 217 -15 39 -23 87
-27 158 -5 103 -10 116 -44 104z"/>
<path d="M3104 3675 c-5 -16 -9 -94 -9 -172 1 -124 3 -144 19 -162 32 -36 66
-26 183 50 155 103 203 145 203 179 0 42 -20 53 -68 36 -22 -8 -42 -12 -45
-10 -2 3 -24 0 -48 -5 -47 -10 -134 5 -147 26 -4 6 -16 13 -28 17 -11 3 -28
21 -36 39 l-16 32 -8 -30z"/>
<path d="M20709 3597 c-31 -16 -54 -39 -76 -76 -39 -65 -53 -127 -53 -234 0
-195 72 -315 193 -324 149 -12 239 139 224 377 -3 51 -13 107 -26 141 -47 123
-156 171 -262 116z m147 -26 c68 -42 105 -197 86 -362 -18 -146 -70 -219 -157
-219 -116 0 -184 197 -144 415 28 151 121 223 215 166z"/>
<path d="M21249 3597 c-31 -16 -54 -39 -76 -76 -39 -65 -53 -127 -53 -234 0
-195 72 -315 193 -324 149 -12 239 139 224 377 -3 51 -13 107 -26 141 -47 123
-156 171 -262 116z m147 -26 c68 -42 105 -197 86 -362 -18 -146 -70 -219 -157
-219 -116 0 -184 197 -144 415 28 151 121 223 215 166z"/>
<path d="M22150 3611 c-38 -12 -90 -40 -90 -50 0 -18 14 -18 53 0 57 25 142
25 185 -1 69 -42 80 -150 25 -252 -17 -33 -77 -102 -160 -185 -73 -72 -133
-137 -133 -142 0 -8 66 -11 200 -11 193 0 200 1 200 20 0 19 -7 20 -155 20
-103 0 -155 4 -155 11 0 6 48 59 108 118 136 138 175 201 180 290 2 54 -1 73
-20 105 -41 71 -147 104 -238 77z"/>
<path d="M22689 3597 c-31 -16 -54 -39 -76 -76 -39 -65 -53 -127 -53 -234 0
-195 72 -315 193 -324 149 -12 239 139 224 377 -3 51 -13 107 -26 141 -47 123
-156 171 -262 116z m147 -26 c68 -42 105 -197 86 -362 -18 -146 -70 -219 -157
-219 -116 0 -184 197 -144 415 28 151 121 223 215 166z"/>
<path d="M14505 3280 c-30 -12 -90 -79 -115 -127 -44 -85 -47 -181 -9 -263 14
-31 32 -62 40 -70 8 -8 34 -42 59 -75 25 -33 48 -62 51 -65 17 -13 51 -98 58
-142 11 -69 -1 -124 -54 -232 -66 -138 -61 -207 24 -284 37 -35 140 -92 164
-92 22 0 41 -26 26 -35 -7 -5 17 -21 58 -41 112 -53 174 -129 194 -239 9 -50
7 -63 -21 -144 l-30 -88 21 -54 c34 -88 41 -99 75 -120 64 -39 204 -50 204
-16 0 7 -10 33 -22 58 -26 52 -29 124 -6 142 9 6 19 34 23 62 4 27 18 71 31
97 34 67 33 155 -2 226 -50 100 -203 204 -294 200 -52 -2 -157 45 -197 88 -72
78 -81 173 -26 280 42 81 62 154 57 206 -6 49 -53 151 -91 194 -40 46 -113
161 -141 223 -22 48 -27 75 -31 185 -4 73 -10 131 -16 132 -5 1 -19 -1 -30 -6z"/>
<path d="M16816 2884 c-3 -9 -6 -35 -6 -59 0 -24 -4 -46 -9 -49 -5 -3 -12 -27
-16 -53 -8 -53 -42 -132 -90 -208 -99 -157 -108 -230 -44 -363 44 -92 50 -119
38 -164 -14 -55 -73 -109 -165 -153 -44 -21 -80 -42 -82 -46 -2 -5 -9 -9 -15
-9 -26 0 -116 -110 -130 -157 l-14 -48 31 -31 c49 -49 80 -165 73 -270 -7
-100 2 -114 63 -95 49 15 90 62 90 104 -1 18 -14 66 -30 107 -44 112 -41 145
25 219 69 78 116 118 172 146 203 103 266 201 206 320 -11 22 -31 60 -44 85
-15 29 -24 68 -27 111 -4 58 -1 72 28 130 18 35 45 82 61 104 37 52 67 137 64
183 -1 21 -3 45 -4 55 -1 23 -132 157 -153 157 -9 0 -19 -7 -22 -16z"/>
<path d="M20583 2870 c-45 -11 -82 -43 -121 -108 -41 -68 -62 -157 -62 -269 0
-95 9 -126 53 -172 52 -54 137 -80 151 -46 9 25 -4 43 -38 55 -39 12 -80 53
-97 95 -15 38 -12 159 4 205 7 19 25 54 40 77 15 24 27 47 27 52 0 23 57 45
117 46 68 0 78 5 69 33 -12 36 -70 50 -143 32z"/>
<path d="M21545 2816 c-28 -13 -63 -38 -78 -55 -35 -38 -75 -112 -81 -149 -26
-157 -27 -178 -11 -238 18 -69 36 -96 90 -134 52 -36 77 -43 99 -27 21 15 14
57 -8 57 -7 0 -31 13 -54 30 -44 31 -59 68 -68 158 -2 25 -6 47 -8 49 -10 10
18 91 44 130 17 24 30 50 30 58 0 16 78 65 104 65 9 0 25 -5 35 -12 10 -6 26
-8 35 -5 24 9 20 52 -6 69 -43 28 -71 28 -123 4z"/>
<path d="M22562 2770 c-48 -7 -70 -29 -128 -126 -40 -67 -55 -136 -55 -266 0
-50 5 -87 15 -106 48 -92 168 -153 190 -96 9 25 -4 41 -43 53 -46 13 -91 72
-91 118 0 18 -4 42 -9 55 -16 43 6 137 49 202 70 107 68 106 106 106 19 0 44
-5 55 -11 43 -23 68 37 27 65 -24 17 -45 18 -116 6z"/>
<path d="M18600 2399 c-58 -47 -187 -56 -263 -17 -23 11 -44 24 -47 27 -11 16
-54 5 -82 -21 -48 -45 -89 -51 -163 -24 l-63 23 -39 -39 c-47 -47 -98 -57
-157 -33 -31 13 -41 14 -54 3 -13 -11 -15 -11 -7 2 4 8 -6 0 -24 -19 -17 -19
-31 -29 -31 -22 0 10 -3 11 -13 2 -8 -6 -17 -9 -20 -6 -4 3 -5 2 -2 -1 2 -4
-1 -16 -7 -28 -39 -72 31 -178 192 -292 93 -64 112 -72 198 -79 170 -14 222
-42 299 -158 26 -40 52 -75 57 -79 13 -8 29 19 51 84 9 26 37 70 62 98 42 47
99 80 299 175 92 44 155 83 187 119 50 55 81 120 78 165 -2 20 -3 44 -2 53 0
10 -5 21 -11 24 -7 4 -8 2 -4 -4 4 -7 2 -12 -3 -12 -6 0 -11 5 -11 11 0 5 -8
9 -17 8 -10 -2 -29 3 -43 11 -14 8 -28 13 -32 12 -5 -1 -8 6 -8 16 0 13 -2 14
-9 3 -6 -9 -11 -10 -15 -2 -7 11 -43 -4 -57 -23 -9 -12 -103 -9 -107 4 -2 5
-9 10 -15 10 -6 0 -18 7 -27 15 -29 26 -54 24 -90 -6z"/>
<path d="M22155 2096 c-96 -30 -172 -91 -211 -166 -27 -54 -31 -167 -7 -221
28 -63 68 -106 130 -141 70 -39 70 -59 1 -94 -130 -65 -189 -148 -196 -274 -6
-100 19 -161 94 -229 73 -67 142 -92 270 -99 148 -7 248 25 333 108 63 61 94
137 94 225 -1 125 -65 219 -191 279 -40 19 -62 36 -62 46 0 10 25 33 59 54
104 64 150 139 151 244 0 132 -74 226 -210 266 -64 19 -198 20 -255 2z m223
-72 c84 -35 132 -110 132 -209 0 -102 -51 -180 -151 -230 -59 -30 -72 -31
-141 -4 -78 30 -142 80 -167 131 -27 57 -28 147 -2 204 21 46 81 100 126 113
50 15 162 12 203 -5z m-76 -553 c77 -26 113 -46 159 -88 48 -43 65 -74 80
-142 33 -154 -75 -287 -241 -299 -184 -13 -310 92 -310 257 0 117 66 212 184
267 62 29 59 29 128 5z"/>
</g>
</svg>
