<?xml version="1.0" encoding="UTF-8"?>
<svg id="Layer_2" data-name="Layer 2" xmlns="http://www.w3.org/2000/svg" viewBox="0 0 269.49 251.52">
  <g id="Layer_2-2" data-name="Layer 2">
    <g>
      <path d="M269.49,120.79V251.52H0V0c43.26,0,86.52,0,129.78,0-.19,.59-.5,1.17-.54,1.77-.16,2.01-.4,4.05-.26,6.05,.09,1.3,.54,2.7,1.22,3.83,2.85,4.76,7.64,5.79,12.66,6.3-.92,1.16-2.03,2.2-1.92,3.91,.02,.35-.55,.7-.76,1.1-1.13,2.1-2.23,4.22-3.34,6.34-.02,.04-.02,.11,0,.16,.67,1.76-.47,2.94-1.36,4.32-2.79-3.25-6.91-3-10.46-4.21-.09-.03-.22,0-.31,.04-2.13,.83-4.35,1.47-6.35,2.55-2.86,1.53-3.39,4.32-3.24,7.3-3.67,.75-7.44,1.15-10.7,3.28-.33,.22-.91,.05-1.38,.04-.47,0-1-.2-1.41-.04-3.55,1.37-7.09,2.77-10.6,4.21-2.08,.86-4.11,1.82-6.16,2.73-.32-.73-.59-1.48-.98-2.17-.45-.79-1.02-1.51-1.54-2.26-.43-.44-.85-.89-1.28-1.33-.75-1.01-1.51-2.03-2.26-3.04-.02-.06-.07-.1-.13-.13-.15-.12-.3-.25-.45-.37-1.61-.95-3.22-1.9-4.83-2.85-3.28-1.49-6.56-2.98-9.85-4.46-.38-.17-.8-.25-1.22-.34-1.34-.27-2.74-.39-4.03-.82-1.77-.58-3.44-1.18-5.4-.76-1.26,.27-2.64-.05-3.97-.15-2.9-.22-5.81-.66-8.7-.64-1.58,.02-3.12,1.02-4.78,.15-.2-.1-.59,.14-.89,.25-2.25,.84-4.5,1.71-6.76,2.54-.34,.13-.74,.1-1.09,.18-.4,.1-.84,.16-1.17,.38-4.74,3.11-8.95,6.84-12.57,11.19-1.52,1.82-2.84,3.85-4.02,5.91-.76,1.32-1.09,2.88-1.62,4.33-.67,.78-1.59,1.45-1.96,2.35-.68,1.64-1.03,3.41-1.52,5.13-.53,1.5-1.07,2.99-1.6,4.49-.3,1.51-.61,3.02-.91,4.53,0,.21,.02,.42,.03,.64,0,.52,.02,1.05,.03,1.57-.03,.65-.05,1.29-.08,1.94-.21,1.29-1.57,2.47-.4,3.9l-.03,.04c-.04,2.22-.07,4.44-.11,6.66,.05,.13,.1,.27,.14,.4,.05,.18,.1,.37,.14,.55-.03,.9-.13,1.81-.06,2.71,.09,1.2-.06,2.64,.55,3.53,.95,1.39,1.36,2.69,1.06,4.31-.05,.27,.17,.59,.29,.89,1.34,3.46,2.67,6.92,4.04,10.37,.19,.48,.55,.88,.82,1.33,.51,.83,1.01,1.66,1.52,2.49,.18,.58,.21,1.3,.58,1.73,1.79,2.14,3.67,4.2,5.52,6.28,.49,.39,.96,.81,1.47,1.18,.67,.5,1.46,.87,2.02,1.47,1.25,1.35,3.28,1.97,4.9,1.12,2.3-1.22,4.51-2.61,6.69-3.88,.3,1.44,.85,3.12,2.82,3.87,.57,.22,1.1,.62,1.56,1.03,1.47,1.31,3.12,1.61,4.79,.6,1.89-1.14,3.74-2.37,5.53-3.67,1.55-1.13,2.88-1.02,4.01,.5,.94,1.27,2.29,1.38,3.73,1.25,1.15-.1,2.31-.12,3.47-.18,.23,.89,.63,1.78,.64,2.68,.01,1.95-.17,3.9-.28,5.85-.18,1.25-.63,2.52-.5,3.74,.34,3.26,.92,6.5,1.4,9.74,.18,1.56-.16,3.53,.67,4.57,1.21,1.52,1.89,3.14,2.53,4.86,1.03,2.76,3.41,4.22,5.53,5.94,1.68,3.64,5.77,4.43,8.34,7.02,.26,.26,.78,.27,1.18,.39,.6,.4,1.17,.87,1.81,1.18,2.51,1.21,5.04,2.37,7.57,3.55,1.04,.37,2.14,.62,3.1,1.14,3.21,1.72,6.75,1.97,10.25,2.48,2.17,.31,4.31,.79,6.47,1.2-8.89,.24-17.82,1.11-26.12-2.35-.57-.8-1.13-1.61-1.7-2.41-.27-.38-.63-.73-.84-1.14-.82-1.61-1.26-1.81-2.86-1.03-1.56,.76-3,1.8-4.62,2.38-1.71,.62-3.6,.77-5.35,1.31-1.13,.35-2.31,.85-3.18,1.61-3.51,3.07-4.99,8.58-3.39,12.24,.42,.96,1.39,1.77,1.52,2.73,.4,3.08,2.62,4.15,5.07,5.05,.99,.36,2.1,.48,3.01,.98,2.4,1.32,5.07,1.07,7.62,1.45,1.64,.24,3.39-.22,5.03,.01,1.7,.24,3.23,.14,4.81-.49,.93-.37,1.93-.7,2.91-.76,3.63-.21,7.17-.79,10.58-2.13,.83-.33,1.77-.38,2.62-.68,1.72-.62,3.42-1.34,5.12-2.01,.53-.21,1.16-.68,1.59-.55,1.69,.53,3.01-.28,4.4-.95-.22,.76-.4,1.52-.67,2.27-.69,1.94-1.57,3.82-2.06,5.81-.41,1.67-.26,3.48-1.62,4.84-.19,.19-.2,.6-.23,.91-.33,3.46-1.35,6.85-1.03,10.38,.05,.57,0,1.19-.17,1.73-1.49,4.52,.26,8.57,1.9,12.59,1.35,3.3,4.48,5.07,7.2,6.9,1.58,1.06,3.06,2.12,4.45,3.41,.75,.69,1.69,1.48,2.63,1.61,2.43,.33,4.91,.38,7.38,.41,.93,.01,2-.08,2.79-.51,1.85-1.01,3.49-.96,5.28,.3,.42,.3,1.47,.37,1.77,.07,1.55-1.55,3.09-.79,4.56-.08,1.38,.66,2.66,1.55,4.11,2.41-.08,.31-.24,.92-.41,1.52-.71,2.47,.86,4.38,3.47,4.27,1.09-.05,2.19,.04,3.28-.04,.41-.03,.95-.27,1.17-.59,2.26-3.37,5.79-4.76,9.43-5.72,1.97-.52,3.7-1.15,5.17-2.58,.39-.38,1.1-.57,1.68-.59,1-.03,2.01,.12,3.01,.22,.95,.1,1.49-.2,1.65-1.24,.13-.88,.35-1.83,1.54-1.95,1.2-.12,1.58-.9,1.61-2,.02-.52,.18-1.04,.28-1.56,.32,.02,.64,.03,.96,.05,.3,.19,.6,.38,.9,.57-1.13,2.2,.38,5.63,2.79,6.07,1.11,.2,2.32-.19,3.48-.19,.97,0,1.36-.61,2-1.19,1.59-1.43,3.49-2.51,5.26-3.72,.07-.05,.22,0,.31-.02,.45-.14,.93-.24,1.35-.45,3.35-1.64,6.59-3.59,10.52-3.44,.15,0,.31-.09,.45-.17,1.56-.87,3.19-1.64,4.64-2.66,.82-.58,1.49-1.51,1.96-2.42,.25-.48,.13-1.39-.18-1.88-1.13-1.79-2.49-3.19-4.96-3.08-2.48,.1-4.98-.27-7.47-.23-1.53,.02-3.1,.34-4.1,1.77-.21-.28-.43-.56-.64-.84,0-.96,.1-1.93-.04-2.86-.31-2.11-.12-4.41-2.14-5.94-.27-.2-.21-.79-.38-1.16-.45-.97-.92-1.94-1.45-2.86-.31-.54-.89-.94-1.14-1.5-.8-1.82-2.36-2.61-4.06-3.31-1.65-.68-3.27-1.46-4.91-2.17-.42-.18-.88-.37-1.33-.39-1.46-.04-2.93,0-4.4,0-.03-.74-.06-1.49-.09-2.23-.34-2.99-.6-6-1.05-8.97-.13-.87-.79-1.66-1.2-2.49-.25-.51-.6-1-.68-1.54-.14-.87-.11-1.77-.15-2.66,1.11,.32,2.2,.72,3.32,.94,1.3,.25,2.74,.07,3.92,.57,2.92,1.23,6.04,1.1,9.03,1.71,3.49,.71,7.16-.14,10.53,1.38,.34,.15,.83-.02,1.25-.05,2.86-.25,5.72-.57,8.58-.72,1.24-.06,2.58,.58,3.72,.28,2.05-.54,4-1.52,5.96-2.38,2.78-1.23,6.15-1.68,7.17-5.33,.09-.32,.52-.52,.74-.82,.22-.29,.56-.66,.52-.95-.37-2.32,.25-4.68-.79-7.03-1.51-3.42-3.66-6.01-7.28-7.06-1.19-.35-2.64-.43-3.82-.09-1.5,.44-2.61,.33-3.95-.48-1.27-.76-2.79-1.34-4.25-1.49-2.02-.21-3.23,1.18-3.27,3.22-.04,2.41-2.42,4.02-4.8,3.35-.72-.2-1.58-.24-2.3-.06-1.83,.47-3.59,1.2-5.43,1.63-.95,.22-2-.05-3,0-3.17,.15-6.33,.35-9.5,.54-.37,.02-.73,.13-1.09,.21-1.25,.27-2.49,.55-3.73,.82,.39-.33,.73-.84,1.18-.97,3.19-.94,6.4-1.79,9.6-2.69,.51-.14,.99-.39,1.46-.63,2.55-1.3,5.07-2.67,7.64-3.92,2.01-.98,4.02-2.01,6.14-2.68,3.17-1,5.92-2.56,8.39-4.78,2.26-2.03,4.39-4.31,7.59-5,.48-.1,.86-.73,1.26-1.15,1.47-1.55,3.77-2.35,4.36-4.72,0-.04,.09-.05,.13-.09,2.99-2.44,4.59-5.68,5.42-9.36,.14-1.92,.27-3.84,.4-5.76,.01-.31,.02-.63,.03-.94,0-.66,0-1.31,0-1.97,.81-2.7-.3-5.17-.89-7.7-.29-1-.58-2.01-.88-3.01-.5-1.71-1.18-3.39-1.47-5.13-.42-2.5-1.07-4.87-2.54-6.96-1.12-2.63-2.24-5.27-3.36-7.9-.24-.91-.49-1.81-.74-2.77,5.45-1.52,8.73-5.06,9.81-10.82,1.81,.54,3.61,1.11,5.42,1.6,.49,.13,1.09,.17,1.55,0,5.15-1.86,7.69-6.19,7.8-11.42,.03-1.4-.38-2.5-1.58-3.27,.2-.2,.41-.39,.61-.59,1.64,.07,3.39,.53,4.9,.13,5.34-1.4,8.33-5.2,9.73-10.4,.44-1.14,.75-2.35,1.36-3.4,1.62-2.79,.51-5.86,1-8.76,.13-.76-.02-1.56-.08-2.35-.06-.83-.15-1.66-.23-2.49-.42-1.27-.88-2.52-1.24-3.8-1.03-3.63-1.92-7.31-3.08-10.9-.35-1.07-1.4-1.91-2.13-2.85-.31-1.75-.88-3.36-2.33-4.54-.23-.19-.34-.54-.48-.82-1.68-3.23-4.56-5.36-7.12-7.78,0,0-.05-.06-.05-.06-.09-.1-.18-.19-.26-.29-.57-.35-1.13-.69-1.7-1.05-.7-.44-1.39-.91-2.09-1.34-.86-.52-1.73-1.02-2.6-1.53-.86-.3-1.72-.6-2.58-.9-.29-.18-.69-.29-.86-.55-.96-1.44-2.31-1.88-3.95-1.62-1.5-.42-3.01-.78-4.48-1.28-2-.67-3.92-1.68-6.13-.91-.47,.07-.99,.29-1.41,.17-4.28-1.19-8.44,.08-12.4,1.17-5.34,1.47-10.45,3.79-15.64,5.79-.45,.17-.79,.66-1.18,1-.77,.67-1.46,1.48-2.33,1.97-2.36,1.33-4.91,2.37-5.92,5.24-.15,.44-.72,.74-1.12,1.08-.64,.55-1.42,.99-1.9,1.65-.9,1.24-1.63,2.6-2.42,3.91-.48,.8-1.01,1.58-1.42,2.42-.47,.98-.84,2.01-1.24,3.02-.22,.53-.56,1.05-.62,1.6-.18,1.59-.25,3.18-.37,4.78-.42,1.6-.83,3.19-1.25,4.79-1.55-.29-3.12-.53-4.66-.87-3.97-.89-7.9-2.05-11.91-2.67-2.9-.45-5.78-1.23-8.85-.71-1.81,.3-3.78-.31-5.68-.51-.03-1.46,.13-2.86,1.21-4,.27-.29,.56-.82,.47-1.15-.47-1.72,.44-2.97,1.09-4.42,.54-1.21,.85-2.44,2.05-3.25,.37-.25,.66-.92,.66-1.39,0-1.55,.9-2.56,1.87-3.55,1.77,.72,3.51,1.51,5.31,2.12,.64,.22,1.52,.21,2.12-.06,2.77-1.24,5.68-2.01,8.34-3.78,2.32-1.55,2.92-3.69,4.14-5.38-1.3-1.26-2.4-2.37-3.56-3.43-.34-.31-.81-.53-1.26-.64-2.16-.54-4.32-1.27-6.55-.22-.35,.16-.84,.1-1.25,.05-2.5-.31-3.9,.54-5.03,2.86-.36,.74-1.03,1.32-1.84,2.32-.49-2.85-1.07-5.1-3.59-6.08-.04-.02-.07-.08-.1-.12-1.96-2.39-4.54-3.78-7.4-4.81C133.2,1.45,131.99,.65,130.74,0c46.25,0,92.5,0,138.75,0V91.64c-.7-1.4-1.15-3.03-2.15-4.17-3.15-3.59-8.57-4.39-13.37-2.15-7.11,3.32-10.87,9.33-12.96,16.57-.6,2.08-.8,4.27-1.2,6.46,1.73-.71,3.06-1.35,4.46-1.81,5.71-1.91,11.44-3.72,17.14-5.64,3.52-1.19,6.96-2.55,8.07-6.68v23.39c-1.85-4.73-5.47-7-10.39-7.35-4.41-.31-8.39,1.06-12.1,3.35-2.3,1.42-4.37,3.09-6.02,5.31,1.37,.38,2.59,.67,3.78,1.06,5.56,1.8,11.09,3.7,16.67,5.42,2.68,.83,5.08,.15,6.78-2.23,.52-.72,.86-1.57,1.28-2.36Z" fill="#fefefe"/>
      <path d="M269.49,94.2c-1.11,4.14-4.55,5.5-8.07,6.68-5.7,1.92-11.44,3.74-17.14,5.64-1.4,.47-2.73,1.11-4.46,1.81,.39-2.19,.6-4.38,1.2-6.46,2.09-7.24,5.84-13.25,12.96-16.57,4.8-2.24,10.22-1.44,13.37,2.15,1,1.14,1.45,2.77,2.15,4.17v2.56Z" fill="#7ed2ed"/>
      <path d="M142.85,17.95c-5.02-.51-9.81-1.54-12.66-6.3-.67-1.13-1.13-2.53-1.22-3.83-.13-2,.1-4.04,.26-6.05,.05-.6,.36-1.18,.54-1.77,.32,0,.64,0,.96,0,1.26,.65,2.46,1.45,3.78,1.92,2.86,1.03,5.44,2.42,7.4,4.81,.03,.04,.06,.1,.1,.12,2.52,.98,3.1,3.23,3.59,6.08,.81-1,1.48-1.58,1.84-2.32,1.13-2.32,2.53-3.17,5.03-2.86,.41,.05,.9,.11,1.25-.05,2.23-1.05,4.39-.32,6.55,.22,.45,.11,.92,.33,1.26,.64,1.16,1.05,2.26,2.17,3.56,3.43-1.22,1.7-1.82,3.83-4.14,5.38-2.65,1.78-5.56,2.54-8.34,3.78-.6,.27-1.48,.27-2.12,.06-1.8-.61-3.55-1.4-5.32-2.12-.43-1.09-1.02-1.85-2.34-1.16Z" fill="#6ea859"/>
      <path d="M269.49,120.79c-.42,.79-.76,1.64-1.28,2.36-1.7,2.37-4.09,3.06-6.78,2.23-5.58-1.73-11.11-3.62-16.67-5.42-1.19-.39-2.42-.68-3.78-1.06,1.65-2.22,3.72-3.89,6.02-5.31,3.7-2.29,7.69-3.66,12.1-3.35,4.92,.35,8.55,2.61,10.39,7.35v3.2Z" fill="#7ed2ed"/>
      <path d="M179.43,234.84c-.1,.52-.26,1.04-.28,1.56-.04,1.1-.41,1.87-1.61,2-1.19,.12-1.4,1.07-1.54,1.95-.16,1.04-.7,1.34-1.65,1.24-1-.1-2.01-.26-3.01-.22-.57,.02-1.29,.21-1.68,.59-1.47,1.43-3.2,2.06-5.17,2.58-3.64,.97-7.17,2.35-9.43,5.72-.21,.32-.76,.55-1.17,.59-1.09,.08-2.19,0-3.28,.04-2.61,.11-4.19-1.8-3.47-4.27,.17-.6,.33-1.22,.41-1.52-1.45-.86-2.73-1.75-4.11-2.41-1.47-.7-3.01-1.46-4.56,.08-.29,.29-1.34,.22-1.77-.07-1.79-1.25-3.42-1.31-5.28-.3-.79,.43-1.85,.53-2.79,.51-2.46-.04-4.94-.08-7.38-.41-.94-.13-1.88-.91-2.63-1.61-1.39-1.29-2.87-2.35-4.45-3.41-2.73-1.83-5.85-3.6-7.2-6.9-1.64-4.02-3.39-8.07-1.9-12.59,.18-.54,.23-1.16,.17-1.73-.33-3.53,.7-6.92,1.03-10.38,.03-.31,.04-.72,.23-.91,1.36-1.36,1.21-3.17,1.62-4.84,.48-1.99,1.37-3.87,2.06-5.81,.26-.74,.45-1.51,.66-2.26,.29-.62,.69-1.21,.85-1.86,.92-3.79,1.95-7.51,4.87-10.35,.17-.16,.19-.48,.28-.72,.76-.05,1.51-.15,2.27-.14,1.19,.02,2.38,.15,3.57,.17,1.83,.04,3.67,.09,5.5,.03,1.44-.04,2.88-.23,4.31-.37,.67-.07,1.34-.23,2.01-.27,1.2-.06,2.41,.03,3.59-.11,1.6-.19,3.11-.87,4.79-.07,.54,.26,1.48-.27,2.23-.47,.8-.21,1.58-.62,2.38-.67,2.86-.18,5.82,.16,8.57-.48,2.31-.53,4.54-.84,6.87-.86,.66,0,1.32-.32,1.98-.46,1.28-.27,2.57-.52,3.85-.77,.2,1.28,.67,2.38,1.31,3.56,1.03,1.92,1.8,3.99,3.1,5.79,.16,.21,.05,.62,.07,.93,.04,.89,0,1.79,.15,2.66,.09,.54,.44,1.03,.68,1.54,.41,.83,1.07,1.62,1.2,2.49,.45,2.98,.72,5.98,1.06,8.97-2.36,.49-4.73,.92-7.06,1.51-1.1,.28-2.34,.62-3.15,1.35-1.84,1.67-3.56,3.52-5.13,5.46-1.12,1.38-1.98,2.98-2.82,4.56-.16,.3,.22,1.28,.49,1.34,.51,.11,1.36-.02,1.63-.38,1.83-2.38,3.48-4.9,5.31-7.29,.97-1.27,2.17-2.21,3.91-2.52,2.34-.42,4.61-1.18,6.91-1.79,1.47,0,2.93-.05,4.4,0,.45,.01,.91,.2,1.33,.39,1.64,.71,3.25,1.49,4.91,2.17,1.7,.7,3.26,1.49,4.06,3.31,.25,.56,.83,.96,1.14,1.5,.53,.93,1,1.89,1.45,2.86,.17,.37,.12,.96,.38,1.16,2.02,1.52,1.84,3.83,2.14,5.94,.14,.94,.03,1.91,.04,2.86-.57,.1-1.15,.19-1.72,.29-1.94,.32-2.96,1.37-3.03,3.21-.01,.38,.15,.95,.41,1.09,.36,.19,1.27,.17,1.31,.05,.5-1.74,2.24-1.98,3.37-2.93,.2-.17,.2-.57,.3-.87,1-1.43,2.57-1.74,4.1-1.77,2.49-.04,4.99,.34,7.47,.23,2.47-.1,3.82,1.3,4.96,3.08,.31,.49,.43,1.4,.18,1.88-.47,.91-1.14,1.84-1.96,2.42-1.45,1.02-3.08,1.79-4.64,2.66-.14,.08-.3,.17-.45,.17-3.93-.15-7.18,1.8-10.52,3.44-.42,.21-.9,.31-1.35,.45-.1,.03-.24-.03-.31,.02-1.78,1.21-3.67,2.29-5.26,3.72-.65,.58-1.03,1.19-2,1.19-1.16,0-2.37,.39-3.48,.19-2.41-.43-3.92-3.86-2.79-6.07-.3-.19-.6-.38-.9-.57,.09-1.11,.56-2.38,.18-3.28-.45-1.03-1.6-1.8-2.55-2.55-1.02-.8-2.03-.55-3.26-.04-1.28,.53-2.97,.84-4.23,.45-1.68-.52-2.66-.11-3.85,.93-.74,.64-1.84,.88-2.82,1.19-.15,.05-.75-.56-.69-.72,.79-2.35-.46-4.23-1.31-6.23-.18-.43-.27-1.09-.08-1.47,.66-1.29,.27-2.32-.49-3.39-2-2.85-4.69-4.97-7.53-6.86-1.18-.78-2.72-1.01-4.12-1.45-.84-.26-1.71-.44-2.57-.65,.18-.1,.35-.23,.55-.29,3.3-1.04,6.05-2.83,7.81-5.88,1.48-2.57,.72-5.35,.72-8.1,0-3.68-2.94-5.35-4.59-7.89-.07-.1-.28-.12-.43-.16-.77-.22-1.64-.26-2.28-.67-3.79-2.38-4.69-2.4-7.66,.94-1.61,1.81-3.84,3.32-4,6.13-.11,1.99-.26,3.98-.37,5.97-.02,.37-.06,.82,.13,1.09,1.44,2.08,2.88,4.15,4.42,6.15,.6,.79,1.45,1.39,2.18,2.07-.62-.03-1.5,.19-1.8-.13-1-1.09-1.74-.67-2.77-.05-1.23,.74-2.61,1.64-3.96,1.69-1.95,.08-3.2,.84-4.28,2.29-.95,1.27-1.5,2.95-3.49,3.18-.47,.06-.94,.83-1.26,1.36-.73,1.22-1.45,2.46-1.98,3.77-.19,.47,.19,1.18,.31,1.78,.54-.15,1.3-.12,1.57-.47,.81-1.07,1.42-2.3,2.13-3.45,.22-.35,.46-.85,.79-.94,2.23-.66,3.09-2.6,4.25-4.29,.26-.38,.79-.7,1.24-.79,1.21-.25,2.74,.04,3.62-.61,1.92-1.41,3.95-.49,5.85-.6,2.25-.14,4.76,.32,6.8,1.28,2.46,1.16,4.57,3.08,6.78,4.75,.57,.43,.84,1.24,1.37,1.73,.72,.67,.86,1.28,.57,2.25-.21,.72-.03,1.62,.19,2.38,.21,.76,.71,1.43,1.04,2.16,.79,1.75,.16,4.62-1.15,5.96-.45,.46-.71,1.17-.92,1.81-.31,.96-.41,2.1,.8,2.34,.41,.08,1.06-1.02,1.58-1.6,.28-.33,.47-.97,.77-1.01,1.38-.23,2.81-.16,4.17-.46,1.03-.23,1.96-.87,2.95-1.28,.41-.17,.87-.29,1.31-.33,1.76-.12,3.52-.18,5.27-.3,.58-.04,1.15-.19,1.73-.29-.02,.59-.03,1.17-.05,1.76,0,.2,0,.4,0,.77h2.45Z" fill="#aca3a3"/>
      <path d="M169.21,174.65c-1.28,.26-2.57,.5-3.85,.77-.67,.14-1.32,.46-1.98,.46-2.33,.02-4.57,.33-6.87,.86-2.75,.63-5.71,.3-8.57,.48-.81,.05-1.59,.46-2.38,.67-.75,.2-1.68,.73-2.23,.47-1.68-.8-3.2-.12-4.79,.07-1.18,.14-2.4,.05-3.59,.11-.67,.04-1.34,.2-2.01,.27-1.44,.14-2.87,.32-4.31,.37-1.83,.06-3.67,0-5.5-.03-1.19-.03-2.38-.15-3.57-.17-.76-.01-1.51,.09-2.27,.14-.73-.09-1.45-.23-2.18-.25-3.25-.08-6.5-.13-9.74-.18-.1,0-.2,.05-.3,.08-2.15-.41-4.3-.88-6.47-1.2-3.5-.51-7.03-.77-10.25-2.48-.96-.51-2.07-.77-3.1-1.14,.46-.3,.87-.74,1.37-.87,17.09-4.31,34.19-8.58,51.29-12.89,2.24-.57,4.44-1.31,6.66-1.97,1.15,1.02,2.14,2.33,3.46,3.01,3.2,1.67,6.44,2.05,9.97,.34,2.47-1.2,3-3,3.2-5.3,.07-.83,.23-1.65,.35-2.47,.26-.03,.53-.04,.79-.1,7.82-1.99,15.63-4,23.45-5.97,10.55-2.66,21.1-5.29,31.66-7.93,3.65-.91,7.31-1.78,10.97-2.67-.84,3.68-2.43,6.93-5.42,9.36-.04,.03-.12,.05-.13,.09-.59,2.37-2.89,3.16-4.36,4.72-.4,.42-.78,1.05-1.26,1.15-3.19,.69-5.33,2.97-7.59,5-2.47,2.22-5.22,3.78-8.39,4.78-2.12,.67-4.13,1.71-6.14,2.68-2.57,1.25-5.09,2.61-7.64,3.92-.47,.24-.95,.49-1.46,.63-3.2,.9-6.41,1.75-9.6,2.69-.45,.13-.79,.64-1.18,.97-2.07,.27-4.22,.24-6.02,1.54Z" fill="#b8aaab"/>
      <path d="M223.07,105.65c1.47,2.09,2.13,4.46,2.54,6.96,.29,1.74,.97,3.42,1.47,5.13,.29,1,.59,2.01,.88,3.01-1.35,.44-2.69,.94-4.05,1.32-3.96,1.1-7.93,2.16-11.89,3.23-.83-1.02-1.56-2.15-2.52-3.04-.97-.9-2.05-.35-2.83,.43-.83,.83,.05,1.39,.53,1.99,.39,.49,.71,1.04,1.07,1.56l-6.5,1.62c-.23-.65-.52-1.29-.67-1.95-.31-1.37-1.09-1.68-2.36-1.27-1.32,.43-1.61,1.22-1.11,2.47,.21,.53,.26,1.13,.39,1.69-1.7,.32-3.41,.64-5.11,.96,.04-.63,0-1.27,.13-1.88,.19-.9,.53-1.87-.7-2.21-1.22-.34-2.3,.07-2.6,1.37-.29,1.3-.3,2.67-.43,4-.57,.08-1.16,.1-1.72,.24-7.11,1.75-14.23,3.47-21.33,5.28-3.75,.96-7.45,2.08-11.18,3.13-2-.74-3.96-1.61-6.01-2.2-3.03-.87-4.71-.22-6.56,2.39-.91,1.28-1.63,2.69-2.44,4.04-.27-.06-.57-.22-.82-.16-4.07,.98-8.15,1.97-12.21,3-17.19,4.33-34.37,8.68-51.57,13-3.03,.76-6.1,1.36-9.15,2.04-2.12-1.72-4.5-3.19-5.53-5.94-.64-1.71-1.32-3.34-2.53-4.86-.83-1.04-.49-3.02-.67-4.57,.14,.31,.34,.61,.41,.94,.39,1.93,.54,2.05,2.37,1.6,1.9-.47,3.79-1.01,5.71-1.44,2.68-.61,5.37-1.15,8.06-1.72-.36,1.29-.65,2.61-1.11,3.87-.46,1.23-.14,1.98,1.15,1.83,.75-.09,1.79-.63,2.07-1.25,1.29-2.82,2.37-5.75,3.52-8.64,.56-.11,1.12-.25,1.69-.32,1.06-.13,2.12-.21,3.19-.31-.04,3.28-.88,6.56,.24,9.85,.44,1.31,1.21,1.53,2.28,1.32,1.07-.21,1.72-.93,1.35-2.08-.91-2.8-.51-5.63-.29-8.46,1.32-.11,2.64-.22,3.96-.33,.34,.46,.71,.9,1.01,1.38,.27,.43,.56,.88,.68,1.36,.47,1.84,.84,3.71,1.33,5.54,.08,.29,.54,.62,.86,.66,1.92,.25,3.02-.89,2.28-2.64-.95-2.27-.15-5.19-2.55-6.91,.47-.34,.9-.85,1.42-.99,8.45-2.18,16.92-4.3,25.38-6.47,.53-.14,.95-.65,1.43-.99,2.17,1.02,4.33,1.97,6.86,1.57,1.35-.21,2.75-.21,4.13-.15,1.68,.06,3.37,.51,4.93-.62,.28-.2,.86-.16,1.23-.02,2.01,.74,3.65-.05,5.17-1.21,1.05-.8,1.86-2.1,3.02-2.52,2.05-.75,3-2.22,3.71-4.05,.52-.07,1.05-.1,1.56-.22,3.19-.77,6.39-1.52,9.56-2.35,4.81-1.26,9.6-2.58,14.4-3.88,2.14,.87,2.52,.77,3.47-.9,.57-.08,1.16-.1,1.72-.24,10.89-2.72,21.78-5.45,32.67-8.2,2.29-.58,4.56-1.21,6.72-1.78-.05-.89-.08-1.47-.11-2.04Z" fill="#aa9396"/>
      <path d="M84.85,49.67c2.05-.91,4.08-1.88,6.16-2.73,3.52-1.45,7.05-2.85,10.6-4.21,.4-.16,.93,.03,1.41,.04,.47,0,1.05,.17,1.38-.04,3.26-2.13,7.03-2.53,10.7-3.28,.88,1.61,1.71,3.24,2.66,4.81,1,1.65,4.39,2.91,6.29,2.55,.85-.16,1.76,.04,2.63-.08,2.22-.33,4.44-.74,6.65-1.14,.09-.02,.16-.13,.25-.19,.92-.63,1.85-1.24,2.74-1.9,1.14-.84,2.09-1.83,1.96-3.39-.1-1.09-.29-2.16-.44-3.24,1.9,.2,3.87,.82,5.68,.51,3.07-.51,5.95,.26,8.85,.71,4.01,.62,7.94,1.78,11.91,2.67,1.54,.35,3.1,.58,4.66,.87,1.48,.54,2.95,1.08,4.43,1.61,1.27,.55,2.55,1.09,3.82,1.64-.61,.31-1.18,.73-1.83,.9-3.79,1.01-7.6,1.96-11.41,2.92-11.26,2.86-22.52,5.74-33.78,8.57-20.32,5.11-40.65,10.2-60.98,15.27-.49,.12-1.08-.12-1.62-.19,1-1.95,2.19-3.78,3.05-5.84,.95-2.26,2.67-4.21,4.05-6.29,.32-.63,.64-1.25,.97-1.88,1.07-.97,2.14-1.95,3.21-2.92h-.02c.17-.1,.34-.22,.5-.33,.81-.95,1.63-1.91,2.44-2.86,1.02-.86,2.05-1.72,3.07-2.58Z" fill="#4e2c2d"/>
      <path d="M105.05,178.76c.1-.03,.2-.08,.3-.08,3.25,.05,6.5,.1,9.74,.18,.73,.02,1.45,.16,2.18,.25-.09,.24-.11,.56-.28,.72-2.93,2.84-3.95,6.57-4.87,10.35-.16,.65-.56,1.24-.85,1.86-1.38,.67-2.7,1.47-4.4,.95-.43-.13-1.06,.34-1.59,.55-1.71,.67-3.4,1.39-5.12,2.01-.84,.31-1.78,.36-2.62,.68-3.4,1.34-6.94,1.92-10.58,2.13-.99,.06-1.99,.39-2.91,.76-1.58,.63-3.11,.74-4.81,.49-1.64-.24-3.39,.23-5.03-.01-2.55-.38-5.22-.13-7.62-1.45-.91-.5-2.02-.62-3.01-.98-2.45-.9-4.67-1.97-5.07-5.05-.13-.96-1.1-1.78-1.52-2.73-1.6-3.66-.12-9.17,3.39-12.24,.87-.76,2.06-1.26,3.18-1.61,1.75-.54,3.64-.69,5.35-1.31,1.61-.59,3.06-1.62,4.62-2.38,1.6-.79,2.04-.58,2.86,1.03,.21,.41,.56,.76,.84,1.14,.57,.8,1.13,1.6,1.7,2.41,8.29,3.46,17.23,2.59,26.12,2.35Z" fill="#a19797"/>
      <path d="M169.21,174.65c1.81-1.29,3.95-1.27,6.02-1.54,1.24-.27,2.49-.55,3.73-.82,.36-.08,.72-.19,1.09-.21,3.16-.19,6.33-.39,9.5-.54,1-.05,2.05,.22,3,0,1.84-.42,3.6-1.16,5.43-1.63,.72-.18,1.58-.15,2.3,.06,2.38,.67,4.75-.94,4.8-3.35,.04-2.03,1.25-3.43,3.27-3.22,1.46,.15,2.98,.73,4.25,1.49,1.34,.81,2.45,.92,3.95,.48,1.17-.34,2.62-.26,3.82,.09,3.62,1.06,5.77,3.64,7.28,7.06,1.04,2.35,.42,4.7,.79,7.03,.05,.28-.3,.66-.52,.95-.22,.3-.65,.51-.74,.82-1.02,3.64-4.39,4.1-7.17,5.33-1.96,.86-3.91,1.84-5.96,2.38-1.13,.3-2.48-.35-3.72-.28-2.87,.15-5.72,.47-8.58,.72-.42,.04-.91,.21-1.25,.05-3.37-1.52-7.04-.67-10.53-1.38-2.99-.61-6.11-.48-9.03-1.71-1.17-.5-2.62-.31-3.92-.57-1.13-.22-2.22-.62-3.32-.94-.02-.32,.09-.72-.07-.93-1.3-1.8-2.07-3.87-3.1-5.79-.64-1.18-1.11-2.28-1.31-3.56Z" fill="#a19797"/>
      <path d="M7.31,55.29c.52-1.45,.86-3.01,1.62-4.33,1.18-2.06,2.5-4.09,4.02-5.91,3.63-4.34,7.84-8.07,12.57-11.19,.33-.22,.77-.29,1.17-.38,.36-.09,.75-.06,1.09-.18,2.26-.83,4.51-1.69,6.76-2.54,.29-.11,.69-.35,.89-.25,1.65,.87,3.2-.14,4.78-.15,2.9-.03,5.8,.41,8.7,.64,1.32,.1,2.71,.42,3.97,.15,1.97-.42,3.63,.18,5.4,.76,1.29,.42,2.68,.55,4.03,.82,.41,.08,.84,.16,1.22,.34,3.29,1.47,6.57,2.97,9.85,4.46,1.22,1.45,2.39,2.97,4.48,3.18,.26,.01,.53,.03,.79,.04,.06,.02,.1,.07,.13,.13-.09,.26-.18,.52-.27,.78-.47,.31-.91,.81-1.42,.91-6.54,1.33-13.09,2.61-19.64,3.9-9.93,1.96-19.85,3.93-29.78,5.88-6.39,1.26-12.79,2.48-19.18,3.78-.89,.18-1.18,0-1.18-.83Z" fill="#75305f"/>
      <path d="M74.14,145.81c-2.69,.57-5.38,1.11-8.06,1.72-1.91,.43-3.8,.97-5.71,1.44-1.83,.45-1.98,.33-2.37-1.6-.07-.33-.27-.63-.41-.94-.48-3.25-1.06-6.48-1.4-9.74-.13-1.22,.32-2.49,.5-3.74,.55,.09,1.15,.38,1.65,.26,10.08-2.41,20.14-4.85,30.2-7.33,.44-.11,.79-.57,1.18-.87,3.17-.42,6.34-.85,9.97-1.33-.83,1-1.38,1.56-1.82,2.21-.91,1.33-1.9,2.64-2.6,4.07-.69,1.4-.22,2.55,.92,2.88,1.36,.39,1.99-.43,2.55-1.55,1.61-3.24,3.79-5.95,7.33-7.27,1.72-.64,2.08-1.45,1.46-3.18,3.47-.82,6.94-1.66,10.43-2.44,.39-.09,.85,.13,1.27,.21,0,.68-.24,1.54,.08,2.01,1.11,1.64,.94,3.5,1.23,5.3,.4,2.52,.45,5.26,3.49,6.34-.47,.34-.9,.85-1.43,.99-8.45,2.18-16.92,4.3-25.38,6.47-.52,.13-.95,.65-1.42,.99-1.35-.67-2.48-.02-3.61,.61-1.32,.11-2.64,.22-3.96,.33-.3-1.43-1.04-1.92-2.26-1.44-.47,.19-.89,.53-1.33,.81-1.06,.1-2.13,.18-3.19,.31-.57,.07-1.13,.21-1.69,.32,.33-.59,.7-1.16,.97-1.78,.2-.48,.53-1.21,.32-1.5-.26-.36-1.03-.61-1.51-.51-.61,.12-1.38,.49-1.67,.99-1.33,2.28-2.51,4.65-3.74,6.99Z" fill="#a7888d"/>
      <path d="M89.73,125.01c-.39,.3-.74,.76-1.18,.87-10.06,2.48-20.12,4.92-30.2,7.33-.5,.12-1.1-.16-1.65-.26,.11-1.95,.29-3.9,.28-5.85,0-.89-.41-1.78-.64-2.68,.02-.53-.05-1.08,.08-1.59,.39-1.55,.84-3.07,1.28-4.61,.21-.02,.43,0,.63-.05,12.75-3.21,25.49-6.41,38.23-9.65,1.3-.33,2.53-.91,3.79-1.37,.4,.13,.79,.28,1.2,.38,1.44,.36,1.98-.17,1.76-1.73,5.31-1.32,10.61-2.66,15.93-3.94,.6-.14,1.27,.04,1.91,.07-.49,2.04-.88,4.1-1.49,6.1-.42,1.36-.73,2.61-.1,3.99,.18,.4,.05,1.07-.17,1.49-.56,1.02-.56,1.93-.11,3.01,.24,.58-.02,1.38-.06,2.07-.43-.08-.88-.29-1.27-.21-3.48,.78-6.95,1.62-10.43,2.44-.69-.23-1.36-.55-2.07-.67-2.2-.36-4.51,.74-6.66-.54-.18-.11-.53-.01-.77,.08-2.72,.97-5.48,1.6-8.4,1.55-1.12-.02-2.14,.48-2.15,1.86,0,1.46,.99,1.86,2.24,1.9Z" fill="#a87d84"/>
      <path d="M66.32,161.81c3.05-.68,6.12-1.28,9.15-2.04,17.19-4.31,34.38-8.67,51.57-13,4.06-1.02,8.14-2.02,12.21-3,.25-.06,.54,.1,.82,.16,.1,1.93,0,3.89,.37,5.77,.24,1.22,1.15,2.31,1.76,3.45-5.85,1.49-11.7,3-17.56,4.48-14.96,3.77-29.93,7.5-44.88,11.31-1.33,.34-2.54,.96-3.91,.27-.4-.12-.92-.13-1.18-.39-2.58-2.59-6.67-3.37-8.34-7.02Z" fill="#ad9c9d"/>
      <path d="M9.25,113.12c-.51-.83-1.01-1.66-1.52-2.49-.27-.44-.63-.85-.82-1.33-1.37-3.45-2.7-6.91-4.04-10.37-.11-.29-.34-.62-.29-.89,.3-1.61-.11-2.91-1.06-4.31-.61-.89-.46-2.33-.55-3.53-.07-.9,.04-1.81,.06-2.71,.19,.57,.53,1.14,.53,1.71,0,1.08,.49,1.27,1.41,1.08,2.9-.6,5.81-1.18,8.72-1.75,4.11-.8,8.22-1.57,12.33-2.35,.1,0,.21,.02,.31,.03,.61,1.11,1.17,2.24,1.83,3.32,1.35,2.21,2.7,4.41,4.15,6.55,.39,.57,1.07,1.01,1.71,1.34,1.87,.98,3.76,1.92,5.69,2.8,2.43,1.11,4.83,2.4,7.38,3.11,2.05,.57,4.3,.38,6.47,.52-.25,.33-.44,.82-.77,.96-.67,.29-1.41,.44-2.14,.58-9.03,1.8-18.06,3.6-27.09,5.38-4.1,.81-8.21,1.56-12.32,2.34Z" fill="#9a8587"/>
      <path d="M242.57,70.5c-.2,.2-.41,.39-.61,.59-.44,.45-.83,.98-1.34,1.33-5.26,3.61-10.54,7.18-15.8,10.79-2.97,2.04-5.9,4.13-8.85,6.2-.21-.22-.42-.44-.63-.65,0,0,0,0,0,0-.11-.11-.21-.22-.32-.33h0c-.11-.11-.21-.21-.32-.32,0,0,0,0,0,0-.64-.85-1.28-1.69-1.92-2.54-.31-.46-.68-.89-.92-1.38-.28-.58-.45-1.22-.66-1.83-.12-.22-.23-.44-.35-.65,0,0,0,.01,0,.01-.11-.11-.22-.22-.33-.34,0,0,.01,0,.01,0-.33-.85-.65-1.71-.98-2.56,2.07-1.38,4.17-2.74,6.21-4.17,.39-.27,.57-.84,.84-1.28,1.97-.81,3.34-2.48,5.55-3.19,2.06-.66,3.59-2.94,5.36-4.5,.82-.34,1.73-.55,2.45-1.03,8.2-5.52,16.42-11.03,24.53-16.68,1.81-1.26,4.31-2.01,4.76-4.72,.08,.83,.17,1.66,.23,2.49,.05,.78,.2,1.59,.08,2.35-.5,2.9,.62,5.96-1,8.76-.61,1.04-.91,2.26-1.36,3.4-.29,.12-.62,.18-.88,.36-3.85,2.6-7.7,5.2-11.51,7.85-.83,.57-1.5,1.37-2.24,2.06Z" fill="#a19797"/>
      <path d="M192.91,129.77c1.7-.32,3.41-.64,5.11-.96,.31,1.23,.57,2.48,.96,3.69,.38,1.16,1.24,1.3,2.31,.9,1.02-.38,1.61-.87,1.19-2.13-.36-1.09-.48-2.26-.71-3.4,2.17-.54,4.33-1.08,6.5-1.62,1.03,2.25,2.09,4.49,3.1,6.76,.62,1.39,1.71,1.12,2.69,.67,1.21-.55,1.02-1.47,.5-2.54-.93-1.9-1.7-3.88-2.53-5.82,3.96-1.07,7.93-2.13,11.89-3.23,1.37-.38,2.7-.88,4.05-1.32,.59,2.53,1.71,5.01,.89,7.7,0,.66,0,1.31,0,1.97-.01,.31-.02,.63-.03,.94-.32,.02-.65-.02-.95,.05-4.89,1.19-9.79,2.36-14.67,3.6-9.35,2.38-18.68,4.84-28.03,7.18-7.97,2-15.96,3.89-23.94,5.82-1.47-2.11-2.91-4.23-4.41-6.32-.51-.71-1.15-1.34-1.72-2.01,3.72-1.05,7.43-2.17,11.18-3.13,7.1-1.81,14.21-3.54,21.33-5.28,.56-.14,1.15-.16,1.72-.24,.04,1.67-.01,3.34,.15,5,.12,1.19,.87,1.93,2.2,1.72,1.32-.21,1.68-1.02,1.56-2.3-.18-1.89-.22-3.8-.32-5.7Z" fill="#ad9c9d"/>
      <path d="M223.07,105.65c.03,.58,.06,1.15,.11,2.04-2.16,.58-4.43,1.21-6.72,1.78-10.89,2.74-21.78,5.48-32.67,8.2-.56,.14-1.15,.16-1.72,.24-.28-.64-.38-1.61-.86-1.88-2.56-1.42-5.22-2.65-7.9-3.98-.04,.16-.02,.06,.01-.04,.71-1.95,2.8-2.12,4.19-3.19,1.09-.83,2.2-1.73,3.86-1.6,.7,.06,1.8-.68,2.16-1.36,.5-.95-.19-1.8-1.18-2.25,.93-.36,1.83-.82,2.79-1.07,10.1-2.58,20.21-5.12,30.3-7.71,.55-.14,1.01-.64,1.51-.97,.37,.43,.77,.85,1.09,1.31,.58,.84,1.12,1.71,1.68,2.57,1.12,2.63,2.24,5.27,3.36,7.9Z" fill="#a7888d"/>
      <path d="M170.19,36.85c.12-1.59,.19-3.19,.37-4.78,.06-.55,.4-1.07,.62-1.6,.41-1.01,.77-2.04,1.24-3.02,.41-.84,.93-1.62,1.42-2.42,.79-1.31,1.52-2.67,2.42-3.91,.48-.66,1.27-1.1,1.9-1.65,.4-.34,.97-.64,1.12-1.08,1.01-2.87,3.56-3.91,5.92-5.24,.87-.49,1.56-1.3,2.33-1.97,.39-.34,.72-.83,1.18-1,5.19-2,10.3-4.33,15.64-5.79,3.96-1.09,8.12-2.36,12.4-1.17,.42,.12,.94-.11,1.41-.17,.2,.3,.41,.59,.71,1.02-.2,.13-.38,.24-.55,.36-4.5,3.1-8.98,6.23-13.5,9.31-10.92,7.45-21.86,14.88-32.8,22.29-.55,.37-1.23,.55-1.84,.82Z" fill="#75305f"/>
      <path d="M7.31,55.29c0,.84,.29,1.02,1.18,.83,6.38-1.3,12.79-2.52,19.18-3.78,9.93-1.95,19.86-3.92,29.78-5.88,6.55-1.29,13.1-2.57,19.64-3.9,.51-.1,.95-.6,1.42-.91,.84,.75,1.69,1.5,2.53,2.26,.43,.44,.85,.89,1.28,1.33,.03,.21,0,.44,.09,.63q.8,1.82-1.26,2.23c-8.66,1.71-17.33,3.41-25.98,5.15-.59,.12-1.11,.59-1.66,.9-3.41,.37-6.84,.58-10.21,1.17-2.41,.42-4.73,1.34-7.08,2.04-2.98,.47-5.97,.87-8.93,1.43-7.39,1.41-14.76,2.92-22.15,4.34-.4,.08-.87-.23-1.3-.37,.49-1.72,.84-3.49,1.52-5.13,.37-.9,1.29-1.57,1.96-2.35Z" fill="#854164"/>
      <path d="M259.26,43.24c-.45,2.71-2.95,3.46-4.76,4.72-8.11,5.66-16.33,11.16-24.53,16.68-.72,.49-1.63,.7-2.45,1.03,1.13-1.29,2.27-2.58,3.39-3.88,.24-.28,.43-.6,.61-.93,.62-1.1,1.14-2.27,1.84-3.31,1.02-1.5,2-2.88,1.59-4.93-.21-1.03,.43-2.22,.55-3.35,.07-.61-.46-1.47-.2-1.83,1.37-1.9,.42-3.47-.45-5.12-.27-.51-.42-1.08-.63-1.63,.37-.19,.77-.33,1.11-.56,5.31-3.6,10.55-7.28,15.94-10.76,1.55-1,2.22-1.95,1.52-3.68,.73,.94,1.79,1.78,2.13,2.85,1.16,3.59,2.05,7.26,3.08,10.9,.36,1.28,.82,2.53,1.24,3.8Z" fill="#9a8587"/>
      <path d="M170.19,36.85c.62-.27,1.3-.45,1.84-.82,10.94-7.42,21.88-14.84,32.8-22.29,4.52-3.08,9-6.21,13.5-9.31,.17-.12,.35-.23,.55-.36-.3-.43-.5-.73-.71-1.02,2.2-.76,4.13,.24,6.13,.91,1.47,.49,2.99,.86,4.48,1.28-.28,.48-.45,1.08-.85,1.41-.93,.78-1.97,1.44-2.98,2.13-7.46,5.08-14.92,10.15-22.37,15.25-.44,.3-.7,.86-1.04,1.29-2.68,1.13-5.49,2.03-8,3.46-2.11,1.2-3.87,3.01-5.78,4.56-.58,.21-1.24,.31-1.74,.65-3.83,2.54-7.65,5.11-11.44,7.73-.52,.36-.83,1.02-1.24,1.54-1.48-.54-2.95-1.08-4.43-1.61,.42-1.6,.83-3.19,1.25-4.79Z" fill="#854164"/>
      <path d="M9.25,113.12c4.11-.78,8.22-1.53,12.32-2.34,9.03-1.78,18.06-3.58,27.09-5.38,.73-.14,1.47-.29,2.14-.58,.33-.15,.52-.63,.77-.96,2.58-.22,5.15-.45,7.73-.67-.1,.85-.2,1.7-.3,2.55-.13,2.04-.26,4.07-.39,6.11-.1,.21-.19,.43-.29,.64,0,0,0,0,0,0-.15,.06-.29,.16-.44,.19-7.69,1.54-15.37,3.08-23.06,4.61-6.49,1.29-12.99,2.58-19.48,3.87-1.85-2.09-3.73-4.15-5.52-6.28-.36-.43-.39-1.15-.58-1.73Z" fill="#a19797"/>
      <path d="M161.21,148.03c7.98-1.94,15.98-3.82,23.94-5.82,9.36-2.35,18.69-4.81,28.03-7.18,4.88-1.24,9.78-2.41,14.67-3.6,.3-.07,.64-.04,.95-.05-.13,1.92-.27,3.84-.4,5.76-3.66,.89-7.32,1.76-10.97,2.67-10.56,2.63-21.11,5.27-31.66,7.93-7.82,1.97-15.63,3.98-23.45,5.97-.26,.06-.53,.07-.79,.1-.11-1.92-.21-3.84-.32-5.77Z" fill="#aca3a3"/>
      <path d="M75.85,169.22c1.36,.69,2.58,.07,3.91-.27,14.95-3.81,29.92-7.54,44.88-11.31,5.86-1.47,11.71-2.99,17.56-4.48,.78,1.68,1.57,3.37,2.35,5.05-2.22,.66-4.42,1.4-6.66,1.97-17.09,4.31-34.2,8.58-51.29,12.89-.5,.13-.92,.57-1.37,.87-2.53-1.18-5.06-2.34-7.57-3.55-.64-.31-1.21-.78-1.81-1.18Z" fill="#aca3a3"/>
      <path d="M252.8,25.69c.7,1.73,.03,2.68-1.52,3.68-5.38,3.48-10.63,7.17-15.94,10.76-.34,.23-.74,.38-1.11,.56-.1-.01-.2-.02-.3-.02,.3-2.21-.6-3.88-2.25-5.28-2.27-1.94-4.49-3.94-6.74-5.92,.38-.46,.69-1.05,1.17-1.38,5.72-3.93,11.43-7.85,17.21-11.68,1.31-.87,1.42-1.5,.23-2.5-.35-.3-.46-.89-.68-1.35,2.56,2.42,5.44,4.55,7.12,7.78,.15,.28,.25,.63,.48,.82,1.45,1.18,2.02,2.79,2.33,4.54Z" fill="#9c737a"/>
      <path d="M137.84,36.87c.15,1.08,.34,2.16,.44,3.24,.14,1.56-.82,2.55-1.96,3.39-.89,.66-1.83,1.26-2.74,1.9-.09,.06-.16,.17-.25,.19-2.22,.39-4.43,.81-6.65,1.14-.86,.13-1.78-.08-2.63,.08-1.9,.36-5.29-.9-6.29-2.55-.95-1.57-1.78-3.2-2.66-4.81-.15-2.98,.38-5.77,3.24-7.3,2-1.07,4.23-1.71,6.35-2.55,.1-.04,.22-.07,.31-.04,3.55,1.21,7.67,.96,10.46,4.21,.9-1.38,2.04-2.56,1.36-4.32-.02-.05-.02-.12,0-.16,1.11-2.12,2.21-4.23,3.34-6.34,.21-.4,.78-.75,.76-1.1-.11-1.71,1-2.75,1.92-3.91,1.31-.69,1.91,.07,2.34,1.16-.97,1-1.87,2-1.87,3.55,0,.47-.28,1.14-.66,1.39-1.19,.81-1.5,2.04-2.05,3.25-.65,1.44-1.57,2.7-1.09,4.42,.09,.32-.2,.86-.47,1.15-1.08,1.15-1.24,2.54-1.21,4Z" fill="#366234"/>
      <path d="M15.35,121.13c6.49-1.29,12.99-2.57,19.48-3.87,7.69-1.53,15.37-3.07,23.06-4.61,.15-.03,.29-.13,.44-.19-.14,.39-.37,.77-.4,1.17-.11,1.53-.16,3.06-.24,4.59-.43,1.53-.89,3.06-1.28,4.61-.13,.5-.06,1.06-.08,1.59-1.16,.06-2.31,.08-3.47,.18-1.44,.12-2.78,.01-3.73-1.25-1.14-1.52-2.46-1.63-4.01-.5-1.79,1.3-3.64,2.53-5.53,3.67-1.67,1.01-3.32,.71-4.79-.6-.46-.41-.99-.82-1.56-1.03-1.97-.75-2.52-2.43-2.82-3.87-2.18,1.28-4.39,2.66-6.69,3.88-1.62,.86-3.65,.23-4.9-1.12-.56-.6-1.35-.97-2.02-1.47-.5-.37-.98-.79-1.47-1.18Z" fill="#ad9c9d"/>
      <path d="M24.04,86.19c-4.11,.78-8.22,1.55-12.33,2.35-2.91,.56-5.82,1.15-8.72,1.75-.92,.19-1.4,0-1.41-1.08,0-.57-.34-1.14-.53-1.71-.05-.18-.1-.37-.14-.55-.05-.13-.1-.27-.14-.4,.04-2.22,.07-4.44,.11-6.66,5.08-.95,10.16-1.92,15.24-2.84,2.85-.52,5.72-.95,8.58-1.42-1.23,3.46-.52,7.04-.64,10.57Z" fill="#9c737a"/>
      <path d="M179.43,234.84h-2.45c0-.37,0-.57,0-.77,.01-.59,.03-1.17,.05-1.76-.58,.1-1.15,.25-1.73,.29-1.76,.12-3.52,.18-5.27,.3-.44,.03-.9,.15-1.31,.33-.99,.41-1.92,1.05-2.95,1.28-1.36,.3-2.79,.24-4.17,.46-.3,.05-.48,.69-.77,1.01-.51,.59-1.17,1.68-1.58,1.6-1.22-.24-1.11-1.38-.8-2.34,.21-.64,.46-1.35,.92-1.81,1.31-1.34,1.95-4.22,1.15-5.96-.33-.73-.83-1.4-1.04-2.16-.21-.76-.4-1.67-.19-2.38,.29-.97,.15-1.58-.57-2.25-.54-.49-.81-1.3-1.37-1.73-2.2-1.67-4.32-3.59-6.78-4.75-2.04-.96-4.55-1.41-6.8-1.28-1.9,.11-3.93-.8-5.85,.6-.88,.64-2.41,.36-3.62,.61-.46,.09-.99,.41-1.24,.79-1.16,1.7-2.02,3.63-4.25,4.29-.33,.1-.57,.59-.79,.94-.71,1.15-1.32,2.38-2.13,3.45-.27,.35-1.03,.33-1.57,.47-.12-.6-.5-1.3-.31-1.78,.53-1.31,1.25-2.55,1.98-3.77,.32-.53,.79-1.31,1.26-1.36,1.99-.24,2.55-1.92,3.49-3.18,1.09-1.45,2.33-2.21,4.28-2.29,1.35-.05,2.73-.95,3.96-1.69,1.02-.62,1.76-1.04,2.77,.05,.3,.32,1.18,.1,1.8,.13,1.17,.22,2.35,.43,3.52,.65,.86,.21,1.73,.39,2.57,.65,1.39,.44,2.94,.67,4.12,1.45,2.84,1.89,5.53,4,7.53,6.86,.76,1.08,1.15,2.1,.49,3.39-.2,.38-.11,1.04,.08,1.47,.85,1.99,2.1,3.87,1.31,6.23-.05,.16,.54,.77,.69,.72,.97-.31,2.08-.55,2.82-1.19,1.19-1.04,2.17-1.45,3.85-.93,1.26,.39,2.95,.08,4.23-.45,1.22-.51,2.24-.76,3.26,.04,.95,.75,2.11,1.52,2.55,2.55,.39,.9-.08,2.17-.18,3.28-.32-.02-.64-.03-.96-.05Z" fill="#a19797"/>
      <path d="M219.71,97.75c-.56-.86-1.09-1.73-1.68-2.57-.32-.46-.72-.88-1.09-1.31-.11-.64-.22-1.28-.33-1.91-.21-.85-.42-1.71-.64-2.56,2.95-2.07,5.88-4.16,8.85-6.2,5.26-3.61,10.54-7.18,15.8-10.79,.51-.35,.9-.88,1.34-1.33,1.2,.76,1.61,1.87,1.58,3.27-.11,5.22-2.65,9.55-7.8,11.42-.46,.17-1.06,.13-1.55,0-1.81-.49-3.6-1.06-5.42-1.6-1.08,5.76-4.36,9.29-9.81,10.82,.26,.95,.5,1.86,.74,2.77Z" fill="#aca3a3"/>
      <path d="M242.87,12.56c.22,.46,.32,1.05,.68,1.35,1.18,1.01,1.07,1.64-.23,2.5-5.77,3.84-11.49,7.76-17.21,11.68-.48,.33-.78,.91-1.17,1.38-2.39-1.92-5.13-3.18-8.01-4.17,.36-.42,.66-.93,1.09-1.23,5.11-3.52,10.25-7.01,15.38-10.52,1.5-1.03,2.96-2.11,4.45-3.18-.68-.85-1.18-1.46-1.68-2.08,.87,.51,1.74,1,2.6,1.53,.71,.43,1.39,.9,2.09,1.34,.56,.35,1.13,.7,1.7,1.05,.09,.1,.18,.19,.26,.29,0,0,.05,.06,.05,.06Z" fill="#a56b76"/>
      <path d="M24.68,75.62c-2.86,.47-5.73,.9-8.58,1.42-5.09,.92-10.16,1.89-15.24,2.84,0,0,.03-.04,.03-.04,.13-1.3,.26-2.6,.4-3.9,.03-.65,.05-1.29,.08-1.94-.01-.52-.02-1.05-.03-1.57,0-.21-.02-.42-.03-.64,.1,0,.21-.02,.31-.02,.37,0,.75,.05,1.11-.02,4.96-.99,9.91-2.04,14.88-2.99,3.41-.65,6.85-1.19,10.27-1.77-.33,.65-.73,1.28-.97,1.96-.78,2.22-1.49,4.45-2.23,6.68Z" fill="#a56b76"/>
      <path d="M201.55,25.31c.34-.44,.6-.99,1.04-1.29,7.44-5.1,14.91-10.17,22.37-15.25,1.01-.69,2.04-1.35,2.98-2.13,.4-.33,.57-.93,.85-1.41,1.64-.26,2.99,.18,3.95,1.62,.17,.26,.57,.37,.86,.55-.58,.65-1.05,1.46-1.75,1.93-6.5,4.47-13.04,8.88-19.55,13.34-.79,.54-1.4,1.33-2.1,2-2.93-.34-5.82-.2-8.65,.63Z" fill="#94546b"/>
      <path d="M210.21,24.68c.7-.67,1.31-1.46,2.1-2,6.5-4.47,13.05-8.87,19.55-13.34,.7-.48,1.17-1.28,1.75-1.93,.86,.3,1.72,.6,2.58,.9,.5,.61,.99,1.23,1.68,2.08-1.49,1.06-2.95,2.15-4.45,3.18-5.12,3.51-10.26,6.99-15.38,10.52-.44,.3-.73,.82-1.09,1.23-1.17,.1-2.34,.2-3.5,.31-1.07-.31-2.15-.63-3.22-.94Z" fill="#9c646e"/>
      <path d="M3.83,62.77c.44,.13,.91,.44,1.3,.37,7.39-1.43,14.76-2.93,22.15-4.34,2.96-.57,5.95-.96,8.93-1.43-1.5,1.49-3,2.99-4.49,4.48-3.12,.59-6.23,1.18-9.35,1.79-6.7,1.31-13.39,2.64-20.08,3.96-.02-.11-.04-.22-.06-.33,.53-1.5,1.07-2.99,1.6-4.49Z" fill="#94546b"/>
      <path d="M53.51,54.15c.55-.31,1.07-.78,1.66-.9,8.66-1.75,17.32-3.44,25.98-5.15q2.07-.41,1.26-2.23c-.08-.19-.06-.42-.09-.63,.52,.75,1.08,1.47,1.54,2.26,.39,.68,.66,1.44,.98,2.17-1.03,.86-2.05,1.72-3.08,2.58-.68,.02-1.38-.06-2.04,.06-4.83,.94-9.65,1.9-14.46,2.91-.54,.11-1.01,.57-1.51,.86-.41-.11-.81-.25-1.23-.31-2.53-.34-5.07-.64-7.6-1.02-.49-.07-.95-.39-1.43-.6Z" fill="#94546b"/>
      <path d="M176.87,202.82c-2.3,.61-4.58,1.36-6.91,1.79-1.73,.31-2.94,1.25-3.91,2.52-1.82,2.39-3.48,4.9-5.31,7.29-.28,.36-1.13,.5-1.63,.38-.27-.06-.65-1.04-.49-1.34,.84-1.57,1.7-3.18,2.82-4.56,1.57-1.94,3.29-3.78,5.13-5.46,.8-.73,2.04-1.07,3.15-1.35,2.33-.59,4.7-1.02,7.06-1.51,.03,.74,.06,1.49,.09,2.23Z" fill="#a19797"/>
      <path d="M242.57,70.5c.74-.69,1.42-1.48,2.24-2.06,3.81-2.65,7.67-5.25,11.51-7.85,.26-.17,.58-.24,.88-.36-1.4,5.2-4.38,9-9.73,10.4-1.52,.4-3.26-.06-4.9-.13Z" fill="#ad9c9d"/>
      <path d="M197.36,223.85c-.09,.3-.1,.7-.3,.87-1.13,.95-2.88,1.19-3.37,2.93-.03,.12-.94,.14-1.31-.05-.26-.14-.42-.72-.41-1.09,.07-1.84,1.09-2.88,3.03-3.21,.57-.1,1.15-.19,1.72-.29,.21,.28,.43,.56,.64,.84Z" fill="#a19797"/>
      <path d="M77.86,40.69c-2.1-.21-3.27-1.73-4.48-3.18,1.61,.95,3.22,1.9,4.83,2.85-.12,.11-.23,.22-.35,.33Z" fill="#854164"/>
      <path d="M81.05,43.9c-.84-.75-1.69-1.5-2.53-2.26,.09-.26,.18-.52,.27-.78,.75,1.01,1.51,2.03,2.26,3.04Z" fill="#94546b"/>
      <path d="M1.3,75.93c-.13,1.3-.26,2.6-.4,3.9-1.17-1.43,.19-2.61,.4-3.9Z" fill="#9c737a"/>
      <path d="M2.23,67.26c.02,.11,.04,.22,.06,.33-.22,1.39-.44,2.78-.67,4.17-.1,0-.21,.02-.31,.02,.3-1.51,.61-3.02,.91-4.53Z" fill="#9c737a"/>
      <path d="M228.84,130.43c0-.66,0-1.31,0-1.97,0,.66,0,1.31,0,1.97Z" fill="#aca3a3"/>
      <path d="M1.35,72.42c0,.52,.02,1.05,.03,1.57,0-.52-.02-1.05-.03-1.57Z" fill="#9c737a"/>
      <path d="M77.86,40.69c.12-.11,.23-.22,.35-.33,.15,.12,.3,.25,.45,.37-.26-.01-.53-.03-.79-.04Z" fill="#94546b"/>
      <path d="M.75,86.54c.05,.13,.1,.27,.14,.4-.05-.13-.1-.27-.14-.4Z" fill="#9a8587"/>
      <path d="M242.82,12.51c-.09-.1-.18-.19-.26-.29,.09,.1,.18,.19,.26,.29Z" fill="#9c737a"/>
      <path d="M147.08,210.83c-1.17-.22-2.35-.43-3.52-.65-.74-.68-1.58-1.28-2.18-2.07-1.54-2-2.99-4.08-4.42-6.15-.18-.27-.15-.73-.13-1.09,.11-1.99,.26-3.98,.37-5.97,.15-2.81,2.38-4.31,4-6.13,2.97-3.34,3.87-3.32,7.66-.94,.65,.41,1.52,.45,2.28,.67,.15,.04,.36,.06,.43,.16,1.66,2.54,4.59,4.21,4.59,7.89,0,2.75,.76,5.53-.72,8.1-1.76,3.05-4.51,4.84-7.81,5.88-.19,.06-.36,.19-.55,.29Z" fill="#dacccc"/>
      <path d="M144.55,158.21c-.78-1.68-1.57-3.37-2.35-5.05-.61-1.15-1.52-2.24-1.76-3.45-.37-1.88-.27-3.84-.37-5.77,.81-1.35,1.53-2.76,2.44-4.04,1.85-2.61,3.53-3.26,6.56-2.39,2.05,.58,4.01,1.46,6.01,2.2,.58,.67,1.21,1.29,1.72,2.01,1.5,2.09,2.94,4.21,4.41,6.32,.11,1.92,.21,3.84,.32,5.77-.12,.82-.28,1.65-.35,2.47-.19,2.3-.73,4.1-3.2,5.3-3.53,1.71-6.77,1.32-9.97-.34-1.32-.69-2.32-1.99-3.46-3.01Z" fill="#f27f88"/>
      <path d="M119.23,118.6c.03-.7,.3-1.49,.06-2.07-.45-1.08-.45-1.99,.11-3.01,.23-.42,.35-1.09,.17-1.49-.63-1.38-.32-2.63,.1-3.99,.61-2,1.01-4.06,1.49-6.1,.21-.65,.49-1.28,.63-1.94,.79-3.71,.95-7.65,3.89-10.58,.19-.46,.4-.9,.57-1.37,.35-.93,.68-1.88,1.01-2.81,.6-.4,1.35-.67,1.77-1.21,1.88-2.35,3.92-3.01,6.82-2.03,.64,.22,1.27,.48,1.91,.72,2.03,.75,4.05,1.5,6.08,2.26,.55,.63,1.15,1.23,1.64,1.91,.72,1.01,1.36,2.08,2.04,3.12,.69,1.05,1.89,2.05,1.99,3.15,.17,1.94,1.11,3.37,2.02,4.89,.31,.94,.63,1.88,.93,2.83,.22,.69,.34,1.43,.66,2.07,.87,1.75,1.47,3.46,.52,5.41-.25,.51-.08,1.23-.11,1.86,.16,1.73,.33,3.46,.47,5.19,.12,1.4,.42,2.83,.26,4.21-.21,1.9-.78,3.76-1.19,5.64-.71,1.83-1.65,3.3-3.71,4.05-1.16,.42-1.97,1.72-3.02,2.52-1.52,1.15-3.17,1.94-5.17,1.21-.37-.14-.95-.18-1.23,.02-1.55,1.12-3.24,.68-4.93,.62-1.37-.05-2.78-.06-4.13,.15-2.53,.39-4.69-.55-6.86-1.57-3.04-1.08-3.09-3.82-3.49-6.34-.28-1.79-.12-3.65-1.23-5.3-.32-.47-.07-1.33-.08-2.01Z" fill="#353636"/>
      <path d="M153.07,125.26c.41-1.88,.98-3.74,1.19-5.64,.15-1.38-.14-2.8-.26-4.21-.15-1.73-.31-3.46-.47-5.19,.37-.04,.75-.02,1.1-.11,6.35-1.61,12.7-3.25,19.06-4.83,.49-.12,1.07,.1,1.61,.17-2.36,1.55-4.77,3.04-6.14,5.67-.07,.14-.23,.22-.34,.34-1.83,1.95-1.59,3.39,.95,4.09,3.05,.84,6.11,1.56,8.82,3.27-4.8,1.3-9.59,2.62-14.4,3.88-3.17,.83-6.37,1.58-9.56,2.35-.51,.12-1.04,.15-1.56,.22Z" fill="#a7888d"/>
      <path d="M178.59,118.81c-2.71-1.71-5.77-2.43-8.82-3.27-2.54-.7-2.78-2.13-.95-4.09,.11-.12,.27-.21,.34-.34,1.37-2.63,3.78-4.12,6.14-5.67,.52-.21,1.13-.32,1.54-.66,1.65-1.37,3.54-1.42,5.51-1.16,.99,.45,1.68,1.3,1.18,2.25-.36,.68-1.46,1.42-2.16,1.36-1.66-.14-2.77,.76-3.86,1.6-1.39,1.06-3.48,1.24-4.19,3.19-.04,.1-.05,.2-.01,.04,2.68,1.33,5.34,2.56,7.9,3.98,.49,.27,.59,1.24,.86,1.88-.95,1.67-1.33,1.77-3.47,.9Z" fill="#130c0d"/>
      <path d="M74.14,145.81c1.23-2.34,2.42-4.7,3.74-6.99,.29-.5,1.06-.87,1.67-.99,.47-.09,1.25,.15,1.51,.51,.2,.29-.12,1.01-.32,1.5-.26,.62-.64,1.19-.97,1.78-1.15,2.89-2.22,5.81-3.52,8.64-.29,.62-1.32,1.16-2.07,1.25-1.29,.16-1.61-.6-1.15-1.83,.47-1.25,.75-2.58,1.11-3.87Z" fill="#e86768"/>
      <path d="M212.01,125.31c.83,1.95,1.6,3.93,2.53,5.82,.53,1.07,.71,1.99-.5,2.54-.97,.45-2.06,.72-2.69-.67-1.01-2.26-2.06-4.5-3.1-6.76-.35-.52-.67-1.07-1.07-1.56-.49-.6-1.36-1.16-.53-1.99,.78-.78,1.86-1.32,2.83-.43,.96,.88,1.69,2.01,2.52,3.04Z" fill="#e86768"/>
      <path d="M192.91,129.77c.1,1.9,.13,3.81,.32,5.7,.12,1.28-.24,2.09-1.56,2.3-1.34,.21-2.08-.53-2.2-1.72-.17-1.65-.11-3.33-.15-5,.13-1.34,.13-2.7,.43-4,.3-1.3,1.38-1.71,2.6-1.37,1.24,.34,.89,1.31,.7,2.21-.13,.61-.09,1.25-.13,1.88Z" fill="#e86768"/>
      <path d="M84.64,140.99c.44-.27,.85-.62,1.33-.81,1.22-.48,1.95,.02,2.26,1.44-.22,2.83-.63,5.66,.29,8.46,.37,1.15-.28,1.87-1.35,2.08-1.06,.21-1.83-.02-2.28-1.32-1.12-3.29-.28-6.57-.24-9.85Z" fill="#e86768"/>
      <path d="M92.18,141.3c1.13-.62,2.26-1.28,3.61-.61,2.39,1.72,1.59,4.64,2.55,6.91,.74,1.75-.36,2.89-2.28,2.64-.32-.04-.79-.38-.86-.66-.49-1.84-.86-3.7-1.33-5.54-.12-.48-.41-.93-.68-1.36-.3-.48-.67-.92-1.01-1.38Z" fill="#e86768"/>
      <path d="M201.76,127.87c.23,1.14,.35,2.31,.71,3.4,.42,1.26-.17,1.74-1.19,2.13-1.07,.4-1.93,.26-2.31-.9-.39-1.21-.65-2.46-.96-3.69-.12-.57-.17-1.16-.39-1.69-.5-1.24-.21-2.04,1.11-2.47,1.26-.41,2.05-.1,2.36,1.27,.15,.67,.44,1.3,.67,1.95Z" fill="#e86768"/>
      <path d="M24.68,75.62c.74-2.23,1.45-4.47,2.23-6.68,.24-.68,.64-1.31,.97-1.96,.53-.64,1.06-1.28,1.59-1.92,1.05-.15,2.1-.26,3.14-.47,10.65-2.09,21.31-4.18,31.95-6.32,1.06-.21,2.04-.81,3.05-1.23,2.7,.31,5.17,1.11,7.05,3.21-1.38,2.08-3.1,4.03-4.05,6.29-.87,2.06-2.05,3.89-3.05,5.84-.2,.75-.37,1.5-.62,2.23-.37,1.1-.79,2.18-1.19,3.26-3.43,.58-6.88,1.09-10.3,1.76-8.25,1.62-16.48,3.29-24.71,4.98-2.15,.44-4.27,1.06-6.4,1.6-.1,0-.21-.02-.31-.03,.12-3.53-.58-7.11,.64-10.57Z" fill="#bf747c"/>
      <path d="M65.76,77.87c.4-1.09,.82-2.17,1.19-3.26,.25-.73,.41-1.49,.62-2.23,.54,.07,1.12,.31,1.62,.19,20.33-5.07,40.66-10.16,60.98-15.27,11.27-2.83,22.52-5.71,33.78-8.57,3.8-.97,7.61-1.91,11.41-2.92,.64-.17,1.22-.6,1.83-.9,1.46,1.06,2.92,2.11,4.38,3.17,1.1,.93,2.21,1.85,3.31,2.78-3.94,1.09-7.86,2.26-11.82,3.26-23.42,5.92-46.85,11.8-70.27,17.7-11.74,2.96-23.47,5.95-35.21,8.9-.6,.15-1.28,.03-1.92,.04-.1-.74-.19-1.48-.29-2.22l.25-.31c.05-.1,.1-.21,.14-.31Z" fill="#6d4045"/>
      <path d="M181.56,48.06c-1.46-1.06-2.92-2.11-4.38-3.17-1.27-.55-2.55-1.09-3.82-1.64,.41-.52,.72-1.19,1.24-1.54,3.78-2.62,7.6-5.19,11.44-7.73,.5-.33,1.16-.44,1.74-.65-.32,.48-.54,1.1-.98,1.43-3.15,2.31-3.64,5.93-4.63,9.28-.22,.73,.09,1.61,.15,2.43,0,.51-.01,1.02-.02,1.53-.24,.02-.49,.04-.73,.06Z" fill="#94546b"/>
      <path d="M74.67,60.24c-1.88-2.1-4.35-2.9-7.05-3.21-.6-.11-1.22-.18-1.81-.33-.69-.17-1.36-.42-2.04-.63,.5-.29,.97-.75,1.51-.86,4.81-1.01,9.63-1.97,14.46-2.91,.66-.13,1.36-.05,2.04-.06-.81,.95-1.63,1.91-2.44,2.86-.17,.11-.34,.23-.5,.34,0,0,.02-.01,.02-.01-1.62,.37-2.77,1.26-3.21,2.92-.32,.63-.64,1.25-.97,1.88Z" fill="#9c646e"/>
      <path d="M75.64,58.36c.45-1.66,1.59-2.56,3.21-2.92-1.07,.97-2.14,1.95-3.21,2.92Z" fill="#b8aaab"/>
      <path d="M78.83,55.45c.17-.11,.34-.23,.5-.34-.17,.11-.34,.23-.5,.34Z" fill="#b8aaab"/>
      <path d="M89.73,125.01c-1.25-.04-2.24-.44-2.24-1.9,0-1.38,1.03-1.88,2.15-1.86,2.92,.06,5.68-.58,8.4-1.55,.24-.09,.59-.18,.77-.08,2.14,1.27,4.46,.18,6.66,.54,.71,.12,1.38,.44,2.07,.67,.63,1.73,.26,2.55-1.46,3.18-3.55,1.31-5.72,4.03-7.33,7.27-.56,1.12-1.19,1.94-2.55,1.55-1.14-.33-1.61-1.48-.92-2.88,.71-1.44,1.69-2.74,2.6-4.07,.44-.64,.99-1.21,1.82-2.21-3.64,.49-6.8,.91-9.97,1.33Z" fill="#130c0d"/>
      <path d="M57.69,118.23c.07-1.53,.12-3.06,.24-4.59,.03-.4,.26-.78,.4-1.17,0,0,0,0,0,0,.1-.21,.19-.43,.29-.64,.13-2.04,.26-4.07,.39-6.11,.57-.07,1.16-.08,1.71-.22,5.84-1.41,11.67-2.84,17.51-4.26,.3,.21,.57,.56,.89,.62,4.33,.79,8.04,3.57,12.77,3.38,2.79-.11,5.64,1.22,8.47,1.9-1.26,.46-2.5,1.04-3.79,1.37-12.74,3.24-25.49,6.44-38.23,9.65-.2,.05-.42,.04-.63,.05Z" fill="#ab737e"/>
      <path d="M125.68,89.42c-2.93,2.93-3.1,6.86-3.89,10.58-.14,.66-.42,1.29-.63,1.94-.64-.03-1.31-.22-1.91-.07-5.32,1.28-10.62,2.62-15.93,3.94-2.53-.75-5.02-1.65-7.59-2.22-2.15-.47-4.43-.35-6.56-.87-2.24-.54-4.36-1.54-6.53-2.33,.42-.33,.8-.85,1.28-.97,13.41-3.4,26.84-6.76,40.26-10.1,.46-.12,1,.06,1.5,.1Z" fill="#ab737e"/>
      <path d="M82.63,100.38c2.17,.8,4.3,1.79,6.53,2.33,2.13,.52,4.41,.4,6.56,.87,2.57,.57,5.06,1.46,7.59,2.22,.21,1.56-.32,2.1-1.76,1.73-.41-.1-.8-.25-1.2-.38-2.82-.68-5.67-2.01-8.47-1.9-4.73,.18-8.44-2.6-12.77-3.38-.32-.06-.6-.41-.89-.62,.11-1.52,.92-1.86,2.27-1.4,.69,.24,1.42,.36,2.14,.53Z" fill="#130c0d"/>
      <path d="M65.37,78.5c.1,.74,.19,1.48,.29,2.22-.79,1.6-1.69,3.17-2.34,4.83-.34,.85,.04,2.07-.42,2.78-1.15,1.76-1.03,3.63-1.02,5.53-.17,.55-.18,1.24-.53,1.62-1.46,1.6-1.06,3.6-1.36,5.45-.23,.75-.46,1.49-.69,2.24-2.57,.22-5.15,.45-7.73,.67-2.16-.14-4.42,.05-6.47-.52-2.55-.71-4.95-2-7.38-3.11-1.92-.87-3.82-1.82-5.69-2.8-.63-.33-1.32-.77-1.71-1.34-1.45-2.14-2.8-4.35-4.15-6.55-.66-1.08-1.22-2.21-1.83-3.32,2.13-.54,4.25-1.15,6.4-1.6,8.23-1.7,16.46-3.37,24.71-4.98,3.42-.67,6.87-1.18,10.3-1.76-.05,.1-.1,.21-.14,.31-.08,.1-.17,.21-.25,.31Z" fill="#c78a8c"/>
      <path d="M182.34,103.62c-1.97-.26-3.86-.21-5.51,1.16-.41,.34-1.02,.45-1.54,.66-.54-.06-1.12-.29-1.61-.17-6.36,1.58-12.71,3.22-19.06,4.83-.35,.09-.73,.08-1.1,.11,.02-.62-.14-1.34,.11-1.86,.95-1.95,.34-3.66-.52-5.41-.32-.64-.44-1.38-.66-2.07-.3-.94-.62-1.89-.93-2.83,1.25-.4,2.47-.9,3.74-1.18,2.76-.61,5.54-1.11,8.31-1.65-.42,.47-.82,.96-1.27,1.4-.65,.63-1.32,1.35-.44,2.14,.83,.75,1.51,.03,2.2-.53,1.48-1.19,3.02-2.32,4.55-3.44,1.28-.94,2.81-1.65,3.82-2.82,1.56-1.81,2.94-3.72,5.32-4.53,.52-.07,1.06-.08,1.56-.21,6.58-1.68,13.15-3.39,19.73-5.06,3.28-.83,6.59-1.6,9.88-2.39l1.61,1.61s-.01,0-.01,0c.11,.11,.22,.22,.33,.34,0,0,0-.01,0-.01,.12,.22,.23,.44,.35,.65,.22,.61,.38,1.25,.66,1.83,.24,.49,.61,.92,.92,1.38,.1,1.26,.59,2.22,1.92,2.54h0c.11,.11,.21,.22,.32,.33h0c.11,.11,.21,.22,.32,.32,0,0,0,0,0,0,0,1.24,.02,2.47,1.27,3.21,.11,.64,.22,1.28,.33,1.91-.5,.33-.96,.83-1.51,.97-10.1,2.59-20.2,5.13-30.3,7.71-.96,.24-1.86,.71-2.79,1.07Z" fill="#a87d84"/>
      <path d="M233.93,40.68c.1,0,.2,.01,.3,.02,.21,.54,.36,1.11,.63,1.63,.86,1.65,1.81,3.22,.45,5.12-.26,.37,.26,1.23,.2,1.83-.12,1.13-.76,2.32-.55,3.35,.42,2.06-.56,3.43-1.59,4.93-.71,1.04-1.23,2.21-1.84,3.31-.18,.32-.37,.65-.61,.93-1.12,1.3-2.26,2.59-3.39,3.88-1.77,1.57-3.3,3.85-5.36,4.5-2.21,.71-3.58,2.38-5.55,3.19-3.02-.31-5.28,3.07-8.52,1.74-.2-.08-.51,.1-.77,.16-1.28-1.59-2.57-3.19-3.85-4.78-.1-.11-.21-.22-.31-.33h0c.36-2.25-1.02-3.22-2.85-3.85-.24-.84-.48-1.68-.72-2.52,.05-.15,.06-.37,.17-.44,3.48-2.33,6.99-4.62,10.45-6.97,6.68-4.54,13.33-9.13,20.01-13.65,1.17-.79,2.47-1.37,3.71-2.05Z" fill="#c78a8c"/>
      <path d="M207.32,75.27c.26-.06,.57-.24,.77-.16,3.24,1.33,5.5-2.05,8.52-1.74-.28,.43-.45,1.01-.84,1.28-2.04,1.43-4.13,2.79-6.21,4.17-.53-.65-1.07-1.3-1.6-1.96-.21-.53-.43-1.06-.64-1.59Z" fill="#9a8587"/>
      <path d="M207.96,76.86c.53,.65,1.07,1.3,1.6,1.96,.33,.85,.65,1.71,.98,2.56-.54-.54-1.07-1.07-1.61-1.61-.32-.97-.65-1.94-.97-2.91Z" fill="#9c646e"/>
      <path d="M214.7,88.1c-1.33-.32-1.83-1.28-1.92-2.54,.64,.85,1.28,1.69,1.92,2.54Z" fill="#9c737a"/>
      <path d="M216.61,91.96c-1.25-.75-1.26-1.98-1.27-3.21,.21,.22,.42,.44,.63,.65,.21,.85,.42,1.71,.64,2.56Z" fill="#9c737a"/>
      <path d="M211.2,82.35c-.12-.22-.23-.44-.35-.65,.12,.22,.23,.44,.35,.65Z" fill="#9c646e"/>
      <path d="M215.02,88.43c-.11-.11-.21-.21-.32-.32,.11,.11,.21,.21,.32,.32Z" fill="#9c737a"/>
      <path d="M210.86,81.71c-.11-.11-.22-.22-.33-.34,.11,.11,.22,.22,.33,.34Z" fill="#9c646e"/>
      <path d="M215.34,88.75c-.11-.11-.21-.22-.32-.33l.32,.33Z" fill="#9c737a"/>
      <path d="M63.77,56.08c.68,.21,1.35,.45,2.04,.63,.59,.15,1.21,.22,1.81,.33-1.01,.42-1.99,1.02-3.05,1.23-10.64,2.15-21.3,4.23-31.95,6.32-1.04,.2-2.09,.31-3.14,.47,.75-1.07,1.49-2.14,2.24-3.21,1.5-1.49,3-2.99,4.49-4.48,2.36-.7,4.68-1.62,7.08-2.04,3.37-.59,6.81-.8,10.21-1.17,.48,.21,.93,.53,1.43,.6,2.53,.37,5.07,.67,7.6,1.02,.42,.06,.82,.2,1.23,.31Z" fill="#b35e71"/>
      <path d="M182.31,46.46c-.06-.81-.37-1.7-.15-2.43,1-3.35,1.49-6.98,4.63-9.28,.44-.32,.66-.94,.98-1.43,1.91-1.54,3.67-3.36,5.78-4.56,2.51-1.43,5.32-2.33,8-3.46,2.84-.84,5.73-.97,8.65-.63,1.07,.31,2.15,.63,3.22,.94-.47,.34-.93,.7-1.41,1.03-9.38,6.4-18.75,12.8-28.14,19.18-.46,.31-1.05,.43-1.57,.64Z" fill="#b35e71"/>
      <path d="M59.3,103.18c.23-.75,.46-1.49,.69-2.24,.65,.14,1.37,.53,1.95,.39,5.15-1.25,10.28-2.6,15.43-3.9,13.47-3.4,26.94-6.82,40.42-10.17,3.13-.78,6.31-1.35,9.47-2.02-.34,.94-.66,1.88-1.01,2.81-.17,.46-.38,.91-.57,1.37-.5-.04-1.04-.22-1.5-.1-13.43,3.34-26.85,6.7-40.26,10.1-.48,.12-.85,.64-1.28,.97-.71-.17-1.44-.3-2.14-.53-1.36-.46-2.16-.12-2.27,1.4-5.84,1.42-11.67,2.85-17.51,4.26-.56,.13-1.14,.15-1.71,.22,.1-.85,.2-1.7,.3-2.55Z" fill="#a56b76"/>
      <path d="M58.61,111.83c-.1,.21-.19,.43-.29,.64,.1-.21,.19-.43,.29-.64Z" fill="#ad9c9d"/>
      <path d="M182.31,46.46c.53-.21,1.12-.32,1.57-.64,9.39-6.38,18.76-12.78,28.14-19.18,.48-.33,.94-.69,1.41-1.03,1.17-.1,2.34-.2,3.5-.31,2.87,1,5.62,2.25,8.01,4.17,2.24,1.98,4.47,3.98,6.74,5.92,1.64,1.4,2.55,3.07,2.25,5.28-1.24,.68-2.54,1.26-3.71,2.05-6.69,4.53-13.33,9.11-20.01,13.65-3.46,2.35-6.97,4.64-10.45,6.97-.11,.07-.11,.29-.17,.44-.36-.45-.72-.9-1.09-1.33-.9-1.06-1.81-2.12-2.72-3.17-.43-.6-.77-1.31-1.32-1.78-1.15-.96-2.44-1.75-3.6-2.69-1.3-1.05-2.53-2.2-3.79-3.3l-4.77-3.52,.02-1.53Z" fill="#bf747c"/>
      <path d="M31.72,61.84c-.75,1.07-1.49,2.14-2.24,3.21-.53,.64-1.06,1.28-1.59,1.92-3.42,.59-6.86,1.12-10.27,1.77-4.97,.95-9.92,2-14.88,2.99-.36,.07-.74,.02-1.11,.02,.22-1.39,.44-2.78,.67-4.17,6.69-1.32,13.39-2.65,20.08-3.96,3.11-.61,6.23-1.19,9.35-1.79Z" fill="#9c646e"/>
      <path d="M195.78,59.29c.91,1.06,1.82,2.11,2.72,3.17,.37,.44,.73,.89,1.09,1.33,.24,.84,.48,1.68,.72,2.52-.55,.2-1.09,.46-1.65,.6-6.43,1.63-12.87,3.24-19.31,4.87-13.44,3.4-26.87,6.79-40.3,10.21-.47,.12-.87,.48-1.3,.73-.64-.24-1.26-.5-1.91-.72-2.9-.98-4.94-.32-6.82,2.03-.43,.53-1.17,.81-1.77,1.21-3.16,.67-6.34,1.24-9.47,2.02-13.48,3.36-26.95,6.77-40.42,10.17-5.14,1.3-10.27,2.65-15.43,3.9-.59,.14-1.3-.25-1.95-.39,.29-1.85-.1-3.85,1.36-5.45,.35-.38,.36-1.07,.53-1.62,.31-.05,.63-.07,.94-.15,14.57-3.69,29.15-7.37,43.72-11.07,11.28-2.86,22.55-5.74,33.83-8.58,13.7-3.45,27.41-6.88,41.11-10.32,4.33-1.08,8.67-2.12,12.98-3.27,.49-.13,1.77,.16,1.34-1.19Z" fill="#9c646e"/>
      <path d="M207.96,76.86c.32,.97,.65,1.94,.97,2.91-3.29,.8-6.59,1.56-9.88,2.39-6.58,1.67-13.15,3.38-19.73,5.06-.51,.13-1.04,.14-1.56,.21,.72-.7,1.44-1.41,2.17-2.09,.99-.93,2-1.83,2.99-2.76,.64-.6,1.1-1.32,.24-2.02-.82-.67-1.43-.04-2.04,.53-1.67,1.55-3.38,3.07-5.1,4.57-.27,.23-.67,.3-.97,.51-.87,.61-1.82,1.16-2.56,1.91-.99,.99-1.66,2.35-2.76,3.18-1.93,1.47-4.08,2.66-6.14,3.96-2.77,.54-5.55,1.04-8.31,1.65-1.27,.28-2.5,.78-3.74,1.18-.91-1.53-1.86-2.96-2.02-4.89-.1-1.1-1.3-2.1-1.99-3.15-.68-1.04-1.32-2.11-2.04-3.12-.49-.68-1.09-1.28-1.64-1.91,1.39-.56,2.75-1.27,4.19-1.64,9.21-2.36,18.44-4.63,27.66-6.95,8.5-2.14,16.99-4.32,25.49-6.44,.61-.15,1.32,.14,1.99,.22,0,0,0,0,0,0,.1,.11,.21,.22,.31,.33,1.28,1.59,2.57,3.19,3.85,4.78,.21,.53,.43,1.06,.64,1.59Z" fill="#ab737e"/>
      <path d="M203.16,70.16c-.67-.08-1.38-.37-1.99-.22-8.51,2.11-16.99,4.29-25.49,6.44-9.22,2.32-18.45,4.59-27.66,6.95-1.44,.37-2.8,1.09-4.19,1.64-2.03-.75-4.05-1.5-6.08-2.26,.43-.25,.84-.61,1.3-.73,13.43-3.42,26.86-6.82,40.3-10.21,6.43-1.63,12.87-3.24,19.31-4.87,.56-.14,1.1-.4,1.65-.6,1.84,.63,3.21,1.6,2.85,3.85Z" fill="#a56b76"/>
      <path d="M195.78,59.29c.43,1.35-.85,1.06-1.34,1.19-4.31,1.15-8.65,2.19-12.98,3.27-13.71,3.43-27.41,6.86-41.11,10.32-11.28,2.84-22.55,5.72-33.83,8.58-14.57,3.69-29.14,7.38-43.72,11.07-.31,.08-.63,.1-.94,.15-.01-1.9-.13-3.77,1.02-5.53,.47-.71,.09-1.93,.42-2.78,.66-1.66,1.55-3.22,2.34-4.83,.64,0,1.31,.12,1.92-.04,11.74-2.95,23.47-5.94,35.21-8.9,23.42-5.9,46.85-11.78,70.27-17.7,3.96-1,7.88-2.17,11.82-3.26,.73,.23,1.46,.45,2.19,.68,1.26,1.1,2.49,2.25,3.79,3.3,1.17,.94,2.46,1.73,3.6,2.69,.55,.46,.88,1.18,1.32,1.78Z" fill="#855159"/>
      <path d="M187.06,51.51c-.73-.23-1.46-.45-2.19-.68-1.1-.93-2.2-1.85-3.31-2.78,.24-.02,.49-.04,.73-.06,1.59,1.17,3.18,2.35,4.77,3.52Z" fill="#b8aaab"/>
      <path d="M65.37,78.5c.08-.1,.17-.21,.25-.31-.08,.1-.17,.21-.25,.31Z" fill="#bf747c"/>
      <path d="M163.58,95.23c2.06-1.31,4.21-2.49,6.14-3.96,1.09-.83,1.76-2.19,2.76-3.18,.75-.75,1.69-1.3,2.56-1.91,.3-.21,.7-.27,.97-.51,1.72-1.5,3.43-3.02,5.1-4.57,.62-.57,1.22-1.2,2.04-.53,.86,.7,.4,1.42-.24,2.02-.99,.93-2,1.83-2.99,2.76-.73,.69-1.45,1.39-2.17,2.09-2.38,.81-3.76,2.72-5.32,4.53-1.01,1.17-2.54,1.88-3.82,2.82-1.53,1.13-3.07,2.25-4.55,3.44-.69,.56-1.37,1.28-2.2,.53-.88-.8-.21-1.51,.44-2.14,.45-.44,.85-.93,1.27-1.4Z" fill="#130c0d"/>
      <path d="M203.47,70.49c-.1-.11-.21-.22-.31-.33,.1,.11,.21,.22,.31,.33Z" fill="#a56b76"/>
    </g>
  </g>
</svg>