<?xml version="1.0" encoding="UTF-8"?>
<svg id="Layer_2" data-name="Layer 2" xmlns="http://www.w3.org/2000/svg" viewBox="0 0 535.54 267.23">
  <g id="Layer_2-2" data-name="Layer 2">
    <g>
      <path d="M535.54,43.39c-11.3,.42-22.59,1.05-33.9,1.22-39.84,.58-79.69,1.02-119.53,1.45-8.26,.09-16.53-.06-24.79-.1,6.19-1.91,12.39-3.82,18.58-5.73,11.44,.02,22.88,.04,34.31,.06,.55-.04,1.09-.07,1.64-.11,10.98,.11,21.96,.13,32.93,.36,27.11,.59,54.22,1.28,81.33,1.93,3.14,.08,6.28,.17,9.43,.26v.65Z" fill="#279848"/>
      <path d="M241.12,0c.34,.1,.67,.26,1.01,.28,14.72,.69,29.43,1.35,44.15,2.04,2.03,.1,4.06,.29,6.09,.54-48.75,3.86-97.5,3.83-146.25-.18,8.28-.48,16.55-1.03,24.83-1.43,8.04-.39,16.08-.63,24.12-.95,.55-.02,1.1-.2,1.65-.3,14.8,0,29.59,0,44.39,0Z" fill="#2a9849"/>
      <path d="M535.54,223.45c-12.22,.44-24.43,1.01-36.65,1.28-24.12,.53-48.24,.9-72.35,1.34-.44-.2-.85-.47-1.31-.58-2.42-.59-4.87-1.07-7.26-1.73-3.91-1.08-7.79-2.28-11.68-3.43,21.85,.25,43.7,.41,65.55,.79,17.72,.32,35.43,.91,53.14,1.39,3.52,.09,7.04,.2,10.56,.29v.65Z" fill="#2b9849"/>
      <path d="M237.5,85.28c2.77,.01,5.55,.04,8.32,.04,31.12,.05,62.23-.04,93.34,.19,43.3,.33,86.59,.86,129.88,1.39,18.6,.23,37.2,.7,55.79,1.06,.79,.02,1.58,.07,2.37,.1,0,.21,0,.42-.01,.63-5.07,0-10.15-.06-15.22,0-54.71,.69-109.43,1.43-164.14,2.08-17.3,.21-34.6,.19-51.89,.27-9.18,0-18.37-.02-27.55-.02-14.18,0-28.37,0-42.55,0-11.19-.05-22.39-.11-33.58-.16-.57-.04-1.15-.08-1.72-.12-18.28-.13-36.55-.26-54.83-.38-3.49-.08-6.97-.17-10.46-.26-.34,.04-.69,.07-1.03,.11-12.89-.18-25.77-.32-38.66-.54-23.82-.4-47.63-.85-71.44-1.29-.22,0-.43-.03-.66-.42,.94,0,1.89,.01,2.83,0,24.52-.43,49.04-.94,73.57-1.29,28.87-.41,57.75-.67,86.62-1,1.08-.01,2.17-.13,3.25-.2,19.05-.01,38.11-.03,57.16-.05,.21,0,.41-.1,.62-.15Z" fill="#299849"/>
      <path d="M306.02,136.02c-3.48,0-6.96-.01-10.44-.01-71.63,0-143.26,.12-214.89-.09-18.37-.05-36.74-1.13-55.11-1.77-5.54-.19-11.08-.5-16.64-.98,.35-.06,.69-.15,1.04-.16,8.2-.41,16.4-.93,24.6-1.18,19.02-.57,38.05-1.05,57.08-1.48,4.94-.11,9.9,.09,14.84,.1,73.81,0,147.61,0,221.42,0,.76,0,1.52,.04,2.28,.07-6.57,2.41-13.4,3.67-20.32,4.56-1.3,.17-2.57,.63-3.86,.95Z" fill="#259748"/>
      <path d="M280.92,175.81c10.66-.07,21.32-.24,31.97-.2,49.87,.15,99.73,.25,149.6,.59,20.33,.14,40.66,.83,61,1.31,3.63,.09,7.26,.42,10.89,.92-7.52,.31-15.04,.74-22.57,.92-62.2,1.45-124.41,2.05-186.62,1.59-13.49-.1-26.97-.22-40.46-.32-.81,0-1.63,.07-2.44,.11-1.51-.1-3.02-.27-4.53-.28-9.82-.03-19.64-.03-29.46-.03-.76,0-1.53,0-2.29-.01-10.63-.11-21.27-.53-31.89-.21-7.55,.22-14.43-2.4-21.62-3.67,3.9-.05,7.79-.1,11.69-.16,2-.06,4-.16,6-.17,8.26-.04,16.53-.06,24.79-.09,4.86,0,9.72-.02,14.57-.03,.59,.02,1.19,.06,1.79,.05,8.94-.09,17.88-.19,26.82-.29,.92-.01,1.84-.02,2.76-.03Z" fill="#289848"/>
      <path d="M406.28,220.32c3.89,1.15,7.77,2.35,11.68,3.43,2.4,.66,4.85,1.14,7.26,1.73,.46,.11,.87,.38,1.31,.58-.44,.14-.88,.44-1.31,.41-.99-.07-1.98-.3-2.96-.46-.14-.08-.26-.21-.41-.24-7.92-1.72-15.42-5.26-23.69-5.47-.05-.13-.08-.36-.14-.36-1.08-.1-2.16-.23-3.24-.24-3.89-.03-7.78-.01-11.68-.01,0,.13,.01,.26,.02,.39,.2,.08,.39,.16,.59,.24-.21,.06-.41,.17-.62,.16-5.43-.3-10.66,1.02-15.91,2.1-2.17,.44-4.17,1.61-6.3,2.31-1.48,.49-3.03,.75-4.55,1.11-3.97,.58-7.92,1.23-11.9,1.71-6.52,.8-13,.16-19.45-.86-2.73-.43-5.46-.82-8.2-1.23-.79-.18-1.56-.44-2.36-.52-6.89-.67-13.78-1.75-20.68-1.86-10.57-.17-21.16,.32-31.74,.56-1.29,.03-2.57,.23-3.85,.34,.03,.08,.05,.16,.1,.23,.03,.04,.09,.05,.14,.08-9.96,.78-19.91,1.63-29.88,2.3-6.8,.46-13.56-.15-20.31-1.11-4.35-.62-8.75-.89-13.13-1.31-.54-.24-1.09-.48-2.04-.9,4.89-.3,9.31-.57,13.84-.84-.48-.1-.84-.17-1.21-.24,3.58-.04,7.16-.15,10.74-.11,12.9,.15,25.52-1.63,38.03-4.77,10.24-2.57,20.69-3.97,31.3-3.79,8.25,.14,16.3,1.32,24.07,4.33,3.31,1.28,6.88,1.92,10.33,2.86,3.76,.63,7.51,1.65,11.29,1.81,8.94,.37,17.9,.35,26.85,.45,.96,.01,1.94-.1,2.89-.28,3.39-.65,6.78-1.34,10.16-2.04,.17-.03,.29-.29,.44-.45,5-.53,9.99-1.13,15-1.56,5.92-.51,11.79-.02,17.6,1.18,.63,.13,1.27,.23,1.91,.34Z" fill="#9fc03e"/>
      <path d="M163.08,259.09c4.36-2.76,8.8-5.35,13.82-6.81,5.72-1.66,11.25-.99,16.75,1.02,3.71,1.35,7.46,2.67,11.27,3.68,4.03,1.08,7.98,.31,11.72-1.45,2.7-1.26,5.38-2.57,8.05-3.91,5.79-2.89,11.26-2.5,16.54,1.32,2.15,1.55,4.45,2.91,6.78,4.18,.84,.46,2.02,.68,2.95,.52,5.85-1.02,11.57-.41,17.25,1.07,3.04,1.52,6.09,3.03,9.13,4.55-.51,.99-1.12,.29-1.69,.09-.53-.36-1.04-.77-1.6-1.08-5.57-2.97-11.52-4.24-17.83-3.96-1.71,.08-3.31,.04-4.64,1.37-.4,.4-1.19,.43-1.81,.61-3.97,1.19-7.93,2.37-11.9,3.55-3.69,1.02-7.35,2.2-11.09,3.01-4.17,.91-8.17,.08-11.91-2-1.61-.89-3.22-1.78-4.83-2.67-1.4-.52-2.77-1.23-4.22-1.53-3.88-.83-7.47,.38-11,1.85-2.99,.97-5.95,2.08-8.98,2.87-3.76,.99-7.3-.09-10.72-1.68-.46-.27-.91-.56-1.38-.82-3.33-1.9-6.84-3.31-10.67-3.79Z" fill="#9fc03d"/>
      <path d="M195.68,42.14c4.97-2.91,9.96-5.75,15.66-7.04,5.88-1.33,11.66-1.19,16.8,2.19,5.58,3.67,11.37,3.96,17.61,2.39,5.04-1.27,10.11-2.57,15.25-3.23,9.85-1.27,19.48,.11,28.78,3.66,.38,.14,.61,.67,.91,1.01-1.18,1.29-2.37,2.59-3.55,3.88-7.52,5.11-15.78,5.21-24.26,3.43-5.62-1.18-11.19-2.66-16.83-3.72-5.05-.95-10.16-.63-15.24,.15-11.63,1.8-23.25,1.9-34.86-.12-.53-.09-1.03-.3-1.55-.45-.26-.24-.53-.48-.82-.74,.77-.51,1.44-.96,2.11-1.4Z" fill="#a0c03d"/>
      <path d="M205.68,222.37c.37,.07,.73,.14,1.21,.24-4.53,.28-8.95,.55-13.84,.84,.95,.42,1.5,.66,2.04,.9-63.19,1.52-126.38,2.3-189.55-.9,0-.14-.02-.27-.03-.41,.51-.06,1.01-.16,1.52-.17,29.84-.69,59.68-1.51,89.53-2.01,32.2-.54,64.38,.64,96.56,1.28,4.18,.08,8.37,.15,12.55,.23Z" fill="#2b9849"/>
      <path d="M306.02,136.02c1.28-.32,2.55-.78,3.86-.95,6.92-.89,13.74-2.16,20.32-4.56,3.63-1.09,7.21-2.44,10.9-3.22,6-1.28,11.87,.01,17.63,1.72,1.61,.48,3.21,1,4.81,1.5,3.45,1.41,6.89,2.85,10.35,4.22,1.29,.51,2.64,1.17,3.98,1.22,8.31,.3,16.54-.46,24.6-2.57,3.17-.83,6.25-1.96,9.37-2.96,5.69-1.55,11.32-3.35,17.07-4.58,9.86-2.11,19.84-2.97,29.88-1.25,4.85,.83,9.29,2.56,12.75,6.24,.59,1.25-.41,.94-.95,.89-3.5-.29-7-.63-10.51-.94-6.02-.53-12-.66-17.91,.99-5.31,1.48-10.65,2.82-15.97,4.23-5.75,1.34-11.44,3.1-17.26,3.94-12.62,1.82-25.01,.39-37.02-3.99,.38-.14,.75-.29,1.13-.43,.04-.12,.08-.25,.11-.37-4.57-1.59-9.14-3.17-13.71-4.76-1.97-.57-3.92-1.23-5.92-1.7-6.63-1.54-13.12-1.18-19.37,1.73-.73,.17-1.47,.32-2.19,.52-3.78,1.06-7.53,2.26-11.35,3.18-3.17,.77-6.42,1.23-9.63,1.83-1.66,.02-3.32,.04-4.98,.06Z" fill="#9fc03d"/>
      <path d="M195.68,42.14c-.67,.45-1.34,.89-2.11,1.4,.3,.27,.56,.5,.82,.74-21.64,.4-43.28,1.09-64.93,1.14-28.12,.06-56.23-.28-84.35-.65-12.67-.17-25.33-.82-37.99-1.26-.53-.02-1.06-.1-1.62-.52,.48-.07,.95-.18,1.43-.19,28.98-.69,57.96-1.51,86.94-2.01,33.78-.58,67.55,.66,101.31,1.3,.16,0,.32,.03,.49,.05Z" fill="#2a9849"/>
      <path d="M426.21,136c5.33-1.4,10.67-2.75,15.97-4.23,5.91-1.65,11.9-1.52,17.91-.99,3.5,.31,7,.65,10.51,.94,.54,.04,1.54,.36,.95-.89,8.85,.21,17.71,.32,26.56,.66,11.46,.43,22.91,1.04,34.36,1.58,.54,.03,1.07,.11,1.6,.21-35.55,2.02-71.13,2.77-106.73,2.79-.38,0-.76-.04-1.14-.07Z" fill="#2a9849"/>
      <path d="M287.14,44.99c1.18-1.29,2.37-2.59,3.55-3.88,14.39-.2,28.79-.43,43.18-.58,12.28-.13,24.55-.17,36.83-.25-.18,.17-.34,.44-.56,.5-5.13,1.53-10.27,3.03-15.41,4.56-.48,.14-.93,.43-1.39,.66-19.52-.26-39.04-.51-58.56-.78-2.55-.04-5.11-.15-7.66-.23Z" fill="#299849"/>
      <path d="M141.92,179.67c-45.47-.38-90.93-.76-136.4-1.14,0-.18,0-.36-.01-.54,.56-.03,1.12-.09,1.68-.1,22.35-.19,44.69-.37,67.04-.55,29.25-.23,58.5-.46,87.75-.68,.54,0,1.08,.04,1.62,.07-6.67,1.56-13.35,3.11-20.29,2.71-.46-.03-.93,.16-1.39,.24Z" fill="#339a4b"/>
      <path d="M398.17,220.3c8.27,.21,15.77,3.75,23.69,5.47,.15,.03,.27,.16,.41,.24-5.76,.04-11.53,.12-17.29,.12-15.83,0-31.65-.04-47.48-.07-.38,0-.76-.03-1.14-.05,1.52-.36,3.07-.62,4.55-1.11,2.12-.7,4.13-1.87,6.3-2.31,5.24-1.08,10.47-2.39,15.91-2.1,.2,.01,.41-.11,.62-.16,4.82,0,9.63-.02,14.45-.03Z" fill="#229747"/>
      <path d="M359.47,130.4c4.57,1.59,9.14,3.17,13.71,4.76-.04,.12-.08,.25-.11,.37-.38,.14-.75,.29-1.13,.43-6.52,.02-13.03,.05-19.55,.05-13.79,0-27.59-.03-41.38-.04,3.21-.6,6.46-1.06,9.63-1.83,3.82-.93,7.57-2.12,11.35-3.18,.72-.2,1.46-.35,2.19-.52,8.43,0,16.86-.02,25.29-.03Z" fill="#289848"/>
      <path d="M141.92,179.67c.46-.09,.93-.27,1.39-.24,6.94,.4,13.61-1.15,20.29-2.71,8.9-1.89,17.84-1.83,26.8-.45,.69,.11,1.39,.17,2.09,.25,7.19,1.27,14.08,3.9,21.62,3.67,10.62-.31,21.26,.11,31.89,.21-2.6,1.02-5.46,1.64-7.76,3.13-6.36,4.11-12.93,4.51-19.91,2.16-4.82-1.63-9.66-3.19-14.51-4.72-1.33-.42-2.74-.6-4.12-.88,.96,0,1.92,0,2.88,0-6.74-2-13.56-3.37-20.57-3.63-2.97,.01-5.94,.03-8.91,.04-6.28,.28-12.35,1.8-18.44,3.19-3.64,.24-7.27,.51-10.91,.67-.6,.03-1.21-.44-1.82-.69Z" fill="#9ec03f"/>
      <path d="M135.7,90.36c18.28,.13,36.55,.26,54.83,.38,0,.07-.02,.15-.04,.22-9.09,1.12-18.22,2.01-27.27,3.42-10.3,1.6-20.44,.99-30.54-1.26-2.63-.59-5.21-1.39-7.81-2.09,.5-.11,.99-.3,1.49-.32,1.57-.06,3.15-.05,4.72-.07l4.61-.28Z" fill="#9fc03d"/>
      <path d="M237.5,85.28c-.21,.05-.41,.15-.62,.15-19.05,.02-38.11,.03-57.16,.05,4.88-2.25,10.06-3.31,15.35-3.92,13.89-1.61,27.49,.4,41,3.41,.47,.11,.95,.21,1.42,.32Z" fill="#9fc03e"/>
      <path d="M411.84,130.42c-3.12,.99-6.21,2.13-9.37,2.96-8.06,2.11-16.29,2.87-24.6,2.57-1.34-.05-2.69-.71-3.98-1.22-3.47-1.37-6.9-2.81-10.35-4.22,4.34-.02,8.67-.05,13.01-.07,11.39-.03,22.77-.06,34.16-.09,.38,0,.76,.04,1.13,.07Z" fill="#239747"/>
      <path d="M237.87,263.86c3.97-1.18,7.93-2.37,11.9-3.55,.62-.18,1.4-.21,1.81-.61,1.34-1.34,2.94-1.3,4.64-1.37,6.31-.28,12.26,.99,17.83,3.96,.56,.3,1.07,.71,1.6,1.08-5.7,.28-11.39,.72-17.09,.78-6.9,.07-13.8-.18-20.7-.29Z" fill="#289848"/>
      <path d="M225.83,91.02c14.18,0,28.37,0,42.55,0,9.18,0,18.37,.01,27.55,.02-3.37,.46-6.73,.98-10.11,1.38-4.74,.56-9.48,1.15-14.23,1.54-9.46,.76-18.87-.25-28.28-1.13-5.19-.49-10.37-1.02-15.55-1.54-.64-.06-1.28-.18-1.93-.27Z" fill="#9fc03f"/>
      <path d="M234.97,176.11c-8.26,.03-16.53,.04-24.79,.09-2,.01-4,.11-6,.17,1.99-1.3,4.02-2.55,5.97-3.9,4.76-3.29,9.74-3.59,14.91-1.16,3.32,1.56,6.61,3.2,9.91,4.81Z" fill="#a0c03d"/>
      <path d="M154.66,179.69c6.09-1.39,12.16-2.92,18.44-3.19,2.97-.01,5.94-.03,8.91-.04,7.01,.26,13.84,1.64,20.57,3.64-.96,0-1.92,0-2.88,0-14.2-.11-28.4-.23-42.61-.34-.81,0-1.62-.04-2.44-.06Z" fill="#2e9949"/>
      <path d="M248.29,180.42c9.82,0,19.64,0,29.46,.03,1.51,0,3.02,.18,4.53,.28-2.67,1.18-5.34,2.36-8,3.56-4.36,1.95-8.74,1.72-13.15,.17-3.42-1.2-6.86-2.35-10.31-3.49-.82-.27-1.68-.37-2.53-.55Z" fill="#9fc03d"/>
      <path d="M371.78,220.37c-.14,.16-.27,.41-.44,.45-3.38,.7-6.77,1.4-10.16,2.04-.95,.18-1.93,.29-2.89,.28-8.95-.1-17.91-.08-26.85-.45-3.78-.16-7.53-1.18-11.29-1.81,11.67-.14,23.35-.29,35.02-.42,5.54-.06,11.07-.06,16.61-.09Z" fill="#2b9948"/>
      <path d="M280.92,175.81c-.92,0-1.84,.02-2.76,.03-8.94,.1-17.88,.2-26.82,.29-.59,0-1.19-.03-1.79-.05,3.88-1.36,7.72-2.86,11.66-4.03,5.05-1.5,10.01-.7,14.79,1.29,1.69,.7,3.28,1.64,4.92,2.47Z" fill="#9fc03e"/>
      <path d="M258.41,224.47s-.11-.04-.14-.08c-.05-.07-.07-.15-.1-.23,1.28-.12,2.57-.32,3.85-.34,10.58-.24,21.16-.73,31.74-.56,6.9,.11,13.79,1.18,20.68,1.86,.8,.08,1.57,.34,2.36,.52-13.89-.23-27.78-.48-41.67-.7-4.83-.08-9.66-.1-14.49-.18-.75-.01-1.49-.18-2.23-.28Z" fill="#2e9949"/>
      <path d="M163.08,259.09c3.84,.48,7.34,1.89,10.67,3.79,.46,.26,.92,.55,1.38,.82-10.01-.02-19.98-.53-29.88-2.13-.14-.02-.26-.15-.87-.51,2.42-.36,4.38-.7,6.36-.95,2.05-.25,4.11-.45,6.16-.61,2.06-.17,4.12-.28,6.18-.41Z" fill="#2b9849"/>
      <path d="M353.36,46.01c.46-.22,.9-.51,1.39-.66,5.13-1.53,10.27-3.03,15.41-4.56,.22-.06,.37-.33,.56-.5,3.43-.98,6.84-2,10.28-2.94,7.51-2.06,15.1-3.12,22.78-1.1,2.43,.64,4.72,1.83,7.05,2.83,.42,.18,.7,.72,1.04,1.09-.55,.04-1.09,.07-1.64,.11-1.84-.92-3.59-2.1-5.53-2.7-7.39-2.29-14.78-1.44-22.1,.46-2.26,.59-4.46,1.45-6.68,2.18-6.19,1.91-12.39,3.82-18.58,5.73-.91,.14-1.82,.33-2.73,.39-.4,.03-.82-.22-1.23-.34Z" fill="#9bbe52"/>
      <path d="M277.35,263.27c-3.04-1.52-6.09-3.03-9.13-4.55,6.43,.48,12.86,.94,19.28,1.46,2.07,.17,4.12,.53,6.17,.8,0,.22,0,.43,0,.65-5.44,.55-10.89,1.1-16.33,1.64Z" fill="#30994a"/>
      <path d="M194.82,262.51c3.53-1.46,7.12-2.67,11-1.85,1.45,.31,2.82,1.01,4.22,1.53-5.07,.1-10.15,.21-15.22,.31Z" fill="#3f9d4e"/>
      <path d="M131.09,90.64c-1.57,.02-3.15,0-4.72,.07-.5,.02-.99,.21-1.49,.32-.22-.27-.44-.54-.67-.82,.34-.04,.69-.07,1.03-.11,.63,.08,1.25,.19,1.88,.24,1.32,.11,2.64,.2,3.97,.29Z" fill="#c6d8af"/>
      <path d="M190.49,90.96c.02-.07,.03-.15,.04-.22,.57,.04,1.15,.08,1.72,.12-.59,.03-1.17,.07-1.76,.1Z" fill="#87b785"/>
      <path d="M375.9,40.22c2.23-.74,4.42-1.6,6.68-2.18,7.32-1.89,14.72-2.75,22.1-.46,1.94,.6,3.69,1.79,5.53,2.7-11.44-.02-22.88-.04-34.31-.06Z" fill="#fcfdf9"/>
      <path d="M131.09,90.64c-1.32-.1-2.65-.18-3.97-.29-.63-.05-1.25-.16-1.88-.24,3.49,.09,6.97,.17,10.46,.26-1.54,.09-3.08,.19-4.61,.28Z" fill="#9abf7e"/>
      <path d="M398.17,220.3c-4.81,0-9.63,.02-14.45,.03-.2-.08-.4-.16-.59-.24,0-.13-.01-.26-.02-.39,3.89,0,7.78-.02,11.68,.01,1.08,0,2.16,.14,3.24,.24,.06,0,.09,.24,.14,.36Z" fill="#ebefd9"/>
      <path d="M359.47,130.4c-8.43,0-16.86,.02-25.29,.03,6.25-2.91,12.73-3.27,19.37-1.73,2,.46,3.95,1.13,5.92,1.7Z" fill="#f3f6ef"/>
      <path d="M182.01,176.45c-2.97,.01-5.94,.03-8.91,.04,2.97-.01,5.94-.03,8.91-.04Z" fill="#cbd996"/>
    </g>
    <g>
      <path d="M72.48,225.85c2.34-7.61,3.44-15.4,2.84-23.35-.44-5.82-1.09-11.63-3.57-17.34-1.37,.41-2.91,.66-4.25,1.31-2.2,1.07-4.28,2.4-6.42,3.6-1.52,.86-3.02,1.78-4.6,2.51-3.51,1.61-7.03,1.41-10.29-.6-2.12-1.31-4.18-2.8-5.97-4.51-4.58-4.37-9.93-7.01-16.11-8.25-5.44-1.09-10.55-3.07-15.01-6.49-4.44-3.4-7.49-7.72-8.75-13.24-.12-.51-.23-1.03-.34-1.54,0-1.67,0-3.34,0-5.01,.27-.85,.53-1.7,.81-2.55,1.26-3.73,3.87-5.2,7.63-4.12,1.25,.36,2.39,1.09,3.58,1.65,.08,1.61,.15,3.23,.26,4.84,.21,3.34,1.14,6.49,2.67,9.45,2.01,3.91,4.77,7.21,8.19,10.02,5.17,4.24,11.04,7.09,17.28,9.29,4.1,1.44,8.34,2.2,12.62,2.77-.19,.32-.37,.64-.58,.95-1.19,1.78-2.4,3.56-3.57,5.36-.18,.27-.16,.68-.23,1.02l.35,.08c1.77-2.49,3.54-4.97,5.3-7.46,5.69,.24,11.27-.32,16.48-2,0-2.08,0-3.98,0-5.88,.09-.81,.18-1.63,.26-2.44-.2-1.83-.37-3.67-.61-5.5-.25-1.83-.61-3.65-.83-5.49-.04-.37,.38-.79,.58-1.19,.27,.41,.49,.86,.81,1.22,2.06,2.26,4.19,4.46,5.48,7.3,.13,.28,.4,.5,.61,.75,.45,.59,.89,1.19,1.34,1.78,0,.2-.09,.43-.02,.6,.71,1.54,1.45,3.07,2.18,4.6,.17,1.72,.36,3.43,.5,5.15,.05,.67,0,1.35-.01,2.03-.2,1.18-.4,2.37-.59,3.55-.12,.41-.35,.83-.36,1.24-.04,2.04-.07,4.08-.03,6.12,.11,5.52-.52,10.96-1.77,16.32-1.02,4.38-2.23,8.7-4.82,12.48-.26,.38-.68,.66-1.03,.98ZM6.97,160.43c-1.39,.07-1.92,.55-1.98,1.57-.11,1.98,3.26,5.23,5.24,4.93,.62-.09,1.5-.55,1.66-1.03,.17-.55-.21-1.39-.59-1.96-.45-.68-1.09-1.27-1.75-1.78-.9-.7-1.89-1.28-2.58-1.73Zm-1.08-2.48c.11-.2,.56-.8,.47-.9-.67-.73-1.41-1.38-2.2-1.98-.18-.14-.71-.07-.89,.11-.18,.17-.23,.61-.17,.89,.19,.86,1.56,1.89,2.79,1.88Z" fill="#a7c53f"/>
      <path d="M61.82,240.16c-2-.58-4-1.14-5.99-1.73-.43-.13-.83-.33-1.25-.49,1.24-.08,2.49-.15,3.73-.26,9.91-.89,17.53-5.27,21.98-14.47,2.92,3.29,2.87,7.65-.17,11.06-2.72,3.05-6.3,4.5-10.17,5.39-.71,.16-1.41,.33-2.12,.5h-6.01Z" fill="#aed038"/>
      <path d="M72.52,8.94c3.83-.14,6.86,1.45,9.24,4.36,2.16,2.65,3.35,5.75,3.83,9.11,.32,2.28,1.16,4.19,2.92,5.75,4.53,4.03,6.46,9.21,6.32,15.18-.1,4.4-1.51,8.37-4.44,11.68-2.51,2.83-3.75,5.96-3.03,9.75,.29,1.51,.59,3.03,.89,4.54,1.28,6.46-.08,12.24-4.78,16.93-3.77,3.76-8.24,5.24-13.46,3.09-.79-.33-1.66-.46-2.58-.7-.09,1.15-.08,2.14-.25,3.11-.55,3.11-2.37,5.45-4.63,7.51-.77,.52-1.53,1.04-2.3,1.56-4.08,1.76-8.21,3.44-12.24,5.31-2.94,1.36-5.76,2.98-8.63,4.49-1.79,.95-3.05,2.46-3.47,4.38-.43,1.93-.83,4.02-.51,5.92,.63,3.64-.43,6.61-2.73,9.23-1.59,1.81-3.41,3.42-5.17,5.08-2.18,2.06-4,4.37-5.15,7.15-2.04,4.92-.87,6.94,2.64,9.13,.46,.29,.89,.61,1.33,.94,3.2,2.43,5.89,5.32,7.55,9.01,1.54,3.44,2.55,6.99,.79,10.71-1.42,1.04-2.8,.81-4.16-.12-1.34-.92-2.68-1.84-4.02-2.76-6.68-4.59-9.63-11.03-9.48-19.05,.1-5.37,1.39-10.48,3.3-15.45,3.88-10.07,10.17-18.54,17.65-26.17,6.79-6.93,14.33-13,22.09-18.8,4.62-3.45,9.22-6.89,12.69-11.58,2.18-2.94,4.39-5.87,6.59-8.8-.17,1.15-.3,2.3-.5,3.44-.49,2.75-.93,5.53-3.45,7.33-.16,.12-.17,.45-.25,.68,.1,.09,.21,.17,.31,.26,.54-.45,1.16-.84,1.61-1.37,1.55-1.79,2.21-3.96,2.53-6.26,.34-2.38,.48-4.8,1.88-6.9,.09-.14-.05-.43-.09-.66,1.59-3.39,3.39-6.7,4.73-10.18,2.71-7.08,3.62-14.42,2.26-21.96-1.3-7.19-4.61-13.42-9.04-19.12-1.86-2.39-4.02-4.44-6.79-5.78Z" fill="#aed137"/>
      <path d="M72.52,8.94c2.76,1.34,4.93,3.38,6.79,5.78,4.43,5.7,7.74,11.94,9.04,19.12,1.36,7.54,.45,14.87-2.26,21.96-1.33,3.49-3.14,6.79-4.73,10.18-.32,.28-.75,.51-.93,.87-.43,.84-.75,1.73-1.11,2.61-2.2,2.93-4.41,5.86-6.59,8.8-3.48,4.69-8.08,8.13-12.69,11.58-7.75,5.8-15.29,11.87-22.09,18.8-7.48,7.63-13.77,16.09-17.65,26.17-1.91,4.97-3.2,10.07-3.3,15.45-.15,8.02,2.8,14.45,9.48,19.05,1.34,.92,2.68,1.84,4.02,2.76,1.36,.93,2.74,1.16,4.16,.12,1.04,.46,2.07,.93,3.11,1.39,5.46,2.67,11.23,4.27,17.29,4.67,5.35,.36,10.61-.23,15.73-1.88v5.88c-5.21,1.68-10.79,2.23-16.48,2-.42,.02-.85,.04-1.27,.05-4.29-.57-8.53-1.32-12.62-2.77-6.24-2.2-12.12-5.04-17.28-9.29-3.42-2.81-6.17-6.1-8.19-10.02-1.52-2.96-2.45-6.11-2.67-9.45-.1-1.61-.17-3.23-.26-4.84,.28-1.7,.51-3.41,.86-5.1,1.73-8.15,5.47-15.41,10.07-22.26,5.87-8.74,12.89-16.48,20.72-23.47,3.19-2.85,6.79-5.23,10.17-7.88,1.2-.95,2.28-2.06,3.41-3.09,.09-.49,.32-1,.26-1.47-.5-3.54-1.24-7.06-1.54-10.61-.18-2.1,.29-4.27,.47-6.4,1.05,5.44,2.09,10.88,3.21,16.72,3.07-3.3,5.9-6.34,8.73-9.37,2.51-3.26,5.13-6.43,7.49-9.8,1.45-2.06,2.5-4.39,3.72-6.6,1.19-2.96,2.37-5.91,3.56-8.87,1.54-4.94,2.15-10,1.24-15.1-.55-3.07-1.7-6.03-2.58-9.03-.66-1.32-1.33-2.63-1.99-3.95l-.51-.77h0c-1.78-3.71-4.1-7.03-7.76-9.1-1.87-1.06-3.83-.92-5.56,.54-.55,.5-1.09,.99-1.64,1.49-.09,.11-.19,.21-.28,.32h.03c-1.92,1.4-3.85,2.79-5.77,4.19l-.21-.1c1.48-2.19,2.96-4.38,4.44-6.56,1.27-.91,2.45-1.98,3.82-2.69,1.97-1.03,4.08-.75,6.14-.04Z" fill="#217039"/>
      <path d="M56.44,67.65c-.18,2.14-.65,4.3-.47,6.4,.31,3.56,1.04,7.07,1.54,10.61,.07,.47-.16,.98-.26,1.47-1.32-2.12-2.59-4.26-3.96-6.34-2.04-3.1-3-6.43-2.8-10.17,.21-3.86-1.57-6.82-4.61-9.09-1.4-1.05-2.84-2.04-4.26-3.07-.57-.42-1.15-.83-1.7-1.28-5.03-4.07-5.6-8.88-1.49-13.91,1.25-1.53,2.85-2.79,4.33-4.14,.61-.56,1.29-1.07,1.98-1.52,5.05-3.34,7.73-8.05,8.61-14.02,.35-2.38,1.18-4.79,2.27-6.95,1.36-2.71,3.76-4.17,6.95-3.98-1.48,2.19-2.96,4.38-4.44,6.56l.21,.1c1.92-1.4,3.85-2.8,5.77-4.2-1.44,3.22-2.13,6.58-1.73,10.09,.31,2.64,.87,5.26,1.29,7.89,.46,2.92,1.07,5.83,1.28,8.77,.32,4.44-1.45,8.38-3.44,12.24-1.5,2.92-3.03,5.86-4.19,8.92-.66,1.73-.61,3.73-.89,5.61Z" fill="#9fc03c"/>
      <path d="M81.06,185.16c0-.68,.07-1.36,.01-2.03-.14-1.72-.33-3.43-.5-5.15,.41-.28,.81-.57,1.23-.83,3.78-2.4,6.87-5.47,9.06-9.41,1.24,2,2.57,3.95,3.69,6.01,.49,.9,.56,2.04,.82,3.07,.09,.37,.19,.75,.29,1.12l.38-.03c.1-.42,.36-.88,.26-1.26-.31-1.23-.6-2.51-1.17-3.63-.99-1.96-2.17-3.82-3.29-5.71-.09-.16-.31-.24-.46-.36,1.53-3.23,2.52-6.62,2.68-10.19,.32-7.31-1.77-13.85-6.56-19.41-2.62-3.04-5.78-5.38-9.64-6.65,0-.17-.04-.33-.03-.5,.28-4.72-1.27-8.86-4.02-12.62-1-1.36-1.98-2.73-2.97-4.09,2.64-.68,4.84,.17,6.72,2.01,1.89,1.85,3.07,4.13,3.99,6.57,.58,1.52,1.15,3.04,1.69,4.57,1.91,5.45,5.76,8.13,11.5,8.29,1.99,.06,4,.29,5.94,.74,4.33,1,5.92,4.68,3.69,8.54-1,1.72-2.35,3.23-3.52,4.85-.83,1.15-1.71,2.27-2.44,3.47-1.56,2.55-1.63,5.2-.26,7.86,.65,1.26,1.37,2.48,2.05,3.72,4.91,8.98-.63,19.75-10.8,20.85-2.75,.3-5.56,.13-8.34,.18Z" fill="#9fc03c"/>
      <path d="M80.28,223.21c-4.45,9.2-12.07,13.58-21.98,14.47-1.24,.11-2.48,.17-3.73,.26-4.59,.04-9.06-.56-13.27-2.53-.46-.27-.92-.54-1.38-.82-3.78-2.28-6.8-5.24-8.41-9.46-.11-.31-.21-.62-.32-.93-.87-2.74-.87-5.51-.16-8.26,1.2-4.63,3.13-8.8,7.46-11.39,4.9-2.94,11.28-2.12,14.54,2,2.29,2.9,3.42,6.28,3.48,9.97,.06,3.65-1.8,6.07-5.3,7.1-.63,.19-1.28,.31-1.92,.47-.99,0-1.97,.05-2.95-.03-.24-.02-.46-.42-.69-.65,1.24-.1,2.51-.09,3.72-.32,4.15-.8,6.18-3.45,5.32-7.54-.47-2.27-1.41-4.57-2.67-6.52-2.48-3.81-7.32-4.62-11.26-2.23-2.13,1.08-3.67,2.68-4.5,4.95-2.78,5.21-2.97,11.04,1.06,15.45,1.54,1.68,3.23,3.22,5.5,3.9,0,0-.03,0-.03,0,.2,.1,.41,.21,.61,.31,3.13,1.72,6.55,1.87,10,1.83,.95,0,1.9-.09,2.85-.13,1.72-.24,3.48-.36,5.17-.75,4.22-.98,7.99-2.82,10.83-6.23,.07-.09,.13-.18,.2-.26,.35-.32,.77-.6,1.03-.98,2.58-3.78,3.8-8.1,4.82-12.48,1.25-5.36,1.88-10.8,1.77-16.32-.04-2.04-.02-4.08,.03-6.12,0-.42,.23-.83,.36-1.24,.8,4.84,1.79,9.66,2.37,14.53,.81,6.83,.15,13.55-2.56,19.97Z" fill="#216f39"/>
      <path d="M60.25,100.83c.77-.52,1.53-1.04,2.3-1.56,.25,1.27,.51,2.54,.76,3.81-.06,.26-.2,.54-.16,.79,.93,5.29,1.88,10.57,2.84,15.86,1.29,7.13,2.73,14.23,3.82,21.39,.55,3.6,1.77,6.88,3.35,10.09,.92,4.59,1.84,9.18,2.75,13.78,.39,2.01,.79,4.01,1.18,6.02-.21-.25-.48-.47-.61-.75-1.29-2.84-3.42-5.04-5.48-7.3-.32-.36-.54-.81-.81-1.22-.72-4.35-1.42-8.71-2.16-13.05-.45-2.66-.96-5.31-1.44-7.96-.37-2.55-.71-5.11-1.14-7.65-.05-.28-.6-.68-.93-.68-.87-.02-1.74,.1-2.6,.26-5.95,1.06-10.65,3.88-12.93,9.73-.87,2.23-1.54,4.61-1.83,6.98-.59,4.68,.04,9.16,3.28,12.93,.15,.17,.19,.44,.28,.66-.09,.06-.18,.13-.26,.19-.29-.26-.6-.49-.86-.77-1.78-1.9-2.94-4.15-3.53-6.66-1.16-4.85-.46-9.59,1.02-14.27,1.33-.26,.45-1.34,.73-1.99,.15-.2,.32-.38,.44-.6,2.49-4.55,6.43-7.22,11.29-8.66,1.7-.5,3.46-.8,5.29-1.21-.52-3.03-1.04-6.01-1.56-9-.03-.33-.04-.66-.09-.99-.98-6.06-1.96-12.13-2.95-18.19Z" fill="#237039"/>
      <path d="M73.15,151.21c-1.57-3.21-2.8-6.49-3.35-10.09-1.09-7.16-2.53-14.26-3.82-21.39-.95-5.28-1.9-10.57-2.84-15.86-.04-.25,.1-.53,.16-.79,1.7,4.06,4.53,7.3,7.54,10.42,.99,1.36,1.98,2.73,2.97,4.09,2.75,3.76,4.3,7.9,4.02,12.62,0,.16,.02,.33,.03,.5-.16,1.22-.33,2.43-.49,3.65-1.18,3.43-2.36,6.86-3.54,10.29-.25,.82-.67,1.62-.73,2.45-.1,1.36,.02,2.75,.04,4.12Z" fill="#b6d048"/>
      <path d="M31.52,225.12c1.61,4.22,4.63,7.18,8.41,9.46,.46,.28,.92,.55,1.38,.82-3.75,.35-7.5,.49-11.13-.78-4.94-1.73-8.1-5.75-8.15-10.31-.03-2.51,.78-4.71,2.62-6.41,1.44-1.33,2.98-2.54,4.55-3.72,2.77-2.09,4.27-4.74,3.89-8.29-.05-.5-.03-1-.03-1.5-.01-5.25,3.83-8.68,9.1-8.19,2.8,.26,5.21,1.42,7.02,3.45,1.78,2.01,3.36,4.25,4.69,6.58,1.29,2.26,2.76,4.02,5.24,5.07,3.96,1.68,5.77,6.34,4.2,10.14-1.6,3.86-6.19,5.82-10.22,4.31-1.28-.48-2.51-1.12-3.76-1.68,.64-.15,1.29-.28,1.92-.47,3.5-1.03,5.36-3.45,5.3-7.1-.06-3.69-1.19-7.07-3.48-9.97-3.26-4.12-9.64-4.95-14.54-2-4.33,2.6-6.26,6.77-7.46,11.39-.71,2.75-.71,5.52,.16,8.26-1.29-1.21-2.58-2.44-3.88-3.63-.32-.29-.73-.48-1.38-.91,.14,.59,.12,.84,.24,.96,1.47,1.51,2.95,3.01,4.46,4.48,.16,.15,.58,.03,.88,.04Z" fill="#aed138"/>
      <path d="M40.78,206.78c3.93-2.39,8.78-1.58,11.26,2.23,1.26,1.94,2.2,4.25,2.67,6.52,.85,4.09-1.17,6.74-5.32,7.54-1.22,.23-2.48,.22-3.72,.32-.3-2.25,.41-3.38,2.53-4,.52-.15,1.05-.24,1.58-.39,2.88-.8,4.1-3.37,2.71-6.03-.56-1.07-1.44-2.08-2.39-2.83-2.71-2.14-5.76-3.5-9.31-3.36Z" fill="#add039"/>
      <path d="M42.85,231.09c-2.27-.68-3.96-2.22-5.5-3.9-4.03-4.41-3.84-10.25-1.06-15.45,.62,.99,1.16,2.03,1.87,2.95,1.66,2.12,2.17,4.48,1.58,7.07-.83,3.67-.07,6.78,3.05,9.12,.05,.04,.04,.15,.06,.22Z" fill="#add039"/>
      <path d="M72.28,226.12c-2.85,3.41-6.62,5.25-10.83,6.23-1.69,.39-3.44,.51-5.17,.75,2.47-1.4,5.01-2.71,7.41-4.23,2.65-1.68,5.37-2.96,8.59-2.75Z" fill="#accf3a"/>
      <path d="M43.43,231.4c-.2-.1-.41-.21-.61-.31,.2,.1,.41,.21,.61,.31Z" fill="#add039"/>
      <path d="M73.84,144.64c1.18-3.43,2.36-6.86,3.54-10.29,.14,.09,.27,.19,.42,.27,8.89,4.95,13.35,14.85,11.03,24.7-1.42,6.05-4.88,10.57-10.41,13.47-.45-.59-.89-1.19-1.34-1.78-.39-2.01-.79-4.01-1.18-6.02,.77-2.15,1.99-3.93,4.13-4.93,.49-.23,.94-.54,1.38-.85,1.73-1.21,2.44-2.89,2.24-4.97-.22-2.37-1.22-4.42-3.14-5.75-2.11-1.46-4.45-2.57-6.69-3.84Z" fill="#9ebf3c"/>
      <path d="M78.42,172.78c5.52-2.9,8.99-7.42,10.41-13.47,2.31-9.85-2.14-19.75-11.03-24.7-.15-.08-.28-.18-.42-.27,.16-1.22,.33-2.43,.49-3.65,3.87,1.27,7.03,3.61,9.64,6.65,4.79,5.56,6.88,12.1,6.56,19.41-.16,3.58-1.15,6.96-2.68,10.19-.18,.26-.35,.53-.53,.79-2.18,3.94-5.27,7.01-9.06,9.41-.42,.27-.82,.55-1.23,.83-.73-1.53-1.47-3.06-2.18-4.6-.07-.16,0-.4,.02-.6Z" fill="#1f6f38"/>
      <path d="M37.77,173.57c1.89-4.01,5.95-4.94,10.67-3.66,1.98,.54,3.84,1.57,5.72,2.45,1.54,.72,3.01,1.61,4.56,2.33,4.24,1.99,8.37,1.85,12.34-.77-.09,.81-.18,1.63-.26,2.44-5.12,1.66-10.38,2.24-15.73,1.88-6.07-.41-11.83-2.01-17.29-4.67Z" fill="#9fc03c"/>
      <path d="M6.97,160.43c.69,.46,1.68,1.04,2.58,1.73,.65,.51,1.29,1.09,1.75,1.78,.37,.56,.76,1.41,.59,1.96-.15,.48-1.04,.94-1.66,1.03-1.98,.3-5.35-2.95-5.24-4.93,.05-1.01,.59-1.5,1.98-1.57Z" fill="#c4db60"/>
      <path d="M53.04,184.3c.42-.02,.85-.04,1.27-.05-1.77,2.49-3.54,4.97-5.3,7.46l-.35-.08c.07-.34,.05-.75,.23-1.02,1.17-1.8,2.38-3.57,3.57-5.36,.21-.31,.39-.63,.58-.95Z" fill="#2a9947"/>
      <path d="M5.89,157.95c-1.24,.01-2.61-1.01-2.79-1.88-.06-.28-.01-.72,.17-.89,.18-.17,.71-.25,.89-.11,.79,.6,1.53,1.26,2.2,1.98,.09,.1-.36,.7-.47,.9Z" fill="#c4db60"/>
      <path d="M79.32,69.45c.36-.87,.68-1.77,1.11-2.61,.18-.35,.61-.58,.93-.87,.03,.22,.18,.52,.09,.66-1.4,2.09-1.54,4.52-1.88,6.9-.33,2.3-.98,4.47-2.53,6.26-.46,.53-1.07,.91-1.61,1.37-.1-.09-.21-.17-.31-.26,.08-.23,.08-.56,.25-.68,2.52-1.8,2.96-4.58,3.45-7.33,.2-1.14,.34-2.29,.5-3.44Z" fill="#2e9b47"/>
      <path d="M83.16,49.74c-.5-1.97-.84-3.99-1.53-5.89-1.46-4.04-1.76-8.04-.55-12.22,.55-1.92,.51-4.01,.74-6.02,.88,3.01,2.03,5.96,2.58,9.03,.91,5.09,.3,10.16-1.24,15.1Z" fill="#add039"/>
      <path d="M79.32,20.91c-2.57-1.92-5.34-3.45-8.4-4.44-.86-.28-1.71-.66-2.5-1.1-1.21-.66-2.09-1.64-2.41-3.03,1.73-1.46,3.68-1.6,5.56-.54,3.67,2.07,5.98,5.39,7.76,9.11Z" fill="#aed039"/>
      <path d="M68.38,75c-.01-4.64,1.95-8.32,5.43-11.28,1.96-1.67,3.86-3.4,5.79-5.11-1.23,2.21-2.28,4.54-3.72,6.6-2.36,3.36-4.98,6.54-7.49,9.8Z" fill="#aed039"/>
      <path d="M79.83,21.66c-.17-.26-.34-.51-.51-.77,.17,.26,.34,.51,.51,.77Z" fill="#aed039"/>
      <path d="M64.36,13.82c-.09,.11-.19,.21-.28,.32,.09-.11,.19-.21,.28-.32Z" fill="#9fc03c"/>
      <path d="M90.87,167.74c.18-.26,.35-.53,.53-.79,.16,.12,.37,.2,.46,.36,1.12,1.89,2.3,3.75,3.29,5.71,.57,1.12,.86,2.4,1.17,3.63,.09,.37-.17,.84-.26,1.26l-.38,.03c-.1-.37-.2-.74-.29-1.12-.26-1.03-.33-2.16-.82-3.07-1.12-2.06-2.45-4.02-3.69-6.01Z" fill="#329b47"/>
      <path d="M31.52,225.12c-.3,0-.72,.11-.88-.04-1.52-1.46-2.99-2.97-4.46-4.48-.11-.12-.1-.36-.24-.96,.65,.42,1.06,.62,1.38,.91,1.31,1.19,2.59,2.42,3.88,3.63,.11,.31,.21,.62,.32,.93Z" fill="#329c47"/>
      <path d="M66.6,140.73c-1.63-.48-3.23-1.1-4.9-1.4-2.66-.48-5.86,1.3-7.08,3.74-.86,1.73-.68,3.51,.76,4.81,.97,.88,2.11,1.67,3.3,2.21,6.77,3.04,6,11.68,1.49,15.33-4.1,3.32-8.82,4.01-13.8,3.04-8.7-1.69-13.93-8-14.31-17.09-.13-3.08,1.24-5.4,3.98-7,.66-.38,1.18-1.57,1.17-2.38-.02-1.42-.41-2.87-.8-4.26-.48-1.72-1.23-3.37-1.67-5.1-.88-3.46,.45-6.17,3.64-7.75,3.13-1.55,6.44-1.5,9.79-1.15,1.16,.12,2.32,.25,3.48,.38,4.53,.48,8.52-.57,11.64-4.1,.52,2.98,1.03,5.97,1.56,9-1.82,.41-3.59,.7-5.29,1.21-4.85,1.43-8.79,4.11-11.29,8.66-.12,.21-.29,.4-.44,.59-.31-4.13-2.3-7.2-5.89-9.23-.34-.19-.8-.19-1.2-.27-.04,.13-.07,.25-.11,.38,.27,.17,.55,.32,.8,.52,1.06,.86,2.21,1.62,3.13,2.61,2.06,2.24,2.64,5.02,2.54,7.98-1.48,4.67-2.18,9.41-1.02,14.27,.6,2.51,1.76,4.76,3.53,6.66,.26,.28,.57,.51,.86,.77,.09-.06,.18-.13,.26-.19-.09-.22-.13-.49-.28-.66-3.25-3.76-3.87-8.25-3.28-12.93,.3-2.37,.96-4.75,1.83-6.98,2.28-5.85,6.98-8.67,12.93-9.73,.86-.15,1.73-.27,2.6-.26,.33,0,.88,.4,.93,.68,.43,2.54,.77,5.1,1.14,7.65Z" fill="#9fc03c"/>
      <path d="M47.1,141.45c.1-2.96-.47-5.74-2.54-7.98-.91-.99-2.07-1.76-3.13-2.61-.25-.2-.53-.35-.8-.52,.04-.13,.07-.25,.11-.38,.4,.09,.86,.08,1.2,.27,3.59,2.03,5.57,5.1,5.89,9.23-.28,.65,.6,1.73-.73,1.99Z" fill="#2d9a47"/>
    </g>
  </g>
</svg>