<?xml version="1.0" encoding="UTF-8"?>
<svg id="Layer_2" data-name="Layer 2" xmlns="http://www.w3.org/2000/svg" viewBox="0 0 531.96 267.23">
  <g id="Layer_2-2" data-name="Layer 2">
    <g>
      <path d="M531.96,43.39c-11.3,.42-22.59,1.05-33.9,1.22-39.84,.58-79.69,1.02-119.53,1.45-8.26,.09-16.53-.06-24.79-.1,6.19-1.91,12.39-3.82,18.58-5.73,11.44,.02,22.88,.04,34.31,.06,.55-.04,1.09-.07,1.64-.11,10.98,.11,21.96,.13,32.93,.36,27.11,.59,54.22,1.28,81.33,1.93,3.14,.08,6.28,.17,9.43,.26v.65Z" fill="#279848"/>
      <path d="M237.54,0c.34,.1,.67,.26,1.01,.28,14.72,.69,29.43,1.35,44.15,2.04,2.03,.1,4.06,.29,6.09,.54-48.75,3.86-97.5,3.83-146.25-.18,8.28-.48,16.55-1.03,24.83-1.43,8.04-.39,16.08-.63,24.12-.95,.55-.02,1.1-.2,1.65-.3,14.8,0,29.59,0,44.39,0Z" fill="#2a9849"/>
      <path d="M531.96,223.45c-12.22,.44-24.43,1.01-36.65,1.28-24.12,.53-48.24,.9-72.35,1.34-.44-.2-.85-.47-1.31-.58-2.42-.59-4.87-1.07-7.26-1.73-3.91-1.08-7.79-2.28-11.68-3.43,21.85,.25,43.7,.41,65.55,.79,17.72,.32,35.43,.91,53.14,1.39,3.52,.09,7.04,.2,10.56,.29v.65Z" fill="#2b9849"/>
      <path d="M233.92,85.28c2.77,.01,5.55,.04,8.32,.04,31.12,.05,62.23-.04,93.34,.19,43.3,.33,86.59,.86,129.88,1.39,18.6,.23,37.2,.7,55.79,1.06,.79,.02,1.58,.07,2.37,.1,0,.21,0,.42-.01,.63-5.07,0-10.15-.06-15.22,0-54.71,.69-109.43,1.43-164.14,2.08-17.3,.21-34.6,.19-51.89,.27-9.18,0-18.37-.02-27.55-.02-14.18,0-28.37,0-42.55,0-11.19-.05-22.39-.11-33.58-.16-.57-.04-1.15-.08-1.72-.12-18.28-.13-36.55-.26-54.83-.38-3.49-.08-6.97-.17-10.46-.26-.34,.04-.69,.07-1.03,.11-12.89-.18-25.77-.32-38.66-.54-23.82-.4-47.63-.85-71.44-1.29-.22,0-.43-.03-.66-.42,.94,0,1.89,.01,2.83,0,24.52-.43,49.04-.94,73.57-1.29,28.87-.41,57.75-.67,86.62-1,1.08-.01,2.17-.13,3.25-.2,19.05-.01,38.11-.03,57.16-.05,.21,0,.41-.1,.62-.15Z" fill="#299849"/>
      <path d="M302.45,136.02c-3.48,0-6.96-.01-10.44-.01-71.63,0-143.26,.12-214.89-.09-18.37-.05-36.74-1.13-55.11-1.77-5.54-.19-11.08-.5-16.64-.98,.35-.06,.69-.15,1.04-.16,8.2-.41,16.4-.93,24.6-1.18,19.02-.57,38.05-1.05,57.08-1.48,4.94-.11,9.9,.09,14.84,.1,73.81,0,147.61,0,221.42,0,.76,0,1.52,.04,2.28,.07-6.57,2.41-13.4,3.67-20.32,4.56-1.3,.17-2.57,.63-3.86,.95Z" fill="#259748"/>
      <path d="M277.35,175.81c10.66-.07,21.32-.24,31.97-.2,49.87,.15,99.73,.25,149.6,.59,20.33,.14,40.66,.83,61,1.31,3.63,.09,7.26,.42,10.89,.92-7.52,.31-15.04,.74-22.57,.92-62.2,1.45-124.41,2.05-186.62,1.59-13.49-.1-26.97-.22-40.46-.32-.81,0-1.63,.07-2.44,.11-1.51-.1-3.02-.27-4.53-.28-9.82-.03-19.64-.03-29.46-.03-.76,0-1.53,0-2.29-.01-10.63-.11-21.27-.53-31.89-.21-7.55,.22-14.43-2.4-21.62-3.67,3.9-.05,7.79-.1,11.69-.16,2-.06,4-.16,6-.17,8.26-.04,16.53-.06,24.79-.09,4.86,0,9.72-.02,14.57-.03,.59,.02,1.19,.06,1.79,.05,8.94-.09,17.88-.19,26.82-.29,.92-.01,1.84-.02,2.76-.03Z" fill="#289848"/>
      <path d="M402.7,220.32c3.89,1.15,7.77,2.35,11.68,3.43,2.4,.66,4.85,1.14,7.26,1.73,.46,.11,.87,.38,1.31,.58-.44,.14-.88,.44-1.31,.41-.99-.07-1.98-.3-2.96-.46-.14-.08-.26-.21-.41-.24-7.92-1.72-15.42-5.26-23.69-5.47-.05-.13-.08-.36-.14-.36-1.08-.1-2.16-.23-3.24-.24-3.89-.03-7.78-.01-11.68-.01,0,.13,.01,.26,.02,.39,.2,.08,.39,.16,.59,.24-.21,.06-.41,.17-.62,.16-5.43-.3-10.66,1.02-15.91,2.1-2.17,.44-4.17,1.61-6.3,2.31-1.48,.49-3.03,.75-4.55,1.11-3.97,.58-7.92,1.23-11.9,1.71-6.52,.8-13,.16-19.45-.86-2.73-.43-5.46-.82-8.2-1.23-.79-.18-1.56-.44-2.36-.52-6.89-.67-13.78-1.75-20.68-1.86-10.57-.17-21.16,.32-31.74,.56-1.29,.03-2.57,.23-3.85,.34,.03,.08,.05,.16,.1,.23,.03,.04,.09,.05,.14,.08-9.96,.78-19.91,1.63-29.88,2.3-6.8,.46-13.56-.15-20.31-1.11-4.35-.62-8.75-.89-13.13-1.31-.54-.24-1.09-.48-2.04-.9,4.89-.3,9.31-.57,13.84-.84-.48-.1-.84-.17-1.21-.24,3.58-.04,7.16-.15,10.74-.11,12.9,.15,25.52-1.63,38.03-4.77,10.24-2.57,20.69-3.97,31.3-3.79,8.25,.14,16.3,1.32,24.07,4.33,3.31,1.28,6.88,1.92,10.33,2.86,3.76,.63,7.51,1.65,11.29,1.81,8.94,.37,17.9,.35,26.85,.45,.96,.01,1.94-.1,2.89-.28,3.39-.65,6.78-1.34,10.16-2.04,.17-.03,.29-.29,.44-.45,5-.53,9.99-1.13,15-1.56,5.92-.51,11.79-.02,17.6,1.18,.63,.13,1.27,.23,1.91,.34Z" fill="#9fc03e"/>
      <path d="M159.5,259.09c4.36-2.76,8.8-5.35,13.82-6.81,5.72-1.66,11.25-.99,16.75,1.02,3.71,1.35,7.46,2.67,11.27,3.68,4.03,1.08,7.98,.31,11.72-1.45,2.7-1.26,5.38-2.57,8.05-3.91,5.79-2.89,11.26-2.5,16.54,1.32,2.15,1.55,4.45,2.91,6.78,4.18,.84,.46,2.02,.68,2.95,.52,5.85-1.02,11.57-.41,17.25,1.07,3.04,1.52,6.09,3.03,9.13,4.55-.51,.99-1.12,.29-1.69,.09-.53-.36-1.04-.77-1.6-1.08-5.57-2.97-11.52-4.24-17.83-3.96-1.71,.08-3.31,.04-4.64,1.37-.4,.4-1.19,.43-1.81,.61-3.97,1.19-7.93,2.37-11.9,3.55-3.69,1.02-7.35,2.2-11.09,3.01-4.17,.91-8.17,.08-11.91-2-1.61-.89-3.22-1.78-4.83-2.67-1.4-.52-2.77-1.23-4.22-1.53-3.88-.83-7.47,.38-11,1.85-2.99,.97-5.95,2.08-8.98,2.87-3.76,.99-7.3-.09-10.72-1.68-.46-.27-.91-.56-1.38-.82-3.33-1.9-6.84-3.31-10.67-3.79Z" fill="#9fc03d"/>
      <path d="M192.11,42.14c4.97-2.91,9.96-5.75,15.66-7.04,5.88-1.33,11.66-1.19,16.8,2.19,5.58,3.67,11.37,3.96,17.61,2.39,5.04-1.27,10.11-2.57,15.25-3.23,9.85-1.27,19.48,.11,28.78,3.66,.38,.14,.61,.67,.91,1.01-1.18,1.29-2.37,2.59-3.55,3.88-7.52,5.11-15.78,5.21-24.26,3.43-5.62-1.18-11.19-2.66-16.83-3.72-5.05-.95-10.16-.63-15.24,.15-11.63,1.8-23.25,1.9-34.86-.12-.53-.09-1.03-.3-1.55-.45-.26-.24-.53-.48-.82-.74,.77-.51,1.44-.96,2.11-1.4Z" fill="#a0c03d"/>
      <path d="M202.1,222.37c.37,.07,.73,.14,1.21,.24-4.53,.28-8.95,.55-13.84,.84,.95,.42,1.5,.66,2.04,.9-63.19,1.52-126.38,2.3-189.55-.9,0-.14-.02-.27-.03-.41,.51-.06,1.01-.16,1.52-.17,29.84-.69,59.68-1.51,89.53-2.01,32.2-.54,64.38,.64,96.56,1.28,4.18,.08,8.37,.15,12.55,.23Z" fill="#2b9849"/>
      <path d="M302.45,136.02c1.28-.32,2.55-.78,3.86-.95,6.92-.89,13.74-2.16,20.32-4.56,3.63-1.09,7.21-2.44,10.9-3.22,6-1.28,11.87,.01,17.63,1.72,1.61,.48,3.21,1,4.81,1.5,3.45,1.41,6.89,2.85,10.35,4.22,1.29,.51,2.64,1.17,3.98,1.22,8.31,.3,16.54-.46,24.6-2.57,3.17-.83,6.25-1.96,9.37-2.96,5.69-1.55,11.32-3.35,17.07-4.58,9.86-2.11,19.84-2.97,29.88-1.25,4.85,.83,9.29,2.56,12.75,6.24,.59,1.25-.41,.94-.95,.89-3.5-.29-7-.63-10.51-.94-6.02-.53-12-.66-17.91,.99-5.31,1.48-10.65,2.82-15.97,4.23-5.75,1.34-11.44,3.1-17.26,3.94-12.62,1.82-25.01,.39-37.02-3.99,.38-.14,.75-.29,1.13-.43,.04-.12,.08-.25,.11-.37-4.57-1.59-9.14-3.17-13.71-4.76-1.97-.57-3.92-1.23-5.92-1.7-6.63-1.54-13.12-1.18-19.37,1.73-.73,.17-1.47,.32-2.19,.52-3.78,1.06-7.53,2.26-11.35,3.18-3.17,.77-6.42,1.23-9.63,1.83-1.66,.02-3.32,.04-4.98,.06Z" fill="#9fc03d"/>
      <path d="M192.11,42.14c-.67,.45-1.34,.89-2.11,1.4,.3,.27,.56,.5,.82,.74-21.64,.4-43.28,1.09-64.93,1.14-28.12,.06-56.23-.28-84.35-.65-12.67-.17-25.33-.82-37.99-1.26-.53-.02-1.06-.1-1.62-.52,.48-.07,.95-.18,1.43-.19,28.98-.69,57.96-1.51,86.94-2.01,33.78-.58,67.55,.66,101.31,1.3,.16,0,.32,.03,.49,.05Z" fill="#2a9849"/>
      <path d="M422.64,136c5.33-1.4,10.67-2.75,15.97-4.23,5.91-1.65,11.9-1.52,17.91-.99,3.5,.31,7,.65,10.51,.94,.54,.04,1.54,.36,.95-.89,8.85,.21,17.71,.32,26.56,.66,11.46,.43,22.91,1.04,34.36,1.58,.54,.03,1.07,.11,1.6,.21-35.55,2.02-71.13,2.77-106.73,2.79-.38,0-.76-.04-1.14-.07Z" fill="#2a9849"/>
      <path d="M283.56,44.99c1.18-1.29,2.37-2.59,3.55-3.88,14.39-.2,28.79-.43,43.18-.58,12.28-.13,24.55-.17,36.83-.25-.18,.17-.34,.44-.56,.5-5.13,1.53-10.27,3.03-15.41,4.56-.48,.14-.93,.43-1.39,.66-19.52-.26-39.04-.51-58.56-.78-2.55-.04-5.11-.15-7.66-.23Z" fill="#299849"/>
      <path d="M138.35,179.67c-45.47-.38-90.93-.76-136.4-1.14,0-.18,0-.36-.01-.54,.56-.03,1.12-.09,1.68-.1,22.35-.19,44.69-.37,67.04-.55,29.25-.23,58.5-.46,87.75-.68,.54,0,1.08,.04,1.62,.07-6.67,1.56-13.35,3.11-20.29,2.71-.46-.03-.93,.16-1.39,.24Z" fill="#339a4b"/>
      <path d="M394.59,220.3c8.27,.21,15.77,3.75,23.69,5.47,.15,.03,.27,.16,.41,.24-5.76,.04-11.53,.12-17.29,.12-15.83,0-31.65-.04-47.48-.07-.38,0-.76-.03-1.14-.05,1.52-.36,3.07-.62,4.55-1.11,2.12-.7,4.13-1.87,6.3-2.31,5.24-1.08,10.47-2.39,15.91-2.1,.2,.01,.41-.11,.62-.16,4.82,0,9.63-.02,14.45-.03Z" fill="#229747"/>
      <path d="M355.9,130.4c4.57,1.59,9.14,3.17,13.71,4.76-.04,.12-.08,.25-.11,.37-.38,.14-.75,.29-1.13,.43-6.52,.02-13.03,.05-19.55,.05-13.79,0-27.59-.03-41.38-.04,3.21-.6,6.46-1.06,9.63-1.83,3.82-.93,7.57-2.12,11.35-3.18,.72-.2,1.46-.35,2.19-.52,8.43,0,16.86-.02,25.29-.03Z" fill="#289848"/>
      <path d="M138.35,179.67c.46-.09,.93-.27,1.39-.24,6.94,.4,13.61-1.15,20.29-2.71,8.9-1.89,17.84-1.83,26.8-.45,.69,.11,1.39,.17,2.09,.25,7.19,1.27,14.08,3.9,21.62,3.67,10.62-.31,21.26,.11,31.89,.21-2.6,1.02-5.46,1.64-7.76,3.13-6.36,4.11-12.93,4.51-19.91,2.16-4.82-1.63-9.66-3.19-14.51-4.72-1.33-.42-2.74-.6-4.12-.88,.96,0,1.92,0,2.88,0-6.74-2-13.56-3.37-20.57-3.63-2.97,.01-5.94,.03-8.91,.04-6.28,.28-12.35,1.8-18.44,3.19-3.64,.24-7.27,.51-10.91,.67-.6,.03-1.21-.44-1.82-.69Z" fill="#9ec03f"/>
      <path d="M132.12,90.36c18.28,.13,36.55,.26,54.83,.38,0,.07-.02,.15-.04,.22-9.09,1.12-18.22,2.01-27.27,3.42-10.3,1.6-20.44,.99-30.54-1.26-2.63-.59-5.21-1.39-7.81-2.09,.5-.11,.99-.3,1.49-.32,1.57-.06,3.15-.05,4.72-.07l4.61-.28Z" fill="#9fc03d"/>
      <path d="M233.92,85.28c-.21,.05-.41,.15-.62,.15-19.05,.02-38.11,.03-57.16,.05,4.88-2.25,10.06-3.31,15.35-3.92,13.89-1.61,27.49,.4,41,3.41,.47,.11,.95,.21,1.42,.32Z" fill="#9fc03e"/>
      <path d="M408.27,130.42c-3.12,.99-6.21,2.13-9.37,2.96-8.06,2.11-16.29,2.87-24.6,2.57-1.34-.05-2.69-.71-3.98-1.22-3.47-1.37-6.9-2.81-10.35-4.22,4.34-.02,8.67-.05,13.01-.07,11.39-.03,22.77-.06,34.16-.09,.38,0,.76,.04,1.13,.07Z" fill="#239747"/>
      <path d="M234.29,263.86c3.97-1.18,7.93-2.37,11.9-3.55,.62-.18,1.4-.21,1.81-.61,1.34-1.34,2.94-1.3,4.64-1.37,6.31-.28,12.26,.99,17.83,3.96,.56,.3,1.07,.71,1.6,1.08-5.7,.28-11.39,.72-17.09,.78-6.9,.07-13.8-.18-20.7-.29Z" fill="#289848"/>
      <path d="M222.26,91.02c14.18,0,28.37,0,42.55,0,9.18,0,18.37,.01,27.55,.02-3.37,.46-6.73,.98-10.11,1.38-4.74,.56-9.48,1.15-14.23,1.54-9.46,.76-18.87-.25-28.28-1.13-5.19-.49-10.37-1.02-15.55-1.54-.64-.06-1.28-.18-1.93-.27Z" fill="#9fc03f"/>
      <path d="M231.4,176.11c-8.26,.03-16.53,.04-24.79,.09-2,.01-4,.11-6,.17,1.99-1.3,4.02-2.55,5.97-3.9,4.76-3.29,9.74-3.59,14.91-1.16,3.32,1.56,6.61,3.2,9.91,4.81Z" fill="#a0c03d"/>
      <path d="M151.08,179.69c6.09-1.39,12.16-2.92,18.44-3.19,2.97-.01,5.94-.03,8.91-.04,7.01,.26,13.84,1.64,20.57,3.64-.96,0-1.92,0-2.88,0-14.2-.11-28.4-.23-42.61-.34-.81,0-1.62-.04-2.44-.06Z" fill="#2e9949"/>
      <path d="M244.72,180.42c9.82,0,19.64,0,29.46,.03,1.51,0,3.02,.18,4.53,.28-2.67,1.18-5.34,2.36-8,3.56-4.36,1.95-8.74,1.72-13.15,.17-3.42-1.2-6.86-2.35-10.31-3.49-.82-.27-1.68-.37-2.53-.55Z" fill="#9fc03d"/>
      <path d="M368.2,220.37c-.14,.16-.27,.41-.44,.45-3.38,.7-6.77,1.4-10.16,2.04-.95,.18-1.93,.29-2.89,.28-8.95-.1-17.91-.08-26.85-.45-3.78-.16-7.53-1.18-11.29-1.81,11.67-.14,23.35-.29,35.02-.42,5.54-.06,11.07-.06,16.61-.09Z" fill="#2b9948"/>
      <path d="M277.35,175.81c-.92,0-1.84,.02-2.76,.03-8.94,.1-17.88,.2-26.82,.29-.59,0-1.19-.03-1.79-.05,3.88-1.36,7.72-2.86,11.66-4.03,5.05-1.5,10.01-.7,14.79,1.29,1.69,.7,3.28,1.64,4.92,2.47Z" fill="#9fc03e"/>
      <path d="M254.84,224.47s-.11-.04-.14-.08c-.05-.07-.07-.15-.1-.23,1.28-.12,2.57-.32,3.85-.34,10.58-.24,21.16-.73,31.74-.56,6.9,.11,13.79,1.18,20.68,1.86,.8,.08,1.57,.34,2.36,.52-13.89-.23-27.78-.48-41.67-.7-4.83-.08-9.66-.1-14.49-.18-.75-.01-1.49-.18-2.23-.28Z" fill="#2e9949"/>
      <path d="M159.5,259.09c3.84,.48,7.34,1.89,10.67,3.79,.46,.26,.92,.55,1.38,.82-10.01-.02-19.98-.53-29.88-2.13-.14-.02-.26-.15-.87-.51,2.42-.36,4.38-.7,6.36-.95,2.05-.25,4.11-.45,6.16-.61,2.06-.17,4.12-.28,6.18-.41Z" fill="#2b9849"/>
      <path d="M349.78,46.01c.46-.22,.9-.51,1.39-.66,5.13-1.53,10.27-3.03,15.41-4.56,.22-.06,.37-.33,.56-.5,3.43-.98,6.84-2,10.28-2.94,7.51-2.06,15.1-3.12,22.78-1.1,2.43,.64,4.72,1.83,7.05,2.83,.42,.18,.7,.72,1.04,1.09-.55,.04-1.09,.07-1.64,.11-1.84-.92-3.59-2.1-5.53-2.7-7.39-2.29-14.78-1.44-22.1,.46-2.26,.59-4.46,1.45-6.68,2.18-6.19,1.91-12.39,3.82-18.58,5.73-.91,.14-1.82,.33-2.73,.39-.4,.03-.82-.22-1.23-.34Z" fill="#9bbe52"/>
      <path d="M273.77,263.27c-3.04-1.52-6.09-3.03-9.13-4.55,6.43,.48,12.86,.94,19.28,1.46,2.07,.17,4.12,.53,6.17,.8,0,.22,0,.43,0,.65-5.44,.55-10.89,1.1-16.33,1.64Z" fill="#30994a"/>
      <path d="M191.25,262.51c3.53-1.46,7.12-2.67,11-1.85,1.45,.31,2.82,1.01,4.22,1.53-5.07,.1-10.15,.21-15.22,.31Z" fill="#3f9d4e"/>
      <path d="M127.51,90.64c-1.57,.02-3.15,0-4.72,.07-.5,.02-.99,.21-1.49,.32-.22-.27-.44-.54-.67-.82,.34-.04,.69-.07,1.03-.11,.63,.08,1.25,.19,1.88,.24,1.32,.11,2.64,.2,3.97,.29Z" fill="#c6d8af"/>
      <path d="M186.92,90.96c.02-.07,.03-.15,.04-.22,.57,.04,1.15,.08,1.72,.12-.59,.03-1.17,.07-1.76,.1Z" fill="#87b785"/>
      <path d="M127.51,90.64c-1.32-.1-2.65-.18-3.97-.29-.63-.05-1.25-.16-1.88-.24,3.49,.09,6.97,.17,10.46,.26-1.54,.09-3.08,.19-4.61,.28Z" fill="#9abf7e"/>
      <path d="M394.59,220.3c-4.81,0-9.63,.02-14.45,.03-.2-.08-.4-.16-.59-.24,0-.13-.01-.26-.02-.39,3.89,0,7.78-.02,11.68,.01,1.08,0,2.16,.14,3.24,.24,.06,0,.09,.24,.14,.36Z" fill="#ebefd9"/>
      <path d="M355.9,130.4c-8.43,0-16.86,.02-25.29,.03,6.25-2.91,12.73-3.27,19.37-1.73,2,.46,3.95,1.13,5.92,1.7Z" fill="#f3f6ef"/>
      <path d="M178.43,176.45c-2.97,.01-5.94,.03-8.91,.04,2.97-.01,5.94-.03,8.91-.04Z" fill="#cbd996"/>
    </g>
    <g>
      <path d="M26.6,55.53c.4-5.81,3.3-9.14,9.31-10.75,.63-.17,1.23-.44,1.84-.67,2.43,0,4.87,0,7.3,0,.99,.25,1.99,.51,2.98,.75,6.36,1.56,11.67,4.83,15.87,9.85,.67,.8,1.28,1.09,2.41,.91,5.85-.9,11.7-1.07,17.38,.96,8.09,2.9,13.19,8.88,16.57,16.51,2.43,5.49,3.51,11.27,3.51,17.26,0,5.65-.26,11.32,1.38,16.84,1.37,4.6,2.98,9.14,4.09,13.8,2.9,12.07-3.14,24.04-14.49,29.11-.17,.07-.39,.02-.59,.03,2.72-6.08,5.44-12.15,8.29-18.51-.52,.4-.82,.63-1.18,.91,0-.32-.04-.53,0-.73,2.55-9.96,3.4-20.03,2.23-30.27-.99-8.66-3.37-16.86-7.72-24.42-4.14-7.2-9.57-13.13-17.31-16.61-5.49-2.47-11.32-3.22-17.26-3.36-1.34-.03-2.68,.17-4.02,.27-5.52-3.07-11.35-4.82-17.76-4.78-4.54,.03-8.71,1.26-12.84,2.9ZM106.24,127.37l-.09-.11c-.76,.77-1.52,1.54-2.28,2.31,.07,.07,.13,.13,.2,.2,.72-.8,1.45-1.6,2.17-2.4Zm-2.85,3.39c-.1-.08-.2-.16-.3-.25-.15,.23-.31,.46-.46,.69,.09,.06,.19,.12,.28,.19,.16-.21,.32-.42,.48-.63Z" fill="#9fc03d"/>
      <path d="M130.45,123.18c-1.23,2.3-2.97,4.01-5.65,4.24-1.26,.11-2.68-.06-3.82-.56-2.71-1.19-3.25-4.37-1.31-6.61,1.78-2.05,4.73-2.6,7.05-1.28,1.27,.73,2.49,1.53,3.73,2.3v1.91Zm-7.31-2.71c-1.21,1.68-1.22,2.94,.03,4.03,.5,.44,1.54,.96,1.87,.75,.71-.47,1.25-1.35,1.55-2.17,.1-.27-.7-.97-1.19-1.33-.67-.48-1.44-.82-2.26-1.27Z" fill="#2c9849"/>
      <path d="M57.19,57.41c1.34-.09,2.69-.3,4.02-.27,5.94,.14,11.77,.89,17.26,3.36,7.74,3.49,13.16,9.41,17.31,16.61,4.35,7.56,6.73,15.76,7.72,24.42,1.18,10.25,.32,20.31-2.23,30.27-.05,.19,0,.41,0,.73,.36-.28,.66-.5,1.18-.91-2.85,6.36-5.57,12.43-8.29,18.51-2.74,4.06-5.49,8.11-8.23,12.17-3.3,3.37-6.61,6.74-9.91,10.11-.61,.62-1.19,1.26-1.78,1.89h.02c-.23,.1-.47,.21-.7,.31-.53,.4-1.06,.81-1.58,1.21-3.91,2.49-7.77,5.06-11.74,7.45-2.33,1.4-4.82,2.52-7.24,3.76,0,0,.02-.01,.02-.01-.34,.11-.68,.22-1.02,.33-7.97,3.08-16.14,5.42-24.64,6.49-.83,.11-1.69,.15-2.52,.07-.41-.04-1-.38-1.09-.7-.09-.32,.24-1.02,.56-1.16,1.76-.78,3.55-1.49,5.37-2.13,.73-.26,1.55-.3,2.32-.44,.23-.09,.45-.19,.68-.28,0,0-.02,.01-.02,.01,2.82-.56,5.7-.93,8.46-1.72,6.64-1.9,12.7-5.09,18.49-8.81,.97-.7,1.95-1.41,2.92-2.11,0-.12,0-.24,0-.36h-.02c.46-.2,1.01-.32,1.36-.66,4.11-3.95,8.44-7.71,12.19-11.98,2.79-3.18,4.81-7.02,7.18-10.57,1.9-4.05,3.8-8.11,5.7-12.16,3.33-8.82,4.91-17.96,4.9-27.38,.01-7.1-.86-14.08-2.83-20.91-.13-.45-.36-.87-.55-1.31-.89-2.46-1.78-4.93-2.67-7.39,0-.33,.14-.75-.01-.98-.71-1.09-1.51-2.13-2.27-3.19-.15-.11-.31-.22-.46-.34l.02,.02c-.11-.22-.22-.43-.33-.65h.01c-.26-.5-.43-1.08-.79-1.5-2.73-3.25-5.49-6.47-8.22-9.68,.82-.56,1.04-1.13,.18-2.16-.61-.73-1.49-1.36-2.38-1.71-5.43-2.14-10.9-4.18-16.35-6.26Z" fill="#1f6f39"/>
      <path d="M57.19,57.41c5.45,2.08,10.92,4.12,16.35,6.26,.89,.35,1.77,.98,2.38,1.71,.86,1.02,.64,1.59-.18,2.16,2.73,3.2,5.49,6.42,8.22,9.68,.36,.42,.53,1,.79,1.51-.47-.3-.96-.56-1.4-.9-1.34-1.02-2.64-2.09-4-3.08-.27-.19-.7-.15-.99-.21,2.61,2.57,5.15,5.07,7.69,7.57,.59,.58,1.16,1.17,1.73,1.76,.89,2.46,1.78,4.93,2.67,7.39-2.46-2.24-4.85-4.56-7.38-6.71-4.68-3.97-8.56-8.38-9.04-15.14-3.25,2.83-6.78,3.27-10.54,2.33-3.78-.95-6.37-3.59-8.83-6.6-.21,.79-.35,1.44-.55,2.08-1.74,5.58-5.81,8.33-11.34,9.3-5.3,.94-10.4-.32-15.52-1.4-1.6-.34-3.21-.58-4.82-.87-1.08-.19-2.16-.38-3.24-.57-3.58-.64-6.34,.5-7.98,3.83-.42,.85-.84,1.92-.68,2.79,.6,3.4-.36,6.49-1.54,9.55-.67,1.75-1.52,5.26-1.48,6.98-.41-.49-.97-.91-1.2-1.47-1.43-3.42-1.71-7.01-1.62-10.68,.13-5.22,1.69-10.01,4.72-14.16,2.84-3.9,6.08-7.51,9.9-10.53,2.42-1.48,4.84-2.96,7.26-4.44,4.13-1.64,8.3-2.87,12.84-2.9,6.4-.05,12.24,1.71,17.76,4.78Z" fill="#aed137"/>
      <path d="M7.54,96.81c-.04-1.72,.8-5.23,1.48-6.98,1.18-3.06,2.14-6.15,1.54-9.55-.15-.87,.27-1.94,.68-2.79,1.64-3.33,4.4-4.47,7.98-3.83,1.08,.19,2.16,.38,3.24,.57-2.65,3.15-4.77,6.6-5.62,10.66-1.25,5.96,.5,11.24,3.96,16.07,1.79,2.97,4,5.52,6.97,7.39,1.23,.78,2.27,.69,2.92-.54,.95-1.79,1.99-3.62,2.46-5.56,.75-3.09-.75-8.2-4.73-9.94-1.94-1.45-3.94-2.28-6.45-1.33-1.03,.39-2.29,.3-3.43,.27-.45-.01-.89-.45-1.33-.7,.28-.47,.46-1.18,.86-1.36,2.02-.87,4.06-1.79,6.17-2.34,3.58-.94,7.22-.99,10.77,.25,3.57,1.24,6.1,3.68,7.83,7,.65,2.54,.94,5.06,.1,7.64-2.04,6.23-6.76,9.36-12.75,10.92-4.63,1.21-9.25,1.46-13.29-1.74-1.52-1.2-2.8-2.71-4.19-4.07-.54-.76-1.13-1.5-1.62-2.3-1.47-2.44-3.45-4.66-3.55-7.74Z" fill="#206f39"/>
      <path d="M83.24,153c-2.37,3.55-4.39,7.4-7.18,10.57-3.75,4.27-8.08,8.03-12.19,11.98-.35,.33-.9,.45-1.36,.67,1.85-3.3,3.76-6.56,5.52-9.91,.75-1.43,1.19-3.03,1.76-4.55l-.6-.28c-.27,.47-.58,.93-.82,1.42-1.57,3.26-3.01,6.6-4.73,9.78-1.14,2.11-2.69,4.01-4.05,6-5.79,3.72-11.85,6.91-18.49,8.81-2.76,.79-5.64,1.16-8.46,1.72,2.01-1.21,4.15-2.24,6.01-3.65,5.3-4.03,9.6-9.04,13.48-14.42,.46-.64,.97-1.25,1.42-1.9,4.83-7.03,11.26-11.5,19.78-13.06,3.38-.62,6.6-2.1,9.89-3.18Z" fill="#add038"/>
      <path d="M7.54,96.81c.1,3.08,2.08,5.29,3.55,7.74,.48,.8,1.07,1.53,1.62,2.3,.06,.52,.06,1.05,.2,1.55,.54,1.97,1.11,3.94,1.68,5.9-3.81-.72-7.28-2.18-10.09-4.91-3.43-3.32-4.61-7.29-3.42-11.99,.85-3.37,1.69-6.76,2.15-10.19,.23-1.74-.23-3.64-.66-5.39-.64-2.6-1.71-5.11-2.26-7.73-1.06-5.06,.86-8.98,5.36-11.58,2.96-1.71,6.24-2.21,9.57-2.47,1.37-.11,2.74-.06,4.12-.08-3.82,3.02-7.06,6.64-9.9,10.53-3.02,4.15-4.59,8.94-4.72,14.16-.09,3.67,.19,7.26,1.62,10.68,.23,.56,.79,.98,1.2,1.47Z" fill="#9fc03c"/>
      <path d="M14.58,114.3c-.56-1.97-1.14-3.93-1.68-5.9-.14-.5-.14-1.03-.2-1.55,1.39,1.37,2.67,2.87,4.19,4.07,4.05,3.2,8.66,2.95,13.29,1.74,5.98-1.56,10.7-4.69,12.75-10.92,.84-2.57,.55-5.1-.1-7.64,1.83,1.44,2.74,3.36,2.61,5.66-.5,8.77-3.66,16.31-10.56,22-2.26,1.87-4.89,3.08-7.79,3.69-3.49,.73-6.32-.4-8.31-3.23-1.29-1.83-2.17-3.96-3.23-5.96-.34-.65-.65-1.31-.98-1.97Z" fill="#aed038"/>
      <path d="M52.99,187.04c2.42-1.24,4.92-2.36,7.24-3.76,3.97-2.39,7.83-4.96,11.74-7.45,2.87-1.03,5.74-2.07,8.6-3.1-.06-.17-.13-.34-.19-.5-2.05,.69-4.1,1.39-6.15,2.08,.59-.63,1.18-1.27,1.78-1.89,3.3-3.37,6.61-6.74,9.91-10.11,.49,2.59,1.02,5.16,.2,7.81-1.45,4.67-4.55,7.89-8.71,10.19-3.92,2.17-8.25,3.13-12.57,4.11-3.44,.78-6.87,1.6-10.31,2.39-.5,.12-1.03,.15-1.54,.22Z" fill="#9fbf3d"/>
      <path d="M93.84,113.46c.01,9.42-1.58,18.56-4.9,27.38-.37-3.78-.7-7.57-1.12-11.35-.54-4.92,.6-9.32,3.86-13.12,.79-.92,1.45-1.94,2.17-2.91Z" fill="#adcf39"/>
      <path d="M28.42,92.33c3.98,1.75,5.48,6.85,4.73,9.94-.47,1.94-1.51,3.77-2.46,5.56-.65,1.23-1.69,1.32-2.92,.54-2.97-1.87-5.18-4.42-6.97-7.39,2.34,.11,4.7,.41,7.02,.25,1.8-.12,2.66-1.39,2.56-3.2-.11-2.06-.46-4.09-1.96-5.7Z" fill="#add038"/>
      <path d="M123.26,66.64c-.55-.09-1.09-.19-1.71-.29,1.28-1.38,3.89-1.75,5.73-.9,1.85,.85,3.01,2.91,2.77,4.91-.43,3.69-4.28,6.65-7.95,6.12-2.15-.31-3.79-2.45-3.32-4.61,.54-2.47,1.6-4.62,4.47-5.23Zm1.19,8.13c2.49-2.3,2.56-5.41,.16-7.47-2.94,2.44-2.71,6.61-.16,7.47Z" fill="#2d994a"/>
      <path d="M51.99,187.36c.34-.11,.68-.22,1.02-.33-.34,.11-.68,.22-1.02,.33Z" fill="#9fbf3d"/>
      <path d="M32.67,189.21c-.23,.09-.45,.19-.68,.28,.23-.09,.45-.19,.68-.28Z" fill="#add038"/>
      <path d="M106.24,127.37c-.72,.8-1.45,1.6-2.17,2.4-.07-.07-.13-.13-.2-.2,.76-.77,1.52-1.54,2.28-2.31l.09,.11Z" fill="#1f6f39"/>
      <path d="M103.39,130.76c-.16,.21-.32,.42-.48,.63-.09-.06-.19-.12-.28-.19,.15-.23,.31-.46,.46-.69,.1,.08,.2,.16,.3,.25Z" fill="#1f6f39"/>
      <path d="M59.6,178.68c1.36-1.99,2.91-3.89,4.05-6,1.72-3.18,3.16-6.52,4.73-9.78,.24-.49,.54-.94,.82-1.42l.6,.28c-.58,1.52-1.01,3.12-1.76,4.55-1.76,3.34-3.67,6.61-5.52,9.91,0,0,.02-.01,.02-.01,0,.12,0,.24,0,.36-.97,.7-1.95,1.41-2.92,2.11Z" fill="#319c47"/>
      <path d="M87.79,83.86c-.58-.59-1.15-1.18-1.73-1.76-2.54-2.5-5.08-5-7.69-7.57,.28,.05,.72,.01,.99,.21,1.36,1,2.66,2.06,4,3.08,.44,.33,.93,.6,1.4,.9,0,0-.01,0-.01,0,.11,.22,.22,.43,.33,.65,0,0-.02-.02-.02-.02,.15,.11,.31,.22,.46,.34,.76,1.06,1.56,2.1,2.27,3.19,.15,.23,.02,.65,.01,.98Z" fill="#2f9b47"/>
      <path d="M74.24,174.3c2.05-.69,4.1-1.39,6.15-2.08,.06,.17,.13,.34,.19,.5-2.87,1.03-5.74,2.07-8.6,3.1,.53-.4,1.06-.81,1.58-1.21,.23-.11,.47-.21,.7-.32h-.02Z" fill="#3e9e47"/>
      <path d="M85.07,79.36c-.11-.22-.22-.43-.33-.65,.11,.22,.22,.43,.33,.65Z" fill="#aed137"/>
      <path d="M74.26,174.29c-.23,.11-.47,.21-.7,.32,.23-.11,.47-.21,.7-.32Z" fill="#9fbf3d"/>
      <path d="M85.51,79.68c-.15-.11-.31-.22-.46-.34,.15,.11,.31,.22,.46,.34Z" fill="#aed137"/>
      <path d="M62.52,176.57c0-.12,0-.24,0-.36,0,.12,0,.24,0,.36Z" fill="#add038"/>
      <path d="M124.45,74.77c-2.55-.86-2.78-5.03,.16-7.47,2.4,2.06,2.33,5.17-.16,7.47Z" fill="#f5f8f4"/>
    </g>
  </g>
</svg>