<?xml version="1.0" encoding="UTF-8"?>
<svg id="Layer_2" data-name="Layer 2" xmlns="http://www.w3.org/2000/svg" viewBox="0 0 64.92 58.64">
  <g id="Layer_2-2" data-name="Layer 2">
    <g>
      <path d="M64.92,29.15v4.45c-1.43,3.18-3.02,6.25-5.83,8.48-2.2,1.75-4.44,3.47-6.6,5.27-.91,.75-1.67,1.68-2.5,2.53-.58,.12-1.26,.08-1.72,.37-3.14,2-6.24,4.07-9.35,6.11-1.03,.46-2.13,.79-3.06,1.39-1.88,1.22-3.58,1.14-5.42-.1-.97-.65-2.15-.98-3.23-1.46-.38-.43-.69-.97-1.14-1.28-1.83-1.25-3.69-2.46-5.57-3.63-1.69-1.05-3.43-2.04-5.15-3.05l.11-.03c-.13-.15-.25-.29-.38-.44-3.59-2.85-7.25-5.61-10.74-8.59-2.39-2.04-3.59-4.87-4.16-7.92-.59-3.13,.29-4.85,2.93-6.12-.11-1.3-.29-2.57-.3-3.85-.04-4.1,1.15-5.63,5.07-6.9,.54-.18,1.13-.89,1.29-1.47,1.61-5.79,3.91-7.35,9.87-6.59,.11,.01,.24-.09,.51-.2,.9-2.84,3.11-4.64,5.65-6.14h4.05c2.43,1.75,4.86,1.66,7.3,0h3.65c2.36,1.15,4.23,2.79,5.47,5.14,.18,.34,.84,.6,1.28,.59,5.56-.02,7.73,1.49,9.64,6.7,.21,.58,.6,1.31,1.09,1.53,4,1.78,5.19,4.98,4.86,9.06-.06,.77-.05,1.64,.25,2.32,.59,1.32,1.41,2.54,2.13,3.81ZM28.78,54.73c.07,0,.15,.01,.22,.02-.04-.04-.08-.08-.12-.13-.25-.16-.5-.33-.75-.49-.2-.34-.36-.73-.62-1.02-7.19-8.12-14.38-16.23-21.59-24.33-.25-.28-.64-.45-1.32-.92,.31,.7,.41,.95,.53,1.19,3.4,6.28,7.84,11.8,12.85,16.81,3.07,3.08,6.65,5.65,10,8.45,.26,.14,.53,.28,.8,.42Zm1.28-.88s.08,.04,.13,.06c-.04-.02-.09-.04-.13-.06-.12-.28-.24-.56-.37-.84-.06-.19-.09-.41-.2-.57-7.1-10.8-12.95-22.27-18.42-33.95-.16-.34-.5-.6-.98-1.16,.05,.61,.03,.82,.09,1,3.36,10.78,8.26,20.8,14.98,29.9,1.3,1.76,2.94,3.27,4.42,4.89,.16,.25,.32,.5,.48,.74Zm30.31-26.4c-.48,.35-1.05,.63-1.43,1.07-5.72,6.62-11.42,13.26-17.11,19.91-1.44,1.68-2.82,3.41-4.22,5.11,.12,.12,.24,.23,.35,.35,.42-.29,.9-.51,1.25-.87,4.24-4.41,8.67-8.67,12.61-13.33,3.2-3.78,5.8-8.06,8.67-12.13,.06-.15,.11-.29,.17-.44-.1,.11-.2,.22-.3,.33Zm-23.85,25.99c.18-.2,.38-.39,.53-.61,7.8-10.78,13.56-22.65,18.42-34.98,.1-.24,.01-.56,.01-.84-.65,.48-1,1.03-1.3,1.61-5.03,9.62-10.04,19.25-15.1,28.85-.87,1.65-1.96,3.17-2.95,4.76,.09-.46,.12-.94,.27-1.38,4-11.71,6.6-23.75,8.54-35.95,.26-1.66,.38-3.35,.56-5.02-.58,.27-.76,.61-.85,.98-3.29,13.97-6.57,27.94-9.82,41.92-.09,.38,.13,.83,.21,1.25,.49-.2,.98-.4,1.47-.6ZM33.15,3.49V53.62c.21,0,.43,0,.64,0,1.98-16.73,1.42-33.43-.64-50.13Zm-12.52,5.6c-.24,.06-.48,.12-.72,.18,.4,8.26,8.76,40.43,11.74,43.09-3.68-14.42-7.35-28.84-11.03-43.27Z" fill="#5f98d1"/>
      <path d="M33.15,3.49c2.06,16.69,2.62,33.4,.64,50.13-.21,0-.43,0-.64,0V3.49Z" fill="#656db3"/>
      <path d="M36.52,53.44c-.49,.2-.98,.4-1.47,.6-.08-.42-.3-.87-.21-1.25,3.25-13.98,6.54-27.95,9.82-41.92,.09-.37,.27-.71,.85-.98-.18,1.68-.3,3.36-.56,5.02-1.94,12.2-4.54,24.24-8.54,35.95-.15,.44-.18,.92-.27,1.38,0,0,.01-.02,.01-.02-.13,.41-.27,.82-.4,1.23-.03,.04-.06,.07-.09,.11,.02-.04,.05-.08,.07-.12,.12,0,.23-.02,.35-.02,.15,0,.3,.02,.45,.02Z" fill="#656db3"/>
      <path d="M20.63,9.09c3.68,14.42,7.35,28.84,11.03,43.27-2.99-2.66-11.35-34.83-11.74-43.09,.24-.06,.48-.12,.72-.18Z" fill="#656db3"/>
      <path d="M36.52,53.44c-.15,0-.3-.02-.45-.02,.02-.4,.05-.8,.07-1.2,0,0-.01,.02-.01,.02,.99-1.58,2.08-3.11,2.95-4.76,5.06-9.6,10.07-19.23,15.1-28.85,.3-.58,.65-1.13,1.3-1.61,0,.28,.08,.6-.01,.84-4.86,12.33-10.62,24.19-18.42,34.98-.16,.22-.35,.4-.53,.61Z" fill="#656db3"/>
      <path d="M29.57,53.11c-1.48-1.62-3.12-3.13-4.42-4.89-6.72-9.09-11.62-19.11-14.98-29.9-.06-.18-.04-.38-.09-1,.49,.57,.82,.82,.98,1.16,5.47,11.68,11.32,23.16,18.42,33.95,.11,.16,.13,.38,.2,.57l-.11,.1Z" fill="#656db3"/>
      <path d="M60.5,27.56c-2.87,4.06-5.47,8.34-8.67,12.13-3.94,4.66-8.37,8.92-12.61,13.33-.34,.36-.83,.58-1.25,.87-.12-.12-.24-.23-.35-.35,1.41-1.71,2.79-3.43,4.22-5.11,5.69-6.65,11.39-13.29,17.11-19.91,.38-.44,.95-.71,1.43-1.07l.13,.11Z" fill="#656db3"/>
      <path d="M27.98,54.32c-3.35-2.8-6.93-5.37-10-8.45-5.01-5.01-9.45-10.54-12.85-16.81-.13-.23-.22-.48-.53-1.19,.68,.47,1.07,.63,1.32,.92,7.21,8.1,14.4,16.21,21.59,24.33,.26,.29,.41,.68,.61,1.02-.05,.06-.1,.12-.15,.18Z" fill="#656db3"/>
      <path d="M27.2,56.2c-1.76,.48-3.51,.95-5.27,1.44-1.45,.4-2.59-.08-3.19-1.41-1.19-2.63-2.27-5.32-3.4-7.98,1.72,1.01,3.45,2,5.15,3.05,1.88,1.17,3.74,2.38,5.57,3.63,.46,.31,.77,.85,1.14,1.28Z" fill="#4385c5"/>
      <path d="M49.99,49.89c-.99,2.21-1.94,4.44-2.98,6.62-.71,1.49-1.92,2-3.52,1.44-1.52-.53-3.05-1.06-4.57-1.58,3.11-2.05,6.21-4.11,9.35-6.11,.46-.3,1.14-.26,1.72-.37Z" fill="#4485c6"/>
      <path d="M60.37,27.46c.1-.11,.2-.22,.3-.33-.06,.15-.11,.29-.17,.44,0,0-.13-.11-.13-.11Z" fill="#656db3"/>
      <path d="M29.69,53.02c.12,.28,.24,.56,.37,.84,0,0,0,0,0,0-.16-.25-.32-.5-.48-.74,0,0,.11-.09,.11-.09Z" fill="#656db3"/>
      <path d="M28.78,54.73c-.26-.14-.53-.28-.79-.42,.05-.06,.1-.12,.15-.18,.25,.16,.5,.33,.75,.49l-.1,.11Z" fill="#656db3"/>
      <path d="M15.46,48.22c-.13-.15-.25-.29-.38-.44,.13,.15,.25,.29,.38,.44Z" fill="#4385c5"/>
      <path d="M30.05,53.86s.09,.04,.13,.06c-.04-.02-.08-.04-.13-.06,0,0,0,0,0,0Z" fill="#656db3"/>
      <path d="M28.88,54.63s.08,.08,.12,.13c-.07,0-.15-.01-.22-.02,0,0,.1-.11,.1-.11Z" fill="#656db3"/>
      <path d="M36.14,52.22c-.02,.4-.05,.8-.07,1.2-.12,0-.23,0-.35,.02l.02,.02c.13-.41,.27-.82,.4-1.23Z" fill="#5f98d1"/>
      <path d="M35.72,53.44s-.05,.08-.07,.12c.03-.04,.06-.07,.09-.11,0,0-.02-.02-.02-.02Z" fill="#5f98d1"/>
    </g>
  </g>
</svg>