<?xml version="1.0" encoding="UTF-8"?>
<svg id="Layer_2" data-name="Layer 2" xmlns="http://www.w3.org/2000/svg" viewBox="0 0 64.77 58.67">
  <g id="Layer_2-2" data-name="Layer 2">
    <g>
      <path d="M25.12,0h4.05c2.3,1.44,4.59,2.09,6.89,0h4.05c2.37,1.13,4.21,2.79,5.46,5.13,.18,.34,.83,.6,1.27,.6,5.67,0,7.71,1.44,9.72,6.88,.21,.56,.66,1.21,1.17,1.44,3.53,1.61,4.99,4.41,4.71,8.13-.13,1.75,.14,3.16,1.19,4.65,.75,1.08,1.1,2.63,1.14,3.99,.11,3.68-1.3,6.92-3.95,9.41-2.79,2.62-5.86,4.94-8.79,7.41-.66,.56-1.25,1.2-1.87,1.8-3.77,2.32-7.54,4.64-11.3,6.96-1.03,.45-2.13,.79-3.06,1.39-1.87,1.21-3.58,1.18-5.42-.09-.96-.66-2.15-1-3.23-1.48-.9-.75-1.74-1.61-2.73-2.24-3.05-1.95-6.15-3.82-9.23-5.72-.48-.47-.9-1-1.43-1.39-5.45-3.99-11.21-7.69-13.75-14.45,0-1.62,0-3.24,0-4.86,.95-.83,1.91-1.66,2.82-2.45,0-1.75-.13-3.7,.03-5.61,.22-2.54,1.77-4.42,4.17-4.82,1.58-.27,2-1.03,2.31-2.43,.99-4.52,4.06-6.64,8.51-6.07,.46,.06,.91,.15,1.48,.24,1.05-2.97,3.17-4.92,5.79-6.4Zm4.87,53.88l.07,.07-.08-.06-.06-.08s.07,.07,.07,.07Zm-1.25,.86l.13,.07-.07-.13c-.25-.16-.51-.31-.76-.47-.48-.64-.9-1.32-1.44-1.9-4.17-4.57-8.41-9.07-12.53-13.68-3.13-3.5-6.13-7.12-9.19-10.69l-.12-.07,.07,.12c.21,.56,.34,1.16,.63,1.67,4.51,8.17,10.8,14.86,17.65,21.07,1.48,1.34,3.2,2.42,4.81,3.61,.27,.13,.54,.27,.81,.4Zm31.59-27.23c-.48,.35-1.04,.62-1.42,1.06-4.86,5.6-9.7,11.21-14.52,16.84-2.29,2.68-4.54,5.4-6.81,8.1l.37,.4c.49-.37,1.04-.68,1.46-1.12,4.02-4.16,8.25-8.15,11.95-12.58,3.31-3.96,6.04-8.4,9.03-12.63,.02-.12,.05-.25,.07-.37-.05,.1-.1,.21-.15,.31Zm-24.2,26.03c.47-.47,1.01-.89,1.38-1.42,7.44-10.52,13.01-22.01,17.76-33.93,.13-.32,.08-.7,.12-1.06-.64,.44-.99,.99-1.29,1.56-5.18,9.91-10.34,19.83-15.54,29.73-.71,1.35-1.65,2.58-2.49,3.86,.11-.53,.2-1.06,.33-1.58,2.52-10.14,5.15-20.25,7.52-30.43,.93-4.01,1.29-8.15,1.91-12.23-.59,.55-.8,1.18-.95,1.82-2.23,9.46-4.47,18.91-6.68,28.37-1.15,4.93-2.28,9.86-3.4,14.79-.27,1.2-.24,1.21,.88,1.26,.16-.25,.31-.49,.47-.74Zm-3.06-.14c.21,.03,.43,.06,.64,.09,1.98-16.49,1.45-32.96-.64-49.41V53.4ZM20.45,10.84c-.61,4.96,8.2,38.71,10.97,41.99-3.31-14.43-6.47-28.39-10.97-41.99Zm8.58,41.99c-6.28-11.68-12.56-23.35-18.84-35.03,3.87,13,9.84,24.84,18.84,35.03Z" fill="#58be85"/>
      <path d="M36.06,0c-2.3,2.09-4.59,1.44-6.89,0h6.89Z" fill="#f5faf6"/>
      <path d="M35.65,54.28c-1.12-.05-1.15-.05-.88-1.26,1.12-4.93,2.25-9.87,3.4-14.79,2.22-9.46,4.45-18.91,6.68-28.37,.15-.64,.37-1.26,.95-1.82-.62,4.08-.98,8.22-1.91,12.23-2.37,10.17-5,20.29-7.52,30.43-.13,.52-.22,1.05-.33,1.58,0,0,0-.02,0-.02-.14,.41-.28,.82-.42,1.24,0,0,.02-.03,.02-.03-.04,.05-.1,.1-.1,.14,.02,.11,.06,.21,.1,.32,0,.12,0,.24-.01,.36Z" fill="#49b85b"/>
      <path d="M33.05,53.4V4.09c2.09,16.45,2.62,32.91,.64,49.41-.21-.03-.43-.06-.64-.09Z" fill="#48b75a"/>
      <path d="M20.45,10.84c4.51,13.6,7.66,27.56,10.97,41.99-2.77-3.28-11.58-37.03-10.97-41.99Z" fill="#48b75b"/>
      <path d="M36.05,52.27c.84-1.28,1.78-2.51,2.49-3.86,5.21-9.9,10.36-19.82,15.54-29.73,.3-.57,.65-1.11,1.29-1.56-.03,.35,.01,.74-.12,1.06-4.74,11.93-10.32,23.42-17.76,33.93-.38,.53-.92,.95-1.38,1.42,0,0-.09-.09-.09-.09,.01-.4,.02-.79,.04-1.19v.02Z" fill="#49b85b"/>
      <path d="M29.02,52.83c-9-10.19-14.97-22.03-18.84-35.03,6.28,11.68,12.56,23.35,18.84,35.03Z" fill="#49b85b"/>
      <path d="M60.39,27.57c-2.99,4.23-5.72,8.68-9.03,12.63-3.71,4.43-7.93,8.42-11.95,12.58-.42,.44-.97,.75-1.46,1.12l-.37-.4c2.27-2.7,4.51-5.42,6.81-8.1,4.82-5.63,9.66-11.24,14.52-16.84,.38-.44,.94-.71,1.42-1.06l.07,.06Z" fill="#48b75b"/>
      <path d="M27.92,54.33c-1.61-1.2-3.33-2.27-4.81-3.61-6.85-6.2-13.14-12.9-17.65-21.07-.29-.52-.42-1.11-.63-1.67l.05-.05c3.06,3.57,6.06,7.19,9.19,10.69,4.12,4.61,8.36,9.11,12.53,13.68,.53,.58,.96,1.27,1.44,1.9l-.11,.13Z" fill="#48b75a"/>
      <path d="M27.13,56.22c-1.61,.45-3.23,.85-4.83,1.35-1.85,.58-3.12,.02-3.88-1.77-1.07-2.52-2.17-5.03-3.25-7.55,3.08,1.9,6.18,3.77,9.23,5.72,.98,.63,1.82,1.49,2.73,2.24Z" fill="#38b87b"/>
      <path d="M50.16,49.44c-1.05,2.32-2.09,4.64-3.16,6.95-.73,1.57-1.91,2.18-3.61,1.59-1.51-.53-3.03-1.06-4.54-1.59,3.77-2.32,7.54-4.64,11.3-6.96Z" fill="#38b87b"/>
      <path d="M60.32,27.51c.05-.1,.1-.21,.15-.31-.02,.12-.05,.25-.07,.37,0,0-.07-.06-.07-.06Z" fill="#48b75b"/>
      <path d="M35.65,54.28c0-.12,0-.24,.01-.36,0-.15,0-.3,0-.46,0,0-.02,.03-.02,.03,.13-.02,.25-.03,.38-.04,0,0,.09,.09,.09,.09-.16,.25-.31,.49-.47,.74Z" fill="#49b85b"/>
      <path d="M28.04,54.2c.25,.16,.51,.31,.76,.47l-.06,.07c-.27-.13-.54-.27-.81-.4,0,0,.11-.13,.11-.13Z" fill="#48b75a"/>
      <polygon points="4.83 27.98 4.76 27.86 4.88 27.93 4.83 27.98" fill="#48b75a"/>
      <polygon points="29.99 53.88 29.92 53.81 29.97 53.89 29.99 53.88" fill="#49b85b"/>
      <polygon points="29.97 53.89 30.06 53.95 29.99 53.88 29.97 53.89" fill="#49b85b"/>
      <polygon points="28.8 54.67 28.86 54.8 28.73 54.74 28.8 54.67" fill="#48b75a"/>
      <path d="M36.03,53.45c-.13,.01-.26,.03-.38,.04,.14-.41,.28-.82,.42-1.24-.01,.4-.02,.79-.04,1.19Z" fill="#58be85"/>
      <path d="M35.66,53.46c0,.15,0,.3,0,.46-.03-.1-.08-.21-.1-.32,0-.04,.06-.09,.1-.14Z" fill="#58be85"/>
    </g>
  </g>
</svg>