<?xml version="1.0" encoding="UTF-8"?>
<svg id="Layer_2" data-name="Layer 2" xmlns="http://www.w3.org/2000/svg" viewBox="0 0 174.34 162.56">
  <g id="Layer_2-2" data-name="Layer 2">
    <g>
      <path d="M174.34,61.04c-.72,2.68-2.95,3.56-5.23,4.33-3.69,1.24-7.41,2.42-11.11,3.66-.9,.3-1.77,.72-2.89,1.18,.26-1.42,.39-2.84,.78-4.19,1.35-4.69,3.79-8.58,8.4-10.73,3.11-1.45,6.63-.93,8.66,1.4,.65,.74,.94,1.79,1.39,2.7v1.66Z" fill="#7ed2ed"/>
      <path d="M92.28,11.63c-3.25-.33-6.35-1-8.2-4.08-.44-.73-.73-1.64-.79-2.48-.09-1.3,.07-2.62,.17-3.92,.03-.39,.23-.76,.35-1.15,.21,0,.42,0,.62,0,.81,.42,1.59,.94,2.45,1.24,1.85,.67,3.53,1.57,4.79,3.12,.02,.03,.04,.07,.07,.08,1.64,.63,2.01,2.09,2.33,3.94,.52-.65,.96-1.02,1.19-1.5,.73-1.5,1.64-2.05,3.26-1.85,.27,.03,.58,.07,.81-.03,1.45-.68,2.84-.21,4.24,.14,.29,.07,.6,.22,.81,.41,.75,.68,1.47,1.41,2.31,2.22-.79,1.1-1.18,2.48-2.68,3.49-1.72,1.15-3.6,1.65-5.4,2.45-.39,.18-.96,.18-1.37,.04-1.17-.4-2.3-.91-3.44-1.37-.28-.71-.66-1.2-1.51-.75Z" fill="#6ea859"/>
      <path d="M174.34,78.27c-.27,.51-.49,1.06-.83,1.53-1.1,1.54-2.65,1.98-4.39,1.44-3.62-1.12-7.2-2.34-10.8-3.51-.77-.25-1.57-.44-2.45-.69,1.07-1.44,2.41-2.52,3.9-3.44,2.4-1.48,4.98-2.37,7.84-2.17,3.19,.23,5.54,1.69,6.73,4.76v2.08Z" fill="#7ed2ed"/>
      <path d="M115.99,152.17c-.06,.34-.17,.67-.18,1.01-.02,.71-.27,1.21-1.04,1.29-.77,.08-.91,.69-.99,1.26-.1,.67-.46,.87-1.07,.8-.65-.07-1.3-.17-1.95-.15-.37,.01-.83,.14-1.09,.38-.95,.92-2.08,1.33-3.35,1.67-2.36,.63-4.65,1.52-6.11,3.71-.14,.21-.49,.36-.76,.38-.7,.05-1.42,0-2.12,.03-1.69,.07-2.71-1.17-2.25-2.77,.11-.39,.21-.79,.27-.99-.94-.56-1.77-1.14-2.66-1.56-.95-.46-1.95-.95-2.95,.05-.19,.19-.87,.14-1.14-.05-1.16-.81-2.22-.85-3.42-.19-.51,.28-1.2,.34-1.81,.33-1.6-.02-3.2-.05-4.78-.27-.61-.08-1.22-.59-1.7-1.04-.9-.83-1.86-1.52-2.88-2.21-1.77-1.18-3.79-2.33-4.67-4.47-1.06-2.6-2.2-5.23-1.23-8.16,.11-.35,.15-.75,.11-1.12-.21-2.29,.45-4.48,.66-6.73,.02-.2,.03-.47,.15-.59,.88-.88,.78-2.05,1.05-3.14,.31-1.29,.89-2.51,1.33-3.76,.17-.48,.29-.98,.43-1.47,.19-.4,.45-.78,.55-1.2,.6-2.45,1.26-4.87,3.16-6.71,.11-.11,.12-.31,.18-.47,.49-.03,.98-.1,1.47-.09,.77,.01,1.54,.1,2.31,.11,1.19,.03,2.38,.06,3.56,.02,.93-.03,1.86-.15,2.8-.24,.44-.04,.87-.15,1.3-.17,.78-.04,1.56,.02,2.33-.07,1.03-.12,2.02-.57,3.11-.05,.35,.17,.96-.18,1.44-.31,.52-.14,1.02-.4,1.54-.43,1.85-.12,3.77,.1,5.55-.31,1.49-.34,2.94-.54,4.45-.56,.43,0,.85-.21,1.28-.3,.83-.17,1.66-.33,2.49-.5,.13,.83,.44,1.54,.85,2.31,.67,1.24,1.17,2.59,2.01,3.75,.1,.14,.03,.4,.04,.6,.03,.57,0,1.16,.09,1.72,.06,.35,.28,.67,.44,1,.26,.54,.69,1.05,.78,1.62,.29,1.93,.47,3.87,.68,5.81-1.53,.32-3.06,.6-4.57,.98-.71,.18-1.52,.4-2.04,.88-1.2,1.09-2.31,2.28-3.33,3.54-.73,.89-1.28,1.93-1.83,2.95-.1,.19,.14,.83,.32,.87,.33,.07,.88-.01,1.06-.25,1.18-1.55,2.26-3.17,3.44-4.72,.63-.82,1.41-1.43,2.53-1.63,1.51-.27,2.99-.76,4.48-1.16,.95,0,1.9-.03,2.85,0,.29,0,.59,.13,.86,.25,1.06,.46,2.11,.97,3.18,1.41,1.1,.45,2.11,.97,2.63,2.14,.16,.36,.54,.62,.74,.97,.35,.6,.65,1.23,.94,1.86,.11,.24,.08,.62,.25,.75,1.31,.99,1.19,2.48,1.39,3.85,.09,.61,.02,1.24,.03,1.86-.37,.06-.74,.12-1.11,.19-1.26,.21-1.92,.89-1.96,2.08,0,.24,.09,.62,.27,.71,.24,.13,.83,.11,.85,.03,.32-1.13,1.45-1.28,2.19-1.9,.13-.11,.13-.37,.19-.56,.65-.93,1.66-1.13,2.66-1.14,1.61-.03,3.23,.22,4.84,.15,1.6-.07,2.48,.84,3.21,2,.2,.32,.28,.91,.12,1.22-.3,.59-.74,1.19-1.27,1.57-.94,.66-2,1.16-3.01,1.72-.09,.05-.19,.11-.29,.11-2.55-.1-4.65,1.17-6.82,2.23-.27,.13-.58,.2-.88,.29-.06,.02-.16-.02-.2,.01-1.15,.79-2.38,1.49-3.41,2.41-.42,.38-.67,.77-1.3,.77-.75,0-1.54,.25-2.26,.12-1.56-.28-2.54-2.5-1.81-3.93-.19-.12-.39-.25-.58-.37,.06-.72,.37-1.54,.11-2.13-.29-.67-1.04-1.17-1.66-1.65-.66-.52-1.32-.36-2.11-.03-.83,.34-1.92,.54-2.74,.29-1.09-.33-1.72-.07-2.49,.6-.48,.41-1.19,.57-1.83,.77-.1,.03-.48-.36-.45-.47,.51-1.52-.3-2.74-.85-4.03-.12-.28-.18-.7-.05-.95,.43-.84,.17-1.5-.32-2.2-1.3-1.85-3.04-3.22-4.88-4.44-.76-.51-1.77-.66-2.67-.94-.55-.17-1.11-.28-1.66-.42,.12-.06,.23-.15,.35-.19,2.14-.68,3.92-1.84,5.06-3.81,.96-1.67,.47-3.47,.47-5.25,0-2.38-1.9-3.46-2.98-5.11-.04-.07-.18-.08-.28-.11-.5-.14-1.06-.17-1.48-.43-2.46-1.54-3.04-1.55-4.96,.61-1.05,1.17-2.49,2.15-2.59,3.97-.07,1.29-.17,2.58-.24,3.87-.01,.24-.04,.53,.08,.71,.93,1.35,1.87,2.69,2.87,3.99,.39,.51,.94,.9,1.42,1.34-.4-.02-.97,.12-1.17-.08-.65-.7-1.13-.43-1.79-.03-.8,.48-1.69,1.06-2.57,1.1-1.26,.05-2.07,.54-2.77,1.49-.61,.82-.97,1.91-2.26,2.06-.31,.04-.61,.54-.82,.88-.47,.79-.94,1.59-1.28,2.44-.12,.31,.12,.76,.2,1.15,.35-.09,.84-.08,1.02-.31,.52-.7,.92-1.49,1.38-2.23,.14-.23,.3-.55,.51-.61,1.44-.43,2.01-1.68,2.75-2.78,.17-.25,.51-.45,.81-.51,.78-.16,1.78,.02,2.35-.39,1.25-.91,2.56-.32,3.79-.39,1.46-.09,3.09,.21,4.41,.83,1.59,.75,2.96,2,4.39,3.08,.37,.28,.54,.8,.89,1.12,.47,.43,.56,.83,.37,1.46-.14,.47-.02,1.05,.12,1.55,.14,.49,.46,.93,.67,1.4,.51,1.13,.11,2.99-.75,3.86-.29,.3-.46,.76-.59,1.18-.2,.62-.27,1.36,.52,1.51,.26,.05,.69-.66,1.02-1.04,.18-.21,.3-.63,.5-.66,.89-.15,1.82-.11,2.7-.3,.66-.15,1.27-.56,1.91-.83,.27-.11,.56-.19,.85-.21,1.14-.08,2.28-.12,3.42-.19,.38-.03,.75-.12,1.12-.19-.01,.38-.02,.76-.03,1.14,0,.13,0,.26,0,.5h1.59Z" fill="#aca3a3"/>
      <path d="M109.36,113.17c-.83,.17-1.66,.33-2.49,.5-.43,.09-.86,.3-1.28,.3-1.51,.01-2.96,.21-4.45,.56-1.78,.41-3.7,.19-5.55,.31-.52,.03-1.03,.3-1.54,.43-.48,.13-1.09,.47-1.44,.31-1.09-.52-2.07-.08-3.11,.05-.77,.09-1.55,.03-2.33,.07-.44,.02-.87,.13-1.3,.17-.93,.09-1.86,.21-2.8,.24-1.19,.04-2.38,0-3.56-.02-.77-.02-1.54-.1-2.31-.11-.49,0-.98,.06-1.47,.09-.47-.06-.94-.15-1.41-.16-2.1-.05-4.21-.08-6.31-.12-.07,0-.13,.03-.2,.05-1.4-.26-2.79-.57-4.19-.78-2.27-.33-4.56-.5-6.64-1.61-.62-.33-1.34-.5-2.01-.74,.29-.19,.57-.48,.89-.56,11.07-2.79,22.16-5.56,33.23-8.36,1.45-.37,2.88-.85,4.32-1.27,.74,.66,1.39,1.51,2.25,1.95,2.07,1.08,4.17,1.33,6.46,.22,1.6-.78,1.95-1.94,2.07-3.43,.05-.54,.15-1.07,.22-1.6,.17-.02,.35-.02,.51-.07,5.07-1.29,10.13-2.59,15.19-3.87,6.84-1.72,13.67-3.43,20.51-5.14,2.37-.59,4.74-1.15,7.11-1.73-.54,2.39-1.58,4.49-3.51,6.07-.03,.02-.08,.03-.08,.06-.38,1.53-1.87,2.05-2.82,3.06-.26,.27-.5,.68-.81,.75-2.07,.44-3.45,1.92-4.92,3.24-1.6,1.44-3.38,2.45-5.44,3.1-1.37,.43-2.68,1.11-3.98,1.74-1.67,.81-3.3,1.69-4.95,2.54-.31,.16-.62,.32-.95,.41-2.07,.59-4.15,1.14-6.22,1.74-.29,.09-.51,.41-.77,.63-1.34,.18-2.73,.16-3.9,1Z" fill="#b8aaab"/>
      <path d="M144.26,68.46c.96,1.36,1.38,2.89,1.65,4.51,.19,1.13,.63,2.22,.95,3.32,.19,.65,.38,1.3,.57,1.95-.88,.29-1.74,.61-2.63,.85-2.56,.71-5.14,1.4-7.7,2.09-.54-.66-1.01-1.39-1.63-1.97-.63-.58-1.33-.23-1.83,.28-.54,.54,.03,.9,.34,1.29,.26,.32,.46,.67,.69,1.01-1.4,.35-2.81,.7-4.21,1.05-.15-.42-.34-.83-.43-1.27-.2-.89-.71-1.09-1.53-.82-.85,.28-1.04,.79-.72,1.6,.14,.34,.17,.73,.25,1.1-1.1,.21-2.21,.41-3.31,.62,.03-.41,0-.82,.09-1.22,.12-.59,.35-1.21-.46-1.43-.79-.22-1.49,.04-1.68,.89-.19,.84-.19,1.73-.28,2.59-.37,.05-.75,.06-1.12,.15-4.61,1.13-9.22,2.25-13.82,3.42-2.43,.62-4.83,1.35-7.24,2.03-1.3-.48-2.57-1.05-3.89-1.42-1.97-.56-3.05-.14-4.25,1.55-.59,.83-1.06,1.74-1.58,2.62-.18-.04-.37-.14-.53-.1-2.64,.64-5.28,1.28-7.91,1.94-11.14,2.81-22.27,5.63-33.41,8.42-1.96,.49-3.95,.88-5.93,1.32-1.38-1.12-2.92-2.07-3.59-3.85-.42-1.11-.85-2.16-1.64-3.15-.54-.67-.32-1.95-.44-2.96,.09,.2,.22,.4,.27,.61,.26,1.25,.35,1.33,1.54,1.04,1.23-.31,2.46-.65,3.7-.93,1.74-.39,3.48-.75,5.22-1.12-.24,.84-.42,1.69-.72,2.51-.3,.8-.09,1.29,.75,1.18,.49-.06,1.16-.41,1.34-.81,.84-1.83,1.53-3.72,2.28-5.6,.36-.07,.73-.16,1.09-.2,.69-.08,1.38-.13,2.06-.2-.02,2.13-.57,4.25,.16,6.38,.29,.85,.79,.99,1.48,.86,.69-.14,1.12-.6,.88-1.35-.59-1.82-.33-3.65-.18-5.48,.85-.07,1.71-.14,2.56-.21,.22,.3,.46,.58,.65,.89,.18,.28,.36,.57,.44,.88,.3,1.19,.54,2.4,.86,3.59,.05,.18,.35,.4,.56,.43,1.24,.16,1.96-.57,1.48-1.71-.62-1.47-.1-3.36-1.65-4.48,.31-.22,.58-.55,.92-.64,5.48-1.41,10.97-2.78,16.44-4.19,.34-.09,.62-.42,.93-.64,1.41,.66,2.81,1.28,4.44,1.02,.88-.14,1.78-.13,2.67-.1,1.09,.04,2.19,.33,3.19-.4,.18-.13,.56-.1,.8-.02,1.3,.48,2.37-.03,3.35-.78,.68-.52,1.21-1.36,1.96-1.63,1.33-.49,1.95-1.44,2.4-2.62,.34-.05,.68-.06,1.01-.14,2.07-.5,4.14-.98,6.19-1.52,3.12-.82,6.22-1.67,9.33-2.51,1.39,.56,1.63,.5,2.25-.58,.37-.05,.75-.07,1.11-.16,7.06-1.76,14.11-3.53,21.17-5.31,1.48-.37,2.95-.78,4.35-1.16-.03-.58-.05-.95-.07-1.32Z" fill="#aa9396"/>
      <path d="M54.7,32.18c1.33-.59,2.65-1.22,3.99-1.77,2.28-.94,4.57-1.84,6.87-2.73,.26-.1,.61,.02,.91,.03,.3,0,.68,.11,.89-.03,2.11-1.38,4.56-1.64,6.93-2.13,.57,1.04,1.11,2.1,1.72,3.12,.65,1.07,2.85,1.88,4.08,1.65,.55-.1,1.14,.03,1.7-.05,1.44-.21,2.87-.48,4.31-.74,.06-.01,.11-.08,.16-.12,.59-.41,1.2-.8,1.78-1.23,.74-.54,1.36-1.18,1.27-2.2-.06-.7-.19-1.4-.28-2.1,1.23,.13,2.51,.53,3.68,.33,1.99-.33,3.86,.17,5.73,.46,2.6,.4,5.14,1.15,7.72,1.73,1,.22,2.01,.38,3.02,.57,.96,.35,1.91,.7,2.87,1.04,.83,.35,1.65,.71,2.48,1.06-.39,.2-.77,.48-1.18,.59-2.46,.65-4.93,1.27-7.39,1.89-7.3,1.85-14.59,3.72-21.89,5.55-13.17,3.31-26.34,6.61-39.51,9.9-.32,.08-.7-.08-1.05-.12,.65-1.26,1.42-2.45,1.98-3.78,.62-1.47,1.73-2.73,2.63-4.08,.21-.41,.42-.81,.63-1.22,.69-.63,1.39-1.26,2.08-1.9h-.01c.11-.07,.22-.14,.33-.21,.53-.62,1.06-1.24,1.58-1.85,.66-.56,1.33-1.11,1.99-1.67Z" fill="#4e2c2d"/>
      <path d="M67.79,115.83c.07-.02,.13-.05,.2-.05,2.1,.04,4.21,.07,6.31,.12,.47,.01,.94,.11,1.41,.16-.06,.16-.07,.36-.18,.47-1.9,1.84-2.56,4.26-3.16,6.71-.1,.42-.36,.8-.55,1.2-.9,.43-1.75,.96-2.85,.61-.28-.09-.69,.22-1.03,.35-1.11,.43-2.2,.9-3.32,1.3-.55,.2-1.16,.23-1.7,.44-2.21,.87-4.5,1.24-6.85,1.38-.64,.04-1.29,.25-1.89,.49-1.02,.41-2.02,.48-3.12,.32-1.07-.15-2.2,.15-3.26,0-1.65-.24-3.38-.08-4.93-.94-.59-.32-1.31-.4-1.95-.64-1.59-.58-3.02-1.28-3.29-3.27-.08-.62-.71-1.15-.99-1.77-1.04-2.37-.08-5.94,2.2-7.93,.56-.49,1.33-.82,2.06-1.04,1.13-.35,2.36-.44,3.47-.85,1.05-.38,1.98-1.05,2.99-1.54,1.04-.51,1.32-.37,1.85,.67,.14,.27,.36,.49,.54,.74,.37,.52,.73,1.04,1.1,1.56,5.37,2.24,11.17,1.68,16.92,1.52Z" fill="#a19797"/>
      <path d="M109.36,113.17c1.17-.84,2.56-.82,3.9-1,.81-.18,1.61-.36,2.42-.53,.23-.05,.47-.12,.71-.14,2.05-.13,4.1-.25,6.15-.35,.65-.03,1.33,.14,1.94,0,1.19-.28,2.33-.75,3.52-1.05,.47-.12,1.02-.09,1.49,.04,1.54,.43,3.08-.61,3.11-2.17,.02-1.32,.81-2.22,2.12-2.08,.95,.1,1.93,.47,2.75,.97,.87,.52,1.59,.6,2.56,.31,.76-.22,1.7-.17,2.47,.06,2.34,.68,3.74,2.36,4.72,4.58,.67,1.52,.27,3.05,.51,4.55,.03,.18-.19,.42-.34,.61-.14,.19-.42,.33-.48,.53-.66,2.36-2.84,2.66-4.65,3.45-1.27,.56-2.53,1.19-3.86,1.54-.73,.19-1.61-.23-2.41-.18-1.86,.1-3.71,.31-5.56,.47-.27,.02-.59,.13-.81,.03-2.18-.99-4.56-.44-6.82-.9-1.94-.39-3.96-.31-5.85-1.11-.76-.32-1.7-.2-2.54-.37-.73-.14-1.44-.4-2.15-.61-.01-.2,.06-.47-.04-.6-.85-1.16-1.34-2.51-2.01-3.75-.41-.77-.72-1.48-.85-2.31Z" fill="#a19797"/>
      <path d="M4.46,35.82c.34-.94,.56-1.95,1.05-2.81,.77-1.34,1.62-2.65,2.6-3.83,2.35-2.81,5.08-5.23,8.15-7.25,.22-.14,.5-.18,.76-.25,.23-.06,.49-.04,.71-.12,1.46-.54,2.92-1.1,4.38-1.64,.19-.07,.45-.23,.58-.16,1.07,.56,2.07-.09,3.1-.1,1.88-.02,3.76,.27,5.64,.41,.86,.07,1.76,.27,2.57,.1,1.27-.27,2.35,.12,3.5,.5,.84,.28,1.74,.35,2.61,.53,.27,.05,.54,.11,.79,.22,2.13,.96,4.25,1.92,6.38,2.89,.79,.94,1.55,1.92,2.91,2.06,.17,0,.34,.02,.52,.03,.04,.02,.07,.04,.08,.08-.06,.17-.12,.34-.18,.51-.31,.2-.59,.52-.92,.59-4.24,.86-8.48,1.69-12.73,2.53-6.43,1.27-12.86,2.54-19.3,3.81-4.14,.82-8.29,1.6-12.43,2.45-.57,.12-.76,0-.76-.54Z" fill="#75305f"/>
      <path d="M47.76,94.48c-1.74,.37-3.49,.72-5.22,1.12-1.24,.28-2.46,.63-3.7,.93-1.19,.29-1.28,.22-1.54-1.04-.04-.21-.18-.41-.27-.61-.31-2.1-.69-4.2-.91-6.31-.08-.79,.21-1.61,.33-2.42,.36,.06,.75,.24,1.07,.17,6.53-1.56,13.05-3.15,19.57-4.75,.28-.07,.51-.37,.77-.56,2.05-.27,4.1-.55,6.46-.86-.54,.65-.9,1.01-1.18,1.43-.59,.86-1.23,1.71-1.69,2.64-.44,.9-.15,1.65,.6,1.86,.88,.25,1.29-.28,1.65-1,1.04-2.1,2.45-3.86,4.75-4.71,1.12-.41,1.35-.94,.94-2.06,2.25-.53,4.5-1.07,6.76-1.58,.25-.06,.55,.08,.82,.13,0,.44-.16,1,.05,1.3,.72,1.06,.61,2.27,.8,3.43,.26,1.63,.29,3.41,2.26,4.11-.31,.22-.58,.55-.93,.64-5.48,1.41-10.97,2.78-16.44,4.19-.34,.09-.62,.42-.92,.64-.88-.44-1.61-.01-2.34,.39-.85,.07-1.71,.14-2.56,.21-.2-.92-.67-1.24-1.46-.94-.31,.12-.57,.35-.86,.52-.69,.07-1.38,.12-2.06,.2-.37,.04-.73,.13-1.09,.2,.21-.38,.46-.75,.63-1.15,.13-.31,.34-.78,.21-.97-.17-.24-.67-.39-.98-.33-.4,.08-.9,.32-1.08,.64-.86,1.48-1.62,3.01-2.42,4.53Z" fill="#a7888d"/>
      <path d="M57.86,81c-.25,.19-.48,.49-.77,.56-6.52,1.6-13.04,3.19-19.57,4.75-.32,.08-.71-.1-1.07-.17,.07-1.26,.19-2.53,.18-3.79,0-.58-.27-1.16-.41-1.73,.01-.34-.03-.7,.05-1.03,.25-1,.55-1.99,.83-2.99,.14-.01,.28,0,.41-.04,8.26-2.08,16.52-4.15,24.77-6.25,.84-.21,1.64-.59,2.46-.89,.26,.08,.52,.18,.78,.25,.93,.23,1.28-.11,1.14-1.12,3.44-.86,6.88-1.72,10.32-2.55,.39-.09,.82,.03,1.24,.05-.32,1.32-.57,2.66-.97,3.95-.27,.88-.47,1.69-.06,2.59,.12,.26,.03,.7-.11,.97-.36,.66-.36,1.25-.07,1.95,.16,.38-.01,.89-.04,1.34-.28-.05-.57-.19-.82-.13-2.26,.51-4.51,1.05-6.76,1.58-.45-.15-.88-.36-1.34-.43-1.42-.23-2.92,.48-4.31-.35-.12-.07-.34,0-.5,.05-1.76,.63-3.55,1.04-5.44,1-.73-.01-1.39,.31-1.39,1.21,0,.95,.64,1.21,1.45,1.23Z" fill="#a87d84"/>
      <path d="M42.7,104.84c1.98-.44,3.97-.83,5.93-1.32,11.14-2.79,22.27-5.62,33.41-8.42,2.63-.66,5.27-1.31,7.91-1.94,.16-.04,.35,.07,.53,.1,.06,1.25,0,2.52,.24,3.74,.15,.79,.75,1.5,1.14,2.24-3.79,.97-7.58,1.95-11.38,2.9-9.69,2.44-19.39,4.86-29.08,7.33-.86,.22-1.65,.62-2.53,.18-.26-.08-.6-.08-.76-.25-1.67-1.68-4.32-2.19-5.41-4.55Z" fill="#ad9c9d"/>
      <path d="M5.72,73.29c-.33-.54-.66-1.08-.99-1.62-.18-.29-.41-.55-.53-.86-.88-2.23-1.75-4.48-2.62-6.72-.07-.19-.22-.4-.19-.57,.2-1.05-.07-1.89-.69-2.79-.39-.58-.3-1.51-.36-2.29-.04-.58,.02-1.17,.04-1.76,.12,.37,.34,.74,.34,1.11,0,.7,.32,.82,.91,.7,1.88-.39,3.77-.77,5.65-1.13,2.66-.52,5.33-1.02,7.99-1.52,.07,0,.13,.01,.2,.02,.39,.72,.76,1.45,1.19,2.15,.87,1.43,1.75,2.86,2.69,4.25,.25,.37,.69,.65,1.11,.87,1.21,.64,2.44,1.25,3.68,1.81,1.58,.72,3.13,1.56,4.78,2.01,1.33,.37,2.79,.24,4.19,.34-.16,.21-.28,.53-.5,.62-.43,.19-.92,.28-1.39,.38-5.85,1.17-11.7,2.33-17.56,3.48-2.66,.52-5.32,1.01-7.98,1.52Z" fill="#9a8587"/>
      <path d="M156.9,45.68c-.13,.13-.26,.25-.39,.38-.29,.29-.54,.63-.87,.86-3.41,2.34-6.83,4.65-10.24,6.99-1.92,1.32-3.83,2.68-5.74,4.01-.14-.14-.27-.28-.41-.42h0c-.07-.07-.14-.14-.21-.21h0c-.07-.07-.14-.14-.21-.21h0c-.42-.55-.83-1.1-1.25-1.65-.2-.3-.44-.58-.6-.89-.18-.38-.29-.79-.43-1.19-.08-.14-.15-.28-.23-.42,0,0,0,0,0,0-.07-.07-.14-.14-.21-.22,0,0,0,0,0,0-.21-.55-.42-1.11-.63-1.66,1.34-.9,2.7-1.78,4.02-2.7,.25-.18,.37-.55,.55-.83,1.28-.52,2.16-1.61,3.6-2.06,1.33-.43,2.33-1.9,3.47-2.92,.53-.22,1.12-.36,1.59-.67,5.32-3.58,10.64-7.14,15.89-10.81,1.17-.82,2.79-1.3,3.08-3.06,.05,.54,.11,1.07,.15,1.61,.03,.51,.13,1.03,.05,1.52-.32,1.88,.4,3.86-.65,5.67-.39,.68-.59,1.46-.88,2.2-.19,.08-.4,.12-.57,.23-2.49,1.69-4.99,3.37-7.46,5.09-.53,.37-.97,.89-1.45,1.33Z" fill="#a19797"/>
      <path d="M124.72,84.08c1.1-.21,2.21-.41,3.31-.62,.2,.8,.37,1.61,.62,2.39,.24,.75,.8,.84,1.5,.58,.66-.25,1.04-.56,.77-1.38-.24-.71-.31-1.47-.46-2.2,1.4-.35,2.81-.7,4.21-1.05,.67,1.46,1.35,2.91,2.01,4.38,.4,.9,1.11,.73,1.74,.44,.78-.36,.66-.95,.32-1.65-.6-1.23-1.1-2.51-1.64-3.77,2.57-.7,5.14-1.38,7.7-2.09,.89-.25,1.75-.57,2.63-.85,.38,1.64,1.11,3.24,.58,4.99,0,.43,0,.85,0,1.28,0,.2-.01,.41-.02,.61-.21,0-.42-.01-.62,.03-3.17,.77-6.34,1.53-9.5,2.33-6.06,1.54-12.1,3.13-18.17,4.66-5.16,1.29-10.34,2.52-15.51,3.77-.95-1.37-1.89-2.74-2.86-4.1-.33-.46-.74-.87-1.12-1.3,2.41-.68,4.81-1.41,7.24-2.03,4.6-1.18,9.21-2.29,13.82-3.42,.36-.09,.74-.1,1.12-.15,.03,1.08,0,2.17,.1,3.24,.08,.77,.56,1.25,1.43,1.11,.86-.14,1.09-.66,1.01-1.49-.12-1.23-.14-2.46-.21-3.7Z" fill="#ad9c9d"/>
      <path d="M144.26,68.46c.02,.37,.04,.75,.07,1.32-1.4,.37-2.87,.78-4.35,1.16-7.05,1.78-14.11,3.55-21.17,5.31-.36,.09-.74,.11-1.11,.16-.18-.42-.25-1.04-.56-1.22-1.66-.92-3.38-1.72-5.12-2.58-.03,.1-.02,.04,0-.03,.46-1.26,1.81-1.38,2.72-2.07,.7-.54,1.43-1.12,2.5-1.03,.46,.04,1.17-.44,1.4-.88,.33-.61-.12-1.17-.77-1.46,.6-.23,1.18-.53,1.8-.69,6.54-1.67,13.09-3.32,19.63-5,.36-.09,.65-.41,.98-.63,.24,.28,.5,.55,.71,.85,.38,.54,.73,1.11,1.09,1.66,.73,1.71,1.45,3.41,2.18,5.12Z" fill="#a7888d"/>
      <path d="M109.99,23.88c.07-1.03,.12-2.07,.24-3.1,.04-.36,.26-.69,.4-1.04,.26-.65,.5-1.32,.81-1.95,.26-.54,.6-1.05,.92-1.57,.51-.85,.99-1.73,1.57-2.53,.31-.43,.82-.71,1.23-1.07,.26-.22,.63-.42,.73-.7,.65-1.86,2.31-2.53,3.84-3.4,.56-.32,1.01-.84,1.51-1.28,.25-.22,.47-.54,.76-.65,3.36-1.3,6.67-2.8,10.14-3.75,2.57-.7,5.26-1.53,8.04-.76,.27,.08,.61-.07,.91-.11,.13,.19,.26,.38,.46,.66-.13,.08-.24,.16-.36,.24-2.91,2.01-5.82,4.04-8.75,6.03-7.08,4.83-14.16,9.64-21.25,14.44-.36,.24-.79,.36-1.2,.53Z" fill="#75305f"/>
      <path d="M4.46,35.82c0,.54,.19,.66,.76,.54,4.14-.84,8.28-1.63,12.43-2.45,6.43-1.27,12.87-2.54,19.3-3.81,4.24-.84,8.49-1.66,12.73-2.53,.33-.07,.62-.39,.92-.59,.55,.49,1.09,.97,1.64,1.46,.28,.29,.55,.58,.83,.87,.02,.14,0,.29,.06,.41q.52,1.18-.82,1.44c-5.61,1.11-11.23,2.21-16.84,3.34-.38,.08-.72,.38-1.08,.58-2.21,.24-4.43,.38-6.62,.76-1.56,.27-3.06,.87-4.59,1.32-1.93,.31-3.87,.56-5.79,.93-4.79,.92-9.57,1.89-14.35,2.81-.26,.05-.56-.15-.84-.24,.32-1.11,.55-2.26,.99-3.33,.24-.58,.83-1.02,1.27-1.52Z" fill="#854164"/>
      <path d="M167.71,28.02c-.29,1.76-1.91,2.24-3.08,3.06-5.26,3.67-10.58,7.23-15.89,10.81-.47,.32-1.06,.45-1.59,.67,.73-.84,1.47-1.67,2.2-2.52,.15-.18,.28-.39,.39-.6,.4-.71,.74-1.47,1.19-2.14,.66-.97,1.3-1.86,1.03-3.2-.14-.67,.28-1.44,.36-2.17,.04-.39-.3-.95-.13-1.19,.89-1.23,.27-2.25-.29-3.32-.17-.33-.27-.7-.41-1.05,.24-.12,.5-.21,.72-.36,3.44-2.33,6.84-4.72,10.33-6.97,1-.65,1.44-1.26,.98-2.39,.47,.61,1.16,1.16,1.38,1.85,.75,2.33,1.33,4.71,2,7.06,.24,.83,.53,1.64,.8,2.46Z" fill="#9a8587"/>
      <path d="M109.99,23.88c.4-.17,.84-.29,1.2-.53,7.09-4.8,14.18-9.62,21.25-14.44,2.93-2,5.83-4.02,8.75-6.03,.11-.08,.23-.15,.36-.24-.19-.28-.33-.47-.46-.66,1.43-.5,2.68,.16,3.97,.59,.95,.32,1.94,.55,2.9,.83-.18,.31-.29,.7-.55,.91-.61,.5-1.27,.93-1.93,1.38-4.83,3.29-9.67,6.58-14.49,9.88-.28,.19-.45,.56-.67,.84-1.74,.73-3.56,1.32-5.18,2.24-1.37,.78-2.51,1.95-3.75,2.95-.38,.14-.8,.2-1.13,.42-2.48,1.65-4.96,3.31-7.41,5.01-.34,.23-.54,.66-.8,1-.96-.35-1.91-.7-2.87-1.04,.27-1.03,.54-2.07,.81-3.1Z" fill="#854164"/>
      <path d="M5.72,73.29c2.66-.5,5.33-.99,7.98-1.52,5.85-1.15,11.7-2.32,17.56-3.48,.47-.09,.95-.19,1.39-.38,.22-.09,.34-.41,.5-.62,1.67-.15,3.34-.29,5.01-.44-.06,.55-.13,1.1-.19,1.65-.08,1.32-.17,2.64-.25,3.96-.06,.14-.12,.28-.19,.41h0c-.09,.04-.19,.1-.28,.12-4.98,1-9.96,1.99-14.94,2.99-4.21,.84-8.41,1.67-12.62,2.5-1.2-1.35-2.42-2.69-3.58-4.07-.24-.28-.25-.74-.37-1.12Z" fill="#a19797"/>
      <path d="M104.18,95.92c5.17-1.25,10.35-2.48,15.51-3.77,6.06-1.52,12.11-3.11,18.17-4.66,3.16-.8,6.33-1.56,9.5-2.33,.2-.05,.41-.02,.62-.03-.09,1.24-.17,2.49-.26,3.73-2.37,.58-4.74,1.14-7.11,1.73-6.84,1.71-13.68,3.41-20.51,5.14-5.07,1.28-10.13,2.58-15.19,3.87-.17,.04-.34,.05-.51,.07-.07-1.25-.14-2.49-.21-3.74Z" fill="#aca3a3"/>
      <path d="M48.87,109.64c.88,.44,1.67,.04,2.53-.18,9.69-2.47,19.39-4.89,29.08-7.33,3.8-.96,7.59-1.93,11.38-2.9,.51,1.09,1.02,2.18,1.52,3.27-1.44,.43-2.86,.91-4.32,1.27-11.08,2.79-22.16,5.56-33.23,8.36-.32,.08-.59,.37-.89,.56-1.64-.76-3.28-1.52-4.91-2.3-.42-.2-.78-.51-1.17-.76Z" fill="#aca3a3"/>
      <path d="M163.53,16.65c.45,1.12,.02,1.74-.98,2.39-3.49,2.25-6.89,4.64-10.33,6.97-.22,.15-.48,.24-.72,.36-.07,0-.13-.01-.2-.01,.2-1.43-.39-2.51-1.46-3.42-1.47-1.26-2.91-2.55-4.37-3.83,.25-.3,.45-.68,.76-.89,3.7-2.54,7.41-5.08,11.15-7.57,.85-.56,.92-.97,.15-1.62-.23-.19-.3-.58-.44-.88,1.66,1.57,3.52,2.95,4.61,5.04,.09,.18,.16,.41,.31,.53,.94,.76,1.31,1.81,1.51,2.94Z" fill="#9c737a"/>
      <path d="M89.04,23.89c.1,.7,.22,1.4,.28,2.1,.09,1.01-.53,1.65-1.27,2.2-.58,.43-1.18,.82-1.78,1.23-.06,.04-.1,.11-.16,.12-1.44,.25-2.87,.52-4.31,.74-.56,.08-1.15-.05-1.7,.05-1.23,.23-3.43-.58-4.08-1.65-.61-1.01-1.15-2.08-1.72-3.12-.1-1.93,.25-3.74,2.1-4.73,1.3-.69,2.74-1.11,4.12-1.65,.06-.02,.14-.05,.2-.03,2.3,.78,4.97,.62,6.77,2.73,.58-.89,1.32-1.66,.88-2.8-.01-.03-.01-.07,0-.1,.72-1.37,1.43-2.74,2.16-4.11,.14-.26,.51-.49,.49-.71-.07-1.11,.65-1.78,1.24-2.53,.85-.45,1.24,.04,1.51,.75-.63,.65-1.21,1.3-1.21,2.3,0,.31-.18,.74-.42,.9-.77,.53-.97,1.32-1.33,2.11-.42,.94-1.01,1.75-.71,2.86,.06,.21-.13,.55-.3,.74-.7,.74-.8,1.65-.79,2.59Z" fill="#366234"/>
      <path d="M9.67,78.49c4.21-.83,8.42-1.67,12.62-2.5,4.98-.99,9.96-1.99,14.94-2.99,.1-.02,.19-.08,.28-.12-.09,.25-.24,.5-.26,.76-.07,.99-.11,1.98-.15,2.97-.28,.99-.58,1.98-.83,2.99-.08,.33-.04,.69-.05,1.03-.75,.04-1.5,.05-2.25,.11-.93,.08-1.8,0-2.42-.81-.74-.99-1.6-1.06-2.6-.33-1.16,.84-2.36,1.64-3.58,2.38-1.08,.65-2.15,.46-3.1-.39-.3-.27-.64-.53-1.01-.67-1.28-.49-1.63-1.57-1.83-2.51-1.41,.83-2.84,1.73-4.33,2.52-1.05,.56-2.36,.15-3.18-.72-.36-.39-.87-.63-1.31-.95-.33-.24-.63-.51-.95-.77Z" fill="#ad9c9d"/>
      <path d="M15.3,55.85c-2.66,.51-5.33,1.01-7.99,1.52-1.89,.37-3.77,.75-5.65,1.13-.59,.12-.91,0-.91-.7,0-.37-.22-.74-.34-1.11-.03-.12-.06-.24-.09-.36-.03-.09-.06-.17-.09-.26,.02-1.44,.05-2.88,.07-4.32,3.29-.62,6.58-1.25,9.88-1.84,1.85-.33,3.7-.61,5.56-.92-.8,2.24-.34,4.56-.42,6.85Z" fill="#9c737a"/>
      <path d="M115.99,152.17h-1.59c0-.24,0-.37,0-.5,0-.38,.02-.76,.03-1.14-.37,.07-.74,.16-1.12,.19-1.14,.08-2.28,.11-3.42,.19-.29,.02-.58,.1-.85,.21-.64,.27-1.24,.68-1.91,.83-.88,.19-1.81,.15-2.7,.3-.2,.03-.31,.45-.5,.66-.33,.38-.76,1.09-1.02,1.04-.79-.15-.72-.89-.52-1.51,.13-.42,.3-.88,.59-1.18,.85-.87,1.26-2.73,.75-3.86-.21-.47-.53-.91-.67-1.4-.14-.49-.26-1.08-.12-1.55,.19-.63,.1-1.03-.37-1.46-.35-.32-.52-.84-.89-1.12-1.43-1.08-2.8-2.33-4.39-3.08-1.32-.62-2.95-.92-4.41-.83-1.23,.07-2.54-.52-3.79,.39-.57,.42-1.56,.23-2.35,.39-.3,.06-.64,.27-.81,.51-.75,1.1-1.31,2.35-2.75,2.78-.21,.06-.37,.38-.51,.61-.46,.75-.85,1.54-1.38,2.23-.17,.23-.67,.21-1.02,.31-.08-.39-.33-.84-.2-1.15,.34-.85,.81-1.65,1.28-2.44,.21-.35,.51-.85,.82-.88,1.29-.15,1.65-1.24,2.26-2.06,.7-.94,1.51-1.43,2.77-1.49,.87-.04,1.77-.62,2.57-1.1,.66-.4,1.14-.67,1.79,.03,.19,.21,.77,.07,1.17,.08,.76,.14,1.52,.28,2.28,.42,.55,.14,1.12,.25,1.66,.42,.9,.28,1.91,.43,2.67,.94,1.84,1.22,3.59,2.59,4.88,4.44,.49,.7,.75,1.36,.32,2.2-.13,.25-.07,.67,.05,.95,.55,1.29,1.36,2.51,.85,4.03-.03,.1,.35,.5,.45,.47,.63-.2,1.35-.36,1.83-.77,.77-.67,1.41-.94,2.49-.6,.82,.25,1.91,.05,2.74-.29,.79-.33,1.45-.49,2.11,.03,.62,.48,1.37,.98,1.66,1.65,.25,.58-.05,1.41-.11,2.13-.21-.01-.42-.02-.62-.03Z" fill="#a19797"/>
      <path d="M142.08,63.34c-.36-.56-.71-1.12-1.09-1.66-.21-.3-.47-.57-.71-.85-.07-.41-.14-.83-.22-1.24-.14-.55-.28-1.11-.41-1.66,1.91-1.34,3.81-2.69,5.74-4.01,3.41-2.34,6.83-4.65,10.24-6.99,.33-.23,.58-.57,.87-.86,.78,.5,1.04,1.21,1.02,2.12-.07,3.38-1.71,6.19-5.05,7.4-.3,.11-.69,.08-1,0-1.17-.32-2.34-.69-3.51-1.04-.7,3.73-2.82,6.02-6.35,7.01,.17,.62,.32,1.21,.48,1.79Z" fill="#aca3a3"/>
      <path d="M157.09,8.14c.14,.3,.21,.68,.44,.88,.77,.65,.7,1.06-.15,1.62-3.74,2.49-7.45,5.03-11.15,7.57-.31,.21-.51,.59-.76,.89-1.55-1.25-3.33-2.06-5.19-2.7,.23-.27,.42-.6,.71-.8,3.31-2.28,6.64-4.54,9.96-6.82,.97-.67,1.92-1.37,2.88-2.06-.44-.55-.77-.95-1.09-1.35,.56,.33,1.13,.65,1.68,.99,.46,.28,.9,.58,1.36,.87,.36,.23,.73,.45,1.1,.68,.06,.06,.11,.13,.17,.19l.03,.04Z" fill="#a56b76"/>
      <path d="M15.72,49c-1.85,.3-3.71,.58-5.56,.92-3.3,.6-6.58,1.23-9.88,1.84,0,0,.02-.03,.02-.03,.09-.84,.17-1.69,.26-2.53,.02-.42,.03-.84,.05-1.26,0-.34-.01-.68-.02-1.02,0-.14-.01-.28-.02-.41,.07,0,.13-.01,.2-.02,.24,0,.49,.03,.72-.02,3.21-.64,6.42-1.32,9.64-1.94,2.21-.42,4.44-.77,6.65-1.15-.21,.42-.47,.83-.63,1.27-.5,1.44-.97,2.89-1.44,4.33Z" fill="#a56b76"/>
      <path d="M130.32,16.4c.22-.28,.39-.64,.67-.84,4.82-3.31,9.66-6.59,14.49-9.88,.65-.44,1.32-.87,1.93-1.38,.26-.21,.37-.6,.55-.91,1.07-.17,1.94,.12,2.56,1.05,.11,.17,.37,.24,.56,.35-.37,.42-.68,.94-1.13,1.25-4.21,2.9-8.45,5.75-12.66,8.65-.51,.35-.91,.86-1.36,1.29-1.9-.22-3.77-.13-5.61,.41Z" fill="#94546b"/>
      <path d="M135.93,15.99c.45-.44,.85-.94,1.36-1.29,4.21-2.89,8.45-5.75,12.66-8.65,.45-.31,.76-.83,1.13-1.25,.56,.2,1.11,.39,1.67,.59,.32,.4,.64,.8,1.09,1.35-.96,.69-1.91,1.39-2.88,2.06-3.32,2.28-6.65,4.53-9.96,6.82-.28,.2-.48,.53-.71,.8-.76,.07-1.51,.13-2.27,.2-.7-.2-1.39-.41-2.09-.61Z" fill="#9c646e"/>
      <path d="M2.2,40.67c.28,.08,.59,.29,.84,.24,4.79-.92,9.56-1.9,14.35-2.81,1.92-.37,3.86-.62,5.79-.93-.97,.97-1.94,1.94-2.91,2.9-2.02,.39-4.04,.76-6.06,1.16-4.34,.85-8.68,1.71-13.01,2.57-.01-.07-.03-.14-.04-.21,.35-.97,.69-1.94,1.04-2.91Z" fill="#94546b"/>
      <path d="M34.4,35.09c.36-.2,.69-.51,1.08-.58,5.61-1.13,11.22-2.23,16.84-3.34q1.34-.26,.82-1.44c-.05-.12-.04-.27-.06-.41,.33,.49,.7,.95,1,1.47,.26,.44,.43,.94,.64,1.41-.66,.56-1.33,1.11-1.99,1.67-.44,.01-.89-.04-1.32,.04-3.13,.61-6.25,1.23-9.37,1.88-.35,.07-.65,.37-.98,.56-.26-.07-.53-.16-.79-.2-1.64-.22-3.29-.42-4.92-.66-.32-.05-.62-.26-.93-.39Z" fill="#94546b"/>
      <path d="M114.32,131.42c-1.49,.4-2.97,.88-4.48,1.16-1.12,.2-1.9,.81-2.53,1.63-1.18,1.55-2.25,3.18-3.44,4.72-.18,.23-.73,.32-1.06,.25-.17-.04-.42-.67-.32-.87,.54-1.02,1.1-2.06,1.83-2.95,1.02-1.25,2.13-2.45,3.33-3.54,.52-.47,1.32-.7,2.04-.88,1.51-.38,3.05-.66,4.57-.98,.02,.48,.04,.96,.06,1.45Z" fill="#a19797"/>
      <path d="M156.9,45.68c.48-.45,.92-.96,1.45-1.33,2.47-1.72,4.97-3.4,7.46-5.09,.17-.11,.38-.16,.57-.23-.9,3.37-2.84,5.83-6.3,6.74-.98,.26-2.11-.04-3.18-.08Z" fill="#ad9c9d"/>
      <path d="M127.61,145.04c-.06,.19-.06,.45-.19,.56-.73,.62-1.86,.77-2.19,1.9-.02,.08-.61,.09-.85-.03-.17-.09-.27-.47-.27-.71,.04-1.19,.7-1.87,1.96-2.08,.37-.06,.74-.12,1.11-.19,.14,.18,.28,.36,.42,.54Z" fill="#a19797"/>
      <path d="M50.17,26.37c-1.36-.14-2.12-1.12-2.91-2.06,1.04,.62,2.09,1.23,3.13,1.85-.08,.07-.15,.14-.23,.21Z" fill="#854164"/>
      <path d="M52.24,28.45c-.55-.49-1.1-.97-1.64-1.46,.06-.17,.12-.34,.18-.51,.49,.66,.98,1.31,1.47,1.97Z" fill="#94546b"/>
      <path d="M.56,49.2c-.09,.84-.17,1.69-.26,2.53-.76-.93,.12-1.69,.26-2.53Z" fill="#9c737a"/>
      <path d="M1.17,43.58c.01,.07,.03,.14,.04,.21-.14,.9-.29,1.8-.43,2.7-.07,0-.13,.01-.2,.02,.2-.98,.39-1.96,.59-2.93Z" fill="#9c737a"/>
      <path d="M148,84.51c0-.43,0-.85,0-1.28,0,.43,0,.85,0,1.28Z" fill="#aca3a3"/>
      <path d="M.59,46.93c0,.34,.01,.68,.02,1.02,0-.34-.01-.68-.02-1.02Z" fill="#9c737a"/>
      <path d="M50.17,26.37c.08-.07,.15-.14,.23-.21,.1,.08,.19,.16,.29,.24-.17,0-.34-.02-.52-.03Z" fill="#94546b"/>
      <path d="M.21,56.07c.03,.09,.06,.17,.09,.26-.03-.09-.06-.17-.09-.26Z" fill="#9a8587"/>
      <path d="M157.06,8.1c-.06-.06-.11-.13-.17-.19,.06,.06,.11,.13,.17,.19Z" fill="#9c737a"/>
      <path d="M95.02,136.61c-.76-.14-1.52-.28-2.28-.42-.48-.44-1.02-.83-1.42-1.34-1-1.3-1.93-2.64-2.87-3.99-.12-.17-.09-.47-.08-.71,.07-1.29,.17-2.58,.24-3.87,.1-1.82,1.54-2.8,2.59-3.97,1.92-2.16,2.51-2.15,4.96-.61,.42,.26,.98,.29,1.48,.43,.1,.03,.23,.04,.28,.11,1.07,1.65,2.98,2.73,2.98,5.11,0,1.78,.49,3.58-.47,5.25-1.14,1.98-2.92,3.14-5.06,3.81-.13,.04-.24,.12-.35,.19Z" fill="#dacccc"/>
      <path d="M93.39,102.52c-.51-1.09-1.02-2.18-1.52-3.27-.4-.74-.99-1.45-1.14-2.24-.24-1.22-.17-2.49-.24-3.74,.52-.88,.99-1.79,1.58-2.62,1.2-1.69,2.28-2.11,4.25-1.55,1.33,.38,2.6,.94,3.89,1.42,.37,.43,.79,.84,1.12,1.3,.97,1.35,1.91,2.73,2.86,4.1,.07,1.25,.14,2.49,.21,3.74-.08,.53-.18,1.07-.22,1.6-.13,1.49-.47,2.66-2.07,3.43-2.29,1.11-4.39,.86-6.46-.22-.86-.45-1.5-1.29-2.25-1.95Z" fill="#f27f88"/>
      <path d="M76.98,76.85c.02-.45,.19-.97,.04-1.34-.29-.7-.29-1.29,.07-1.95,.15-.27,.23-.71,.11-.97-.41-.9-.21-1.71,.06-2.59,.4-1.29,.65-2.63,.97-3.95,.14-.42,.32-.83,.41-1.26,.51-2.41,.62-4.96,2.52-6.85,.12-.29,.26-.59,.37-.89,.22-.61,.44-1.22,.66-1.82,.39-.26,.87-.44,1.15-.78,1.22-1.52,2.54-1.95,4.42-1.31,.42,.14,.82,.31,1.24,.47,1.31,.49,2.63,.97,3.94,1.46,.36,.41,.75,.8,1.06,1.24,.47,.66,.88,1.35,1.32,2.02,.45,.68,1.23,1.33,1.29,2.04,.11,1.25,.72,2.18,1.31,3.17,.2,.61,.41,1.22,.6,1.83,.14,.45,.22,.92,.43,1.34,.56,1.13,.95,2.24,.34,3.51-.16,.33-.05,.8-.07,1.2,.1,1.12,.21,2.24,.31,3.36,.08,.91,.27,1.83,.17,2.73-.14,1.23-.5,2.44-.77,3.65-.46,1.19-1.07,2.14-2.4,2.62-.75,.27-1.28,1.12-1.96,1.63-.99,.75-2.05,1.26-3.35,.78-.24-.09-.62-.11-.8,.02-1.01,.73-2.1,.44-3.19,.4-.89-.03-1.8-.04-2.67,.1-1.64,.26-3.04-.36-4.44-1.02-1.97-.7-2-2.48-2.26-4.11-.18-1.16-.07-2.37-.8-3.43-.21-.31-.04-.86-.05-1.3Z" fill="#353636"/>
      <path d="M98.91,81.16c.27-1.22,.63-2.42,.77-3.65,.1-.89-.09-1.82-.17-2.73-.09-1.12-.2-2.24-.31-3.36,.24-.02,.48-.02,.71-.07,4.12-1.04,8.23-2.1,12.35-3.13,.32-.08,.69,.07,1.04,.11-1.53,1.01-3.09,1.97-3.98,3.67-.05,.09-.15,.14-.22,.22-1.18,1.27-1.03,2.2,.62,2.65,1.97,.54,3.96,1.01,5.72,2.12-3.11,.84-6.22,1.7-9.33,2.51-2.06,.54-4.13,1.02-6.19,1.52-.33,.08-.67,.1-1.01,.14Z" fill="#a7888d"/>
      <path d="M115.44,76.99c-1.76-1.11-3.74-1.58-5.72-2.12-1.64-.45-1.8-1.38-.62-2.65,.07-.08,.17-.13,.22-.22,.89-1.7,2.45-2.67,3.98-3.67,.34-.14,.73-.21,1-.43,1.07-.89,2.29-.92,3.57-.75,.64,.29,1.09,.84,.77,1.46-.23,.44-.94,.92-1.4,.88-1.07-.09-1.79,.5-2.5,1.03-.9,.69-2.26,.8-2.72,2.07-.02,.06-.03,.13,0,.03,1.73,.86,3.46,1.66,5.12,2.58,.31,.17,.38,.8,.56,1.22-.62,1.08-.86,1.15-2.25,.58Z" fill="#130c0d"/>
      <path d="M47.76,94.48c.8-1.51,1.56-3.05,2.42-4.53,.19-.32,.69-.56,1.08-.64,.31-.06,.81,.1,.98,.33,.13,.18-.08,.66-.21,.97-.17,.4-.41,.77-.63,1.15-.75,1.87-1.44,3.77-2.28,5.6-.18,.4-.86,.75-1.34,.81-.84,.1-1.04-.39-.75-1.18,.3-.81,.49-1.67,.72-2.51Z" fill="#e86768"/>
      <path d="M137.1,81.19c.54,1.26,1.04,2.54,1.64,3.77,.34,.7,.46,1.29-.32,1.65-.63,.29-1.34,.46-1.74-.44-.66-1.46-1.34-2.92-2.01-4.38-.23-.34-.43-.69-.69-1.01-.32-.39-.88-.75-.34-1.29,.5-.5,1.2-.86,1.83-.28,.62,.57,1.09,1.3,1.63,1.97Z" fill="#e86768"/>
      <path d="M124.72,84.08c.06,1.23,.09,2.47,.21,3.7,.08,.83-.16,1.35-1.01,1.49-.87,.14-1.35-.34-1.43-1.11-.11-1.07-.07-2.16-.1-3.24,.08-.87,.09-1.75,.28-2.59,.19-.85,.89-1.11,1.68-.89,.8,.22,.58,.85,.46,1.43-.08,.39-.06,.81-.09,1.22Z" fill="#e86768"/>
      <path d="M54.57,91.36c.29-.18,.55-.4,.86-.52,.79-.31,1.26,.01,1.46,.94-.14,1.83-.41,3.67,.19,5.48,.24,.74-.18,1.21-.88,1.35-.69,.14-1.19-.01-1.48-.86-.72-2.13-.18-4.26-.16-6.38Z" fill="#e86768"/>
      <path d="M59.45,91.56c.73-.4,1.47-.83,2.34-.39,1.55,1.11,1.03,3.01,1.65,4.48,.48,1.14-.23,1.88-1.48,1.71-.21-.03-.51-.24-.56-.43-.32-1.19-.56-2.4-.86-3.59-.08-.31-.27-.6-.44-.88-.2-.31-.43-.6-.65-.89Z" fill="#e86768"/>
      <path d="M130.46,82.85c.15,.74,.23,1.5,.46,2.2,.27,.82-.11,1.13-.77,1.38-.69,.26-1.25,.17-1.5-.58-.25-.78-.42-1.59-.62-2.39-.08-.37-.11-.75-.25-1.1-.32-.81-.14-1.32,.72-1.6,.82-.26,1.33-.07,1.53,.82,.1,.43,.29,.84,.43,1.27Z" fill="#e86768"/>
      <path d="M15.72,49c.48-1.44,.94-2.89,1.44-4.33,.15-.44,.42-.85,.63-1.27,.34-.42,.69-.83,1.03-1.25,.68-.1,1.36-.17,2.03-.3,6.9-1.35,13.81-2.71,20.7-4.1,.68-.14,1.32-.53,1.98-.8,1.75,.2,3.35,.72,4.57,2.08-.9,1.35-2.01,2.61-2.63,4.08-.56,1.33-1.33,2.52-1.98,3.78-.13,.48-.24,.97-.4,1.45-.24,.71-.51,1.41-.77,2.11-2.23,.38-4.46,.71-6.67,1.14-5.34,1.05-10.68,2.13-16.01,3.23-1.39,.29-2.77,.69-4.15,1.03-.07,0-.13-.01-.2-.02,.08-2.29-.38-4.61,.42-6.85Z" fill="#bf747c"/>
      <path d="M42.33,50.46c.26-.7,.53-1.4,.77-2.11,.16-.47,.27-.96,.4-1.45,.35,.05,.73,.2,1.05,.12,13.17-3.28,26.35-6.58,39.51-9.9,7.3-1.84,14.59-3.7,21.89-5.55,2.47-.63,4.93-1.24,7.39-1.89,.42-.11,.79-.39,1.18-.59,.95,.68,1.89,1.37,2.84,2.05,.71,.6,1.43,1.2,2.14,1.8-2.55,.71-5.09,1.46-7.66,2.11-15.17,3.84-30.35,7.64-45.53,11.47-7.6,1.92-15.2,3.86-22.81,5.76-.39,.1-.83,.02-1.24,.02-.06-.48-.13-.96-.19-1.44l.16-.2c.03-.07,.06-.14,.09-.2Z" fill="#6d4045"/>
      <path d="M117.37,31.14c-.95-.68-1.89-1.37-2.84-2.05-.83-.35-1.65-.71-2.48-1.06,.26-.34,.46-.77,.8-1,2.45-1.7,4.93-3.36,7.41-5.01,.33-.22,.75-.28,1.13-.42-.21,.31-.35,.71-.64,.92-2.04,1.49-2.36,3.84-3,6.02-.14,.47,.06,1.05,.1,1.57,0,.33,0,.66-.01,.99-.16,.01-.32,.03-.47,.04Z" fill="#94546b"/>
      <path d="M48.11,39.04c-1.22-1.36-2.82-1.88-4.57-2.08-.39-.07-.79-.12-1.17-.21-.45-.11-.88-.27-1.32-.41,.32-.19,.63-.48,.98-.56,3.12-.65,6.24-1.28,9.37-1.88,.43-.08,.88-.03,1.32-.04-.53,.62-1.06,1.24-1.58,1.85-.11,.07-.22,.15-.33,.22,0,0,.01,0,.01,0-1.05,.24-1.79,.82-2.08,1.9-.21,.41-.42,.81-.63,1.22Z" fill="#9c646e"/>
      <path d="M48.73,37.82c.29-1.08,1.03-1.66,2.08-1.9-.69,.63-1.39,1.26-2.08,1.9Z" fill="#b8aaab"/>
      <path d="M50.8,35.93c.11-.07,.22-.15,.33-.22-.11,.07-.22,.15-.33,.22Z" fill="#b8aaab"/>
      <path d="M57.86,81c-.81-.03-1.45-.29-1.45-1.23,0-.9,.66-1.22,1.39-1.21,1.89,.04,3.68-.37,5.44-1,.16-.06,.38-.12,.5-.05,1.39,.82,2.89,.11,4.31,.35,.46,.08,.89,.28,1.34,.43,.41,1.12,.17,1.65-.94,2.06-2.3,.85-3.71,2.61-4.75,4.71-.36,.73-.77,1.26-1.65,1-.74-.21-1.04-.96-.6-1.86,.46-.93,1.1-1.78,1.69-2.64,.29-.42,.64-.78,1.18-1.43-2.36,.31-4.41,.59-6.46,.86Z" fill="#130c0d"/>
      <path d="M37.1,76.61c.05-.99,.08-1.98,.15-2.97,.02-.26,.17-.51,.26-.76,0,0,0,0,0,0,.06-.14,.12-.28,.19-.41,.08-1.32,.17-2.64,.25-3.96,.37-.05,.75-.05,1.11-.14,3.78-.91,7.56-1.84,11.35-2.76,.19,.14,.37,.36,.58,.4,2.8,.51,5.21,2.31,8.27,2.19,1.81-.07,3.66,.79,5.49,1.23-.82,.3-1.62,.68-2.46,.89-8.25,2.1-16.51,4.18-24.77,6.25-.13,.03-.27,.02-.41,.04Z" fill="#ab737e"/>
      <path d="M81.16,57.94c-1.9,1.9-2.01,4.45-2.52,6.85-.09,.43-.27,.84-.41,1.26-.41-.02-.85-.14-1.24-.05-3.45,.83-6.88,1.7-10.32,2.55-1.64-.49-3.25-1.07-4.92-1.44-1.39-.31-2.87-.23-4.25-.56-1.45-.35-2.83-1-4.23-1.51,.27-.22,.52-.55,.83-.63,8.69-2.2,17.39-4.38,26.09-6.54,.3-.07,.65,.04,.97,.07Z" fill="#ab737e"/>
      <path d="M53.26,65.04c1.41,.52,2.79,1.16,4.23,1.51,1.38,.34,2.86,.26,4.25,.56,1.66,.37,3.28,.95,4.92,1.44,.14,1.01-.21,1.36-1.14,1.12-.26-.07-.52-.16-.78-.25-1.83-.44-3.68-1.3-5.49-1.23-3.06,.12-5.47-1.68-8.27-2.19-.21-.04-.39-.26-.58-.4,.07-.99,.59-1.2,1.47-.91,.45,.15,.92,.23,1.38,.35Z" fill="#130c0d"/>
      <path d="M42.08,50.86c.06,.48,.12,.96,.19,1.44-.52,1.04-1.09,2.05-1.52,3.13-.22,.55,.03,1.34-.27,1.8-.75,1.14-.67,2.35-.66,3.58-.11,.36-.11,.81-.34,1.05-.95,1.03-.69,2.33-.88,3.53-.15,.48-.3,.97-.45,1.45-1.67,.15-3.34,.29-5.01,.44-1.4-.09-2.86,.03-4.19-.34-1.65-.46-3.21-1.3-4.78-2.01-1.25-.57-2.47-1.18-3.68-1.81-.41-.22-.85-.5-1.11-.87-.94-1.39-1.82-2.82-2.69-4.25-.43-.7-.79-1.43-1.19-2.15,1.38-.35,2.75-.75,4.15-1.03,5.33-1.1,10.67-2.18,16.01-3.23,2.21-.43,4.45-.76,6.67-1.14-.03,.07-.06,.14-.09,.2-.05,.07-.11,.13-.16,.2Z" fill="#c78a8c"/>
      <path d="M117.87,67.14c-1.28-.17-2.5-.14-3.57,.75-.27,.22-.66,.29-1,.43-.35-.04-.72-.19-1.04-.11-4.12,1.03-8.23,2.09-12.35,3.13-.23,.06-.48,.05-.71,.07,.02-.4-.09-.87,.07-1.2,.61-1.26,.22-2.37-.34-3.51-.21-.42-.28-.89-.43-1.34-.2-.61-.4-1.22-.6-1.83,.81-.26,1.6-.58,2.43-.77,1.79-.39,3.59-.72,5.38-1.07-.27,.3-.53,.62-.82,.91-.42,.41-.85,.87-.28,1.39,.54,.49,.98,.02,1.42-.34,.96-.77,1.96-1.5,2.95-2.23,.83-.61,1.82-1.07,2.47-1.83,1.01-1.17,1.91-2.41,3.45-2.94,.34-.04,.68-.05,1.01-.14,4.26-1.09,8.52-2.2,12.79-3.28,2.13-.54,4.27-1.04,6.4-1.55l1.04,1.04s0,0,0,0c.07,.07,.14,.14,.21,.22,0,0,0,0,0,0,.08,.14,.15,.28,.23,.42,.14,.4,.25,.81,.43,1.19,.15,.32,.39,.6,.6,.89,.06,.81,.38,1.44,1.25,1.64h0c.07,.07,.14,.14,.21,.21h0c.07,.07,.14,.14,.21,.21,0,0,0,0,0,0,0,.8,.01,1.6,.82,2.08,.07,.41,.14,.83,.22,1.24-.33,.21-.62,.54-.98,.63-6.54,1.68-13.09,3.32-19.63,5-.62,.16-1.2,.46-1.8,.69Z" fill="#a87d84"/>
      <path d="M151.3,26.36c.07,0,.13,0,.2,.01,.13,.35,.23,.72,.41,1.05,.56,1.07,1.18,2.09,.29,3.32-.17,.24,.17,.79,.13,1.19-.08,.73-.49,1.5-.36,2.17,.27,1.33-.37,2.22-1.03,3.2-.46,.67-.8,1.43-1.19,2.14-.12,.21-.24,.42-.39,.6-.73,.84-1.46,1.68-2.2,2.52-1.14,1.01-2.14,2.49-3.47,2.92-1.43,.46-2.32,1.54-3.6,2.06-1.95-.2-3.42,1.99-5.52,1.13-.13-.05-.33,.07-.5,.11-.83-1.03-1.66-2.07-2.49-3.1-.07-.07-.13-.14-.2-.21h0c.23-1.46-.66-2.09-1.85-2.49-.16-.54-.31-1.09-.47-1.63,.04-.1,.04-.24,.11-.28,2.25-1.51,4.53-2.99,6.77-4.52,4.33-2.94,8.63-5.91,12.97-8.85,.76-.51,1.6-.89,2.4-1.33Z" fill="#c78a8c"/>
      <path d="M134.06,48.77c.17-.04,.37-.16,.5-.11,2.1,.86,3.57-1.33,5.52-1.13-.18,.28-.29,.65-.55,.83-1.32,.93-2.68,1.81-4.02,2.7-.35-.42-.69-.85-1.04-1.27-.14-.34-.28-.69-.41-1.03Z" fill="#9a8587"/>
      <path d="M134.47,49.8c.35,.42,.69,.85,1.04,1.27,.21,.55,.42,1.11,.63,1.66-.35-.35-.69-.69-1.04-1.04-.21-.63-.42-1.26-.63-1.89Z" fill="#9c646e"/>
      <path d="M138.84,57.08c-.86-.21-1.18-.83-1.25-1.64,.42,.55,.83,1.1,1.25,1.64Z" fill="#9c737a"/>
      <path d="M140.08,59.59c-.81-.48-.82-1.28-.82-2.08,.14,.14,.27,.28,.41,.42,.14,.55,.28,1.11,.41,1.66Z" fill="#9c737a"/>
      <path d="M136.57,53.36c-.08-.14-.15-.28-.23-.42,.08,.14,.15,.28,.23,.42Z" fill="#9c646e"/>
      <path d="M139.05,57.3c-.07-.07-.14-.14-.21-.21,.07,.07,.14,.14,.21,.21Z" fill="#9c737a"/>
      <path d="M136.35,52.94c-.07-.07-.14-.14-.21-.22,.07,.07,.14,.14,.21,.22Z" fill="#9c646e"/>
      <path d="M139.25,57.51c-.07-.07-.14-.14-.21-.21l.21,.21Z" fill="#9c737a"/>
      <path d="M41.04,36.33c.44,.14,.88,.29,1.32,.41,.38,.1,.78,.14,1.17,.21-.66,.27-1.29,.66-1.98,.8-6.9,1.39-13.8,2.74-20.7,4.1-.67,.13-1.36,.2-2.03,.3,.48-.69,.97-1.39,1.45-2.08,.97-.97,1.94-1.94,2.91-2.9,1.53-.45,3.03-1.05,4.59-1.32,2.18-.38,4.41-.52,6.62-.76,.31,.13,.6,.34,.93,.39,1.64,.24,3.28,.44,4.92,.66,.27,.04,.53,.13,.79,.2Z" fill="#b35e71"/>
      <path d="M117.85,30.11c-.04-.53-.24-1.1-.1-1.57,.65-2.17,.96-4.52,3-6.02,.28-.21,.43-.61,.64-.92,1.24-1,2.38-2.17,3.75-2.95,1.63-.93,3.45-1.51,5.18-2.24,1.84-.54,3.71-.63,5.61-.41,.7,.2,1.39,.41,2.09,.61-.3,.22-.6,.46-.91,.67-6.07,4.15-12.15,8.29-18.23,12.43-.3,.2-.68,.28-1.02,.41Z" fill="#b35e71"/>
      <path d="M38.15,66.86c.15-.48,.3-.97,.44-1.45,.42,.09,.89,.34,1.27,.25,3.34-.81,6.66-1.69,10-2.53,8.73-2.21,17.46-4.42,26.19-6.59,2.03-.5,4.09-.88,6.13-1.31-.22,.61-.43,1.22-.66,1.82-.11,.3-.24,.59-.37,.89-.33-.03-.67-.14-.97-.07-8.7,2.16-17.4,4.34-26.09,6.54-.31,.08-.55,.41-.83,.63-.46-.11-.94-.19-1.38-.35-.88-.3-1.4-.08-1.47,.91-3.78,.92-7.56,1.85-11.35,2.76-.36,.09-.74,.1-1.11,.14,.07-.55,.13-1.1,.19-1.65Z" fill="#a56b76"/>
      <path d="M37.7,72.46c-.06,.14-.12,.28-.19,.41,.06-.14,.12-.28,.19-.41Z" fill="#ad9c9d"/>
      <path d="M117.85,30.11c.34-.13,.72-.21,1.02-.41,6.08-4.13,12.16-8.28,18.23-12.43,.31-.21,.61-.45,.91-.67,.76-.07,1.51-.13,2.27-.2,1.86,.65,3.64,1.46,5.19,2.7,1.45,1.28,2.89,2.58,4.37,3.83,1.06,.91,1.65,1.99,1.46,3.42-.8,.44-1.65,.82-2.4,1.33-4.33,2.93-8.64,5.91-12.97,8.85-2.24,1.52-4.52,3.01-6.77,4.52-.07,.05-.07,.19-.11,.28-.24-.29-.47-.58-.71-.86-.58-.69-1.17-1.37-1.76-2.06-.28-.39-.5-.85-.85-1.15-.74-.63-1.58-1.14-2.34-1.75-.84-.68-1.64-1.42-2.46-2.14l-3.09-2.28v-.99Z" fill="#bf747c"/>
      <path d="M20.28,40.07c-.48,.69-.97,1.39-1.45,2.08-.34,.42-.69,.83-1.03,1.25-2.22,.38-4.44,.72-6.65,1.15-3.22,.62-6.43,1.3-9.64,1.94-.23,.05-.48,.01-.72,.02,.14-.9,.29-1.8,.43-2.7,4.34-.86,8.67-1.72,13.01-2.57,2.02-.4,4.04-.77,6.06-1.16Z" fill="#9c646e"/>
      <path d="M126.58,38.41c.59,.68,1.18,1.37,1.76,2.06,.24,.28,.47,.58,.71,.86,.16,.54,.31,1.09,.47,1.63-.36,.13-.7,.3-1.07,.39-4.17,1.06-8.34,2.1-12.51,3.15-8.71,2.2-17.41,4.4-26.11,6.62-.3,.08-.56,.31-.84,.47-.41-.16-.82-.33-1.24-.47-1.88-.64-3.2-.21-4.42,1.31-.28,.35-.76,.53-1.15,.78-2.05,.43-4.11,.8-6.13,1.31-8.74,2.18-17.46,4.39-26.19,6.59-3.33,.84-6.66,1.72-10,2.53-.38,.09-.84-.16-1.27-.25,.19-1.2-.07-2.5,.88-3.53,.23-.25,.23-.7,.34-1.05,.2-.03,.41-.05,.61-.1,9.44-2.39,18.88-4.78,28.33-7.17,7.31-1.85,14.61-3.72,21.92-5.56,8.88-2.24,17.76-4.46,26.64-6.68,2.8-.7,5.62-1.38,8.41-2.12,.32-.09,1.15,.1,.87-.77Z" fill="#9c646e"/>
      <path d="M134.47,49.8c.21,.63,.42,1.26,.63,1.89-2.13,.52-4.27,1.01-6.4,1.55-4.26,1.08-8.52,2.19-12.79,3.28-.33,.08-.67,.09-1.01,.14,.47-.45,.93-.91,1.41-1.36,.64-.6,1.3-1.19,1.94-1.79,.41-.39,.71-.85,.15-1.31-.53-.44-.92-.03-1.32,.34-1.08,1.01-2.19,1.99-3.3,2.96-.17,.15-.44,.19-.63,.33-.57,.4-1.18,.75-1.66,1.24-.64,.64-1.08,1.53-1.79,2.06-1.25,.95-2.65,1.72-3.98,2.57-1.8,.35-3.6,.67-5.38,1.07-.82,.18-1.62,.51-2.43,.77-.59-.99-1.2-1.92-1.31-3.17-.06-.71-.84-1.36-1.29-2.04-.44-.67-.85-1.37-1.32-2.02-.31-.44-.71-.83-1.06-1.24,.9-.36,1.78-.83,2.72-1.07,5.97-1.53,11.95-3,17.92-4.51,5.51-1.39,11.01-2.8,16.52-4.17,.39-.1,.86,.09,1.29,.14,0,0,0,0,0,0,.07,.07,.13,.14,.2,.21,.83,1.03,1.66,2.07,2.49,3.1,.14,.34,.28,.69,.41,1.03Z" fill="#ab737e"/>
      <path d="M131.36,45.46c-.43-.05-.9-.24-1.29-.14-5.51,1.37-11.01,2.78-16.52,4.17-5.97,1.5-11.96,2.98-17.92,4.51-.93,.24-1.81,.7-2.72,1.07-1.31-.49-2.63-.97-3.94-1.46,.28-.16,.54-.4,.84-.47,8.7-2.22,17.41-4.42,26.11-6.62,4.17-1.05,8.34-2.1,12.51-3.15,.37-.09,.71-.26,1.07-.39,1.19,.41,2.08,1.03,1.85,2.49Z" fill="#a56b76"/>
      <path d="M126.58,38.41c.28,.87-.55,.69-.87,.77-2.79,.75-5.6,1.42-8.41,2.12-8.88,2.23-17.76,4.45-26.64,6.68-7.31,1.84-14.61,3.71-21.92,5.56-9.44,2.39-18.88,4.78-28.33,7.17-.2,.05-.41,.07-.61,.1,0-1.23-.09-2.45,.66-3.58,.3-.46,.06-1.25,.27-1.8,.43-1.08,1-2.09,1.52-3.13,.42,0,.85,.08,1.24-.02,7.61-1.91,15.21-3.85,22.81-5.76,15.18-3.83,30.36-7.63,45.53-11.47,2.57-.65,5.11-1.4,7.66-2.11,.47,.15,.95,.29,1.42,.44,.82,.72,1.61,1.46,2.46,2.14,.76,.61,1.59,1.12,2.34,1.75,.36,.3,.57,.76,.85,1.15Z" fill="#855159"/>
      <path d="M120.93,33.38c-.47-.15-.95-.29-1.42-.44-.71-.6-1.43-1.2-2.14-1.8,.16-.01,.31-.03,.47-.04,1.03,.76,2.06,1.52,3.09,2.28Z" fill="#b8aaab"/>
      <path d="M42.08,50.86c.05-.07,.11-.13,.16-.2-.05,.07-.11,.13-.16,.2Z" fill="#bf747c"/>
      <path d="M105.71,61.7c1.33-.85,2.73-1.61,3.98-2.57,.71-.54,1.14-1.42,1.79-2.06,.48-.48,1.09-.84,1.66-1.24,.19-.13,.46-.18,.63-.33,1.11-.97,2.22-1.96,3.3-2.96,.4-.37,.79-.78,1.32-.34,.56,.46,.26,.92-.15,1.31-.64,.6-1.3,1.19-1.94,1.79-.48,.44-.94,.9-1.41,1.36-1.54,.53-2.44,1.76-3.45,2.94-.65,.76-1.65,1.22-2.47,1.83-.99,.73-1.99,1.46-2.95,2.23-.45,.36-.89,.83-1.42,.34-.57-.52-.14-.98,.28-1.39,.29-.29,.55-.6,.82-.91Z" fill="#130c0d"/>
      <path d="M131.56,45.68c-.07-.07-.13-.14-.2-.21,.07,.07,.13,.14,.2,.21Z" fill="#a56b76"/>
    </g>
  </g>
</svg>