<?xml version="1.0" encoding="UTF-8"?>
<svg id="Layer_2" data-name="Layer 2" xmlns="http://www.w3.org/2000/svg" viewBox="0 0 240.82 254.97">
  <g id="Layer_2-2" data-name="Layer 2">
    <g>
      <path d="M176.9,194.07c2.05,.57,4.02,1.63,6.27,.93,.17-.05,.43,0,.58,.12,2.43,1.77,5.48,3.11,7.11,5.45,2.5,3.57,5.58,7.27,4.51,12.29-1.45-.22-2.39,.28-2.79,1.79-.13,.48-.64,.87-1.02,1.25-.61,.61-1.12,1.24-.32,2.03,.86,.85,1.37,0,1.82-.51,.92-1.08,1.75-2.23,2.61-3.35,1.1-.47,2.21-.92,3.3-1.41,2.21-.98,4.5-.95,6.77-.39,1.55,.38,3.03,1.04,4.57,1.49,1.72,.5,2.45,2.6,1.24,3.94-2.68,2.98-5.67,5.4-9.97,5.48-.61,.01-1.2,.45-1.82,.66-.56,.19-1.17,.53-1.7,.45-1.8-.28-3.1,.65-4.36,1.65-1.77,1.41-3.49,2.88-5.24,4.32-.12,.1-.23,.25-.36,.27-1.68,.24-3.37,.68-5.04,.62-1.68-.06-3.4-2.41-3.07-4.03,.15-.71,.96-1.28,1.6-2.08-.87-.37-1.77-1.02-2.74-1.13-2.72-.3-5.47-.37-8.21-.54-1.15-.07-2.3-.29-3.44-.23-2.24,.12-4.47,.39-6.7,.58-1.38,.12-2.77,.12-4.13,.34-1.41,.23-2.79,.65-4.17,1.02-.47,.13-.93,.34-1.38,.54-1.07,.48-2.14,.98-3.21,1.48-.27,.13-.54,.45-.78,.43-2.01-.21-2.74,1.47-3.99,2.49-2.21,1.81-3.63,4.18-4.77,6.62-.71,1.53-.86,3.63-.48,5.3,.58,2.61,.11,5.05-.24,7.55-.03,.2-.1,.39-.12,.59-.33,2.92-1.59,4.17-4.6,4.27-.77,.03-1.61-.38-2.34-.75-1.03-.51-1.98-1.19-2.99-1.74-.2-.11-.58-.07-.79,.05-1.7,1-3.39,2.03-5.07,3.05h-2.12c-2.41-2.04-2.64-2.55-2.8-5.79-1.29,.42-2.62,1.07-4.02,1.25-3.01,.4-4.68-3.92-3.27-6.05,.03-.04,.06-.08,.09-.12,2.43-3.21,1.28-2.91,5.01-2,.53,.13,1.08,.22,1.62,.33,.06,.04,.11,.08,.17,.12-.04-.06-.07-.12-.11-.18-.61-1.4-1.06-2.91-1.87-4.19-1.9-2.99-2.34-6.33-2.77-9.71-.13-1.01-.56-1.98-.88-2.96-.15-.47-.43-.91-.52-1.39-.25-1.21-.43-2.44-.64-3.66-.03-.2-.13-.43-.06-.59,.69-1.69,.24-3.37,.18-5.09-.05-1.34,.18-2.65-.47-3.92-.12-.24-.13-.59-.09-.87,.34-2.25,.71-4.49,1.07-6.74,.03-.2,.07-.4,.1-.59,.46,.86,.92,1.71,1.37,2.57,.29,.55,.48,1.2,.88,1.66,.85,.96,1.82,1.81,2.73,2.73,.78,.78,1.46,1.67,2.31,2.37,1.43,1.18,2.94,2.27,4.46,3.33,.38,.26,.93,.26,1.39,.41,.83,.26,1.67,.53,2.49,.82,.59,.21,1.15,.59,1.75,.67,1.46,.2,2.94,.26,4.41,.38,1.01,.08,2.03,.22,3.04,.21,.85,0,1.69-.22,2.54-.25,2.75-.11,5.02-1.61,7.04-3.1,1.43-1.06,2.17-3.18,2.98-4.94,.74-1.61,1.24-3.35-.66-4.73-.38-.28-.54-.96-.65-1.49-.26-1.27-1.15-1.69-2.25-2.14-2.64-1.08-5.24-1.18-7.91-.27h0c.07-.34,.15-.68,.19-1.03,.22-1.63-.86-2.61-1.91-3.53-.92-.81-1.64,.07-2.23,.56-.96,.8-1.77,1.78-2.9,2.95-2.1-2.23-4.61-4.6-6.76-7.26-1.36-1.68-2.34-3.72-3.2-5.72-.7-1.63-1.11-3.42-1.4-5.18-.2-1.19-.01-2.46,.06-3.69,.04-.64,.18-1.28,.28-1.92,1.02-.16,2.03-.38,3.05-.46,2.4-.19,4.85-.65,7.19-.36,2.7,.34,5.14-.53,7.71-.75,2.14-.19,4.14-1.15,6.19-1.4,4.59-.55,8.92-2.14,13.42-3.03,2.54-.5,4.95-2.01,7.7-2.12,.14,0,.27-.12,.41-.18,1.43-.57,2.87-1.15,4.3-1.72,.51,.97,1,1.95,1.54,2.9,.79,1.38,1.61,2.74,2.42,4.1,.79,2.91,1.57,5.84,2.4,8.74,.22,.76,.63,1.46,.93,2.2,.62,1.58,1.16,3.11,.61,4.93-.28,.94,.2,2.11,.33,3.18-2.18,.32-4.55-.14-6.42,1.52-.21,.18-.57,.17-.84,.31-1.18,.6-2.52,1.03-3.5,1.88-1.54,1.33-2.71,3.09-4.25,4.4-1.49,1.27-1.95,2.74-1.64,4.52,.09,.48,.66,.88,1.01,1.32,.36-.43,1.05-.88,1.01-1.28-.12-1.44,.33-2.42,1.65-3.02,.21-.09,.35-.35,.51-.53,1.22-1.37,2.26-3.01,3.71-4.05,1.63-1.16,3.6-1.89,5.51-2.59,1.19-.43,2.54-.45,3.82-.65Zm-18.68-2.98c-.13-.05-.26-.11-.39-.16-.02-3.44-.88-5.98-3.24-8.35-.94-.95-2.3-1.49-3.48-2.19-.52-.31-1.15-.47-1.58-.87-1.08-1.01-2.16-1.13-3.43-.37-.5,.3-1.13,.4-1.71,.57-1.96,.59-3.35,1.85-4.08,3.73-.62,1.59-1.18,3.22-1.49,4.89-.23,1.23-.02,2.55,.04,3.82,.03,.72,.15,1.44,.24,2.15,.05,.39,.03,.83,.2,1.16,1.87,3.59,5,5.58,8.86,6.09,3.73,.49,6.76-1.84,7.93-5.47,.09-.28,.29-.53,.41-.81,.58-1.39,1.15-2.79,1.73-4.19Z" fill="#aca3a3"/>
      <path d="M214.75,75.02c1.21,2.55,.57,4.59-1.61,6.33-1.51,1.21-2.8,2.71-4.37,3.83-.73,.53-1.88,.48-2.83,.69-.69-1.07-1.4-2.14-2.07-3.23-.28-.46-.39-1.03-.7-1.46-.73-1.04-1.56-2-2.29-3.03-.99-1.41-1.92-2.86-2.88-4.29-.14-.2-.32-.41-.53-.53-1.72-.96-2.15-2.8-3-4.36,.67-.17,1.33-.36,2-.52,.89-.22,1.8-.35,2.66-.65,.61-.21,1.11-.74,1.72-.93,3.55-1.1,5.8-4.07,8.78-5.99,.16-.1,.29-.28,.4-.45,1.38-2.07,2.77-4.13,4.13-6.21,1.19-1.8,2.62-3.5,3.46-5.45,1.37-3.17,1.44-6.55,.29-9.85-1.22-3.52-1.56-7.55-5.34-9.66-.12-.07-.19-.23-.25-.37-1.28-2.82-3.86-3.75-6.55-4.55-.69-.21-1.28-.75-1.96-1.02-2.03-.78-4.04-1.87-6.15-2.13-2.19-.27-4.5,.16-6.72,.52-2.46,.39-5.18-.24-7.32,1.34-1.56,1.16-3.42,1.36-5.02,2.21-1.93,1.02-3.65,2.43-5.46,3.68-.08,.05-.11,.16-.17,.25-.96,1.53-1.93,3.06-2.88,4.6-2.3,3.72-3.94,7.6-2.92,12.12-2.82-1.07-5.64-2.17-8.48-3.2-1.39-.51-2.82-.9-4.23-1.34-.01-1.51-.29-3.09,.03-4.52,.42-1.88,.51-3.8,.82-5.62,.49-2.89,2.05-5.62,3.28-8.35,.33-.73,1.26-1.16,1.71-1.86,2.9-4.55,7.23-7.78,10.87-11.63,.83-.87,2.31-1.12,3.49-1.66,.5-.23,1.14-.33,1.47-.71,2.22-2.49,5.38-3.3,8.24-4.6,1.01-.46,2.31-.31,3.47-.43,.45-.05,.91,0,1.34-.12,1.83-.51,3.63-1.13,5.47-1.57,.69-.16,1.47,.14,2.21,.13,1.57-.04,3.14-.13,4.71-.23,.63-.04,1.28-.27,1.89-.17,2.28,.38,4.55,.79,6.79,1.34,1.04,.26,1.99,.88,2.97,1.34,.14,.06,.25,.22,.38,.23,3.23,.23,5.12,3.27,8.16,3.87,.1,.02,.21,.04,.28,.1,1.66,1.47,3.4,2.86,4.95,4.44,1.62,1.66,3.06,3.51,4.57,5.28,.26,.3,.59,.64,.65,1,.24,1.38,.77,2.44,2.22,2.93,.29,.1,.51,.71,.57,1.11,.4,2.65,1.76,4.81,3.31,6.9,.31,.42,.55,.96,.61,1.47,.35,2.92,1,5.78,1.84,8.6v5.45c-.39,2.3-.76,4.6-1.19,6.89-.14,.75-.41,1.5-.74,2.19-.63,1.34-1.2,2.76-2.08,3.93-.66,.87-1.67,1.7-2.69,2.03-2.64,.85-5.37,1.41-7.68,1.98,.6,1.57,1.39,3.45,2.03,5.37,.18,.54,.06,1.28-.17,1.82-.7,1.61-1.52,3.16-2.31,4.73-.15,.3-.33,.68-.6,.83-1.39,.77-2.79,1.51-4.22,2.18-1.3,.61-2.53,.68-3.82-.28-.68-.5-1.69-.55-2.55-.8-.06-.04-.11-.08-.17-.13,.04,.06,.08,.11,.13,.17Z" fill="#ada3a3"/>
      <path d="M194.48,68.97c.84,1.56,1.28,3.39,3,4.36,.21,.12,.39,.33,.53,.53,.97,1.43,1.89,2.88,2.88,4.29,.73,1.04,1.56,2,2.29,3.03,.31,.44,.42,1,.7,1.46,.66,1.09,1.37,2.16,2.07,3.23,.12,.27,.19,.58,.37,.8,1.24,1.56,2.77,2.76,3.2,5.02,.3,1.58,1.7,3.07,2.89,4.32,2.46,2.6,3.06,5.88,3.92,9.15,.61,2.34,1.71,4.54,2.49,6.84,.65,1.94,1.38,3.91,1.63,5.92,.23,1.84-.15,3.76-.23,5.65-.03,.69-.02,1.39,.09,2.06,.29,1.67,.01,3.09-1.07,4.49-.96,1.25-1.6,2.75-2.37,4.14-.19,.35-.28,.79-.55,1.06-2,2.04-4.01,4.06-6.05,6.06-1.24,1.21-2.31,2.67-4.2,2.97-.16,.02-.34,.24-.41,.41-.89,2.26-2.9,3.18-4.82,4.33-2.69,1.61-5.14,3.65-7.82,5.28-2.63,1.6-5.47,2.87-8.16,4.38-1.11,.63-2.08,1.51-3.12,2.28-2.19,.46-4.24,1.19-6.26,2.26-2.32,1.23-4.91,1.94-7.38,2.88-1.43,.57-2.87,1.14-4.3,1.72-.14,.06-.27,.17-.41,.18-2.75,.11-5.17,1.62-7.7,2.12-4.5,.89-8.83,2.48-13.42,3.03-2.04,.24-4.04,1.21-6.19,1.4-2.57,.22-5.01,1.09-7.71,.75-2.35-.29-4.79,.17-7.19,.36-1.02,.08-2.03,.3-3.05,.46-.87,0-1.75-.04-2.62,0-1.42,.08-2.84,.21-4.25,.32-1.98-.19-3.96-.57-5.93-.5-1.82,.06-3.52,.06-5.33-.47-1.79-.52-3.79-.64-5.66-.5-2.22,.17-3.94-1.01-5.88-1.57-2.11-.6-4.27-1.08-6.29-1.91-2.3-.96-4.45-2.26-6.67-3.4-.39-.2-.82-.34-1.24-.47-.33-.1-.79-.03-1.01-.23-2.72-2.44-6.49-3.79-7.86-7.64-.18-.5-.52-1.04-.94-1.32-1.7-1.13-2.59-2.77-3.2-4.62-.5-1.52-1.01-3.04-1.51-4.56-.03-.1-.09-.2-.07-.29,.55-2.63-.23-5.04-.79-7.6-.79-3.64-.56-7.49-.76-11.25,.75-4.12-1.44-8.17-.3-12.31,.05-.18,.01-.43-.08-.59-.99-1.62-.3-3.21,.07-4.81,.09-.4,.19-.8,.26-1.07-1.56,.18-2.99,.36-4.43,.49-.63,.06-1.27-.03-1.9,0-2.02,.1-4.11,.6-6.06,.26-2.94-.51-5.78-1.6-8.66-2.44-.48-.14-.99-.5-1.43-.43-1.64,.28-2.61-.8-3.72-1.63-1.12-.84-2.25-1.66-3.36-2.51-.6-.46-1.4-.82-1.72-1.43-.96-1.85-2.09-3.54-3.33-5.22-1.39-1.89-.15-4.63-1.69-6.6-.02-.03,0-.1,0-.15,.23-2.22,.5-4.43,.7-6.65,.15-1.74,.78-3.21,1.8-4.66,1.24-1.75,2.05-3.79,3.2-5.61,1.33-2.1,2.98-3.87,5.33-4.97,1.24-.58,2.23-1.65,3.38-2.44,.43-.29,.95-.49,1.46-.6,1.55-.35,3.11-.64,4.67-.94,1.12-.21,2.24-.49,3.37-.56,1.38-.08,2.77,.03,4.16,.04,2.31,.02,4.61,.03,6.92,.05,.14,0,.28,.12,.41,.18,1.68,.73,3.39,1.12,5.25,.7,.54-.12,1.25,.22,1.81,.49,.68,.32,1.26,.82,1.92,1.17,1.72,.89,2.16,.78,2.74-1.01,.41-1.27,1-2.24,2.14-2.95,.53-.33,.88-.95,1.33-1.43,1.25-1.37,1.43-3.6,3.48-4.34,.12-.04,.13-.36,.19-.55,4.37-1.66,8.48-3.84,12.43-6.32,.87-.55,1.78-1.74,2.54-1.64,1.72,.23,2.87-.67,4.18-1.31,.62-.3,1.13-.8,1.69-1.21,.43,.58,.83,1.18,1.29,1.73,.58,.7,1.11,1.51,1.84,2,1.74,1.17,3.76,.92,5.77,1.1,3.47,.31,6.26-1.37,9.12-2.6,3.31-1.43,3.92-4.59,3.4-7.96,1.12-.05,2.26,0,3.37-.18,1.12-.18,2.22-.52,3.31-.87,1.27-.4,2.41-.35,3.75,.07,1.16,.36,2.67,0,3.91-.39,.95-.29,1.73-.7,2.69-.13,.32,.19,.77,.22,1.17,.22,3.38,.01,6.76-.11,10.13,.05,1.71,.08,3.39,.74,5.1,1.03,.89,.15,1.81,.08,2.72,.11,1.41,.44,2.84,.83,4.23,1.34,2.84,1.03,5.65,2.13,8.48,3.2,1.61,.65,3.4,1.04,4.78,2.01,2.28,1.59,4.16,3.77,7.1,4.29,.38,.07,.68,.66,1,1.03,.99,1.1,1.94,2.24,2.96,3.31,1,1.04,2.08,1.99,3.11,3,.87,.86,1.74,1.72,2.55,2.63,.38,.43,.63,.97,.93,1.47,.37,.63,.62,1.37,1.11,1.88,1.18,1.21,2.48,2.3,3.73,3.44Zm-60,61.76c.05,.19,.09,.39,.14,.58,1.18-.33,2.4-.55,3.52-1.01,1.46-.6,2.79-1.53,4.26-2.08,1.61-.6,2.82-1.43,3.36-3.14,.19-.59,.61-1.15,1.05-1.6,1.62-1.64,2.6-6.93,1.98-9.13-.44-1.58-.31-3.32-.42-4.99-.03-.45,.17-1.01-.04-1.32-1.44-2.15-1.65-4.61-2.21-7.04-.61-2.65-1.24-5.59-3.72-7.44-.18-.14-.36-.42-.36-.64-.03-1.78-1.3-2.68-2.46-3.74-1.17-1.07-2.06-2.44-3.21-3.55-2.42-2.35-5.73-2.28-8.74-2.89-1.24-.25-2.65,.32-3.98,.54-.19,.03-.4,.12-.52,.26-.79,.89-1.71,1.7-2.29,2.71-1.16,2.03-2.57,4.07-3.09,6.29-.83,3.53-1.02,7.22-1.49,10.84-.27,2.08-.64,4.15-.85,6.23-.09,.89,.12,1.81,.15,2.71,.02,.7,.18,1.49-.08,2.08-.41,.93-.21,1.61,.05,2.54,.62,2.25,.44,4.7,1.66,6.83,.43,.76,.7,1.61,1.07,2.4,.28,.58,.74,1.11,.88,1.71,.26,1.09,.83,1.79,1.89,2.14,.37,.12,.84,.31,1.01,.61,1.4,2.47,3.51,2.01,5.7,1.5,2.24-.53,4.49-.95,6.74-1.42Zm18.01,23.19c1.48-.56,3.04-1.11,4.57-1.75,1.23-.52,2.65-.9,3.58-1.77,1.46-1.37,3.04-2.93,3.71-4.73,.95-2.54,1.34-5.36,1.51-8.09,.08-1.35-.82-2.79-1.35-4.15-.33-.83-.98-1.56-1.19-2.41-.21-.83-.41-1.46-1.37-1.47-1.03,0-1.33,.61-1.43,1.55-.08,.71-.34,1.46-.71,2.07-1.14,1.86-2.87,2.95-4.83,3.9-3,1.45-5.07,4.48-8.72,4.97-1.79,.24-3.47,1.24-5.25,1.69-1.53,.39-1.47,1.04-.91,2.26,1.62,3.55,4.54,5.5,8.05,6.73,1.37,.48,2.8,.78,4.36,1.2Zm-57.23-30.61l.29,.61c-1.47,1.49-2.94,2.99-4.42,4.48-.78,.78-1.02,1.65-.28,2.54,.76,.9,1.66,.83,2.52,.11,.73-.61,1.54-1.16,2.16-1.88,1.96-2.29,3.67-4.77,6.48-6.22,1.27-.65,.98-2.67-.39-2.96-1.34-.29-2.77-.17-4.16-.19-.53,0-1.07,.19-1.6,.15-3.66-.3-7.22,.25-10.73,1.26-1.11,.32-1.56,1.19-1.2,2.24,.36,1.03,1.18,1.32,2.32,1.08,2.16-.45,4.35-.77,6.53-1.09,.81-.12,1.64-.09,2.45-.13Zm74.39-15.99c1.79-1.34,4.03-2.44,6.63-2.61,1.14-.08,2.06-.42,2.09-1.67,.04-1.2-.76-1.65-1.93-1.86-2.41-.44-4.33,.91-6.28,1.76-2.5,1.09-4.86,2.65-6.52,4.97-.85,1.18-.44,2.44,.94,2.84,1.06,.31,2.18,.74,3.23,.65,2.2-.2,3.9,.64,5.48,1.97,.85,.72,1.82,.81,2.57-.02,.81-.9,.66-1.98-.34-2.61-1.91-1.22-3.92-2.28-5.88-3.4Zm-93.43,46.02c.43,.39,.84,1.03,1.41,1.21,.98,.31,2.16-.62,2.25-1.68,.09-1.1-.14-2.26,.11-3.32,.53-2.18,.18-4.72,2.4-6.29,.32-.23,.59-.95,.46-1.26-.14-.33-.78-.59-1.22-.63-1.26-.11-3.86,1.92-4.07,3.15-.46,2.8-.86,5.62-1.35,8.82Zm130.54-30.61c-.58-2.1-.89-3.86-1.55-5.47-.84-2.04-2.48-3.48-4.58-4.09-.67-.2-1.62,.55-2.45,.86,.41,.53,.72,1.22,1.25,1.58,1.53,1.04,2.57,2.34,2.94,4.18,.22,1.08,.43,2.2,.9,3.18,.23,.47,1.09,.99,1.57,.91,.7-.12,1.31-.75,1.91-1.14Zm-117.12,27.31c.08-.02,.16-.03,.24-.05-.36-2.12-.7-4.23-1.09-6.35-.21-1.12-.92-1.46-2.01-1.18-1.05,.27-1.5,.87-1.37,1.98,.31,2.62,.62,5.24,.84,7.87,.09,1.05,.34,1.81,1.55,1.75,1.18-.06,1.88-.63,1.84-1.9-.02-.71,0-1.41,0-2.12Zm96.08-28.14c.11-.02,.21-.05,.32-.07-.04-.7-.07-1.4-.11-2.11-.06-.99-.63-1.29-1.53-1.1-.87,.18-2.03,.26-1.93,1.47,.23,2.68,.16,5.39,1.2,7.98,.49,1.22,1.28,.95,2.06,.72,.76-.22,1.73-.35,1.31-1.69-.54-1.7-.89-3.46-1.32-5.19Zm-89.68,29.44c1.22-.41,2.5-.47,3.03-1.13,.49-.61,.44-1.94,.18-2.82-.41-1.36-1.22-2.6-1.83-3.9-1.03-2.23-2.18-2.45-3.99-.81,.46,2.88,2.98,5.01,2.61,8.66Zm96.52-35.16c-1.77,0-2.34,.61-2.39,1.92-.09,2.33,1.05,4.18,2.39,5.89,.78,1,1.82,.59,2.72,.01,.95-.61,.33-1.21,.02-1.91-.67-1.54-1.16-3.16-1.81-4.7-.23-.54-.73-.97-.92-1.21Z" fill="#c6b6b6"/>
      <path d="M76.06,57.67c-.06,.19-.08,.51-.19,.55-2.05,.74-2.23,2.97-3.48,4.34-.44,.48-.79,1.1-1.33,1.43-1.14,.71-1.73,1.69-2.14,2.95-.58,1.79-1.02,1.9-2.74,1.01-.66-.35-1.25-.85-1.92-1.17-.57-.27-1.27-.61-1.81-.49-1.87,.42-3.57,.03-5.25-.7-.14-.06-.28-.18-.41-.18-2.31-.02-4.61-.03-6.92-.05-1.39-.01-2.78-.13-4.16-.04-1.13,.07-2.25,.35-3.37,.56-1.56,.3-3.12,.59-4.67,.94-.51,.11-1.04,.31-1.46,.6-1.15,.79-2.15,1.86-3.38,2.44-2.35,1.1-4.01,2.86-5.33,4.97-1.15,1.82-1.97,3.86-3.2,5.61-1.02,1.45-1.65,2.92-1.8,4.66-.19,2.22-.46,4.44-.7,6.65,0,.05-.02,.12,0,.15,1.54,1.97,.29,4.72,1.69,6.6,1.24,1.68,2.37,3.37,3.33,5.22,.32,.61,1.12,.98,1.72,1.43,1.11,.84,2.24,1.67,3.36,2.51,1.11,.83,2.08,1.91,3.72,1.63,.44-.07,.95,.29,1.43,.43,2.88,.85,5.72,1.93,8.66,2.44,1.94,.34,4.03-.16,6.06-.26,.63-.03,1.27,.05,1.9,0,1.44-.13,2.87-.31,4.43-.49-.07,.27-.17,.67-.26,1.07-.37,1.6-1.06,3.19-.07,4.81,.1,.16,.13,.41,.08,.59-1.14,4.13,1.05,8.18,.3,12.31-.59,.27-1.15,.61-1.77,.78-.55,.15-1.15,.16-1.72,.16-.87,0-1.77,.01-2.62-.15-.62-.12-1.34-.38-1.76-.82-.61-.64-1.03-.74-1.8-.29-1.49,.87-3.03,1.63-3.6,3.46-.07,.22-.28,.53-.46,.56-2.03,.32-4.07,.73-6.12,.81-.7,.03-1.44-.78-2.14-1.25-.33-.22-.57-.72-.9-.77-2.03-.31-2.79-1.52-2.63-3.59-1.52,2.84-4.36,3.83-6.81,5.21-.86,.48-2.48,.14-3.52-.34-2.1-.96-4.01-2.3-6.04-3.41-2.58-1.4-4.12-3.62-5.23-6.24-.26-.63-.7-1.21-1.15-1.73-1.82-2.12-3.5-4.29-3.5-7.29,0-.47-.26-.96-.44-1.42-.73-1.81-1.16-3.87-2.3-5.37-1.6-2.11-1.34-4.66-2.04-6.92-.62-1.99-1.6-4.35-.55-6.84,.43-1.02-.3-2.62-.7-3.89-.57-1.8-.34-3.45,.44-5.1,.23-.48,.39-1.05,.41-1.58,.04-1.92-.15-3.85,.05-5.75,.17-1.62,.7-3.21,1.2-4.78,.7-2.24,1.57-4.42,2.27-6.66,.94-3.05,3.57-4.94,5.08-7.59,.42-.74,.83-1.47,1.24-2.22,.15-.26,.21-.67,.43-.78,2.46-1.23,3.32-3.98,5.39-5.59,3.48-2.73,7.23-4.7,11.72-5.2,1.59-.18,3.1-1.05,4.64-1.61,1.51-.55,3.01-1.16,4.62-.25,.35,.2,.86,.2,1.29,.18,3.81-.14,7.62-.41,11.43-.41,1,0,1.97,.98,3.02,1.16,1.62,.29,3.3,.25,4.95,.42,2.41,.25,4.36,1.53,6.46,2.63,3.01,1.59,6,3.09,8.19,5.76,1.07,1.31,1.96,2.78,2.93,4.18Z" fill="#ada3a3"/>
      <path d="M111.25,176.53c1.42-.11,2.83-.24,4.25-.32,.87-.05,1.74,0,2.62,0-.1,.64-.25,1.28-.28,1.92-.07,1.23-.26,2.5-.06,3.69,.3,1.76,.7,3.55,1.4,5.18,.86,2,1.84,4.04,3.2,5.72,2.15,2.66,4.66,5.03,6.76,7.26,1.13-1.17,1.94-2.15,2.9-2.95,.59-.49,1.31-1.37,2.23-.56,1.05,.93,2.13,1.9,1.91,3.53-.05,.35-.13,.69-.19,1.03-.02,.04-.05,.08-.07,.12l.07-.13c2.67-.91,5.28-.81,7.91,.27,1.1,.45,1.99,.87,2.25,2.14,.11,.53,.27,1.22,.65,1.49,1.9,1.38,1.4,3.12,.66,4.73-.81,1.76-1.54,3.88-2.98,4.94-2.01,1.49-4.29,2.99-7.04,3.1-.85,.04-1.69,.25-2.54,.25-1.01,0-2.03-.13-3.04-.21-1.47-.12-2.95-.18-4.41-.38-.6-.08-1.16-.46-1.75-.67-.82-.29-1.66-.56-2.49-.82-.46-.15-1.02-.15-1.39-.41-1.52-1.06-3.03-2.15-4.46-3.33-.85-.7-1.53-1.59-2.31-2.37-.91-.91-1.88-1.77-2.73-2.73-.4-.45-.59-1.1-.88-1.66-.45-.86-.92-1.71-1.37-2.57-.78-2.67-1.82-5.3-2.27-8.03-.4-2.44-.36-5.01-.11-7.48,.13-1.27,1.2-2.43,1.71-3.7,.21-.51,.02-1.17,.09-1.76,.06-.57,0-1.35,.35-1.67,1.1-1.03,1.39-2.27,1.41-3.67Z" fill="#928b8b"/>
      <path d="M118.33,41.46c.52,3.37-.09,6.53-3.4,7.96-2.86,1.23-5.64,2.91-9.12,2.6-2-.18-4.02,.07-5.77-1.1-.73-.49-1.26-1.3-1.84-2-.46-.55-.87-1.15-1.29-1.73-.77-.59-.98-1.29-.69-2.26,.25-.81,.28-1.68,.41-2.52,.04-.25,.02-.58,.17-.72,2.15-1.96,3.22-4.93,6.77-5.59,3.15-.59,6.1-.21,9.11,.21,.73,.1,1.35,1.01,2.28,1.76-.74-6.06,.7-11.58,3.8-16.68,0,0-.03,.01-.03,.01,.12-.11,.24-.22,.36-.33,0,0,.13,.03,.13,.03l.12-.03c.51,.52,1.02,1.04,1.53,1.56-2.06,3.69-4.06,7.4-3.55,11.86,.23,2.06,.37,4.13,.59,6.19,.03,.28,.27,.53,.42,.79Z" fill="#366334"/>
      <path d="M120.87,22.62c-.51-.52-1.02-1.04-1.53-1.56,.09-1.53,.18-3.06,.27-4.59,.07-3.05,.86-3.97,3.82-5.13,1.23-.48,2.21-1.56,3.43-2.09,.84-.36,1.88-.3,2.84-.33,.54-.02,1.1,.31,1.62,.24,2.17-.28,3.71,1.09,5.37,2.05,.33,.19,.55,1.14,.37,1.52-1.13,2.31-2.19,4.7-3.66,6.78-1.62,2.3-4.56,2.56-6.97,3.63-.17,.07-.4,.01-.6,0-1.22-.09-2.44-.16-3.65-.27-.44-.04-.88-.17-1.32-.25Z" fill="#6da859"/>
      <path d="M119.61,16.47c-.09,1.53-.18,3.06-.27,4.59,0,0-.12,.03-.12,.03,0,0-.13-.03-.13-.03-.12,.11-.24,.22-.36,.33,0,0,.03-.01,.03-.01-1.2,.3-2.4,.59-3.59,.89-.39,.1-.95,.41-1.14,.26-1.63-1.34-3.85-.53-5.51-1.5-2.24-1.32-3.88-3.28-5.13-5.56-.02-.04-.06-.1-.05-.14,.28-2.33-.59-4.42-1.29-6.56-.26-.8,.28-1.16,1.15-1.02,1.31,.2,2.66,.21,3.94,.5,1.44,.32,2.83,.85,4.23,1.32,.52,.17,1.04,.37,1.52,.63,1.8,.97,3.63,1.9,5.36,2.99,.37,.23,.31,1.08,.52,1.62,.23,.58,.55,1.12,.83,1.67Z" fill="#78bf65"/>
      <path d="M168.1,166.19c2.47-.94,5.06-1.65,7.38-2.88,2.01-1.07,4.06-1.8,6.26-2.26,1.49,.18,2.99,.35,4.48,.55,1.53,.21,3.07,.42,4.58,.7,2.45,.46,4.88,1.01,7.33,1.48,1.93,.37,3.68,1.11,5.4,2.09,1.06,.61,2.51,.52,3.74,.88,1.14,.33,2.31,.7,3.33,1.29,1.12,.65,2.04,1.64,3.13,2.35,4.55,2.97,6.26,7.51,7.03,12.57,.06,.37-.02,.84-.21,1.16-1.29,2.21-2.63,4.4-3.96,6.58-.15,.25-.4,.59-.63,.62-2.34,.34-4.37,2.03-6.88,1.59-1.08-.19-2.26,.14-3.14-1.01-.26-.33-1.4,.03-2.14,.06-1.6,.08-3.21,.33-4.79,.2-1.89-.16-3.27-2.35-2.63-4.12,.5-1.39-.22-2.02-.93-3.07-1.21-1.77-2.86-2.81-4.57-3.83-2.14-1.27-4.29-2.63-6.6-3.47-1.55-.56-3.12-.84-4.33-2.09-.28-.28-.97-.13-1.45-.26-.56-.15-1.1-.39-1.66-.58-1.58-.52-3.17-1.04-4.75-1.56-.81-1.37-1.63-2.72-2.42-4.1-.54-.95-1.03-1.93-1.54-2.9Z" fill="#a19797"/>
      <path d="M176.9,194.07c-1.28,.2-2.62,.22-3.82,.65-1.91,.69-3.88,1.43-5.51,2.59-1.46,1.04-2.49,2.67-3.71,4.05-.16,.18-.3,.44-.51,.53-1.32,.6-1.78,1.57-1.65,3.02,.03,.39-.66,.85-1.01,1.28-.35-.44-.92-.83-1.01-1.32-.31-1.78,.15-3.25,1.64-4.52,1.54-1.32,2.72-3.07,4.25-4.4,.98-.85,2.31-1.28,3.5-1.88,.26-.13,.63-.12,.84-.31,1.88-1.66,4.24-1.2,6.42-1.52,.19,.61,.39,1.22,.58,1.83Z" fill="#a19797"/>
      <path d="M195.67,214.07c-.87,1.12-1.7,2.27-2.61,3.35-.45,.52-.96,1.36-1.82,.51-.8-.79-.3-1.42,.32-2.03,.38-.38,.9-.78,1.02-1.25,.4-1.51,1.34-2.01,2.79-1.79,.1,.4,.2,.81,.3,1.21Z" fill="#a19797"/>
      <path d="M158.22,191.08c-.57,1.4-1.14,2.8-1.73,4.19-.12,.28-.32,.52-.41,.81-1.17,3.63-4.2,5.97-7.93,5.47-3.85-.51-6.99-2.49-8.86-6.09-.17-.33-.15-.77-.2-1.16-.09-.72-.2-1.43-.24-2.15-.06-1.28-.26-2.59-.04-3.82,.31-1.67,.87-3.31,1.49-4.89,.73-1.87,2.13-3.13,4.08-3.73,.58-.17,1.2-.27,1.71-.57,1.27-.75,2.35-.63,3.43,.37,.43,.4,1.06,.56,1.58,.87,1.18,.7,2.54,1.24,3.48,2.19,2.35,2.37,3.22,4.91,3.24,8.35,.13,.05,.26,.11,.39,.16Z" fill="#dacccc"/>
      <path d="M116.02,242.53c.04,.06,.07,.12,.11,.18-.06-.04-.11-.08-.17-.12,0,0,.06-.06,.06-.06Z" fill="#fff"/>
      <path d="M194.48,68.97c-1.25-1.14-2.55-2.24-3.73-3.44-.49-.5-.74-1.25-1.11-1.88-.3-.5-.55-1.04-.93-1.47-.81-.91-1.68-1.77-2.55-2.63-1.03-1.01-2.11-1.96-3.11-3-1.03-1.07-1.98-2.2-2.96-3.31-.32-.36-.62-.96-1-1.03-2.94-.52-4.82-2.7-7.1-4.29-1.38-.97-3.17-1.36-4.78-2.01-1.02-4.52,.61-8.4,2.92-12.12,.95-1.54,1.92-3.07,2.88-4.6,.05-.09,.09-.2,.17-.25,1.81-1.25,3.53-2.66,5.46-3.68,1.6-.85,3.46-1.05,5.02-2.21,2.13-1.58,4.86-.95,7.32-1.34,2.22-.35,4.53-.79,6.72-.52,2.11,.26,4.12,1.35,6.15,2.13,.68,.26,1.27,.81,1.96,1.02,2.7,.8,5.27,1.73,6.55,4.55,.06,.14,.13,.3,.25,.37,3.78,2.11,4.12,6.14,5.34,9.66,1.15,3.3,1.08,6.68-.29,9.85-.84,1.95-2.28,3.65-3.46,5.45-1.37,2.08-2.75,4.14-4.13,6.21-.11,.17-.24,.34-.4,.45-2.98,1.91-5.24,4.89-8.78,5.99-.61,.19-1.11,.72-1.72,.93-.86,.29-1.77,.43-2.66,.65-.67,.16-1.33,.35-2,.52Z" fill="#eaaaab"/>
      <path d="M214.75,75.02c-.04-.06-.08-.11-.13-.17,.06,.04,.11,.09,.17,.13,0,0-.04,.04-.04,.04Z" fill="#fff"/>
      <path d="M134.48,130.73c-2.25,.47-4.51,.89-6.74,1.42-2.19,.52-4.29,.97-5.7-1.5-.17-.3-.64-.49-1.01-.61-1.06-.35-1.63-1.05-1.89-2.14-.15-.61-.61-1.13-.88-1.71-.38-.79-.64-1.65-1.07-2.4-1.22-2.13-1.04-4.58-1.66-6.83-.26-.93-.45-1.61-.05-2.54,.26-.59,.1-1.38,.08-2.08-.03-.91-.24-1.82-.15-2.71,.21-2.09,.58-4.15,.85-6.23,.48-3.62,.66-7.3,1.49-10.84,.52-2.22,1.93-4.26,3.09-6.29,.58-1.01,1.5-1.83,2.29-2.71,.12-.14,.34-.23,.52-.26,1.33-.22,2.74-.79,3.98-.54,3.01,.6,6.32,.54,8.74,2.89,1.14,1.11,2.04,2.48,3.21,3.55,1.16,1.06,2.43,1.96,2.46,3.74,0,.22,.18,.5,.36,.64,2.48,1.85,3.11,4.79,3.72,7.44,.56,2.44,.77,4.89,2.21,7.04,.21,.31,.01,.88,.04,1.32,.11,1.67-.02,3.41,.42,4.99,.61,2.2-.36,7.49-1.98,9.13-.44,.45-.86,1.01-1.05,1.6-.54,1.71-1.75,2.54-3.36,3.14-1.48,.55-2.8,1.48-4.26,2.08-1.12,.46-2.34,.68-3.52,1.01-.05-.19-.09-.39-.14-.58Z" fill="#353636"/>
      <path d="M152.49,153.92c-1.56-.42-2.99-.72-4.36-1.2-3.51-1.23-6.43-3.18-8.05-6.73-.56-1.22-.62-1.87,.91-2.26,1.78-.45,3.46-1.45,5.25-1.69,3.66-.49,5.72-3.51,8.72-4.97,1.96-.95,3.7-2.04,4.83-3.9,.37-.61,.63-1.36,.71-2.07,.11-.94,.4-1.56,1.43-1.55,.96,0,1.16,.63,1.37,1.47,.21,.85,.86,1.58,1.19,2.41,.54,1.36,1.44,2.8,1.35,4.15-.17,2.73-.56,5.55-1.51,8.09-.67,1.8-2.26,3.36-3.71,4.73-.93,.87-2.35,1.26-3.58,1.77-1.52,.64-3.08,1.18-4.57,1.75Z" fill="#f37f88"/>
      <path d="M95.26,123.32c-.82,.04-1.65,.01-2.45,.13-2.18,.32-4.37,.64-6.53,1.09-1.14,.24-1.96-.06-2.32-1.08-.37-1.05,.08-1.92,1.2-2.24,3.5-1.01,7.06-1.56,10.73-1.26,.53,.04,1.07-.16,1.6-.15,1.39,.02,2.82-.1,4.16,.19,1.37,.3,1.66,2.31,.39,2.96-2.81,1.45-4.52,3.94-6.48,6.22-.61,.72-1.42,1.27-2.16,1.88-.87,.72-1.77,.79-2.52-.11-.75-.89-.51-1.76,.28-2.54,1.48-1.49,2.95-2.99,4.42-4.48l-.29-.61Z" fill="#120e0f"/>
      <path d="M169.65,107.32c1.96,1.12,3.97,2.19,5.88,3.4,1,.64,1.15,1.71,.34,2.61-.75,.83-1.71,.74-2.57,.02-1.59-1.33-3.28-2.17-5.48-1.97-1.05,.09-2.17-.34-3.23-.65-1.38-.4-1.79-1.66-.94-2.84,1.66-2.31,4.02-3.87,6.52-4.97,1.95-.85,3.87-2.2,6.28-1.76,1.17,.21,1.97,.66,1.93,1.86-.04,1.24-.95,1.59-2.09,1.67-2.6,.18-4.84,1.28-6.63,2.61Z" fill="#110e0e"/>
      <path d="M76.22,153.34c.49-3.2,.89-6.02,1.35-8.82,.2-1.23,2.81-3.26,4.07-3.15,.44,.04,1.08,.3,1.22,.63,.13,.31-.14,1.04-.46,1.26-2.22,1.57-1.87,4.11-2.4,6.29-.26,1.05-.02,2.21-.11,3.32-.09,1.06-1.27,1.99-2.25,1.68-.57-.18-.98-.83-1.41-1.21Z" fill="#e96868"/>
      <path d="M206.77,122.73c-.61,.39-1.22,1.03-1.91,1.14-.48,.08-1.35-.44-1.57-.91-.47-.98-.68-2.1-.9-3.18-.37-1.84-1.41-3.14-2.94-4.18-.53-.36-.84-1.04-1.25-1.58,.82-.31,1.77-1.06,2.45-.86,2.1,.61,3.75,2.05,4.58,4.09,.66,1.61,.97,3.37,1.55,5.47Z" fill="#e96969"/>
      <path d="M89.65,150.05c0,.71-.02,1.41,0,2.12,.04,1.28-.66,1.84-1.84,1.9-1.21,.06-1.46-.7-1.55-1.75-.22-2.63-.53-5.25-.84-7.87-.13-1.11,.32-1.71,1.37-1.98,1.08-.28,1.8,.06,2.01,1.18,.39,2.11,.73,4.23,1.09,6.35-.08,.02-.16,.03-.24,.05Z" fill="#e96969"/>
      <path d="M185.73,121.91c.43,1.73,.79,3.49,1.32,5.19,.42,1.34-.55,1.46-1.31,1.69-.78,.23-1.57,.5-2.06-.72-1.04-2.58-.97-5.3-1.2-7.98-.1-1.21,1.05-1.28,1.93-1.47,.9-.19,1.47,.11,1.53,1.1,.04,.7,.07,1.4,.11,2.11-.11,.02-.21,.05-.32,.07Z" fill="#e96868"/>
      <path d="M96.05,151.36c.36-3.65-2.15-5.78-2.61-8.66,1.8-1.63,2.95-1.42,3.99,.81,.61,1.31,1.42,2.54,1.83,3.9,.26,.88,.32,2.2-.18,2.82-.53,.66-1.81,.72-3.03,1.13Z" fill="#e96969"/>
      <path d="M192.57,116.2c.19,.25,.69,.67,.92,1.21,.65,1.55,1.13,3.17,1.81,4.7,.31,.7,.93,1.3-.02,1.91-.89,.57-1.94,.99-2.72-.01-1.33-1.72-2.48-3.56-2.39-5.89,.05-1.32,.62-1.93,2.39-1.92Z" fill="#e96868"/>
      <path d="M135.99,201.04l-.07,.13s.05-.08,.07-.12c0,0,0,0,0,0Z" fill="#aca3a3"/>
      <path d="M118.73,21.4c.12-.11,.24-.22,.36-.33-.12,.11-.24,.22-.36,.33Z" fill="#fff"/>
    </g>
  </g>
</svg>