<?xml version="1.0" encoding="UTF-8"?>
<svg id="Layer_2" data-name="Layer 2" xmlns="http://www.w3.org/2000/svg" viewBox="0 0 244.62 259.96">
  <g id="Layer_2-2" data-name="Layer 2">
    <g>
      <path d="M209.3,87.76c.18,.42,.23,1.05,.54,1.24,1.86,1.11,2.1,3.09,2.84,4.84,.41,.97,1.15,1.79,1.73,2.69,.98,1.53,2.47,2.77,2.59,4.77,0,.1,.05,.21,.12,.28,2.08,2.21,1.95,5.27,3.04,7.86,.31,.74,.77,1.42,1.1,2.16,.45,1.02,.98,2.03,1.24,3.1,.41,1.66,.69,3.36,.92,5.06,.18,1.34,.37,2.71,.26,4.04-.12,1.55-.9,3.05-.03,4.62,.11,.19-.12,.57-.21,.86-.41,1.24-.82,2.48-1.23,3.72-.06,.19-.11,.4-.22,.56-1.49,2.11-2.95,4.24-4.5,6.3-.51,.68-1.21,1.24-1.88,1.78-3.5,2.81-7.34,5.29-10.44,8.49-2.74,2.82-6.2,4.17-9.33,6.18-.42,.27-.91,.53-1.17,.93-1.06,1.62-2.75,2.15-4.41,2.82-1.63,.67-3.15,1.58-4.74,2.32-1.05,.49-2.18,.84-3.24,1.31-1.76,.79-3.5,1.64-5.25,2.47-.48,.12-1.01,.14-1.42,.38-1.11,.66-2.17,1.4-3.25,2.12-2.58,.73-4.94,2.32-7.81,1.89-.21-.03-.45,.21-.68,.3-.85,.32-1.7,.64-2.55,.94-2.53,.87-5.38,.72-7.64,2.48-.35,.27-.99,.14-1.48,.25-2.57,.58-5.12,1.23-7.7,1.75-1.41,.28-2.87,.35-4.31,.49-.65,.06-1.32-.02-1.97,.08-1.5,.22-2.98,.53-4.48,.75-.7,.1-1.44,.01-2.14,.12-3.76,.56-7.51,1.16-11.26,1.74-1.45-.22-2.89-.53-4.34-.65-1.34-.11-2.84-.37-4.01,.09-1.83,.71-3.5,.39-5.18-.07-.97-.27-1.75-.28-2.54,.3-1.01,.31-1.76-.2-2.67-.58-1.45-.61-3.13-.69-4.73-.93-3.92-.6-7.99-.42-11.71-2.02-2.14-.92-4.14-2.17-6.2-3.27-.35-.19-.67-.56-1.03-.61-3.64-.55-5.44-3.72-8.1-5.65-1.44-1.04-2.74-2.28-4.06-3.47-.43-.39-.91-.89-1.03-1.42-.4-1.83-1.38-3.2-2.7-4.5-.62-.61-.75-1.77-.97-2.71-.58-2.52-1.13-5.05-1.6-7.6-.22-1.2-.22-2.43-.34-3.65-.09-.86-.2-1.71-.31-2.56-.05-.4-.32-.9-.16-1.17,1.3-2.28-.51-4.34-.15-6.59-1.33,.48-2.42,.99-3.56,1.25-.69,.16-1.48,0-2.19-.17-.99-.25-1.94-.65-2.91-.97-1.27-.42-2.14,.08-3.13,.96-1.85,1.64-3.61,3.5-6.6,3.02-1.27-.2-2.72,.68-3.99-.16-.67-.44-1.22-1.1-1.72-1.75-.54-.7-.95-1.49-1.33-2.11-2.04,1.38-3.77,2.79-5.71,3.82-3.06,1.62-5.75,.43-8.4-1.4-1.97-1.36-3.68-2.87-5.1-4.78-.5-.67-1.29-1.12-1.93-1.7-.37-.34-.77-.67-1.05-1.08-.75-1.08-1.72-2.12-2.1-3.33-.58-1.85-1.72-3.32-2.57-4.97-1.32-2.59-2.08-5.51-2.76-8.37-.81-3.36-1.3-6.79-1.89-10.19-.26-1.45-.37-2.94-.68-4.38-.14-.66-.58-1.26-.88-1.89,0-1.33,0-2.67,0-4C1.16,88.14,1.31,86.08,0,84.03v-.62c.48-3.92,2.57-7.45,2.78-11.45,.04-.72,.42-1.48,.8-2.13,.58-1,1.36-1.89,1.95-2.89,1.52-2.59,2.98-5.2,4.45-7.81,1.16-2.04,3.81-2.98,4.15-5.65,.03-.27,.48-.51,.77-.72,1-.71,1.97-1.46,3.02-2.09,1.09-.65,2.25-1.17,3.39-1.74,.84-.42,1.73-.76,2.53-1.26,1.44-.91,2.66-1.95,4.69-1.64,1.32,.21,2.81-.6,4.22-.97,.86-.23,1.69-.69,2.56-.73,1.41-.07,2.92,.48,4.23,.13,2.28-.6,4.39-.68,6.69-.05,1.73,.48,3.63,.32,5.45,.48,1.08,.09,2.17,.16,3.22,.41,1.23,.29,2.4,.8,3.62,1.13,2.24,.6,4.98-.25,6.51,2.36,.13,.22,.53,.29,.82,.39,5.18,1.74,8.73,5.48,12.09,9.73,.54-.3,1.28-.63,1.96-1.07,3.14-2.06,6.12-4.41,9.42-6.16,2.76-1.47,5.88-2.27,8.84-3.37,1.32,3.41,6.03,6.54,10.48,4.24,.42-.22,.99-.13,1.49-.19,.8-.09,1.74,.05,2.37-.33,1.55-.93,3-2.05,4.43-3.17,1.15-.9,2.49-1.69,2.79-3.3,.17-.92,.21-1.86,.3-2.79,.47-.2,.92-.5,1.41-.57,3.72-.55,7.43-1.13,11.16-1.55,1.69-.19,3.43-.06,5.14-.05,1.57,0,3.14-.04,4.7,.1,1.38,.13,2.73-.93,4.16,.11,.64,.47,1.58,.64,2.4,.69,1.81,.1,3.64-.07,5.44,.08,.97,.08,1.91,.58,2.86,.88,1.58,.58,3.15,1.16,4.74,1.73,.23,.08,.5,.06,.75,.12,1.43,.31,2.86,.59,4.27,.96,.86,.22,1.68,.59,2.52,.89,.13,1.44,1.12,1.85,2.35,2.19,1.35,.37,3.14,.62,3.85,1.58,1.6,2.15,5.02,1.51,6,4.31,.05,.14,.34,.2,.53,.28,2.43,1.11,4.37,2.75,5.72,5.09,.58,1.01,1.3,1.95,2.04,2.85,1.21,1.48,2.48,2.92,3.75,4.35,1.03,1.15,2.11,2.26,3.17,3.39,.41,.63,.84,1.24,1.23,1.88,.49,.81,.85,1.73,1.45,2.44,1.67,1.99,3.4,3.93,5.19,5.82,1.83,1.92,1.83,4.97,4.15,6.57,.2,.14,.2,.56,.29,.85Zm-140.45-17.64c-1.97-.85-3.49-1.52-5.02-2.17-.61-.26-1.28-.81-1.83-.71-2.15,.38-4.01-.74-5.97-.93-2.95-.29-5.98,.27-8.98,.43-1.21,.07-2.44-.06-3.64,.09-2.69,.36-5.7-.13-7.56,2.68-.22,.33-.81,.63-1.19,.59-1.35-.13-2.18,.59-3.02,1.48-1.36,1.45-2.74,2.88-4.2,4.23-1.02,.94-1.84,1.86-1.63,3.4,.05,.41-.4,.87-.61,1.32-.41,.9-.82,1.8-1.19,2.71-.24,.6-.33,1.28-.63,1.84-1.4,2.58-2.28,5.21-1.4,8.19,.18,.62,.04,1.33,.17,1.97,.68,3.28,1.13,6.66,4.01,8.99,.91,.74,1.83,1.55,2.48,2.51,1.53,2.3,4.04,3.05,6.32,4.02,2.28,.97,4.82,1.29,7.13,2.18,5.16,1.99,10.22,1.43,15.27-.3,1.8-.61,1.94-.97,1.67-2.84-.17-1.15-.42-2.42-.09-3.47,1.1-3.54,.52-7.29,1.85-10.89,1.28-3.45,1.56-7.31,1.96-11.02,.25-2.26,1.69-3.87,2.43-5.83,.51-1.33,.88-2.72,1.44-4.03,.67-1.54,1.49-3.02,2.21-4.46Zm60.67,14.39c-3.04-1.07-4.66,1.07-6.4,2.83-.82,.82-2.18,1.35-1.9,2.92,.2,1.09-.31,1.78-1.13,2.49-.46,.4-.63,1.24-.75,1.91-.15,.88-.02,1.82-.21,2.69-.43,1.94-1.03,3.84-1.47,5.78-.22,.99-.32,2.03-.34,3.04-.05,2.4-.02,4.8-.02,7.19,0,.2-.07,.41-.07,.61,.02,2.11,.04,4.22,.08,6.33,0,.19,.17,.37,.21,.57,.41,1.73,.76,3.48,1.22,5.2,.19,.7,.53,1.38,.9,2.02,.38,.66,.93,1.21,1.31,1.87,1.7,2.95,5.45,4.73,8.8,4.25,1.53-.22,3.11-.12,4.65-.35,2.14-.32,4.34-.39,6.23-1.83,1.06-.81,2.39-1.39,3.69-1.71,1.71-.41,4.8-2.94,4.92-4.73,.19-2.84,2.15-5.44,1.12-8.44-.09-.25,.16-.6,.15-.9-.02-1.62,.14-3.28-.15-4.86-.57-3.08-1.29-6.14-2.19-9.13-.5-1.67-1.42-3.24-2.28-4.78-.81-1.47-2.55-2.45-2.27-4.49,.03-.21-.13-.53-.31-.68-1.84-1.56-2.78-3.99-5.29-4.95-2.82-1.08-4.96-4.04-8.51-2.86Zm-32.99,40.15c.11,.19,.21,.38,.32,.57-1.49,1.8-2.96,3.6-4.46,5.38-.76,.89-1.04,1.83-.13,2.72,.92,.9,1.88,.66,2.66-.26,1.32-1.56,2.6-3.15,3.91-4.71,.25-.3,.55-.74,.86-.78,1.76-.22,2.78-1.49,3.79-2.68,.41-.49,.64-1.46,.44-2.03-.17-.48-1.1-1.01-1.65-.97-1.32,.08-2.58,.3-3.73-.61-.18-.14-.5-.16-.75-.13-3.8,.5-7.59,.98-11.38,1.54-1.13,.17-1.87,.9-1.63,2.16,.22,1.16,1.24,1.5,2.7,1.24,3.01-.54,6.03-.96,9.05-1.44Zm74.46-15.71c1.02-.45,2.02-.89,3.02-1.35,1.04-.47,2.07-1,3.13-1.42,.8-.31,1.79-.31,2.45-.78,.54-.39,1.09-1.34,.98-1.92-.11-.55-1.02-1.03-1.67-1.34-.34-.16-.88,.12-1.33,.21-2.26,.46-4.21,1.68-6.3,2.5-2.71,1.07-4.37,2.92-5.8,5.17-.82,1.29,.04,2.82,1.52,2.61,3.28-.46,5.97,.94,8.68,2.36,1.1,.58,2.14,.91,2.96-.31,.66-.97,.17-2.12-1.26-2.82-2.09-1.02-4.23-1.95-6.39-2.93Zm-14.44,34.16c-.6,.07-1.72,.05-2.71,.38-.55,.18-1.21,.91-1.26,1.44-.05,.56,.56,1.67,.91,1.68,2.3,.1,4.7,.66,6.87-.49,1.21-.63,2.52-1.35,3.32-2.39,1.24-1.61,2.1-3.52,3.08-5.33,.13-.24,.05-.61,0-.91-.18-1.21-.39-2.41-.59-3.62-.22-1.33-1.08-2.1-2.18-1.84-1.28,.31-1.59,1.16-1.38,2.45,.26,1.68,.95,3.49-.68,4.94-.1,.09-.12,.28-.17,.42-.62,1.62-3.04,3.28-5.22,3.25Zm-78.51,13.9c1.03-.08,1.89-.34,2.04-1.62,.14-1.21,.3-2.43,.58-3.62,.51-2.23,.42-4.72,2.65-6.27,.33-.23,.33-.93,.48-1.41-.6-.17-1.36-.65-1.78-.44-1.68,.83-3.38,1.76-3.79,3.89-.5,2.6-1.04,5.2-1.54,7.8-.2,1.05,.15,1.72,1.37,1.66Zm131.79-33.79c-.29-.95-.35-2.09-.92-2.83-1.4-1.79-2.98-3.46-4.62-5.04-.96-.92-2.56-.71-3.13,.27-.73,1.25,.54,1.56,1.16,2.09,2.12,1.84,4.15,3.71,3.88,6.9-.08,.91,.43,1.28,1.31,1.29,1.55,.02,2.06-.6,2.32-2.68Zm-118.54,29.62c0-.06,0-.21-.04-.36-.49-2.28-.9-4.57-1.53-6.81-.13-.45-1.12-.98-1.63-.9-.6,.09-1.48,.75-1.56,1.27-.17,1.07-.13,2.31,.26,3.3,.69,1.76,1.21,3.42,.63,5.32-.25,.82-.08,1.87,.97,1.86,.77,0,1.76-.51,2.23-1.12,.48-.62,.45-1.63,.67-2.57Zm97.66-32.07c-2.49-.29-3.24-.03-3.83,2-.81,2.77-.07,5.46,1.3,7.89,.21,.37,1.72,.1,2.58-.09,.22-.05,.45-.99,.34-1.43-.73-2.73-1.81-5.43-.38-8.37Zm-91.14,32.92c.71-.26,2.02-.36,2.5-1.04,.45-.63,.14-1.92-.08-2.87-.25-1.11-.84-2.15-1.15-3.25-.6-2.14-2.19-2.98-3.99-1.98-.28,.15-.64,.66-.56,.87,.49,1.42,1.08,2.79,1.64,4.19,.48,1.2,.96,2.39,1.64,4.09Zm100.77-28.44c-.88-2.35-1.56-4.48-2.51-6.49-.2-.42-1.43-.62-2.07-.46-.49,.12-1.24,1.07-1.14,1.46,.54,2.11,1.23,4.19,2.08,6.2,.18,.43,1.29,.75,1.89,.65,.59-.1,1.07-.8,1.75-1.36Z" fill="#beb3b4"/>
      <path d="M157.28,42.48c-.1-2.14-.25-4.29-.28-6.43-.01-1.04,.08-2.11,.33-3.12,.52-2.12,1.01-4.28,1.83-6.29,.5-1.24,2.01-2.13,2.31-3.36,.34-1.41,.51-2.66,1.93-3.37,.25-.13,.49-.41,.6-.68,1.19-2.88,3.49-4.65,6.07-6.16,.41-.24,.7-.72,.96-1.15,.95-1.53,2.25-2.46,3.95-3.17,1.95-.81,3.66-2.2,5.55-3.19,2.15-1.12,4.34-2.21,6.61-3.05,1.85-.69,3.83-1.03,5.76-1.48,.49-.12,1.01-.09,1.52-.12,3.19-.22,6.39-.44,9.58-.67,.13,0,.25-.15,.38-.23,.62,0,1.23,0,1.85,0,.62,.21,1.23,.58,1.85,.58,1.41,.01,2.77-.02,3.84,1.12,.12,.13,.4,.21,.57,.17,2.5-.55,4.38,1.04,6.48,1.86,.47,.19,.97,.31,1.46,.45,.25,.07,.55,.03,.74,.17,1.81,1.28,3.6,2.58,5.39,3.89,.6,.44,1.21,.89,1.75,1.4,1.09,1.02,2.19,2.05,3.2,3.16,.64,.7,1.01,1.65,1.67,2.32,4.27,4.3,6.76,9.65,8.93,15.18,.49,1.26,.97,2.52,1.44,3.79,.1,.28,.26,.63,.19,.88-.59,1.96,.4,3.7,.74,5.53,.03,.15,.18,.34,.13,.43-1.27,2.37,.57,4.86-.21,7.19-.72,2.13-1.67,4.2-2.62,6.24-.69,1.48-1.52,2.9-2.34,4.31-1.34,2.3-3.56,2.84-6.02,2.96-1.15,.06-2.3,.35-3.5,.78,1.75,1.25,1.17,3.03,1.5,4.51,.24,1.08,.57,2.34,.24,3.31-.45,1.31-1.47,2.44-2.3,3.6-.19,.26-.72,.28-.9,.55-2.75,3.93-6.58,2.51-10.21,2.11-.05,0-.1,0-.15,0-.05,.08-.16,.19-.14,.25,1.08,3.23-.35,5.9-2.52,7.87-1.65,1.49-4.06,2.14-6.13,3.16-.09-.29-.09-.71-.29-.85-2.33-1.6-2.33-4.65-4.15-6.57-1.79-1.88-3.52-3.83-5.19-5.82-.6-.71-.96-1.63-1.45-2.44-.39-.64-.82-1.26-1.23-1.88,1.51-.33,3.06-.51,4.51-1.02,1.56-.54,2.96-1.6,4.53-2.02,1.86-.49,3.24-1.29,4.06-3.09,.28-.61,.86-1.12,1.38-1.59,1.54-1.37,3.53-2.21,4.56-4.19,.65-1.25,1.59-2.35,2.36-3.54,.21-.32,.47-.81,.37-1.1-.44-1.21,.26-1.89,.93-2.7,.46-.55,.72-1.3,.98-2,.21-.57,.35-1.18,.43-1.78,.15-1.18,.24-2.38,.33-3.57,.03-.45,0-.91-.02-1.36-.05-1,.1-2.08-.23-2.98-.66-1.8-1.51-3.55-2.4-5.24-1.17-2.21-1.87-4.84-4.71-5.7-.25-.08-.48-.39-.63-.64-.66-1.19-1.5-1.98-3-2.01-.51,0-.97-.71-1.51-.96-2.09-.99-4.21-1.93-6.32-2.89-.09-.04-.2,0-.31,0-1.16-.12-2.33-.34-3.49-.35-1.61-.02-3.22,.02-4.82,.18-1.4,.14-2.79,.69-4.17,.63-.92-.04-1.51,.06-2.17,.67-.49,.45-1.14,.79-1.77,1.01-1.09,.38-2.34,.4-3.31,.96-2.33,1.35-4.56,2.88-6.77,4.44-.78,.55-1.62,1.26-2,2.09-2.13,4.68-5.13,9.14-4.23,14.69-.84-.3-1.66-.67-2.52-.89-1.41-.37-2.85-.65-4.27-.96-.25-.05-.51-.03-.75-.12-1.58-.57-3.16-1.15-4.74-1.73Z" fill="#ada3a3"/>
      <path d="M0,84.03C1.31,86.08,1.16,88.14,0,90.19v-6.16Z" fill="#fff"/>
      <path d="M120.34,179.46c3.75-.58,7.5-1.18,11.26-1.74,.7-.11,1.44-.01,2.14-.12,1.5-.22,2.98-.53,4.48-.75,.65-.09,1.31-.02,1.97-.08,1.44-.13,2.9-.2,4.31-.49,2.58-.51,5.13-1.17,7.7-1.75,.49-.11,1.13,.02,1.48-.25,2.26-1.76,5.11-1.61,7.64-2.48,.86-.3,1.7-.62,2.55-.94,.24-.09,.48-.33,.68-.3,2.87,.43,5.23-1.16,7.81-1.89,.47,2.48,.94,4.96,1.41,7.43,.13,.7,.16,1.43,.42,2.08,1.09,2.7,1.45,5.5,1.27,8.38,.51,3.52,1,7.05,1.55,10.57,.23,1.5,.95,3.01,.83,4.47-.25,2.9-.13,5.69,.23,8.6,.37,3-.45,6.14-.74,9.22-.05,.51-.04,1.02-.07,1.53-.09,1.78-.2,3.57-.26,5.35-.02,.66,.05,1.32,.11,1.98,.03,.3,.3,.7,.19,.88-1.3,1.94-.5,4.27-1.21,6.32-.17,.47-.32,.97-.37,1.47-.17,1.99-.3,3.99-.45,6.04,.33-.11,.97-.31,1.6-.52,2.22-.74,5.29,.2,6.77,2.01,.44,.54,.98,1.04,1.56,1.42,1.58,1.04,2.28,2.61,2.58,4.36,.24,1.38-1.77,4.05-3.17,4.24-.48,.07-1.03-.3-1.54-.5-.97-.38-1.94-.78-2.91-1.17-.95,2.51-3.2,4-5.53,3.84-.28-.02-.58-.19-.82-.36-.77-.56-1.51-1.17-2.28-1.72-.74-.53-1.5-1.03-2.23-1.52-.84,1.08-1.63,2.14-2.47,3.15-.67,.81-1.41,.78-2.45,.45-2.87-.9-4.54-2.44-4.35-5.69,.11-2.01-.18-4.04-.28-6.06-.02-.36,.17-.84,0-1.06-1.78-2.17-.61-4.69-.92-7.03-.01-.1-.08-.18-.16-.35-.2-.02-.5-.15-.68-.05-2.8,1.49-5.77,.23-8.66,.54-2.52,.27-5.09,.13-7.63,.01-.93-.04-1.85-.53-2.77-.8-1.05-.3-1.82-.12-1.94,1.16-.14,1.5-.29,2.99-.44,4.49-.02,.15-.02,.31-.08,.45-1.58,3.45-1.27,7.19-1.59,10.81-.31,3.58-4.18,6.06-7.41,4.58-1.5-.69-2.58-.45-3.7,.82-1.92,2.18-4.59,1.91-6.07-.62-.49-.84-.97-1.68-1.57-2.71-.34,.52-.61,.97-.9,1.4-1.21,1.74-4.61,2.39-6.19,1.1-.47-.38-.76-1.04-.99-1.62-.25-.66-.62-1.47-.43-2.06,.73-2.27-.52-5.03,1.61-6.89,.78-.68,1.82-1.14,2.81-1.5,2.15-.79,4.39-1.01,6.82-.54-.18-.63-.34-1.25-.53-1.87-.12-.39-.46-.79-.41-1.14,.53-3.15-1.52-5.77-1.77-8.77-.17-1.96-.8-3.88-.93-5.84-.14-2.09,.06-4.2,.1-6.31,0-.51-.11-1.01-.08-1.52,.07-1.15,.2-2.3,.3-3.44,.04-.5,.21-1.03,.08-1.49-.77-2.79-.77-5.54,.13-8.3,.09-.29,.18-.6,.17-.9-.02-1.6-.19-3.21-.09-4.8,.1-1.5,.34-3.02,.78-4.46,.46-1.51,.68-2.97,.76-4.57,.12-2.27,1.03-4.5,1.54-6.76,.17-.74,.14-1.52,.2-2.28,.42-1.05,.83-2.1,1.25-3.15Zm36.03,13.72c.13,0,.26-.02,.39-.02-.12-.55-.12-1.15-.36-1.63-1.12-2.16-2.24-4.34-3.5-6.41-.82-1.35-3.11-2.76-4.48-3.5-3.25-1.75-6.16-1.47-8.8,1.12-.94,.92-1.89,1.85-2.74,2.86-1.54,1.83-3.13,3.65-3.25,6.24-.04,.96,.09,2.08-.35,2.84-.79,1.35-.96,2.65-.59,4.08,1.12,4.37,2.42,8.62,7.11,10.6,.36,.15,.61,.54,.95,.77,.37,.26,.79,.67,1.18,.66,2.68-.06,5.45,.76,7.98-.97,.98-.67,2.22-.96,3.32-1.48,.4-.19,.88-.47,1.05-.84,.76-1.61,1.84-3.22,2.01-4.91,.32-3.11,.09-6.27,.09-9.41Z" fill="#aca3a3"/>
      <path d="M120.34,179.46c-.42,1.05-.83,2.1-1.25,3.15-1.27,2.81-2.52,5.63-3.81,8.43-.19,.41-.48,.78-.75,1.15-.21,.29-.55,.53-.65,.85-.56,1.94-1.06,3.89-1.58,5.83-.15,.58-.11,1.29-.43,1.75-1.63,2.31-2.1,4.93-2.36,7.65-.08,.82-.5,1.61-.76,2.41,1.62,.27,3.03,2.07,3.24,4.15,.18,1.8-.87,3.45-2.89,3.99-1.48,.4-2.31,1.29-2.9,2.56-.37,.8-.67,1.63-1.02,2.43-.08,.18-.22,.38-.38,.47-.91,.54-1.83,1.06-2.75,1.58-3,1.69-6.16,2.45-9.32,.72-2.94-1.61-5.51-3.76-6.9-6.97-.15-.34-.11-.78-.11-1.17-.02-2.25-.04-4.49-.04-6.74,0-.65-.07-1.34,.12-1.94,.77-2.46,1.64-4.9,2.46-7.35,.1-.29,.06-.68,.24-.87,2.55-2.8,3.32-6.7,5.89-9.5,.65-.7,.98-1.69,1.6-2.42,1.04-1.21,2.21-2.32,3.32-3.48,.37-.39,.74-.8,1.05-1.24,.66-.93,1.27-1.9,1.91-2.84,.65-.97,1.31-1.93,1.97-2.9,.79-.59,1.57-.57,2.54-.3,1.68,.46,3.35,.78,5.18,.07,1.18-.46,2.67-.2,4.01-.09,1.46,.11,2.9,.42,4.34,.65Z" fill="#a19797"/>
      <path d="M175.45,186.57c.18-2.88-.18-5.68-1.27-8.38-.26-.64-.28-1.38-.42-2.08-.47-2.48-.94-4.96-1.41-7.43,1.08-.71,2.14-1.46,3.25-2.12,.41-.24,.94-.26,1.42-.38,.13,.08,.26,.23,.39,.24,2.39,.17,3.82,1.94,5.45,3.33,1.02,.87,2.13,.33,3.18,.5,3.16,.52,5.89-.93,8.78-1.63,1.48-.36,2.92-.95,4.32-1.56,.4-.18,.81-.81,.83-1.25,.07-1.11-.1-2.24-.14-3.36-.03-.82-.14-1.66,0-2.45,.49-2.55,2.68-3.74,5.45-2.92,1.26,.37,2.45,.99,3.67,1.49-.29,.7-.59,1.4-.86,2.11-1.1,2.96-.96,3.49,1.45,5.53,.12,.1,.25,.17,.32,.22-.55,2.68,0,3.72,2.42,4.71-.07,.18-.13,.37-.21,.55-.93,2.02,1.13,5.88,3.32,6.13,.4,.05,.84-.28,1.27-.41,.85-.25,1.71-.48,2.57-.72-.85,.62-1.68,1.28-2.55,1.86-1.83,1.2-3.67,2.39-5.53,3.53-1.81,1.11-3.66,2.16-5.48,3.24-.26,.15-.57,.29-.75,.52-1.79,2.42-4.34,3.4-7.17,3.97-1.75,.35-3.43,1.16-5.18,1.3-1.39,.11-2.83-.5-4.25-.78-.8-.16-1.62-.5-2.41-.45-2.61,.18-4.72-1.04-6.92-2.13-1.11-.55-2.37-.79-3.56-1.18Z" fill="#a19797"/>
      <path d="M219.25,176.7c-.86,.24-1.72,.47-2.57,.72-.43,.13-.87,.45-1.27,.41-2.19-.25-4.26-4.12-3.32-6.13,.08-.18,.14-.37,.21-.55-2.43-.99-2.97-2.03-2.42-4.71-.07-.05-.2-.13-.32-.22-2.41-2.04-2.56-2.57-1.45-5.53,.27-.71,.57-1.41,.86-2.11,2.62-1.09,5.24-2.18,7.86-3.26,.18-.08,.44-.2,.57-.13,1.58,.81,3.56,1.3,4.6,2.57,1.38,1.68,2.27,3.9,2.88,6.03,.44,1.53,.44,3.39,.04,4.94-.87,3.3-1.57,6.9-5.66,7.99Z" fill="#c2b7b8"/>
      <path d="M169.57,46.17c-.9-5.56,2.1-10.01,4.23-14.69,.38-.83,1.22-1.54,2-2.09,2.21-1.55,4.44-3.08,6.77-4.44,.96-.56,2.22-.58,3.31-.96,.64-.22,1.28-.56,1.77-1.01,.66-.61,1.25-.71,2.17-.67,1.38,.06,2.77-.49,4.17-.63,1.6-.16,3.21-.2,4.82-.18,1.17,.02,2.33,.23,3.49,.35,.1,.01,.22-.03,.31,0,2.11,.95,4.23,1.89,6.32,2.89,.54,.26,1,.96,1.51,.96,1.5,.03,2.34,.82,3,2.01,.14,.26,.37,.57,.63,.64,2.84,.86,3.54,3.49,4.71,5.7,.9,1.7,1.75,3.44,2.4,5.24,.33,.9,.18,1.98,.23,2.98,.02,.45,.05,.91,.02,1.36-.09,1.19-.19,2.38-.33,3.57-.08,.6-.21,1.21-.43,1.78-.26,.69-.51,1.44-.98,2-.68,.81-1.38,1.49-.93,2.7,.1,.29-.16,.77-.37,1.1-.77,1.19-1.71,2.29-2.36,3.54-1.03,1.98-3.02,2.82-4.56,4.19-.52,.46-1.1,.97-1.38,1.59-.82,1.79-2.19,2.59-4.06,3.09-1.58,.42-2.98,1.48-4.53,2.02-1.45,.5-3,.69-4.51,1.02-1.06-1.13-2.14-2.23-3.17-3.38-1.28-1.43-2.54-2.87-3.75-4.35-.74-.9-1.46-1.84-2.04-2.85-1.35-2.34-3.3-3.97-5.72-5.09-.19-.09-.48-.14-.53-.28-.98-2.8-4.41-2.16-6-4.31-.72-.96-2.5-1.21-3.85-1.58-1.23-.34-2.22-.75-2.35-2.19Z" fill="#eaaaab"/>
      <path d="M68.85,70.12c-.72,1.45-1.54,2.92-2.21,4.46-.57,1.3-.94,2.69-1.44,4.03-.74,1.96-2.18,3.56-2.43,5.83-.4,3.71-.68,7.57-1.96,11.02-1.33,3.6-.75,7.34-1.85,10.89-.33,1.05-.07,2.32,.09,3.47,.27,1.87,.13,2.23-1.67,2.84-5.06,1.72-10.11,2.28-15.27,.3-2.32-.89-4.86-1.21-7.13-2.18-2.29-.97-4.79-1.72-6.32-4.02-.64-.96-1.57-1.77-2.48-2.51-2.87-2.33-3.32-5.71-4.01-8.99-.13-.64,0-1.35-.17-1.97-.88-2.97,0-5.61,1.4-8.19,.3-.56,.39-1.24,.63-1.84,.37-.91,.78-1.81,1.19-2.71,.2-.45,.66-.92,.61-1.32-.21-1.54,.61-2.46,1.63-3.4,1.46-1.35,2.84-2.78,4.2-4.23,.84-.89,1.67-1.6,3.02-1.48,.38,.04,.97-.26,1.19-.59,1.86-2.81,4.87-2.32,7.56-2.68,1.2-.16,2.43-.03,3.64-.09,3-.17,6.03-.72,8.98-.43,1.96,.19,3.82,1.31,5.97,.93,.55-.1,1.22,.45,1.83,.71,1.53,.65,3.05,1.32,5.02,2.17Z" fill="#eaaaab"/>
      <path d="M129.52,84.51c3.55-1.18,5.69,1.78,8.51,2.86,2.5,.96,3.45,3.39,5.29,4.95,.18,.15,.34,.47,.31,.68-.29,2.04,1.45,3.02,2.27,4.49,.86,1.54,1.78,3.11,2.28,4.78,.9,3,1.61,6.06,2.19,9.13,.29,1.57,.13,3.23,.15,4.86,0,.3-.24,.65-.15,.9,1.03,3-.92,5.6-1.12,8.44-.12,1.79-3.2,4.32-4.92,4.73-1.3,.31-2.63,.9-3.69,1.71-1.89,1.44-4.09,1.51-6.23,1.83-1.53,.23-3.11,.13-4.65,.35-3.35,.48-7.11-1.3-8.8-4.25-.38-.66-.93-1.21-1.31-1.87-.37-.64-.71-1.31-.9-2.02-.46-1.72-.81-3.47-1.22-5.2-.05-.2-.21-.38-.21-.57-.04-2.11-.06-4.22-.08-6.33,0-.2,.07-.41,.07-.61,0-2.4-.03-4.8,.02-7.19,.02-1.02,.12-2.05,.34-3.04,.44-1.94,1.04-3.84,1.47-5.78,.19-.87,.05-1.81,.21-2.69,.12-.67,.29-1.51,.75-1.91,.81-.71,1.32-1.4,1.13-2.49-.28-1.57,1.08-2.09,1.9-2.92,1.75-1.76,3.36-3.91,6.4-2.83Z" fill="#353636"/>
      <path d="M98.15,48.32c-1.02-2.8,.86-5.22,1.03-7.87,.01-.22,.23-.51,.43-.6,1.75-.8,3.5-1.6,5.28-2.31,1.23-.49,2.49-.89,3.77-1.24,1.91-.53,3.69-.46,5.28,1.03,.58,.54,1.53,.68,2.47,1.07,.22-2.01,.38-3.78,.63-5.53,.21-1.46,.46-2.93,.83-4.36,.35-1.36,1.08-2.56,.84-4.12-.12-.77,.63-1.67,.99-2.51,.21-.13,.42-.26,.63-.39,.63,.33,1.26,.67,1.89,1-.73,1.04-1.56,2.04-1.05,3.48,.09,.25,0,.63-.14,.89-1.72,3.22-1.8,6.81-2.04,10.29-.13,1.85,.65,3.76,1.02,5.64-.1,.93-.13,1.87-.3,2.79-.3,1.6-1.64,2.4-2.79,3.3-1.43,1.12-2.87,2.24-4.43,3.17-.63,.38-1.57,.23-2.37,.33-.5,.06-1.07-.03-1.49,.19-4.45,2.3-9.16-.83-10.48-4.24Z" fill="#366334"/>
      <path d="M96.53,124.67c-3.02,.47-6.04,.9-9.05,1.44-1.46,.26-2.48-.08-2.7-1.24-.24-1.26,.5-1.99,1.63-2.16,3.79-.57,7.58-1.05,11.38-1.54,.24-.03,.57-.01,.75,.13,1.15,.91,2.41,.69,3.73,.61,.56-.03,1.49,.49,1.65,.97,.2,.57-.03,1.55-.44,2.03-1,1.19-2.03,2.46-3.79,2.68-.32,.04-.61,.48-.86,.78-1.31,1.56-2.59,3.16-3.91,4.71-.78,.92-1.74,1.16-2.66,.26-.91-.89-.62-1.83,.13-2.72,1.5-1.78,2.98-3.59,4.46-5.38-.11-.19-.21-.38-.32-.57Z" fill="#120f0f"/>
      <path d="M171,108.95c2.16,.98,4.3,1.91,6.39,2.93,1.42,.7,1.92,1.84,1.26,2.82-.82,1.22-1.86,.88-2.96,.31-2.71-1.42-5.4-2.82-8.68-2.36-1.48,.21-2.33-1.33-1.52-2.61,1.43-2.25,3.08-4.1,5.8-5.17,2.09-.82,4.04-2.05,6.3-2.5,.45-.09,1-.37,1.33-.21,.65,.31,1.56,.79,1.67,1.34,.11,.58-.44,1.53-.98,1.92-.66,.47-1.65,.47-2.45,.78-1.07,.42-2.09,.95-3.13,1.42-1,.45-2.01,.89-3.02,1.35Z" fill="#110d0d"/>
      <path d="M156.55,143.12c2.18,.03,4.6-1.63,5.22-3.25,.05-.14,.07-.33,.17-.42,1.63-1.45,.94-3.26,.68-4.94-.2-1.3,.11-2.15,1.38-2.45,1.1-.26,1.95,.51,2.18,1.84,.2,1.2,.41,2.41,.59,3.62,.05,.3,.12,.67,0,.91-.98,1.81-1.84,3.72-3.08,5.33-.8,1.04-2.12,1.76-3.32,2.39-2.18,1.15-4.57,.58-6.87,.49-.35-.01-.96-1.13-.91-1.68,.05-.53,.71-1.27,1.26-1.44,1-.32,2.11-.31,2.71-.38Z" fill="#131010"/>
      <path d="M78.05,157.02c-1.21,.06-1.57-.61-1.37-1.66,.5-2.6,1.04-5.2,1.54-7.8,.41-2.13,2.11-3.06,3.79-3.89,.42-.21,1.18,.28,1.78,.44-.15,.48-.15,1.18-.48,1.41-2.22,1.55-2.14,4.03-2.65,6.27-.27,1.19-.44,2.41-.58,3.62-.14,1.27-1,1.53-2.04,1.62Z" fill="#e96969"/>
      <path d="M209.84,123.23c-.25,2.08-.77,2.7-2.32,2.68-.88-.01-1.39-.38-1.31-1.29,.27-3.19-1.76-5.05-3.88-6.9-.62-.54-1.89-.84-1.16-2.09,.57-.97,2.17-1.19,3.13-.27,1.64,1.58,3.21,3.25,4.62,5.04,.57,.73,.63,1.87,.92,2.83Z" fill="#e96868"/>
      <path d="M91.3,152.85c-.21,.93-.18,1.95-.67,2.57-.47,.61-1.46,1.11-2.23,1.12-1.04,.01-1.22-1.04-.97-1.86,.58-1.9,.05-3.56-.63-5.32-.39-1-.43-2.23-.26-3.3,.08-.52,.96-1.17,1.56-1.27,.51-.08,1.5,.45,1.63,.9,.63,2.24,1.04,4.53,1.53,6.81,.03,.15,.03,.3,.04,.36Z" fill="#e96868"/>
      <path d="M188.96,120.78c-1.42,2.94-.34,5.63,.38,8.37,.12,.44-.12,1.38-.34,1.43-.86,.19-2.37,.45-2.58,.09-1.37-2.43-2.12-5.12-1.3-7.89,.59-2.02,1.34-2.29,3.83-2Z" fill="#e96969"/>
      <path d="M97.81,153.7c-.68-1.7-1.16-2.9-1.64-4.09-.56-1.39-1.15-2.77-1.64-4.19-.07-.21,.29-.72,.56-.87,1.8-1,3.39-.15,3.99,1.98,.31,1.11,.89,2.14,1.15,3.25,.22,.95,.53,2.23,.08,2.87-.48,.68-1.79,.78-2.5,1.04Z" fill="#e96969"/>
      <path d="M198.58,125.26c-.68,.56-1.16,1.26-1.75,1.36-.6,.1-1.71-.22-1.89-.65-.85-2-1.53-4.09-2.08-6.2-.1-.39,.64-1.34,1.14-1.46,.64-.16,1.88,.04,2.07,.46,.95,2.01,1.63,4.14,2.51,6.49Z" fill="#e96868"/>
      <path d="M122.22,22.49c-.63-.33-1.26-.67-1.89-1,.32-1.8,.64-3.59,.97-5.39,.09-2.48,2.99-5.42,5.51-5.66,.53-.05,1.18-.2,1.54-.54,1.05-1,2.31-1.24,3.56-.87,2.53,.75,5.44,.52,7.29,2.43-.61,6.43-4.82,9.68-10.05,11.96-2.43,1.06-4.79,.71-6.92-.93Z" fill="#6da859"/>
      <path d="M121.3,16.1c-.32,1.8-.64,3.59-.97,5.39-.21,.13-.42,.26-.63,.39-1.18,.26-2.36,.73-3.55,.74-1.31,0-2.68-.25-3.91-.7-1.55-.56-2.95-1.55-4.5-2.14-1.46-.56-2.44-2.04-2.3-3.63,.06-.68-.24-1.45-.56-2.08-1.08-2.08-1.5-4.23-1.24-6.18,3.06,.57,6.03,.82,8.77,1.73,2.57,.86,5.25,1.86,6.83,4.46,.48,.79,1.35,1.35,2.04,2.02Z" fill="#78bf66"/>
      <path d="M156.37,193.18c0,3.14,.23,6.31-.09,9.41-.18,1.69-1.26,3.3-2.01,4.91-.17,.37-.65,.65-1.05,.84-1.1,.52-2.33,.81-3.32,1.48-2.53,1.72-5.3,.91-7.98,.97-.39,0-.8-.4-1.18-.66-.34-.23-.59-.61-.95-.77-4.69-1.99-5.99-6.24-7.11-10.6-.37-1.43-.2-2.73,.59-4.08,.44-.76,.31-1.88,.35-2.84,.12-2.59,1.71-4.41,3.25-6.24,.85-1.01,1.8-1.94,2.74-2.86,2.64-2.59,5.56-2.88,8.8-1.12,1.37,.74,3.66,2.15,4.48,3.5,1.27,2.08,2.38,4.25,3.5,6.41,.25,.48,.25,1.08,.36,1.63-.13,0-.26,.02-.39,.02Z" fill="#dacccc"/>
    </g>
  </g>
</svg>