<?xml version="1.0" encoding="UTF-8"?>
<svg id="Layer_2" data-name="Layer 2" xmlns="http://www.w3.org/2000/svg" viewBox="0 0 201.96 190.26">
  <g id="Layer_2-2" data-name="Layer 2">
    <g>
      <path d="M201.96,68.43v18.03c-1.13-3.27-3.48-5.11-6.83-5.57-4.13-.56-7.87,.62-11.2,3.04-1.31,.95-2.48,2.1-3.86,3.28,1.37,.4,2.39,.67,3.38,1,3.92,1.29,7.81,2.66,11.75,3.85,1.1,.33,2.4,.38,3.54,.18,1.76-.32,2.48-1.9,3.23-3.35v101.36H0V0H201.96V66.48c-.55-1.52-1.13-3.01-2.56-3.98-3.56-2.42-7.12-2.01-10.62,.03-4.63,2.69-7.07,6.99-8.48,11.97-.44,1.54-.59,3.16-.88,4.79,1.37-.54,2.44-1.01,3.53-1.38,4.56-1.54,9.11-3.08,13.69-4.57,2.54-.83,4.63-2.09,5.33-4.91ZM.98,54.05c-.24,2.52-.48,5.04-.72,7.56-.15,3.72,.31,7.36,1.2,10.96,.76,3.93,2.18,7.63,3.96,11.2,1.57,2.45,3.13,4.91,4.7,7.36,1.48,1.85,3.31,3.21,5.66,3.7,3.06,.64,5.03-1.31,7-3.24,.14,.28,.22,.43,.28,.57,2.01,4.81,6.83,5.71,10.52,1.97,1.17-1.19,1.61-1.23,3.2-.47,.72,.34,1.47,.75,2.24,.82,1.28,.12,2.59,0,3.89-.02,0,.25,0,.5,.01,.76-.07,1.01-.19,2.01-.19,3.02,0,3.14,.05,6.28,.07,9.42,0,4.34,1.26,8.25,3.88,11.71,1.41,2.31,3.29,4.2,5.43,5.82,1.64,1.24,3.4,2.32,5.1,3.47,3.81,2.36,8,3.83,12.2,5.27,.26,.09,.52,.23,.79,.28,3.97,.66,7.94,1.3,11.91,1.95-1.45,.68-2.89,1.38-4.35,2.03-1.32,.58-2.66,1.11-4,1.66-1.15,.48-2.27,1.08-3.46,1.41-2.45,.67-4.93,1.13-7.49,1.35-1.65,.14-2.52-.02-3.54-1.37-1.36-1.79-3.7-1.47-4.59,.65-.58,1.37-1.09,2.29-2.66,2.33-.19,0-.37,.28-.55,.44-.46,.39-.87,.92-1.4,1.16-2.13,.95-2.98,2.95-3.21,4.87-.23,1.92,.44,3.95,.75,5.93,.03,.2,.32,.36,.49,.53,.85,.84,1.8,1.59,2.52,2.53,.79,1.04,3.25,2.27,4.52,2.05,2.36-.4,4.83,.03,7.13-.92,.65-.27,1.36-.41,2.03-.65,.66-.24,1.28-.65,1.96-.8,1.53-.34,3.07-.56,4.26-1.78,.58-.59,1.34-1.08,2.1-1.42,2.45-1.11,4.71-2.48,6.77-4.21,.98-.82,2.16-1.42,3.32-2.17-.27,2.27-1.11,4.21-1.44,6.33-.3,1.94-.26,3.95-.82,5.91-.73,2.54-.94,5.19-.59,7.92,.2,1.59,.58,2.96,1.41,4.29,.73,1.15,1.32,2.39,1.99,3.58,.15,.27,.31,.59,.55,.76,1.12,.79,2.21,1.66,3.43,2.26,1.39,.69,2.95,1.04,4.36,1.71,1.73,.82,3.43,1.49,5.42,1.44,2.93-.08,5.8-1.54,8.78-.38,.12,.05,.31-.11,.47-.09,2.18,.15,4.32,.48,6.36,1.79-1.38,.74-1.69,1.91-1.23,3.06,.46,1.14,1.62,1.49,2.84,1.47,.16,0,.32,.05,.48,.08,2.18,.41,4.15-.45,5.35-2.27,.21-.32,.55-.59,.89-.8,.9-.54,2.01-.86,2.7-1.58,1.62-1.69,3.6-1.75,5.63-1.48,.86,.12,1.22-.11,1.67-.74,.27-.38,.88-.79,1.3-.75,2.42,.21,4.16-1.1,4.37-3.52,.45,.13,.89,.25,1.4,.39-.21,.28-.34,.43-.46,.59-.73,1.01-.37,2,.06,2.99,.4,.92,1.19,.94,2.04,.93,1.72-.02,3.09-.4,4.55-1.65,2.12-1.82,4.42-3.54,7.67-3.56,1.96-.01,3.96-1.18,5.87-2,1.26-.53,2.5-1.22,3.53-2.1,.66-.56,1.32-1.62,1.27-2.41-.13-1.87-1.75-3.03-3.7-3.09-.99-.03-1.99-.11-2.98-.15-.69-.03-1.43-.15-2.08,.02-1.4,.37-2.75,.89-4.19,1.38-.1-.56-.28-1.03-.26-1.5,.04-1.42-.32-2.64-1.08-3.88-.56-.92-.64-2.14-.97-3.22-.37-1.19-.98-2.19-2.21-2.72-.55-.23-1.07-.57-1.53-.95-1.61-1.3-3.17-2.67-5.42-2.7-.27,0-.53-.18-.8-.26-.75-.22-1.49-.53-2.26-.63-.68-.09-.85-.36-.93-.99-.2-1.63-.48-3.26-.77-4.88-.12-.66-.6-1.34-.5-1.95,.24-1.47-.27-2.71-.82-3.97-.23-.52-.43-1.04-.64-1.56,1.03,.44,2.08,.85,3.09,1.32,.81,.37,1.54,.97,2.38,1.21,3.56,1,7.18,1.83,10.55,3.43,.29,.14,.62,.2,.94,.24,1.01,.11,2.03,.12,3.02,.3,1.77,.33,3.51,.83,5.29,1.11,1.02,.16,2.09,.18,3.11,.03,1.3-.19,2.56-.84,3.85-.88,2.72-.08,4.61-1.66,5.9-3.61,.84-1.27,.98-3.28,.82-4.89-.28-2.78-1.34-5.27-3.97-6.88-1.15-.7-2.17-1.17-3.49-.84-.82,.21-1.5,.05-2.18-.57-.86-.78-1.83-1.5-2.86-2.02-.56-.29-1.4-.29-2.02-.12-1.14,.33-1.31,1.4-1.48,2.43-.06,.36-.33,.88-.61,.96-1.26,.36-2.53,.87-3.84-.05-.36-.26-1.01-.18-1.52-.15-1.43,.09-2.86,.33-4.29,.34-.87,0-1.74-.33-2.61-.47-2.1-.34-4.21-.66-6.31-.99,.79-.28,1.58-.57,2.38-.83,10.56-3.47,20.32-8.42,28.88-15.56,2.36-1.97,4.62-4.07,5.9-6.97,1.22-2.55,1.47-5.26,1.3-8.03-.06-3.92-.87-7.71-1.91-11.46-1.07-4.72-2.9-9.15-5.17-13.4-.38-.87-.76-1.75-1.15-2.62,1.94-.17,3.7-.83,5.22-2.05,1.81-1.45,2.62-3.4,2.53-5.65,1.13,.34,2.15,.79,3.2,.92,2.75,.34,5.1-.52,6.85-2.74,1.74-2.21,2.02-4.6,.84-7.16-.22-.47-.46-.94-.69-1.4,.08-.01,.16-.03,.24-.04,5.8,.54,10.45-2.66,11.95-8.24,1.59-4.38,1.81-8.86,.92-13.41-.58-3.59-1.68-7.01-3.37-10.23-1.39-2.34-2.72-4.72-4.21-7-.62-.95-1.56-1.69-2.35-2.53-1.86-2.2-4.04-3.99-6.58-5.36-1.14-.55-2.29-1.09-3.43-1.64-2.19-.74-4.38-1.48-6.57-2.22-1.3-.17-2.6-.33-3.9-.5-1.78,0-3.56-.14-5.33,0-8.04,.63-15.31,3.33-21.63,8.38-5.56,4.45-9.26,10.09-10.51,17.2-.13,1.13-.26,2.26-.39,3.39-.05,.18-.1,.35-.15,.53-7.53-2.98-15.4-3.59-23.39-3.47,0-.48-.04-.97,.03-1.44,.68-4.55,2.39-8.66,5.36-12.2,.19,.05,.41,.05,.58,.14,5.71,2.95,12.56-1.21,14.4-6.14-2-1.95-4.35-3.27-7.18-3.4-3.29-.15-5.79,1.42-7.77,4.16-.25-2.45-1.24-4.35-3.18-5.42-2.75-1.52-5.66-2.76-8.5-4.11-.05-.02-.14,.06-.45,.2,0,1.55,.04,3.2,0,4.86-.09,2.98,1.29,5.09,3.73,6.65,2.07,1.32,4.34,1.96,6.76,2.1-2.91,3.46-4.58,7.49-5.47,11.92-2.44-2.19-5.23-3.29-8.39-3.07-3.12,.21-5.77,1.44-7.03,4.55-.38,.94-.35,2.05-.51,3.08-7.97,1.65-15.92,3.39-23.05,7.59-.16-.38-.33-.76-.49-1.14-.73-1.15-1.46-2.3-2.19-3.45-.89-.83-1.78-1.66-2.67-2.49-2.81-1.59-5.48-3.5-8.44-4.71-6.92-2.83-14.26-3.1-21.64-2.83-5.78,.21-10.63,2.52-14.79,6.47-2.84,2.7-5.31,5.68-7.31,9.05-.45,.75-.82,1.55-1.23,2.33-.57,1.22-1.13,2.44-1.7,3.66-.42,1.14-.84,2.28-1.26,3.42-.46,1.87-.92,3.74-1.39,5.61Z" fill="#fff"/>
      <path d="M201.96,68.43c-.69,2.81-2.78,4.08-5.33,4.91-4.57,1.49-9.13,3.03-13.69,4.57-1.1,.37-2.16,.84-3.53,1.38,.29-1.63,.45-3.25,.88-4.79,1.41-4.98,3.85-9.28,8.48-11.97,3.5-2.03,7.07-2.44,10.62-.03,1.43,.97,2.01,2.45,2.56,3.98v1.95Z" fill="#7fd2ed"/>
      <path d="M201.96,88.9c-.75,1.44-1.47,3.03-3.23,3.35-1.14,.21-2.43,.16-3.54-.18-3.94-1.19-7.83-2.57-11.75-3.85-.99-.33-2-.59-3.38-1,1.38-1.18,2.55-2.33,3.86-3.28,3.33-2.43,7.08-3.6,11.2-3.04,3.35,.45,5.71,2.3,6.83,5.57v2.44Z" fill="#7fd2ed"/>
      <path d="M131.47,140.87c.21,.52,.42,1.05,.64,1.57,.56,1.27,1.06,2.5,.82,3.97-.1,.61,.38,1.29,.5,1.95,.29,1.62,.57,3.24,.77,4.88,.08,.63,.25,.91,.93,.99,.77,.1,1.51,.41,2.26,.63,.27,.08,.53,.26,.8,.26,2.25,.02,3.81,1.39,5.42,2.7,.46,.38,.98,.71,1.53,.95,1.23,.53,1.84,1.53,2.21,2.72,.33,1.07,.4,2.29,.97,3.22,.76,1.24,1.12,2.46,1.08,3.88-.01,.47,.16,.94,.26,1.5,1.43-.48,2.79-1.01,4.19-1.38,.65-.17,1.38-.04,2.08-.02,.99,.04,1.99,.12,2.98,.15,1.94,.06,3.57,1.22,3.7,3.09,.05,.79-.61,1.85-1.27,2.41-1.03,.88-2.28,1.56-3.53,2.1-1.91,.81-3.9,1.98-5.87,2-3.25,.02-5.55,1.74-7.67,3.56-1.46,1.26-2.83,1.63-4.55,1.65-.85,.01-1.64,0-2.04-.93-.43-.99-.8-1.98-.06-2.99,.12-.16,.24-.32,.46-.59-.51-.14-.94-.26-1.4-.39-.21,2.42-1.95,3.73-4.37,3.52-.42-.04-1.03,.37-1.3,.75-.45,.63-.81,.86-1.67,.74-2.03-.27-4-.2-5.63,1.48-.7,.72-1.81,1.04-2.7,1.58-.34,.2-.68,.47-.89,.8-1.2,1.83-3.17,2.68-5.35,2.27-.16-.03-.32-.08-.48-.08-1.22,.02-2.39-.33-2.84-1.47-.46-1.15-.15-2.33,1.23-3.06-2.04-1.31-4.17-1.64-6.36-1.79-.15-.01-.34,.14-.47,.09-2.98-1.16-5.85,.31-8.78,.38-1.99,.05-3.69-.62-5.42-1.44-1.41-.66-2.97-1.02-4.36-1.71-1.22-.6-2.31-1.47-3.43-2.26-.24-.17-.39-.49-.55-.76-.67-1.19-1.26-2.42-1.99-3.58-.84-1.33-1.21-2.7-1.41-4.29-.35-2.72-.14-5.38,.59-7.92,.56-1.95,.51-3.97,.82-5.91,.33-2.11,1.17-4.05,1.44-6.33-1.16,.75-2.34,1.34-3.32,2.17-2.07,1.73-4.33,3.1-6.77,4.21-.76,.35-1.51,.83-2.1,1.42-1.2,1.21-2.73,1.44-4.26,1.78-.68,.15-1.3,.56-1.96,.8-.67,.24-1.38,.38-2.03,.65-2.3,.95-4.76,.52-7.13,.92-1.28,.22-3.74-1.01-4.52-2.05-.71-.94-1.67-1.69-2.52-2.53-.17-.17-.46-.33-.49-.53-.31-1.98-.99-4.01-.75-5.93,.23-1.92,1.09-3.92,3.21-4.87,.53-.24,.94-.76,1.4-1.16,.18-.15,.36-.43,.55-.44,1.57-.03,2.08-.96,2.66-2.33,.89-2.12,3.24-2.44,4.59-.65,1.02,1.35,1.9,1.52,3.54,1.37,2.56-.22,5.04-.69,7.49-1.35,1.19-.32,2.31-.93,3.46-1.41,1.33-.55,2.68-1.08,4-1.66,1.46-.65,2.9-1.35,4.35-2.03,4.85,0,9.71,.1,14.56-.02,4.28-.11,8.55-.4,12.82-.72,2.69-.2,5.38-.5,8.04-.9,3.38-.51,6.75-1.16,10.12-1.76,.07,.23,.14,.46,.23,.68,.92,2.25,3.26,3.83,3.09,6.61-.02,.26,.32,.54,.5,.81Zm-28.07,10.96c-.36,3.48,1.8,5.29,4.34,6.86,.18,.11,.49,.14,.7,.07,1.11-.37,1.95,.17,2.95,.56,.98,.39,2.75,.58,3.28,.01,1.7-1.8,3.59-3.63,3.71-6.42,.05-1.07,.6-2.22,.36-3.19-.31-1.24-1.04-2.45-1.86-3.46-1.26-1.55-2.16-3.58-4.45-4.01-.04,0-.07-.04-.1-.07-1.7-1.43-5.77-.13-6.14,2.07-.08,.48-.51,.9-.76,1.35-.7,1.24-2.12,2.25-1.26,4.01,.1,.2-.19,.59-.3,.88-.16,.44-.32,.88-.48,1.32Zm45.71,18.25c-.1-.14-.27-.64-.52-.68-.35-.07-1.05,.13-1.11,.35-.28,.98-1.02,1.36-1.78,1.82-.25,.15-.46,.74-.36,1.01,.1,.28,.59,.59,.91,.59,1.18,0,2.72-1.6,2.87-3.08Z" fill="#aaa0a0"/>
      <path d="M46.69,119.39c-2.62-3.47-3.89-7.38-3.88-11.71,.53-.02,1.07,.04,1.57-.09,7.04-1.79,14.07-3.62,21.12-5.39,2.18-.55,4.41-.92,6.62-1.37,1.47,.78,2.06-.38,2.78-1.25,.52-.03,1.06,.04,1.56-.09,4.89-1.24,9.76-2.51,14.64-3.77,.17,.49,.34,.99,.52,1.48,.9,2.54,2.55,4.27,5.33,4.48,3.96,.29,7.95,.53,11.8-.7,4.26-1.37,7.13-4.07,7.75-8.71,.21-1.6,.31-3.22,.46-4.83,3.13-.79,6.25-1.6,9.38-2.35,.4-.1,.89,.14,1.33,.23-.56,1.53-.33,2.21,.98,2.56,2.54,.67,5.09,1.29,7.32,2.82,.61,.42,1.35,.33,1.82-.37,.49-.72,.38-1.38-.3-1.93-.35-.28-.7-.57-1.1-.75-1.68-.76-3.37-1.48-5.17-2.26,1.32-1.77,3.09-2.94,5.24-3.56,.77-.22,1.56-.4,2.34-.59,.34,.95,1.05,.4,1.53,.28,7.11-1.77,14.21-3.55,21.3-5.39,1.69-.44,3.33-1.08,5-1.62,2.27,4.26,4.09,8.69,5.16,13.4-.5,.17-.98,.36-1.49,.49-14.52,3.67-29.05,7.33-43.57,11-13.04,3.29-26.07,6.58-39.11,9.86-4.38,1.1-8.77,2.19-13.16,3.28-.52-1.73-.98-3.48-1.58-5.18-.43-1.22-1.34-.45-2.04-.29-.73,.17-.73,.62-.53,1.3,.5,1.69,.88,3.42,1.31,5.14-1.62,.33-3.25,.65-4.87,.98,.01-2.14-.08-4.28,.07-6.4,.08-1.09-.29-1.4-1.24-1.4-1.12,0-1.5,.72-1.52,1.65-.05,2.38-.03,4.76-.04,7.13-.48,.04-.97,.02-1.43,.13-2.65,.65-5.29,1.35-7.94,1.99-2.65,.63-5.31,1.21-7.97,1.81Zm8.7-4.82c.25,.24,.55,.78,.94,.85,.86,.15,1.7-.16,1.84-1.14,.42-2.91,1.59-5.5,3.19-7.93,.55-.84,.14-1.29-.63-1.31-.53-.02-1.24,.24-1.58,.63-2.13,2.45-3.03,5.46-3.77,8.9Z" fill="#a4959e"/>
      <path d="M46.69,119.39c2.66-.6,5.32-1.18,7.97-1.81,2.65-.64,5.29-1.34,7.94-1.99,.46-.11,.96-.09,1.43-.13,1.26,.96,2.35,.57,2.73-.98,1.62-.33,3.25-.65,4.87-.98,.27,.32,.51,.88,.83,.93,1.33,.21,2.07-.54,2.02-1.89,4.39-1.09,8.77-2.18,13.16-3.28,13.04-3.28,26.07-6.57,39.11-9.86,14.52-3.66,29.05-7.33,43.57-11,.51-.13,.99-.33,1.49-.49,1.04,3.75,1.85,7.55,1.91,11.46-3.3,.84-6.6,1.7-9.92,2.5-.41,.1-.88-.07-1.32-.11,.15-.28,.45-.59,.41-.84-.48-3.09-1.82-5.76-4.17-7.84-.72-.63-1.45-.1-2.02,.47-.59,.59-.12,.96,.29,1.4,1.59,1.68,2.63,3.66,3.04,5.94,.14,.77,.47,1.17,1.23,1.22-.3,.22-.57,.57-.91,.65-6.76,1.73-13.53,3.42-20.3,5.15-3.75,.96-7.49,1.95-11.24,2.93-2.45-2.82-5.73-3.61-9.26-3.65-3.67-.03-7.13,.92-10.2,2.95-2.28,1.51-4.67,3.05-4.72,6.28-.32,.05-.64,.08-.95,.16-4.3,1.08-8.6,2.18-12.9,3.26-10.87,2.75-21.74,5.49-32.61,8.26-.35,.09-.65,.37-.98,.57-1.7-1.15-3.46-2.23-5.1-3.47-2.13-1.62-4.01-3.51-5.43-5.82Zm96.46-19.13c.19,1.19,.37,2.54,.63,3.87,.16,.81,.88,1.04,1.5,.78,.51-.21,1.2-.79,1.22-1.23,.08-2.32-.03-4.65-.08-6.98-.02-.91-.75-1.51-1.53-1.06-.57,.33-1.12,.96-1.33,1.58-.3,.89-.28,1.89-.43,3.04Zm6.45-3.61c.5,1.44,.93,2.91,1.54,4.31,.43,.97,1.34,.74,2.11,.41,.79-.35,.6-.9,.35-1.61-.46-1.28-.78-2.62-1.07-3.95-.16-.73-.51-1.08-1.23-1.03-1.02,.06-1.5,.66-1.69,1.87Z" fill="#aaa0a0"/>
      <path d="M64.08,38.13c7.13-4.2,15.08-5.94,23.05-7.59,.1,.17,.24,.33,.29,.52,.54,2.1,1.89,3.46,3.88,4.16,3.35,1.17,6.7,1.02,9.89-.51,2.31-1.11,4.05-2.72,3.54-5.67-.02-.12,.01-.24,.02-.36,7.99-.12,15.86,.49,23.39,3.47,1.54,.57,3.07,1.14,4.61,1.71,1.09,.7,2.18,1.4,3.28,2.1-.39,.19-.77,.44-1.19,.55-12.51,3.18-25.03,6.36-37.55,9.52-13.15,3.32-26.29,6.63-39.45,9.91-2.38,.59-4.8,1.04-7.2,1.55,1.04-2.44,2.08-4.88,3.12-7.31,.83-1.38,1.65-2.76,2.48-4.14,1.41-1.7,2.82-3.4,4.24-5.09,1.2-.93,2.39-1.86,3.59-2.79Z" fill="#615164"/>
      <path d="M127.66,132.77c-3.37,.59-6.73,1.25-10.12,1.76-2.67,.4-5.35,.71-8.04,.9-4.27,.31-8.54,.61-12.82,.72-4.85,.12-9.7,.02-14.56,.02-3.97-.65-7.94-1.29-11.91-1.95-.27-.05-.53-.18-.79-.28,.34-.23,.64-.59,1.02-.68,7.23-1.86,14.47-3.69,21.71-5.52,8.33-2.11,16.67-4.2,25.01-6.3,9.04-2.28,18.08-4.56,27.12-6.85,9.39-2.38,18.77-4.78,28.15-7.18-1.29,2.9-3.54,5.01-5.9,6.97-8.57,7.14-18.33,12.1-28.88,15.56-.8,.26-1.59,.55-2.38,.83-2.53,.66-5.06,1.33-7.59,1.99Z" fill="#b9acae"/>
      <path d="M172.41,107.41c-9.38,2.39-18.76,4.79-28.15,7.18-9.04,2.29-18.08,4.57-27.12,6.85-8.34,2.1-16.67,4.2-25.01,6.3-7.24,1.83-14.48,3.66-21.71,5.52-.37,.1-.68,.45-1.02,.68-4.2-1.44-8.39-2.91-12.2-5.27,.32-.19,.63-.48,.98-.57,10.87-2.76,21.74-5.51,32.61-8.26,4.3-1.09,8.6-2.18,12.9-3.26,.31-.08,.63-.11,.95-.16,.37,1.79,1.4,2.7,3.19,2.66,.83-.02,1.72-.15,2.46-.48,3.01-1.35,6.02-2.71,9.31-3.26,.46-.08,.97-.11,1.42,0,1.56,.37,3.1,.83,4.66,1.2,1.26,.3,2.41,.04,3.36-.87,.97-.92,.84-2.04,.49-3.16-.18-.58-.48-1.11-.72-1.67,3.75-.98,7.49-1.98,11.24-2.93,6.76-1.72,13.54-3.41,20.3-5.15,.34-.09,.61-.43,.91-.65,.4-.11,.8-.23,1.21-.34,.44,.04,.91,.21,1.32,.11,3.31-.81,6.61-1.66,9.92-2.5,.16,2.77-.08,5.48-1.3,8.03Z" fill="#b2a5a8"/>
      <path d="M42.92,95.23c0-.25,0-.5-.01-.76,.31-3.32,.62-6.64,.93-9.97,.32-1.47,.64-2.93,.96-4.4,.34,.01,.7,.09,1.02,.02,1.53-.34,3.04-.73,4.56-1.09,2.92-.7,5.85-1.39,8.77-2.08-.03,.77,.45,1.04,1.11,1.19,5.39,1.21,10.78,2.45,16.18,3.62,.68,.15,1.71,.38,1.91-.69,.18-.96-.81-.91-1.42-1.14-.11-.04-.24-.03-.36-.06-5.36-1.19-10.73-2.38-16.09-3.58,.45-.26,.87-.63,1.35-.75,10.58-2.68,21.17-5.35,31.76-7.98,.44-.11,.96,.12,1.45,.19-.8,2.2-1.74,4.36-2.36,6.61-.82,2.94-1.38,5.94-2.06,8.91-9.28,2.34-18.55,4.7-27.84,7.03-6.62,1.66-13.25,3.27-19.87,4.91Z" fill="#a08ba2"/>
      <path d="M127.66,132.77c2.53-.66,5.06-1.33,7.59-1.99,2.1,.33,4.21,.65,6.31,.99,.87,.14,1.74,.48,2.61,.47,1.43,0,2.86-.25,4.29-.34,.51-.03,1.16-.11,1.52,.15,1.3,.93,2.58,.41,3.84,.05,.28-.08,.55-.6,.61-.96,.17-1.03,.34-2.11,1.48-2.43,.62-.18,1.46-.17,2.02,.12,1.03,.53,1.99,1.24,2.86,2.02,.68,.61,1.35,.77,2.18,.57,1.32-.33,2.34,.14,3.49,.84,2.64,1.61,3.69,4.1,3.97,6.88,.16,1.61,.03,3.62-.82,4.89-1.29,1.95-3.18,3.53-5.9,3.61-1.29,.04-2.55,.69-3.85,.88-1.02,.15-2.1,.14-3.11-.03-1.78-.29-3.52-.79-5.29-1.11-.99-.18-2.01-.19-3.02-.3-.32-.04-.65-.1-.94-.24-3.37-1.61-6.98-2.43-10.55-3.43-.84-.24-1.57-.83-2.38-1.21-1.02-.47-2.06-.88-3.09-1.32-.18-.27-.51-.55-.5-.81,.17-2.78-2.17-4.36-3.09-6.61-.09-.22-.15-.46-.23-.68Z" fill="#9e9496"/>
      <path d="M42.92,95.23c6.62-1.63,13.25-3.25,19.87-4.91,9.28-2.33,18.56-4.69,27.84-7.03-.08,1.21-.28,2.42-.21,3.63,.16,2.94,.45,5.87,.69,8.8-4.88,1.26-9.76,2.53-14.64,3.77-.5,.13-1.04,.06-1.56,.09,1.81-1.71,3.59-3.46,5.45-5.12,.61-.55,1.23-1.01,.96-1.89-.25-.82-.95-.96-1.74-1.02-3.78-.28-7.52,.08-11.23,.78-1.66,.31-2.32,.93-2.08,1.95,.23,.95,1,1.13,2.66,.85,2.2-.38,4.43-.64,6.85-.98-1.32,1.58-2.45,2.95-3.59,4.3-.67,.79-.77,1.58-.06,2.39-2.21,.45-4.44,.83-6.62,1.37-7.05,1.77-14.08,3.6-21.12,5.39-.5,.13-1.05,.06-1.57,.09-.03-3.14-.07-6.28-.07-9.42,0-1.01,.12-2.01,.19-3.02Z" fill="#a08f9e"/>
      <path d="M127.68,85.32c-.45-.08-.93-.33-1.33-.23-3.14,.75-6.26,1.56-9.38,2.35-.02-3.8-.59-7.52-1.63-11.17,2.37-.58,4.74-1.16,7.1-1.74,.36,1.11,.8,1.28,1.68,.63,.83-.61,1.63-1.26,2.44-1.9,.48-.04,.97-.01,1.43-.13,9.33-2.34,18.67-4.68,27.99-7.06,1.7-.43,3.37-1.03,5.05-1.54,.57,.89,1.13,1.79,1.7,2.68,.92,1.56,1.84,3.12,2.76,4.67,.38,.87,.76,1.75,1.15,2.62-1.66,.55-3.3,1.19-5,1.62-7.09,1.84-14.19,3.62-21.3,5.39-.48,.12-1.19,.67-1.53-.28,.48-.57,.8-1.29,.2-1.83-.43-.39-1.2-.66-1.77-.58-4.25,.57-7.22,3.07-9.56,6.49Z" fill="#a08f9e"/>
      <path d="M5.32,41.36c.41-.78,.78-1.57,1.23-2.33,2-3.37,4.47-6.35,7.31-9.05,4.16-3.95,9-6.26,14.79-6.47,7.37-.26,14.71,0,21.64,2.83,2.96,1.21,5.64,3.12,8.44,4.71-.43,.11-.85,.25-1.29,.34-7.81,1.55-15.63,3.09-23.44,4.65-8.68,1.73-17.35,3.5-26.03,5.22-.86,.17-1.77,.07-2.65,.1Z" fill="#6d5277"/>
      <path d="M162.74,67.21c-.57-.89-1.13-1.79-1.7-2.68-.16-.36-.3-.74-.5-1.09-1.13-1.99-2.27-3.98-3.41-5.97,.57-.02,1.14,.02,1.7-.07,5.4-.86,9.86-3.56,13.71-7.28,1.55-1.5,2.73-3.39,4.08-5.1,.53-.16,1.13-.2,1.57-.49,3.6-2.4,7.16-4.86,10.73-7.29,2.54-1.72,5.09-3.42,7.63-5.13,.89,4.55,.67,9.03-.92,13.41-.3,.09-.64,.12-.89,.28-2.97,1.98-5.95,3.96-8.88,6-.8,.55-1.46,1.3-2.18,1.96-.08,.02-.16,.03-.24,.04-.44,.18-.92,.28-1.3,.54-5.86,4-11.7,8.03-17.57,12.03-.55,.37-1.22,.56-1.84,.83Z" fill="#9e9496"/>
      <path d="M128.68,28.22c1.25-7.11,4.95-12.76,10.51-17.2,6.31-5.05,13.59-7.75,21.63-8.38,1.77-.14,3.55,0,5.33,0-.21,.27-.37,.61-.64,.8-7.89,5.42-15.78,10.83-23.68,16.23-3.06,2.1-6.11,4.23-9.2,6.28-1.26,.84-2.63,1.51-3.95,2.26Z" fill="#6d5277"/>
      <path d="M44.79,80.12c-.32,1.47-.64,2.93-.96,4.4-.52,.05-1.05,.06-1.56,.17-6.23,1.24-12.46,2.48-18.68,3.73-4.49,.9-8.98,1.82-13.47,2.73-1.57-2.45-3.13-4.91-4.7-7.36,.44,0,.9,.05,1.33-.04,8.24-1.62,16.48-3.25,24.72-4.91,.41-.08,.77-.43,1.15-.65,.32,.04,.63,.08,.95,.12,2.34,.29,4.67,.66,7.02,.82,1.39,.1,2.8-.14,4.2-.22,0,.41,0,.81,0,1.22Z" fill="#9e9496"/>
      <path d="M32.62,78.18c-.38,.22-.74,.57-1.15,.65-8.24,1.66-16.48,3.29-24.72,4.91-.43,.08-.89,.03-1.33,.04-1.78-3.57-3.2-7.27-3.96-11.2,.31-.08,.62-.17,.93-.23,5.69-1.14,11.39-2.28,17.08-3.42,.72,.9,1.45,1.79,2.17,2.69,.81,.81,1.56,1.71,2.45,2.41,2.54,1.99,5.47,3.21,8.52,4.16Z" fill="#978a90"/>
      <path d="M108.53,14.06c-2.43-.14-4.69-.78-6.76-2.1-2.45-1.55-3.82-3.67-3.73-6.65,.05-1.66,0-3.31,0-4.86,.31-.14,.4-.22,.45-.2,2.84,1.35,5.75,2.6,8.5,4.11,1.94,1.07,2.93,2.97,3.18,5.42,1.98-2.74,4.49-4.31,7.77-4.16,2.84,.13,5.18,1.45,7.18,3.4-1.84,4.93-8.68,9.09-14.4,6.14-.17-.09-.38-.1-.58-.14-.36-.63-.6-1.46-1.63-.97Z" fill="#6ea859"/>
      <path d="M132.76,33.85c-1.54-.57-3.07-1.14-4.61-1.71,.05-.18,.1-.35,.15-.53,.44-.19,.92-.31,1.3-.57,6.72-4.57,13.42-9.15,20.13-13.73,6.31-4.3,12.64-8.58,18.94-12.89,.51-.35,.92-.85,1.37-1.28,2.19,.74,4.38,1.48,6.57,2.22-.27,.36-.47,.83-.82,1.07-5.39,3.7-10.8,7.37-16.19,11.07-.57,.39-1.01,.97-1.51,1.46-3.5-.03-6.77,.86-9.88,2.42-3.65,1.83-6.56,4.5-8.86,7.85-.23,.07-.49,.08-.68,.21-1.79,1.22-3.57,2.46-5.34,3.71-.24,.17-.39,.47-.58,.71Z" fill="#806889"/>
      <path d="M10.12,91.14c4.49-.91,8.98-1.83,13.47-2.73,6.23-1.25,12.45-2.5,18.68-3.73,.51-.1,1.04-.11,1.56-.17-.31,3.32-.62,6.64-.93,9.97-1.3,.02-2.6,.14-3.89,.02-.77-.07-1.52-.48-2.24-.82-1.59-.76-2.03-.72-3.2,.47-3.69,3.75-8.5,2.85-10.52-1.97-.06-.15-.14-.29-.28-.57-1.97,1.94-3.94,3.88-7,3.24-2.35-.49-4.18-1.85-5.66-3.7Z" fill="#aaa0a0"/>
      <path d="M196.56,32.12c-2.54,1.71-5.09,3.41-7.63,5.13-3.58,2.43-7.14,4.89-10.73,7.29-.44,.29-1.04,.34-1.57,.49,1.51-3.07,2.51-6.26,2.19-9.74l-.49-3.65c4.16-2.82,8.31-5.64,12.48-8.44,.75-.5,1.58-.88,2.38-1.31,1.69,3.22,2.8,6.64,3.37,10.23Z" fill="#978a90"/>
      <path d="M108.53,14.06c1.03-.49,1.27,.34,1.63,.97-2.97,3.55-4.69,7.65-5.36,12.2-.07,.47-.03,.96-.03,1.44,0,.12-.04,.25-.02,.36,.51,2.95-1.24,4.56-3.54,5.67-3.19,1.53-6.54,1.68-9.89,.51-2-.7-3.35-2.06-3.88-4.16-.05-.18-.19-.34-.29-.52,.16-1.03,.13-2.14,.52-3.08,1.26-3.11,3.91-4.34,7.03-4.55,3.16-.21,5.95,.88,8.39,3.07,.89-4.43,2.55-8.47,5.47-11.92Z" fill="#366234"/>
      <path d="M193.18,21.89c-.8,.43-1.63,.81-2.38,1.31-4.17,2.79-8.32,5.62-12.48,8.44-.89-1.54-1.79-3.09-2.68-4.63-1.38-1.3-2.75-2.6-4.13-3.9,.39-.4,.74-.87,1.19-1.19,1.85-1.29,3.73-2.53,5.59-3.81,2.78-1.91,5.56-3.84,8.34-5.76,.79,.84,1.73,1.58,2.35,2.53,1.48,2.28,2.81,4.66,4.21,7Z" fill="#948392"/>
      <path d="M19.48,68.92c-5.69,1.14-11.39,2.28-17.08,3.42-.31,.06-.62,.16-.93,.23-.9-3.6-1.36-7.25-1.2-10.96,3.51-.7,7.01-1.42,10.52-2.1,2.4-.47,4.82-.88,7.23-1.31,0,.85-.04,1.69,0,2.54,.05,1.11,.15,2.21,.23,3.31,.07,.47,.09,.96,.21,1.42,.32,1.16,.68,2.3,1.02,3.45Z" fill="#948392"/>
      <path d="M2.36,48.44c.42-1.14,.84-2.28,1.26-3.42,.21,.06,.44,.21,.64,.17,3.68-.7,7.36-1.41,11.04-2.14,14.27-2.83,28.54-5.67,42.81-8.53,1.12-.22,2.2-.65,3.3-.98,.73,1.15,1.46,2.3,2.19,3.45-.35,.07-.7,.15-1.06,.22-6.3,1.24-12.6,2.47-18.89,3.73-.45,.09-.84,.45-1.27,.68-.52-.05-1.04-.14-1.56-.14-1.85,0-3.71-.06-5.55,.06-2.94,.2-5.64,1.23-8.25,2.54-.17-.07-.36-.24-.51-.21-5.44,1.07-10.87,2.18-16.32,3.22-2.6,.5-5.22,.89-7.83,1.34Z" fill="#806889"/>
      <path d="M61.4,33.54c-1.1,.33-2.18,.76-3.3,.98-14.27,2.86-28.54,5.69-42.81,8.53-3.68,.73-7.35,1.44-11.04,2.14-.19,.04-.43-.11-.64-.17,.57-1.22,1.13-2.44,1.7-3.66,.89-.03,1.8,.07,2.65-.1,8.68-1.72,17.35-3.48,26.03-5.22,7.81-1.56,15.62-3.1,23.44-4.65,.43-.09,.86-.22,1.29-.34,.89,.83,1.78,1.66,2.67,2.49Z" fill="#765c7f"/>
      <path d="M186.63,12.36c-2.78,1.92-5.55,3.84-8.34,5.76-1.86,1.28-3.74,2.51-5.59,3.81-.45,.32-.8,.79-1.19,1.19-.73-.41-1.46-.81-2.19-1.22-2.11-.81-4.23-1.63-6.34-2.44,.26-.33,.46-.75,.79-.98,5.04-3.48,10.1-6.93,15.15-10.4,.42-.29,.75-.71,1.13-1.06,2.53,1.37,4.72,3.16,6.58,5.36Z" fill="#94809a"/>
      <path d="M162.74,67.21c.62-.27,1.29-.45,1.84-.83,5.87-4,11.71-8.03,17.57-12.03,.38-.26,.87-.37,1.3-.54,.23,.47,.47,.93,.69,1.4,1.18,2.55,.9,4.95-.84,7.16-1.75,2.23-4.1,3.08-6.85,2.74-1.05-.13-2.07-.59-3.2-.92,.09,2.25-.73,4.19-2.53,5.65-1.52,1.22-3.28,1.88-5.22,2.05-.92-1.56-1.84-3.12-2.76-4.67Z" fill="#aaa0a0"/>
      <path d="M18.01,58.2c-2.41,.44-4.83,.85-7.23,1.31-3.51,.68-7.02,1.4-10.52,2.1,.24-2.52,.48-5.04,.72-7.56,3.64-.69,7.27-1.39,10.91-2.05,3.09-.56,6.18-1.07,9.27-1.6-.89,2.19-1.78,4.39-2.66,6.58-.16,.41-.32,.81-.49,1.22Z" fill="#94809a"/>
      <path d="M170.04,3.14c-.45,.43-.86,.93-1.37,1.28-6.31,4.31-12.63,8.59-18.94,12.89-6.71,4.57-13.42,9.16-20.13,13.73-.39,.26-.86,.38-1.3,.57,.13-1.13,.26-2.26,.39-3.39,1.32-.75,2.69-1.43,3.95-2.26,3.09-2.06,6.14-4.18,9.2-6.28,7.9-5.41,15.79-10.81,23.68-16.23,.27-.18,.43-.53,.64-.8,1.3,.17,2.6,.33,3.9,.5Z" fill="#765c7f"/>
      <path d="M21.16,50.4c-3.09,.53-6.19,1.04-9.27,1.6-3.64,.66-7.28,1.37-10.91,2.05,.46-1.87,.92-3.74,1.39-5.61,2.61-.44,5.23-.83,7.83-1.34,5.44-1.05,10.88-2.16,16.32-3.22,.15-.03,.34,.13,.51,.21-.17,.16-.33,.34-.52,.48-2.06,1.53-3.86,3.28-5.08,5.58-.08,.08-.16,.17-.25,.25Z" fill="#8d7794"/>
      <path d="M180.05,7c-.37,.36-.71,.77-1.13,1.06-5.04,3.47-10.11,6.92-15.15,10.4-.33,.23-.53,.65-.79,.98-.24,0-.48,0-.72,0-1.39-.16-2.78-.32-4.16-.48,.5-.49,.94-1.06,1.51-1.46,5.39-3.7,10.8-7.37,16.19-11.07,.35-.24,.55-.71,.82-1.07,1.14,.55,2.29,1.09,3.43,1.64Z" fill="#8d7794"/>
      <path d="M42.37,41.63c.42-.23,.82-.59,1.27-.68,6.29-1.26,12.59-2.49,18.89-3.73,.35-.07,.71-.15,1.06-.22,.16,.38,.33,.76,.49,1.14-1.2,.93-2.39,1.86-3.59,2.79-2.18,.37-4.37,.7-6.53,1.13-1.28,.26-2.53,.69-3.79,1.04-2.6-.49-5.2-.98-7.8-1.47Z" fill="#8d7794"/>
      <path d="M183.68,53.77c.72-.66,1.38-1.41,2.18-1.96,2.93-2.04,5.91-4.02,8.88-6,.25-.17,.59-.19,.89-.28-1.5,5.58-6.15,8.78-11.95,8.24Z" fill="#aaa0a0"/>
      <path d="M103.4,151.84c.16-.44,.32-.88,.48-1.32,.11-.3,.39-.69,.3-.88-.87-1.76,.56-2.77,1.26-4.01,.25-.45,.68-.87,.76-1.35,.37-2.2,4.44-3.49,6.14-2.07,.03,.03,.06,.06,.1,.07,2.29,.43,3.18,2.46,4.45,4.01,.82,1,1.55,2.22,1.86,3.46,.24,.97-.31,2.12-.36,3.19-.12,2.79-2.02,4.63-3.71,6.42-.53,.56-2.3,.37-3.28-.01-1-.39-1.84-.93-2.95-.56-.2,.07-.51,.04-.7-.07-2.54-1.57-4.7-3.38-4.34-6.86Z" fill="#d9cccc"/>
      <path d="M149.11,170.08c-.15,1.48-1.69,3.08-2.87,3.08-.32,0-.81-.31-.91-.59-.1-.27,.11-.86,.36-1.01,.77-.46,1.51-.84,1.78-1.82,.06-.22,.76-.41,1.11-.35,.25,.05,.43,.54,.52,.68Z" fill="#9e9496"/>
      <path d="M115.34,76.26c1.03,3.65,1.61,7.37,1.63,11.17-.15,1.61-.25,3.23-.46,4.83-.61,4.64-3.48,7.35-7.75,8.71-3.86,1.24-7.85,1-11.8,.7-2.79-.21-4.43-1.94-5.33-4.48-.18-.49-.35-.99-.52-1.48-.24-2.93-.52-5.86-.69-8.8-.07-1.2,.13-2.42,.21-3.63,.67-2.97,1.24-5.98,2.06-8.91,.62-2.25,1.56-4.41,2.36-6.61,.47-.76,.87-1.56,1.42-2.25,1.32-1.65,2.73-3.19,5.12-3.17,2.44,.03,4.59,.83,6.57,2.2,.88,.88,1.84,1.7,2.63,2.65,2.22,2.66,3.41,5.85,4.56,9.06Z" fill="#353636"/>
      <path d="M72.12,100.83c-.7-.82-.61-1.6,.06-2.39,1.14-1.35,2.27-2.71,3.59-4.3-2.42,.34-4.65,.6-6.85,.98-1.66,.28-2.43,.11-2.66-.85-.24-1.01,.41-1.63,2.08-1.95,3.71-.7,7.45-1.06,11.23-.78,.79,.06,1.49,.2,1.74,1.02,.27,.89-.35,1.35-.96,1.89-1.86,1.66-3.64,3.41-5.45,5.12-.72,.87-1.32,2.03-2.78,1.25Z" fill="#110c0e"/>
      <path d="M127.68,85.32c2.34-3.42,5.31-5.93,9.56-6.49,.57-.08,1.34,.19,1.77,.58,.6,.54,.28,1.26-.2,1.83-.78,.2-1.57,.37-2.34,.59-2.15,.62-3.92,1.79-5.24,3.56,1.79,.78,3.49,1.5,5.17,2.26,.4,.18,.75,.48,1.1,.75,.68,.54,.79,1.21,.3,1.93-.48,.7-1.22,.79-1.82,.37-2.22-1.53-4.77-2.15-7.32-2.82-1.31-.35-1.53-1.02-.98-2.56Z" fill="#110c0e"/>
      <path d="M55.39,114.57c.74-3.44,1.64-6.45,3.77-8.9,.34-.39,1.05-.65,1.58-.63,.77,.02,1.18,.47,.63,1.31-1.6,2.42-2.77,5.02-3.19,7.93-.14,.98-.99,1.29-1.84,1.14-.39-.07-.69-.61-.94-.85Z" fill="#e86868"/>
      <path d="M66.77,114.49c-.38,1.54-1.47,1.93-2.73,.98,0-2.38-.01-4.76,.04-7.13,.02-.93,.4-1.66,1.52-1.65,.95,0,1.32,.32,1.24,1.4-.15,2.13-.06,4.27-.07,6.4Z" fill="#e86868"/>
      <path d="M74.48,112.55c.05,1.35-.68,2.11-2.02,1.89-.32-.05-.55-.61-.83-.93-.43-1.72-.8-3.45-1.31-5.14-.2-.68-.2-1.13,.53-1.3,.71-.16,1.61-.93,2.04,.29,.6,1.7,1.06,3.45,1.58,5.18Z" fill="#e86868"/>
      <path d="M128.83,110.84c.24,.55,.54,1.09,.72,1.67,.35,1.12,.48,2.24-.49,3.16-.96,.91-2.11,1.18-3.36,.87-1.56-.38-3.1-.84-4.66-1.2-.45-.1-.96-.07-1.42,0-3.29,.55-6.29,1.91-9.31,3.26-.75,.33-1.63,.46-2.46,.48-1.79,.05-2.82-.87-3.19-2.66,.05-3.23,2.44-4.77,4.72-6.28,3.07-2.03,6.52-2.98,10.2-2.95,3.53,.03,6.81,.83,9.26,3.65Z" fill="#f27f88"/>
      <path d="M162.48,101.77c-.4,.11-.8,.23-1.21,.34-.76-.05-1.1-.45-1.23-1.22-.41-2.28-1.45-4.26-3.04-5.94-.42-.44-.88-.8-.29-1.4,.57-.57,1.3-1.1,2.02-.47,2.35,2.08,3.69,4.75,4.17,7.84,.04,.25-.27,.56-.41,.84Z" fill="#e86868"/>
      <path d="M143.15,100.26c.14-1.14,.13-2.14,.43-3.04,.21-.62,.76-1.25,1.33-1.58,.77-.45,1.51,.15,1.53,1.06,.04,2.33,.16,4.66,.08,6.98-.01,.44-.71,1.02-1.22,1.23-.62,.26-1.34,.03-1.5-.78-.26-1.34-.44-2.69-.63-3.87Z" fill="#e86868"/>
      <path d="M149.59,96.65c.19-1.21,.67-1.81,1.69-1.87,.72-.04,1.07,.3,1.23,1.03,.29,1.33,.6,2.67,1.07,3.95,.25,.7,.44,1.26-.35,1.61-.76,.34-1.68,.57-2.11-.41-.61-1.39-1.03-2.87-1.54-4.31Z" fill="#e86868"/>
      <path d="M50.65,57.47c2.4-.51,4.82-.95,7.2-1.55,13.15-3.28,26.3-6.6,39.45-9.91,12.52-3.16,25.04-6.33,37.55-9.52,.41-.11,.79-.36,1.18-.54,.63,.25,1.25,.5,1.88,.75,1.77,1.17,3.54,2.34,5.31,3.51,.73,.65,1.47,1.29,2.2,1.94-.42,.3-.8,.77-1.27,.89-13.85,3.53-27.71,7.02-41.57,10.52-9.87,2.49-19.73,4.98-29.6,7.47-7.99,2.01-15.97,4.03-23.97,6.01-.38,.09-.86-.19-1.29-.29,.82-2.84,1.63-5.68,2.45-8.52,.16-.25,.31-.5,.47-.75Z" fill="#726176"/>
      <path d="M50.65,57.47c-.16,.25-.31,.5-.47,.75-.33-.07-.69-.26-1-.2-7.51,1.48-15,3-22.51,4.48-2.8,.55-5.62,1.04-8.43,1.55-.08-1.1-.18-2.21-.23-3.31-.04-.84,0-1.69,0-2.54,.16-.41,.32-.81,.49-1.22,1.66-.32,3.31-.65,4.97-.97,7.57-1.49,15.14-2.99,22.72-4.47,2.52-.49,5.06-.92,7.59-1.38-1.04,2.44-2.08,4.88-3.12,7.31Z" fill="#b78698"/>
      <path d="M53.77,50.15c-2.53,.46-5.06,.89-7.59,1.38-7.58,1.48-15.15,2.98-22.72,4.47-1.66,.33-3.31,.65-4.97,.97,.89-2.19,1.78-4.39,2.66-6.58,.08-.08,.16-.17,.25-.25,2.26-.41,4.52-.8,6.77-1.25,7.59-1.52,15.17-3.05,22.76-4.6,.25-.05,.46-.32,.69-.48,1.54,.73,3.08,1.47,4.62,2.2-.83,1.38-1.65,2.76-2.48,4.14Z" fill="#b4849d"/>
      <path d="M56.25,46.01c-1.54-.73-3.08-1.47-4.62-2.2-.49-.24-.97-.48-1.46-.72,1.26-.35,2.51-.78,3.79-1.04,2.16-.44,4.35-.76,6.53-1.13-1.41,1.7-2.82,3.4-4.24,5.09Z" fill="#94809a"/>
      <path d="M137.91,36.7c-.63-.25-1.25-.5-1.88-.75-1.09-.7-2.18-1.4-3.27-2.1,.19-.24,.34-.53,.58-.71,1.77-1.25,3.55-2.49,5.34-3.71,.19-.13,.45-.14,.68-.21-.9,2.1-1.62,4.23-1.46,6.57,0,.3,.01,.61,.02,.91Z" fill="#8d7794"/>
      <path d="M108.15,64.55c-1.98-1.37-4.13-2.18-6.57-2.2-2.39-.03-3.8,1.51-5.12,3.17-.55,.69-.95,1.5-1.42,2.25-.48-.07-1.01-.3-1.45-.19-10.59,2.63-21.18,5.29-31.76,7.98-.48,.12-.9,.49-1.35,.75-.45,.22-.89,.44-1.34,.66-2.92,.69-5.85,1.38-8.77,2.08-1.52,.36-3.04,.75-4.56,1.09-.32,.07-.68-.01-1.02-.02,0-.41,0-.81,0-1.22,.33-1.46,.66-2.92,.99-4.38,.36-.05,.72-.08,1.07-.16,6.19-1.54,12.37-3.09,18.55-4.64,8.37-2.11,16.74-4.23,25.12-6.34,8.33-2.1,16.67-4.19,25-6.3,9.86-2.49,19.72-4.99,29.57-7.5,1.91-.49,3.8-1.07,5.7-1.61l2.92,4.14c0,.08,0,.16,0,.24-1.62,.49-3.22,1.04-4.86,1.45-13.25,3.35-26.5,6.67-39.75,10.02-.36,.09-.65,.48-.97,.73Z" fill="#94809a"/>
      <path d="M59.15,76.96c.45-.22,.89-.44,1.34-.66,5.36,1.19,10.73,2.38,16.09,3.58,.12,.03,.25,.02,.36,.06,.6,.23,1.6,.18,1.42,1.14-.2,1.07-1.23,.84-1.91,.69-5.4-1.17-10.79-2.41-16.18-3.62-.66-.15-1.14-.42-1.11-1.19Z" fill="#110c0e"/>
      <path d="M108.15,64.55c.32-.25,.61-.64,.97-.73,13.25-3.35,26.5-6.67,39.75-10.02,1.64-.41,3.24-.96,4.86-1.45,.29,.42,.59,.84,.88,1.27,.85,1.29,1.69,2.58,2.53,3.86,1.14,1.99,2.28,3.97,3.41,5.97,.2,.35,.33,.72,.5,1.09-1.68,.52-3.34,1.11-5.05,1.54-9.32,2.38-18.66,4.72-27.99,7.06-.46,.11-.95,.09-1.43,.13,.43-.37,.84-.76,1.28-1.11,3.6-2.93,7.21-5.85,10.81-8.78,.5-.41,1.08-.86,.47-1.59-.54-.65-1.12-.3-1.58,.08-4.75,3.89-9.5,7.79-14.23,11.7-.33,.27-.58,.65-.87,.98-2.37,.58-4.73,1.16-7.1,1.74-1.14-3.21-2.34-6.4-4.56-9.06-.8-.95-1.75-1.77-2.63-2.65Z" fill="#a08ba2"/>
      <path d="M122.44,74.52c.29-.33,.54-.7,.87-.98,4.73-3.91,9.47-7.81,14.23-11.7,.46-.38,1.04-.73,1.58-.08,.61,.74,.03,1.19-.47,1.59-3.6,2.93-7.21,5.85-10.81,8.78-.44,.36-.85,.74-1.28,1.11-.81,.63-1.61,1.28-2.44,1.9-.88,.65-1.32,.47-1.68-.63Z" fill="#110c0e"/>
      <path d="M157.13,57.48c-.84-1.29-1.68-2.58-2.53-3.86-.28-.43-.58-.84-.88-1.27,0-.08,0-.16,0-.24,1.01-.67,2.02-1.32,3.02-2,6.54-4.44,13.07-8.9,19.62-13.33,.79-.54,1.64-.99,2.46-1.48,.31,3.48-.68,6.67-2.19,9.74-1.35,1.71-2.52,3.6-4.08,5.1-3.85,3.72-8.32,6.41-13.71,7.28-.56,.09-1.13,.05-1.7,.07Z" fill="#c69096"/>
      <path d="M45.79,74.52c-.33,1.46-.66,2.92-.99,4.38-1.4,.09-2.81,.32-4.2,.22-2.35-.16-4.68-.54-7.02-.82-.32-.04-.63-.08-.95-.12-3.05-.96-5.99-2.18-8.52-4.16-.9-.7-1.64-1.6-2.45-2.41,6.01-1.18,12.01-2.37,18.02-3.52,2.61-.5,5.23-.9,7.85-1.35-.33,1.46-.65,2.91-.98,4.37-.25,1.14-.5,2.28-.75,3.42Z" fill="#c69096"/>
      <path d="M47.52,66.74c-2.62,.45-5.24,.85-7.85,1.35-6.01,1.15-12.02,2.34-18.02,3.52-.72-.9-1.45-1.79-2.17-2.69-.34-1.15-.71-2.29-1.02-3.45-.12-.46-.14-.94-.21-1.42,2.81-.52,5.63-1,8.43-1.55,7.5-1.48,15-3,22.51-4.48,.31-.06,.67,.13,1,.2-.82,2.84-1.63,5.68-2.45,8.52-.07,0-.14,0-.21,0Z" fill="#bd8995"/>
      <path d="M137.9,35.78c-.15-2.33,.56-4.47,1.46-6.57,2.31-3.35,5.22-6.02,8.86-7.85,3.1-1.56,6.38-2.45,9.88-2.42,1.39,.16,2.78,.32,4.16,.48-2.05,1.43-4.09,2.87-6.15,4.28-5.16,3.53-10.32,7.06-15.5,10.56-.85,.58-1.8,1-2.71,1.5Z" fill="#a97997"/>
      <path d="M178.81,35.29c-.82,.49-1.67,.95-2.46,1.48-6.54,4.44-13.08,8.89-19.62,13.33-1,.68-2.01,1.33-3.02,2-.97-1.38-1.94-2.76-2.92-4.14-.57-.89-1.15-1.78-1.72-2.66,.25-.25,.48-.55,.77-.75,1.83-1.26,3.67-2.49,5.5-3.75,5.91-4.08,11.81-8.17,17.72-12.24,.82-.57,1.71-1.04,2.57-1.55,.89,1.54,1.79,3.09,2.68,4.63,.16,1.22,.33,2.44,.49,3.65Z" fill="#bd8995"/>
      <path d="M175.64,27.01c-.86,.52-1.75,.99-2.57,1.55-5.91,4.07-11.81,8.16-17.72,12.24-1.83,1.26-3.67,2.49-5.5,3.75-.29,.2-.51,.5-.77,.75-.16-.08-.32-.17-.48-.25-1.06-.97-2.12-1.93-3.18-2.9-.73-.65-1.47-1.29-2.2-1.94,.27-.24,.51-.51,.8-.7,2.24-1.52,4.5-3.01,6.74-4.53,5.49-3.72,10.97-7.44,16.43-11.19,.77-.53,1.42-1.26,2.12-1.9,.73,.41,1.46,.81,2.19,1.22,1.38,1.3,2.75,2.6,4.13,3.9Z" fill="#b78698"/>
      <path d="M50.17,43.1c.49,.24,.97,.48,1.46,.72-.23,.17-.44,.43-.69,.48-7.58,1.55-15.17,3.09-22.76,4.6-2.25,.45-4.52,.83-6.77,1.25,1.22-2.29,3.03-4.05,5.08-5.58,.19-.14,.35-.32,.52-.48,2.61-1.31,5.31-2.35,8.25-2.54,1.84-.12,3.7-.07,5.55-.06,.52,0,1.04,.09,1.56,.14,2.6,.49,5.2,.98,7.8,1.47Z" fill="#a97997"/>
      <path d="M169.32,21.88c-.7,.64-1.34,1.36-2.12,1.9-5.46,3.75-10.95,7.47-16.43,11.19-2.24,1.52-4.5,3.01-6.74,4.53-.29,.2-.54,.47-.8,.7-1.77-1.17-3.54-2.34-5.31-3.51,0-.3-.01-.61-.02-.91,.91-.5,1.86-.93,2.71-1.5,5.18-3.5,10.34-7.03,15.5-10.56,2.06-1.41,4.1-2.86,6.15-4.28,.24,0,.48,0,.72,0,2.11,.81,4.23,1.63,6.34,2.44Z" fill="#b4849d"/>
      <path d="M145.42,42.15c1.06,.97,2.12,1.93,3.18,2.9-.37,.25-.7,.61-1.11,.72-6.29,1.63-12.58,3.25-18.88,4.84-17.49,4.41-34.98,8.8-52.47,13.21-7.59,1.91-15.17,3.87-22.76,5.78-2.26,.57-4.56,1.01-6.84,1.51,.33-1.46,.65-2.91,.98-4.37,.07,0,.14,0,.22,0,.43,.11,.91,.39,1.29,.29,8-1.98,15.98-3.99,23.97-6.01,9.87-2.49,19.73-4.97,29.6-7.47,13.86-3.5,27.72-6.99,41.57-10.52,.47-.12,.85-.59,1.27-.89Z" fill="#806889"/>
      <path d="M46.54,71.1c2.28-.5,4.58-.94,6.84-1.51,7.59-1.9,15.17-3.86,22.76-5.78,17.49-4.41,34.98-8.8,52.47-13.21,6.3-1.59,12.59-3.2,18.88-4.84,.4-.11,.74-.47,1.11-.72,.16,.08,.32,.17,.48,.25,.57,.89,1.14,1.78,1.72,2.66-1.9,.54-3.78,1.12-5.7,1.61-9.85,2.51-19.71,5.01-29.57,7.5-8.33,2.11-16.67,4.2-25,6.3-8.37,2.11-16.74,4.23-25.12,6.34-6.18,1.56-12.37,3.1-18.55,4.64-.35,.09-.71,.11-1.07,.16,.25-1.14,.5-2.28,.75-3.42Z" fill="#8d7794"/>
    </g>
  </g>
</svg>