<?xml version="1.0" encoding="UTF-8"?>
<svg id="Layer_2" data-name="Layer 2" xmlns="http://www.w3.org/2000/svg" viewBox="0 0 172.62 167.16">
  <g id="Layer_2-2" data-name="Layer 2">
    <g>
      <path d="M56.09,32.98c.5-.21,1.14-.29,1.46-.66,.89-1.01,1.95-1.46,3.26-1.48,.36,0,.83-.11,1.04-.35,.83-.99,1.96-1.02,3.09-1.13,.45-.05,.91-.1,1.34-.21,1.63-.41,3.25-.83,4.87-1.28,.58-.16,1.13-.43,1.71-.63,.45-.16,.91-.32,1.37-.41,.66-.12,1.34-.17,2.01-.24,.58,1.08,1.16,2.17,1.76,3.25,.11,.21,.35,.54,.47,.52,1.17-.23,2.01,.32,2.8,1.06,.04,.04,.14,.03,.21,.04,1.16,.02,2.32,.05,3.48,.04,.94,0,1.81-.17,2.49-.95,.24-.28,.73-.41,1.13-.47,1.72-.25,2.78-1.37,2.89-3.09,.04-.7,.14-1.39,.2-2.09,2.61-.46,5.23-.24,7.77,.29,1.5,.31,2.99,.2,4.43,.43,2.05,.33,4.01,1.2,6.01,1.83,.69,.22,1.38,.43,2.08,.64,.8,.8,1.77,1.07,2.89,1.09,.76,.02,1.56,.19,2.25,.49,.99,.43,1.92,1.02,2.85,1.6,.35,.22,.6,.57,.9,.86,.2,.27,.36,.6,.6,.82,1.65,1.46,4.1,1.82,5.33,3.89,.15,.25,.53,.35,.77,.55,.91,.77,1.86,1.49,2.69,2.34,.83,.84,1.55,1.79,2.26,2.73,.44,.58,.8,1.22,1.13,1.87,.27,.56,.32,1.26,.68,1.74,1.07,1.42,2.25,2.77,3.39,4.15,.83,1.5,.94,3.42,2.58,4.46,.14,.09,.16,.38,.25,.57,.37,.82,.71,1.64,1.12,2.44,.48,.96,1.01,1.9,1.53,2.84,.1,.18,.24,.34,.37,.5,.47,.6,.93,1.19,1.4,1.79,.48,1.03,.96,2.05,1.44,3.08,.09,.19,.25,.4,.23,.59-.14,1.68,.88,2.95,1.5,4.36,.51,1.16,1.1,2.23,1.17,3.58,.06,1.11,.81,2.16,1.05,3.28,.59,2.71,1.11,5.44,1.58,8.18,.19,1.07,.36,2.21,.2,3.27-.22,1.49-.65,2.98-1.19,4.39-.43,1.13-1.16,2.14-1.76,3.21-.05,.09-.11,.23-.19,.25-1.48,.3-1.77,1.8-2.69,2.64-.43,.39-.99,.64-1.5,.94-.18,.1-.43,.11-.59,.23-1.69,1.23-3.32,2.55-5.07,3.68-1.84,1.18-3.81,2.16-5.72,3.24-.45,.26-.87,.58-1.34,.82-1.05,.53-2.12,1.04-3.18,1.55-.43,.21-.97,.31-1.29,.64-1,1.03-2.19,1.4-3.6,1.54-1.01,.1-1.98,.64-2.97,.95-.79,.25-1.59,.53-2.4,.69-.93,.18-1.87,.21-2.59,1-.26,.28-.76,.34-1.15,.51-.91,.15-1.83,.3-2.74,.45-.87,.39-1.72,.52-2.73,.5-1.54-.04-3.1,.44-4.64,.73-.61,.11-1.19,.33-1.8,.45-.58,.12-1.18,.16-1.77,.27-.93,.17-1.97,.71-2.75,.45-1.34-.45-2.5-.13-3.72,.15-.93,.21-1.94,.76-2.76,.55-1.67-.43-3.3,.05-4.93-.13-.66-.07-1.33-.19-1.99-.15-1.01,.06-2.01,.24-3.02,.36-1.12,.14-2.23,.29-3.34,.43-.56-.14-1.11-.28-1.67-.42-.08-.07-.15-.19-.23-.2-1.88-.03-3.76-.02-5.65-.07-.7-.02-1.4-.17-2.1-.23-.87-.07-1.73-.11-2.6-.16-.11,0-.22,.03-.32,0-1.95-.54-3.91-1.09-5.86-1.63-.54-.15-1.09-.27-1.62-.46-.42-.15-.81-.41-1.23-.55-.53-.17-1.1-.24-1.63-.4-.46-.14-.91-.34-1.35-.55-.54-.27-1.05-.59-1.59-.86-.59-.3-1.19-.58-1.81-.83-2.92-1.15-4.98-3.41-7.16-5.52-.47-.45-1.11-.71-1.63-1.11-.31-.23-.71-.52-.8-.85-.36-1.38-.83-2.63-2.25-3.27-.09-.04-.2-.12-.23-.21-.39-1.31-1.08-2.63-1.07-3.94,0-1.87-.41-3.6-.78-5.38-.2-.97,.16-2.04,.2-3.07,.04-1.14,0-2.29,0-3.43,0-.38-.21-.84-.06-1.13,.48-.96,.26-1.85-.06-2.76,.07-.66,.05-1.35,.23-1.98,.42-1.42-.27-3.08,.95-4.33,.13-.13-.03-.53-.03-.8,0-.95-.34-2.11,.09-2.79,.78-1.24,.64-2.48,.67-3.75,.06-.61,.05-1.23,.21-1.81,.22-.8,.84-1.58,.81-2.35-.05-1.1,.26-2.01,.61-3.01,.9-2.62,1.64-5.29,2.39-7.96,.17-.6-.03-1.31,.19-1.88,.77-1.97,1.61-3.92,2.49-5.85,.48-1.05,1.08-2.06,1.68-3.05,.58-.96,1.23-1.89,1.86-2.83,.35-.55,.7-1.11,1.07-1.65,.24-.36,.46-.78,.79-1.05,.74-.63,1.57-1.15,2.3-1.79,.92-.81,1.78-1.68,2.66-2.53Zm48.99,61.54c.32-.28,.6-.67,.97-.82,4.73-1.99,9.19-4.38,12.49-8.47,2.3-2.85,3.76-5.97,3.39-9.79-.27-2.74-1.47-4.97-3.21-6.99-2.15-2.49-4.85-4.21-7.83-5.51-4.14-1.81-8.46-2.9-12.98-3.12-.99-2.54-3.48-3.27-5.56-4.42-1.12-.62-2.46-.84-3.71-1.2-.25-.07-.54,0-.82,.02-.92,.02-1.13,.84-1.61,1.38-.62,.7-1.4,1.27-1.94,2.02-.8,1.11-1.46,2.32-2.17,3.49-.52,.06-1.07,.05-1.56,.2-1.66,.49-3.33,.96-4.94,1.58-4.81,1.85-9.18,4.39-12.54,8.41-2.02,2.42-3.4,5.13-3.54,8.33-.17,3.87,1.57,7,4.21,9.61,2.23,2.21,4.96,3.72,7.87,4.9,4.98,2,10.18,2.82,15.51,2.98,.33,0,.65,.17,.97,.25-.54,.93-1.07,1.86-1.8,3.13,.12,.77,.68,2.08,1.04,2.68,.47,.78,1.01,.89,1.77,.45,.2-.12,.48-.09,.72-.15,.69-.19,1.37-.46,2.07-.6,1.24-.24,2.45-.47,3.36-1.46,.12-.13,.48-.04,.72-.08,.31-.05,.72-.04,.9-.23,.9-.93,1.96-.78,3.05-.57,1.24,.24,2.58,.29,3.69,.81,1.35,.62,2.5,.45,3.62-.23,.42-.26,.78-.92,.83-1.44,.27-2.4-1.23-3.85-2.96-5.14Zm14.34-34.57c.01,.07,.02,.14,.03,.2,.86-.16,1.75-.25,2.57-.52,.31-.1,.48-.62,.72-.95-.38-.17-.75-.47-1.13-.47-.62,0-1.27,.36-1.86,.28-1.51-.22-3.1,.43-4.55-.41-.11-.06-.28-.05-.42-.02-1.23,.25-2.08-.44-2.93-1.16-1.11-.93-2.21-1.88-3.35-2.76-.21-.16-.79-.17-.92-.02-.19,.23-.23,.69-.14,1.01,.07,.27,.39,.49,.63,.69,.97,.82,1.94,1.64,2.95,2.42,1.04,.81,2.1,1.57,3.55,1.38,.39-.05,.81,.19,1.22,.24,.65,.09,1.3,.18,1.95,.19,.56,.01,1.12-.07,1.68-.11Zm-52.96,1.91c-.21-.21-.44-.65-.74-.7-.25-.04-.74,.32-.83,.6-.41,1.34-1.16,2.41-2.3,3.22-.17,.12-.32,.29-.42,.47-.58,1.05-1.59,1.43-2.64,1.81-1.59,.57-3.16,1.2-4.74,1.82-.51,.2-1.03,.49-.67,1.17,.34,.66,.87,.42,1.38,.21,1.14-.47,2.28-.94,3.44-1.38,.75-.29,1.61-.41,2.28-.83,2.11-1.34,3.83-3.08,4.94-5.36,.12-.25,.17-.53,.31-1.02Zm-13.97,29.66c-.82,.04-1.31,.54-1.52,1.4-.08,.34-.12,.79-.35,.96-.92,.7-1.47,1.5-1.2,2.72,.04,.17-.18,.45-.35,.61-.68,.68-.89,1.44-.7,2.41,.15,.74,.23,1.35,1.16,1.26,.93-.08,1.17-.66,1.31-1.57,.22-1.42,.74-2.79,1.13-4.18,0-.03,.05-.05,.08-.07,.98-.55,1.15-1.53,1.39-2.5,.2-.82-.17-1.03-.96-1.05Zm89.93-3.27c-.38-1.29-.54-2.38-1.01-3.3-.66-1.27-1.48-2.48-2.38-3.59-.57-.71-1.41-.39-1.98,.16-.64,.61,.12,.94,.38,1.39,.62,1.08,1.2,2.2,1.73,3.33,.36,.76,.51,1.64,.95,2.35,.2,.32,.91,.51,1.33,.44,.4-.07,.73-.57,.98-.78Zm-16.72,2.22c-.13,.08-.26,.16-.39,.24,.32,.33,.64,.95,.95,.94,.52-.01,1.37-.33,1.46-.69,.24-.88,.12-1.85,.15-2.78,.03-1.02,0-2.05,.13-3.07,.07-.53,.57-1.06-.17-1.46-.67-.36-1.3-.16-1.7,.4-.87,1.23-1.25,2.59-.89,4.11,.18,.76,.31,1.53,.46,2.3Zm-67.23,3.76c.06-.75-.34-1.1-1.01-1.06-.66,.04-1.27,.3-1.37,1.08-.14,1.12-.1,2.29-.41,3.35-.3,1.02-.32,1.88,.13,2.85,.36,.78,.83,1.01,1.58,.75,.78-.27,1-.81,.72-1.6-.15-.42-.3-.89-.25-1.31,.16-1.36,.4-2.71,.62-4.06Zm2.73-.33c1.2,1.55,1.27,3.32,1.32,5.1,.01,.49-.06,1.16,.7,.99,.68-.15,1.78,0,1.73-1.13-.06-1.33-.2-2.69-.54-3.97-.51-1.94-1.37-2.18-3.22-.99Zm72.11-8.23c.12-.05,.24-.11,.35-.16-.22-.65-.48-1.29-.65-1.95-.25-.98-.95-.8-1.59-.64-.78,.19-.95,.75-.73,1.48,.14,.46,.43,.97,.35,1.4-.23,1.36,.62,2.11,1.57,2.58,.48,.24,1.46,.05,1.88-.33,.59-.52-.17-.92-.54-1.31-.28-.3-.44-.7-.65-1.06Z" fill="#c2b7b8"/>
      <path d="M56.09,32.98c-.88,.85-1.74,1.73-2.66,2.53-.73,.64-1.56,1.16-2.3,1.79-.33,.28-.54,.69-.79,1.05-.37,.54-.71,1.1-1.07,1.65-.31-.23-.59-.55-.94-.68-.91-.33-1.85-.55-2.76-.86-2.15-.74-4.18-1.96-6.6-1.67-.2,.02-.41-.08-.62-.11-1.83-.31-3.66-.76-5.5-.87-1.22-.07-2.47,.38-3.72,.57-1.39,.22-2.82,.27-3.85,1.48-.21,.24-.62,.32-.93,.47-1.8,.9-3.69,1.69-4.84,3.46-.41,.64-.52,1.48-.96,2.1-1.51,2.11-2.65,4.36-2.81,6.98-.15,2.56-.56,5.17,.87,7.57,.2,.33,.14,.81,.24,1.21,.12,.44,.18,.98,.46,1.29,2.46,2.73,5.25,5.03,8.7,6.42,1.4,.56,2.83,1.14,4.29,1.47,.96,.21,2.02-.03,3.04-.04,1.9-.02,3.8-.02,5.69-.03-.04,1.28,.11,2.51-.67,3.75-.43,.68-.09,1.84-.09,2.79,0,.27,.16,.67,.03,.8-1.22,1.26-.52,2.91-.95,4.33-.19,.63-.16,1.32-.23,1.98-1.37,.48-2.67,.4-4-.26-.86-.42-1.79-.71-2.73-.93-.22-.05-.72,.31-.82,.59-.49,1.37-1.78,1.79-2.84,2.42-.83,.49-5.62-1-6.09-1.85-.41-.73-.64-1.55-.97-2.41-1.01,1.53-2.73,2.13-4.35,2.9-.25,.12-.57,.34-.78,.28-1.86-.54-3.77-1.02-5.05-2.67-.32-.41-.73-.75-1.05-1.16-.38-.49-.72-1.01-1.08-1.51-.64-.91-1.27-1.82-1.91-2.72-.04-.06-.14-.08-.16-.13-.62-1.36-1.24-2.73-1.83-4.1-.11-.25,0-.59-.13-.83-1.19-2.48-1.62-5.16-2.2-7.81-.36-1.64-1.3-3.15-1.07-4.93,.12-.91,.21-1.82,.23-2.74,.01-.48-.17-.96-.22-1.45-.05-.48-.07-.96-.07-1.44,0-.62,0-1.25,.09-1.87,.07-.53,.24-1.06,.4-1.58,.26-.87,.75-1.73,.78-2.61,.07-2.09,.6-3.98,1.57-5.83,1.41-2.67,2.64-5.44,4.02-8.13,.28-.55,.87-.95,1.32-1.42,.02-.02,.07-.02,.09-.05,.99-1.06,2.24-1.98,2.91-3.21,.93-1.71,2.36-2.54,3.97-3.29,.32-.15,.64-.28,.96-.41,1.43-.59,2.86-1.19,4.3-1.76,.69-.27,1.4-.48,2.11-.69,.33-.1,.68-.14,1.03-.16,1.25-.08,2.51-.13,3.76-.2,.35-.02,.71-.08,1.06-.05,2.01,.19,4.02,.45,6.04,.59,1.33,.1,2.68-.07,3.99,.1,.82,.11,1.57,.68,2.39,.94,.89,.29,1.83,.45,2.73,.71,.7,.21,1.41,.43,2.06,.76,1.09,.57,2.14,1.22,3.19,1.86,.29,.18,.5,.49,.79,.68,.39,.27,.82,.68,1.24,.69,.84,0,1.18,.55,1.71,1.03,1.63,1.46,2.49,3.41,3.58,5.22Z" fill="#ada3a3"/>
      <path d="M78.66,119.46c1.11-.14,2.23-.29,3.34-.43,1-.13,2.01-.3,3.02-.36,.66-.04,1.33,.08,1.99,.15,1.63,.18,3.26-.29,4.93,.13,.82,.21,1.84-.34,2.76-.55,1.23-.28,2.38-.6,3.72-.15,.78,.26,1.82-.29,2.75-.45,.59-.1,1.19-.15,1.77-.27,.6-.12,1.19-.34,1.8-.45,1.54-.29,3.1-.77,4.64-.73,1.01,.03,1.86-.11,2.73-.5,0,.14-.01,.29,.03,.42,.47,1.47,1.75,2.65,1.63,4.35,0,.14,.16,.31,.28,.44,1.26,1.33,1.39,3.12,1.85,4.74,.47,1.65,.59,3.39,.98,5.07,.35,1.5,0,2.19-1.5,2.41-2.1,.31-4.07,.89-5.64,2.44-.62,.62-1.17,1.4-1.91,1.78-1.78,.92-2.69,2.26-2.83,4.27-.04,.66-.12,1.19,.61,1.28,.73,.09,.94-.45,.95-1.11,.01-1.1,.48-1.96,1.37-2.63,.67-.51,1.34-1.03,1.96-1.6,1.38-1.25,2.78-2.39,4.75-2.56,1.01-.09,1.92-.51,3.03-.22,1.17,.31,2.45,.19,3.68,.27,1.18,.08,2.1,.63,2.97,1.45,1.3,1.22,2.72,2.3,4.09,3.43,.44,1.8,.89,3.61,1.32,5.41,.23,.97,.43,1.94,.65,2.91-1.33,0-2.54,.28-3.11,1.64-.13,.32,.08,.78,.13,1.18,.39-.09,.83-.11,1.17-.3,.47-.25,.82-.77,1.3-.93,.65-.22,.8-.59,.75-1.18,1.24-.4,2.47-.82,3.72-1.18,1.85-.53,3.69-.59,5.43,.43,.15,.09,.32,.16,.47,.25,.54,.32,1.51,.63,1.53,.99,.05,.82-.14,1.87-.65,2.46-1.4,1.64-2.97,2.94-5.41,3.11-2.42,.17-4.69,1.23-6.76,2.57-.23,.15-.49,.3-.75,.35-.74,.13-1.08,.67-1.59,1.14-.91,.84-2.17,1.39-3.38,1.77-.6,.19-1.42-.24-2.13-.44-.76-.22-1.47-1.91-1.2-2.81,.09-.3,.24-.58,.39-.95-.33-.08-.66-.16-.88-.21-.36,.94-.65,1.78-1.01,2.6-.12,.27-.38,.56-.65,.68-1.12,.49-2.24,1.06-3.41,1.32-1.26,.28-2.59,.21-3.88,.34-.36,.04-.73,.23-1.05,.41-.72,.42-1.39,.95-2.14,1.3-2.21,1.03-4.53,1.86-6.03,3.98-.13,.18-.6,.25-.86,.18-.61-.16-1.23-.36-1.79-.66-1.84-1-1.93-1.3-1.14-3.28,.05-.13,.09-.25,.24-.67-1.81-.39-3.54-.86-5.3-1.1-1.37-.19-2.83,.33-4.07-.74-.15-.13-.76,.06-1,.28-.58,.52-1.15,.65-1.94,.53-.86-.13-1.78-.12-2.64,.03-2.11,.37-3.38-.17-4.54-1.99-.3-.47-.75-.96-1.25-1.18-1.9-.84-3.18-2.34-4.43-3.88-1.14-1.4-1.69-2.57-2.19-4.35-.48-1.72-.75-3.42-.46-5.23,.21-1.3-.33-2.86,.21-3.93,.86-1.72,.63-3.51,1.09-5.22,.18-.69,.42-1.36,.63-2.04-.05,1.16-.25,2.34-.09,3.47,.17,1.18,.68,2.32,1.05,3.48,.03,.1,.12,.18,.18,.26,1.15,1.64,2.26,3.31,3.47,4.9,.56,.74,1.15,1.56,2.26,1.59,.22,0,.52,.15,.63,.33,.86,1.43,2.54,1.61,3.72,2.5,1.7,1.27,3.7,.29,5.47,.94,.61,.23,1.34,.16,2.02,.18,.45,.02,.91,0,1.34-.09,.64-.12,1.28-.29,1.9-.49,.55-.18,1.12-.36,1.61-.65,.81-.49,1.59-1.04,2.33-1.63,.52-.42,1.05-.89,1.39-1.45,.89-1.46,.14-3.04,.24-4.57,.52,.16,1.09,.23,1.56,.49,.93,.5,1.82,1.07,2.69,1.65,.75,.5,1.5,1.12,1.21,2.15-.27,.94,.08,1.46,.8,1.95,.73,.49,1.01,1.14,.82,2.09-.17,.87-.09,1.8-.06,2.7,.02,.61-.1,.98-.66,1.39-.59,.43-.96,1.18-1.32,1.86-.09,.18,.15,.7,.38,.83,.22,.13,.7,.08,.91-.09,.65-.55,1.24-1.17,1.82-1.8,.18-.19,.33-.48,.35-.73,.1-1.39,.17-2.78,.23-4.17,.05-1.31-.05-2.56-1.39-3.3-.15-.09-.26-.42-.24-.63,.15-2.02-.57-3.12-2.49-3.82-.29-.11-.54-.32-.8-.5-1.23-.86-2.31-2.01-4.05-1.82-.24,.03-.55-.51-.82-.79,1.09-.19,2.16-.4,2.67-1.6,.07-.17,.32-.27,.49-.39,1.1-.8,1.97-1.71,1.75-3.23-.03-.23,0-.53,.12-.71,.96-1.39,.5-2.68-.19-3.99-.16-.31-.35-.63-.39-.96-.14-1.1-.81-1.85-1.57-2.56-.5-.47-.95-.98-1.41-1.49-.67-.72-4.69-1.1-5.38-.4-1,1.03-2.76,1.5-2.64,3.42,.01,.22-.37,.44-.45,.7-.37,1.23-.71,2.48-1.04,3.72-.03,.1,.12,.25,.18,.37,.94,1.89,1.29,4.09,2.95,5.62,.14,.13,.16,.39,.23,.58-.65,.25-1.3,.51-2.06,.8,.45-2.59,0-3.11-2.69-3.5-.88-.13-1.72,.79-2.05,2.52-1.61-1.72-3.1-3.24-4.5-4.85-.42-.48-.45-1.28-.84-1.8-1.1-1.46-1.99-2.99-2.24-4.84-.08-.59-.2-1.18-.24-1.78-.09-1.52-1.05-2.94-.53-4.54,.16-.49,.15-1.04,.22-1.56Z" fill="#aca3a3"/>
      <path d="M120.82,32.12c-.3-.29-.56-.65-.9-.86-.92-.57-1.85-1.17-2.85-1.6-.69-.3-1.49-.47-2.25-.49-1.12-.03-2.09-.29-2.89-1.09,.05-.48,.08-.96,.15-1.44,.09-.59,.34-1.19,.31-1.77-.06-1.19,.03-2.25,.69-3.32,.82-1.35,1.32-2.89,2.12-4.25,.84-1.45,1.86-2.8,2.83-4.18,.26-.37,.76-.66,.84-1.05,.26-1.21,1.19-1.86,2.14-2.19,1.82-.64,3.13-1.88,4.5-3.11,.44-.4,1.08-.59,1.64-.85,.32-.15,.74-.16,.97-.39,1.41-1.38,3.23-1.49,5.01-1.73,1.26-.17,2.44-.42,3.59-1.12,.68-.42,1.76-.18,2.66-.26,.65-.06,1.29-.2,1.94-.21,1.32-.03,2.65,0,3.97,0,.88,0,1.77-.11,2.63,.02,.77,.11,1.5,.48,2.25,.74,1.8,.62,3.58,1.27,5.39,1.85,1.2,.39,2.35,.78,2.94,2.05,.12,.26,.42,.48,.68,.64,1.73,1,3.24,2.21,4.36,3.94,.56,.86,1.56,1.43,2.19,2.27,1.02,1.34,2.05,2.71,2.78,4.21,.59,1.21,1.11,2.44,1.72,3.64,.66,1.3,1.26,2.84,1.14,4.55-.09,1.32,.4,2.72,.82,4.02,.45,1.38,.72,2.66-.22,3.92-.12,.16-.26,.43-.2,.59,.63,1.72-.42,3.25-.85,4.69-.61,2.03-1.5,4.23-3.54,5.51-.38,.24-.75,.55-1.04,.9-.55,.65-1.15,1.03-2.04,.8-.22-.06-.49,0-.72,.06-.98,.25-1.96,.52-3.04,.81,.23,.69,.55,1.6,.83,2.54,.28,.94,.14,1.81-.41,2.64-.23,.34-.41,.75-.48,1.16-.23,1.39-1.08,2.27-2.48,2.47-.07,.01-.16-.01-.21,.02-1.46,1.17-3.08,.52-4.64,.39-.57-.05-1.12-.31-1.77-.51-.03,.26-.1,.56-.08,.86,.06,1.03-.32,1.74-1.01,2.6-.75,.94-1.55,1.48-2.5,2.12-.96,.64-1.75,1.16-2.89,1.13-.47-.6-.94-1.19-1.4-1.79-.13-.16-.27-.32-.37-.5-.52-.94-1.05-1.88-1.53-2.84-.4-.8-.75-1.63-1.12-2.44-.09-.19-.1-.48-.25-.57-1.64-1.04-1.75-2.96-2.58-4.46,1.71-.49,3.44-.96,5.14-1.49,.64-.2,1.23-.8,1.83-.79,1.95,.04,3.11-1.3,4.35-2.36,1.41-1.21,2.61-2.65,3.85-4.04,.86-.96,1.87-1.87,1.68-3.38-.03-.23,.24-.49,.33-.74,.25-.67,.48-1.35,.71-2.03,.13-.4,.27-.8,.36-1.2,.24-1.16,.67-2.33,.63-3.49-.06-1.94-.4-3.89-2-5.3-.1-.09-.16-.24-.19-.38-.44-2.23-2.41-3.19-3.87-4.52-.97-.88-2.22-1.45-3.37-2.14-.23-.14-.52-.21-.79-.26-1.5-.32-3-.6-4.5-.94-.34-.08-.63-.4-.96-.44-.99-.09-1.99-.12-2.99-.12-.34,0-.72,.27-1.02,.19-1.18-.31-2.2,.23-3.28,.48-2.6,.6-4.8,2.03-7.08,3.31-.24,.14-.45,.33-.67,.52-.98,.85-1.97,1.69-2.92,2.58-.38,.35-.73,.77-.95,1.23-.35,.72-.61,1.48-.85,2.25-.21,.67-.44,1.36-.47,2.04-.03,.98,.11,1.97,.18,2.95Z" fill="#ada3a3"/>
      <path d="M99.33,142.46c-.09,1.53,.65,3.12-.24,4.57-.34,.56-.87,1.03-1.39,1.45-.74,.59-1.52,1.14-2.33,1.63-.49,.3-1.06,.48-1.61,.65-.62,.2-1.26,.37-1.9,.49-.44,.08-.9,.1-1.34,.09-.68-.02-1.41,.04-2.02-.18-1.77-.65-3.77,.33-5.47-.94-1.19-.89-2.87-1.07-3.72-2.5-.11-.18-.41-.33-.63-.33-1.12-.03-1.7-.85-2.26-1.59-1.21-1.59-2.32-3.26-3.47-4.9-.06-.09-.15-.17-.18-.26-.37-1.15-.88-2.29-1.05-3.48-.16-1.13,.05-2.31,.09-3.47,.16-2.14,.31-4.28,.47-6.43,0-.11-.01-.23,.03-.32,.89-1.96,1.69-3.96,2.71-5.84,.43-.8,1.3-1.38,1.97-2.05,.56,.14,1.11,.28,1.67,.42-.07,.52-.06,1.07-.22,1.56-.52,1.61,.44,3.02,.53,4.54,.03,.6,.16,1.19,.24,1.78,.25,1.85,1.14,3.38,2.24,4.84,.39,.52,.42,1.32,.84,1.8,1.4,1.61,2.89,3.13,4.5,4.85,.33-1.74,1.17-2.65,2.05-2.52,2.7,.39,3.13,.91,2.69,3.5,.76-.3,1.41-.55,2.06-.8,1.07-.76,1.9-.04,2.76,.47,.76,.63,1.54,1.23,2.26,1.9,.31,.29,.49,.72,.73,1.09Z" fill="#928b8b"/>
      <path d="M128.43,140.1c-1.37-1.14-2.8-2.21-4.09-3.43-.87-.82-1.79-1.37-2.97-1.45-1.23-.08-2.52,.04-3.68-.27-1.11-.3-2.02,.13-3.03,.22-1.97,.18-3.38,1.31-4.75,2.56-.62,.57-1.29,1.09-1.96,1.6-.88,.66-1.35,1.53-1.37,2.63,0,.65-.22,1.2-.95,1.11-.73-.09-.66-.62-.61-1.28,.13-2.01,1.04-3.34,2.83-4.27,.75-.39,1.29-1.17,1.91-1.78,1.56-1.55,3.53-2.13,5.64-2.44,1.5-.22,1.85-.92,1.5-2.41-.39-1.68-.51-3.42-.98-5.07-.46-1.63-.59-3.41-1.85-4.74-.12-.13-.29-.3-.28-.44,.12-1.71-1.16-2.88-1.63-4.35-.04-.13-.02-.28-.03-.42,.91-.15,1.83-.3,2.74-.45,.71,.73,1.41,1.46,2.13,2.19,.17,.18,.4,.3,.56,.48,1.42,1.59,3.01,3.07,4.19,4.82,.9,1.34,2.23,2.41,2.6,4.17,.18,.85,1,1.57,1.53,2.35,.58,.86,1.28,1.67,1.69,2.6,.42,.96,.46,2.07,.81,3.06,.6,1.68,.26,3.35,.07,5.02Z" fill="#a19797"/>
      <path d="M91.66,24.89c-.07,.7-.16,1.39-.2,2.09-.1,1.72-1.17,2.84-2.89,3.09-.4,.06-.89,.19-1.13,.47-.68,.79-1.55,.95-2.49,.95-1.16,0-2.32-.03-3.48-.04-.07,0-.16,0-.21-.04-.79-.73-1.63-1.29-2.8-1.06-.12,.02-.36-.31-.47-.52-.6-1.08-1.17-2.16-1.76-3.25-.14-1.98,.15-3.76,1.95-5.03,.87-.61,1.62-1.41,2.83-1.06,.09,.03,.24,0,.31-.06,1.36-1.29,2.73-.25,4.06,.03,1.13,.24,2.23,.64,3.33,1.02,.35,.12,.65,.39,.91,.55,.48-.84,.99-1.72,1.49-2.61,.06-.11,.12-.28,.08-.4-.34-1.12,.08-1.93,.99-2.56,.03-.02,.07-.05,.07-.07-.03-1.82,1.87-2.65,2.21-4.27,0,0-.03,0-.03,0,.08-.08,.16-.15,.23-.23,.27-.06,.54-.11,.81-.17,.22,.35,.44,.69,.66,1.04-.59,.82-1.19,1.62-1.75,2.46-.17,.25-.17,.6-.31,.87-.43,.77-1.22,1.5-1.27,2.27-.05,.95-.12,1.74-.72,2.53-.54,.71-.96,1.53-.48,2.54,.19,.4,.04,.96,.04,1.44Z" fill="#366335"/>
      <path d="M96.15,12.77c-.22-.35-.44-.69-.66-1.04-.28-1.33-.07-2.57,.67-3.71,2.3-1.97,4.94-3.16,7.97-3.28,1.31-.05,2.45,.49,3.36,1.53,.53,.6,1.22,1.05,1.92,1.64-.88,1.17-1.76,2.34-2.64,3.51-1.15,1.53-3.12,1.37-4.56,2.25-1.74,1.07-3.35,.1-5.01-.06-.37-.04-.7-.54-1.05-.82Z" fill="#6ea859"/>
      <path d="M96.15,8.02c-.74,1.15-.95,2.39-.67,3.71-.27,.06-.54,.11-.81,.17-.08,.08-.16,.15-.23,.23,0,0,.03,0,.03,0-2.03,.1-3.84-.41-5.35-1.86-.99-.95-2.05-1.84-3.07-2.77-.2-.19-.47-.42-.5-.66-.12-1.1-.29-2.23-.2-3.32,.1-1.17,.49-2.31,.75-3.49,0,0,.05-.03,.05-.02,1.66,1.64,4.08,1.54,5.99,2.64,1.9,1.09,3.38,2.42,3.74,4.69,.04,.24,.17,.46,.26,.69Z" fill="#78bf65"/>
      <path d="M130.64,148.83c.05,.59-.1,.96-.75,1.18-.48,.16-.83,.68-1.3,.93-.34,.19-.78,.21-1.17,.3-.05-.4-.26-.86-.13-1.18,.57-1.37,1.78-1.65,3.11-1.64,.08,.14,.16,.27,.24,.41Z" fill="#a19797"/>
      <path d="M120.82,32.12c-.07-.98-.21-1.97-.18-2.95,.02-.69,.26-1.37,.47-2.04,.24-.76,.5-1.53,.85-2.25,.22-.46,.58-.88,.95-1.23,.95-.89,1.94-1.72,2.92-2.58,.21-.19,.42-.38,.67-.52,2.28-1.27,4.48-2.71,7.08-3.31,1.08-.25,2.1-.79,3.28-.48,.3,.08,.68-.19,1.02-.19,1,0,2,.03,2.99,.12,.33,.03,.62,.36,.96,.44,1.49,.33,3,.62,4.5,.94,.27,.06,.56,.12,.79,.26,1.14,.69,2.4,1.25,3.37,2.14,1.46,1.33,3.43,2.29,3.87,4.52,.03,.13,.09,.29,.19,.38,1.6,1.41,1.94,3.36,2,5.3,.04,1.15-.39,2.33-.63,3.49-.08,.41-.22,.81-.36,1.2-.23,.68-.46,1.36-.71,2.03-.09,.26-.36,.51-.33,.74,.2,1.52-.82,2.42-1.68,3.38-1.24,1.39-2.45,2.84-3.85,4.04-1.25,1.07-2.41,2.41-4.35,2.36-.6-.01-1.2,.59-1.83,.79-1.7,.53-3.42,1-5.14,1.49-1.14-1.38-2.31-2.72-3.39-4.15-.36-.48-.4-1.18-.68-1.74-.32-.65-.69-1.29-1.13-1.87-.71-.94-1.44-1.89-2.26-2.73-.83-.85-1.78-1.57-2.69-2.34-.24-.2-.62-.3-.77-.55-1.23-2.06-3.67-2.43-5.33-3.89-.25-.22-.41-.54-.6-.82Z" fill="#eaaaab"/>
      <path d="M39.04,68.75c-1.9,0-3.8,0-5.69,.03-1.02,.01-2.08,.25-3.04,.04-1.47-.33-2.89-.9-4.29-1.47-3.45-1.38-6.24-3.69-8.7-6.42-.28-.32-.34-.85-.46-1.29-.11-.4-.05-.88-.24-1.21-1.43-2.4-1.02-5-.87-7.57,.16-2.62,1.3-4.87,2.81-6.98,.44-.61,.55-1.46,.96-2.1,1.15-1.77,3.04-2.56,4.84-3.46,.31-.16,.72-.23,.93-.47,1.02-1.2,2.46-1.26,3.85-1.48,1.24-.19,2.49-.64,3.72-.57,1.85,.1,3.67,.56,5.5,.87,.21,.04,.42,.14,.62,.11,2.42-.29,4.44,.93,6.6,1.67,.91,.32,1.86,.53,2.76,.86,.35,.13,.63,.44,.94,.68-.62,.94-1.27,1.86-1.86,2.83-.6,.99-1.2,2-1.68,3.05-.88,1.93-1.73,3.87-2.49,5.85-.22,.56-.02,1.28-.19,1.88-.75,2.67-1.48,5.35-2.39,7.96-.35,1-.66,1.91-.61,3.01,.03,.77-.59,1.55-.81,2.35-.16,.58-.14,1.21-.21,1.81Z" fill="#eaaaab"/>
      <path d="M82.09,61.1c.72-1.17,1.37-2.39,2.17-3.49,.54-.75,1.32-1.32,1.94-2.02,.48-.54,.69-1.36,1.61-1.38,.27,0,.57-.09,.82-.02,1.25,.36,2.59,.58,3.71,1.2,2.08,1.15,4.56,1.88,5.56,4.42,.2,.57,.4,1.14,.6,1.71,.17,.44,.35,.87,.52,1.31,.5,.89,1,1.78,1.51,2.67,.18,.8,.36,1.6,.53,2.41,.15,.92,.31,1.84,.46,2.77,.12,.57,.24,1.14,.37,1.71,.02,.5,.03,.99,.05,1.49,.04,2.41,.07,4.82,.11,7.23-.73,.7-1.12,1.54-1.01,2.58l-1.99,2.31c-.87,.83-1.62,1.81-2.94,1.99-.22,.03-.41,.24-.61,.37-.68,.35-1.35,.47-2.1,.09-.3-.15-.75-.02-1.13,.03-.94,.14-1.88,.51-2.8,.44-2.38-.17-4.75-.52-7.13-.8-.24-.19-.52-.35-.73-.57-.72-.79-1.84-1.3-1.86-2.59-.12-1.19-.94-2.32-.28-3.58,.05-.1-.07-.34-.17-.48-1.15-1.68-.6-3.45-.35-5.22,.09-.66-.03-1.34-.06-2.01,.4-1.25,.89-2.49,.4-3.83,.21-.99,.43-1.99,.64-2.98,.48-1,.95-1.99,1.43-2.99,.24-.92,.48-1.84,.73-2.75Z" fill="#353636"/>
      <path d="M82.09,61.1c-.24,.92-.48,1.84-.73,2.75-.28,.02-.58-.02-.84,.06-5.58,1.74-10.72,4.22-14.36,9-.9,1.19-1.34,2.74-1.99,4.12-.32,.31-.61,.67-.97,.94-.95,.72-1.35,1.64-1.38,2.83-.05,1.98,.16,3.86,1.91,5.12,.86,.62,1.86,1.07,2.79,1.6,.17,.33,.25,.78,.51,.98,1.15,.88,2.29,1.79,3.55,2.49,5.81,3.26,12.18,4.1,18.72,4.17,.59,0,1.18,.01,1.77,.02-.36,.27-.71,.56-1.08,.82-.63,.45-1.28,.9-1.92,1.34-.32-.09-.65-.24-.97-.25-5.33-.16-10.53-.97-15.51-2.98-2.91-1.17-5.64-2.69-7.87-4.9-2.64-2.61-4.38-5.74-4.21-9.61,.14-3.2,1.52-5.91,3.54-8.33,3.36-4.02,7.73-6.56,12.54-8.41,1.61-.62,3.29-1.09,4.94-1.58,.5-.15,1.04-.14,1.56-.2Z" fill="#bdacae"/>
      <path d="M88.07,97.35c.64-.45,1.28-.89,1.92-1.34,.37-.26,.72-.54,1.08-.82,.84-.29,1.68-.57,2.52-.86,.79-.29,1.56-.75,2.37-.83,1.47-.14,2.96-.05,4.44-.06,.57,.15,1.19,.51,1.7,.4,1.15-.26,2.04,.22,2.99,.67,1.74,1.28,3.24,2.73,2.96,5.14-.06,.52-.41,1.18-.83,1.44-1.12,.68-2.27,.85-3.62,.23-1.12-.52-2.45-.57-3.69-.81-1.08-.21-2.15-.35-3.05,.57-.19,.19-.59,.18-.9,.23-.24,.04-.6-.05-.72,.08-.91,1-2.13,1.22-3.36,1.46-.7,.14-1.38,.4-2.07,.6-.24,.07-.52,.04-.72,.15-.76,.45-1.29,.33-1.77-.45-.36-.6-.91-1.92-1.04-2.68,.73-1.26,1.26-2.2,1.8-3.13Z" fill="#f27f88"/>
      <path d="M105.08,94.52c-.94-.45-1.83-.93-2.99-.67-.51,.12-1.13-.25-1.7-.4,.29-.21,.55-.5,.87-.61,5.42-1.76,10.46-4.18,14.08-8.76,1.02-1.29,1.55-2.96,2.3-4.46,.68-.81,1.37-1.63,2.05-2.44,1.07-1.27,1.03-2.76,.36-4.06-.82-1.6-2.11-2.88-3.9-3.48-.18-.36-.26-.83-.54-1.07-1.12-.96-2.22-2-3.48-2.75-4.2-2.48-8.79-3.8-13.62-4.31-.2-.57-.4-1.14-.6-1.71,4.52,.23,8.84,1.31,12.98,3.12,2.98,1.31,5.68,3.02,7.83,5.51,1.75,2.02,2.95,4.25,3.21,6.99,.37,3.82-1.09,6.94-3.39,9.79-3.3,4.09-7.76,6.49-12.49,8.47-.37,.16-.65,.54-.97,.82Z" fill="#bdacae"/>
      <path d="M119.42,59.95c-.56,.04-1.12,.13-1.68,.11-.65-.02-1.3-.1-1.95-.19-.41-.06-.83-.29-1.22-.24-1.45,.18-2.51-.58-3.55-1.38-1-.78-1.97-1.61-2.95-2.42-.24-.2-.56-.42-.63-.69-.09-.31-.05-.78,.14-1.01,.13-.15,.71-.14,.92,.02,1.15,.88,2.24,1.83,3.35,2.76,.85,.71,1.7,1.4,2.93,1.16,.13-.03,.31-.04,.42,.02,1.45,.84,3.04,.18,4.55,.41,.59,.09,1.24-.28,1.86-.28,.38,0,.75,.3,1.13,.47-.24,.33-.41,.85-.72,.95-.83,.27-1.71,.36-2.57,.52-.01-.07-.02-.14-.03-.2Z" fill="#171313"/>
      <path d="M66.46,61.86c-.15,.49-.19,.77-.31,1.02-1.1,2.29-2.82,4.03-4.94,5.36-.67,.42-1.52,.54-2.28,.83-1.15,.45-2.29,.91-3.44,1.38-.51,.21-1.04,.45-1.38-.21-.35-.68,.16-.97,.67-1.17,1.57-.62,3.15-1.25,4.74-1.82,1.05-.38,2.06-.76,2.64-1.81,.1-.18,.25-.35,.42-.47,1.14-.81,1.89-1.87,2.3-3.22,.08-.28,.58-.64,.83-.6,.3,.05,.53,.48,.74,.7Z" fill="#171313"/>
      <path d="M52.49,91.52c.79,.02,1.16,.23,.96,1.05-.24,.97-.41,1.95-1.39,2.5-.03,.02-.07,.04-.08,.07-.39,1.39-.91,2.76-1.13,4.18-.14,.91-.38,1.48-1.31,1.57-.94,.09-1.02-.52-1.16-1.26-.19-.98,.02-1.73,.7-2.41,.16-.17,.39-.44,.35-.61-.27-1.22,.27-2.02,1.2-2.72,.23-.17,.27-.63,.35-.96,.21-.86,.7-1.36,1.52-1.4Z" fill="#e96969"/>
      <path d="M142.42,88.25c-.24,.21-.57,.7-.98,.78-.42,.08-1.13-.12-1.33-.44-.44-.7-.59-1.58-.95-2.35-.53-1.13-1.11-2.24-1.73-3.33-.26-.46-1.02-.78-.38-1.39,.57-.55,1.41-.86,1.98-.16,.9,1.11,1.72,2.32,2.38,3.59,.48,.92,.63,2,1.01,3.3Z" fill="#e96969"/>
      <path d="M125.71,90.47c-.15-.77-.28-1.54-.46-2.3-.36-1.52,.02-2.88,.89-4.11,.4-.56,1.03-.76,1.7-.4,.74,.4,.24,.92,.17,1.46-.13,1.01-.1,2.04-.13,3.07-.03,.93,.09,1.9-.15,2.78-.1,.35-.95,.67-1.46,.69-.31,0-.63-.61-.95-.94,.13-.08,.26-.16,.39-.24Z" fill="#e96969"/>
      <path d="M58.48,94.23c-.21,1.35-.46,2.7-.62,4.06-.05,.42,.11,.89,.25,1.31,.27,.79,.06,1.33-.72,1.6-.75,.26-1.22,.03-1.58-.75-.45-.97-.44-1.82-.13-2.85,.32-1.06,.27-2.23,.41-3.35,.1-.79,.71-1.04,1.37-1.08,.67-.04,1.08,.31,1.01,1.06Z" fill="#e96969"/>
      <path d="M61.21,93.9c1.85-1.19,2.7-.95,3.22,.99,.34,1.28,.48,2.64,.54,3.97,.05,1.13-1.05,.98-1.73,1.13-.76,.17-.69-.51-.7-.99-.05-1.78-.12-3.55-1.32-5.1Z" fill="#e96969"/>
      <path d="M133.31,85.67c.21,.36,.38,.76,.65,1.06,.37,.4,1.13,.79,.54,1.31-.42,.37-1.4,.56-1.88,.33-.95-.48-1.8-1.22-1.57-2.58,.07-.44-.21-.94-.35-1.4-.23-.73-.05-1.29,.73-1.48,.65-.16,1.35-.34,1.59,.64,.17,.66,.43,1.3,.65,1.95-.12,.05-.24,.11-.35,.16Z" fill="#e96969"/>
      <path d="M96.34,139.47c-.86-.5-1.69-1.23-2.76-.47-.07-.2-.09-.46-.23-.58-1.65-1.53-2-3.73-2.95-5.62-.06-.13-.21-.27-.18-.37,.33-1.25,.67-2.49,1.04-3.72,.08-.26,.46-.48,.45-.7-.12-1.92,1.63-2.4,2.64-3.42,.69-.7,4.71-.32,5.38,.4,.46,.5,.91,1.02,1.41,1.49,.76,.71,1.43,1.46,1.57,2.56,.04,.33,.23,.66,.39,.96,.69,1.3,1.15,2.6,.19,3.99-.13,.18-.16,.48-.12,.71,.23,1.52-.64,2.44-1.75,3.23-.17,.12-.42,.22-.49,.39-.51,1.19-1.58,1.4-2.67,1.59-.57-.43-1.11-1.02-1.92-.45Z" fill="#dacccc"/>
      <path d="M96.34,139.47c.81-.58,1.34,.01,1.92,.45,.28,.28,.58,.82,.82,.79,1.73-.18,2.82,.96,4.05,1.82,.26,.18,.51,.4,.8,.5,1.93,.7,2.64,1.8,2.49,3.82-.02,.21,.09,.54,.24,.63,1.34,.74,1.44,2,1.39,3.3-.05,1.39-.12,2.78-.23,4.17-.02,.25-.17,.54-.35,.73-.58,.63-1.17,1.25-1.82,1.8-.2,.17-.69,.22-.91,.09-.23-.13-.47-.65-.38-.83,.36-.67,.73-1.43,1.32-1.86,.56-.41,.68-.79,.66-1.39-.03-.9-.11-1.83,.06-2.7,.19-.95-.09-1.6-.82-2.09-.72-.49-1.07-1.01-.8-1.95,.29-1.03-.46-1.65-1.21-2.15-.88-.58-1.77-1.16-2.69-1.65-.47-.25-1.04-.33-1.56-.49-.24-.37-.42-.8-.73-1.09-.72-.67-1.5-1.27-2.26-1.9Z" fill="#a19797"/>
      <path d="M94.44,12.13c.08-.08,.16-.15,.23-.23-.08,.08-.16,.15-.23,.23Z" fill="#fff"/>
      <path d="M82.34,88.12c2.37,.28,4.74,.63,7.13,.8,.92,.07,1.86-.3,2.8-.44,.38-.06,.83-.18,1.13-.03,.75,.38,1.41,.26,2.1-.09,.43,.04,.9,.19,1.29,.09,1.22-.34,2.47-.67,3.62-1.19,4.2-1.9,7.92-4.31,9.01-9.26,.62,.54,1.23,1.09,1.85,1.63-1,2.91-3.04,4.98-5.54,6.59-5.17,3.31-10.97,4.55-17.01,4.67-2.02,.04-4.08-.26-6.07-.64-3.64-.71-7.08-1.91-9.81-4.61-.23-.23-.62-.31-.93-.46,.39-.86,.78-1.73,1.17-2.59,.16,.13,.36,.24,.47,.4,1.29,2.05,3.22,3.33,5.36,4.27,1.07,.47,2.3,.59,3.46,.87Z" fill="#b38e95"/>
      <path d="M82.34,88.12c-1.16-.28-2.39-.4-3.46-.87-2.14-.94-4.07-2.22-5.36-4.27-.1-.17-.31-.27-.47-.4,.43-.88,.39-1.76-.1-2.6-.49-.84-1.01-1.66-1.51-2.49,.2-.28,.46-.53,.59-.84,1.44-3.33,4.06-5.39,7.27-6.82,.49,1.34,0,2.58-.4,3.83-1.36,.63-2.12,1.78-2.73,3.08-1.45,3.06,.34,7.17,3.58,8.21,.02,1.3,1.14,1.8,1.86,2.59,.2,.23,.48,.38,.73,.57Z" fill="#b2878f"/>
      <path d="M109.41,77.99c-1.09,4.95-4.82,7.35-9.01,9.26-1.15,.52-2.39,.85-3.62,1.19-.39,.11-.86-.05-1.29-.09,.2-.13,.39-.34,.61-.37,1.32-.18,2.08-1.16,2.94-1.99,.37-.09,.79-.1,1.1-.29,1.26-.76,2.58-1.48,3.73-2.4,3.88-3.1,4.62-8.11-.02-11.51-.68-.5-1.55-.75-2.33-1.12-.15-.92-.31-1.84-.46-2.77,.84,.25,1.71,.44,2.52,.76,2.32,.92,4.08,2.6,5.76,4.38-.19,1.65-.85,3.31,.06,4.94Z" fill="#b28891"/>
      <path d="M64.18,77.04c.65-1.38,1.08-2.93,1.99-4.12,3.63-4.78,8.78-7.26,14.36-9,.26-.08,.56-.04,.84-.06-.48,1-.95,1.99-1.43,2.99-.21,.03-.43,.03-.62,.11-3.53,1.38-6.72,3.3-9.17,6.24-.76,.91-1.15,2.12-1.71,3.19-1.42,.22-2.84,.44-4.26,.65Z" fill="#b89ea2"/>
      <path d="M68.44,76.39c.56-1.07,.95-2.28,1.71-3.19,2.45-2.94,5.64-4.86,9.17-6.24,.19-.07,.41-.07,.62-.11-.21,.99-.43,1.99-.64,2.98-3.21,1.43-5.84,3.49-7.27,6.82-.13,.31-.39,.56-.59,.84-1-.37-2-.73-3-1.1Z" fill="#b59399"/>
      <path d="M100.53,65.5c-.5-.89-1-1.78-1.51-2.67,.45,.06,.9,.11,1.35,.19,4.21,.74,8.21,2.04,11.68,4.61,.61,.45,1.62,.74,1.55,1.84-.71,.5-1.42,1-2.13,1.5-.12-.17-.22-.36-.36-.51-2.56-2.8-5.94-4.08-9.47-5.07-.33-.09-.74,.08-1.12,.12Z" fill="#b89ea2"/>
      <path d="M100.53,65.5c.37-.05,.78-.22,1.12-.12,3.53,.99,6.91,2.27,9.47,5.07,.14,.15,.24,.34,.36,.51-.71,.7-1.43,1.39-2.14,2.09-1.68-1.78-3.44-3.45-5.76-4.38-.81-.32-1.68-.51-2.52-.76-.18-.8-.36-1.6-.53-2.41Z" fill="#b59399"/>
      <path d="M101.53,70.68c.78,.37,1.64,.62,2.33,1.12,4.64,3.4,3.89,8.41,.02,11.51-1.15,.92-2.46,1.63-3.73,2.4-.31,.19-.73,.2-1.1,.29,.66-.77,1.33-1.54,1.99-2.31,.9-.72,1.93-1.33,2.66-2.19,1.5-1.78,2.16-3.85,1.12-6.11-.6-1.31-1.41-2.53-2.93-2.99-.12-.57-.24-1.14-.37-1.71Z" fill="#af828b"/>
      <path d="M79.75,84.95c-3.25-1.04-5.03-5.15-3.58-8.21,.62-1.3,1.38-2.45,2.73-3.08,.02,.67,.15,1.36,.06,2.01-.25,1.77-.81,3.54,.35,5.22,.1,.14,.23,.38,.17,.48-.66,1.26,.15,2.39,.28,3.58Z" fill="#a98087"/>
      <path d="M113.61,69.46c.07-1.09-.94-1.38-1.55-1.84-3.47-2.57-7.47-3.87-11.68-4.61-.45-.08-.9-.13-1.35-.19-.17-.44-.35-.87-.52-1.31,4.83,.51,9.42,1.83,13.62,4.31,1.26,.74,2.36,1.78,3.48,2.75,.28,.24,.37,.71,.54,1.07-.85-.06-1.69-.12-2.54-.18Z" fill="#bca7aa"/>
      <path d="M101.89,72.38c1.52,.46,2.32,1.67,2.93,2.99,1.04,2.26,.38,4.33-1.12,6.11-.73,.86-1.77,1.47-2.66,2.19-.11-1.03,.28-1.87,1.01-2.58,.41-.36,.97-.65,1.22-1.1,1.23-2.28,.59-5.09-1.33-6.12-.02-.5-.03-.99-.05-1.49Z" fill="#a98087"/>
      <path d="M101.94,73.87c1.91,1.03,2.56,3.84,1.33,6.12-.25,.45-.8,.74-1.22,1.1-.04-2.41-.07-4.82-.11-7.23Z" fill="#a37d84"/>
      <path d="M68.44,76.39c1,.37,2,.73,3,1.1,.51,.83,1.03,1.65,1.51,2.49,.49,.84,.53,1.72,.1,2.6-.39,.86-.78,1.73-1.17,2.59-.45,.47-.89,.94-1.34,1.41-.42,.2-.85,.4-1.27,.6-.35,.11-.69,.22-1.04,.34-.57,0-1.14,.01-1.7,.02-.93-.53-1.93-.97-2.79-1.6-1.74-1.26-1.96-3.14-1.91-5.12,.03-1.19,.44-2.11,1.38-2.83,.36-.27,.65-.62,.97-.94,1.42-.22,2.84-.44,4.26-.65Zm-4.22,5.04c.05,.31,.12,.62,.16,.94,.17,1.26,1.53,2.61,2.73,2.71,1.42,.12,2.44-.67,2.89-2.2,.09-.3,.2-.63,.4-.86,.87-.98,.02-1.72-.47-2.3-.36-.44-1.19-.66-1.81-.66-.75,0-1.5,.47-2.25,.5-1.32,.04-1.58,.82-1.65,1.88Z" fill="#110c0c"/>
      <path d="M66.52,87.53l1.7-.02c.14,.26,.23,.57,.44,.76,2.04,1.87,4.47,3.15,7.07,3.92,2.79,.82,5.65,1.45,8.53,1.86,2.03,.29,4.13,.04,6.2,.08,1.04,.02,2.07,.14,3.11,.21-.84,.29-1.68,.57-2.52,.86-.59,0-1.18-.01-1.77-.02-6.53-.07-12.9-.91-18.72-4.17-1.26-.7-2.4-1.62-3.55-2.49-.27-.2-.35-.65-.51-.98Z" fill="#bba5a9"/>
      <path d="M93.59,94.34c-1.04-.07-2.07-.19-3.11-.21-2.07-.04-4.17,.21-6.2-.08-2.88-.41-5.74-1.04-8.53-1.86-2.61-.77-5.03-2.04-7.07-3.92-.21-.19-.3-.5-.44-.76,.35-.11,.69-.22,1.04-.34,.23,.33,.4,.74,.71,.97,4.66,3.59,10.11,4.95,15.82,5.27,2.87,.16,5.79-.08,8.66-.4,5.6-.63,10.81-2.47,15.39-5.8,2.66-1.93,4.94-4.25,5.89-7.56,.64-.01,1.28-.03,1.92-.04-.75,1.5-1.28,3.18-2.3,4.46-3.62,4.58-8.66,6.99-14.08,8.76-.32,.11-.58,.4-.87,.61-1.48,0-2.97-.08-4.44,.06-.81,.08-1.58,.54-2.37,.83Z" fill="#baa2a5"/>
      <path d="M117.64,79.62c-.64,.01-1.28,.03-1.92,.04-.71,.08-1.42,.16-2.13,.24-.78-.09-1.56-.19-2.34-.28-.62-.54-1.23-1.09-1.85-1.63-.91-1.64-.25-3.29-.06-4.94,.71-.7,1.43-1.39,2.14-2.09,.71-.5,1.42-1,2.13-1.5,.85,.06,1.69,.12,2.54,.18,1.79,.61,3.08,1.89,3.9,3.48,.67,1.3,.71,2.79-.36,4.06-.68,.81-1.37,1.63-2.05,2.44Zm-2.7-2.43c1.23,.21,2.07,0,2.46-1.1,.18-.51,.64-1.01,.6-1.48-.11-1.19-1.86-2.59-3.04-2.42-.75,.11-1.47,.53-2.15,.91-1.17,.65-1.83,2.17-1.29,3.3,.23,.49,.97,.91,1.54,1.01,.65,.12,1.37-.15,1.87-.23Z" fill="#110c0c"/>
      <path d="M111.26,79.62c.78,.09,1.56,.19,2.34,.28-.11,.4-.16,.83-.33,1.21-1.57,3.43-4.47,5.5-7.61,7.26-4.36,2.45-9.14,3.62-14.06,3.99-5.25,.39-10.46-.1-15.39-2.17-2.08-.87-4.09-1.92-5.67-3.61,.45-.47,.89-.94,1.34-1.41,.31,.15,.7,.22,.93,.46,2.73,2.7,6.18,3.9,9.81,4.61,1.99,.39,4.05,.68,6.07,.64,6.05-.11,11.84-1.35,17.01-4.67,2.5-1.6,4.55-3.68,5.54-6.59Z" fill="#b6979c"/>
      <path d="M70.54,86.57c1.58,1.7,3.59,2.74,5.67,3.61,4.93,2.07,10.14,2.56,15.39,2.17,4.92-.37,9.7-1.54,14.06-3.99,3.14-1.76,6.04-3.83,7.61-7.26,.17-.37,.22-.8,.33-1.21,.71-.08,1.42-.16,2.13-.24-.95,3.31-3.23,5.63-5.89,7.56-4.58,3.32-9.79,5.17-15.39,5.8-2.87,.32-5.79,.56-8.66,.4-5.71-.32-11.17-1.68-15.82-5.27-.3-.24-.47-.65-.71-.97,.42-.2,.85-.4,1.27-.6Z" fill="#b89ea2"/>
      <path d="M64.21,81.43c.06-1.06,.33-1.84,1.65-1.88,.76-.02,1.5-.5,2.25-.5,.62,0,1.45,.23,1.81,.66,.49,.58,1.34,1.32,.47,2.3-.2,.23-.31,.56-.4,.86-.45,1.53-1.48,2.32-2.89,2.2-1.2-.1-2.56-1.46-2.73-2.71-.04-.31-.11-.62-.16-.94Z" fill="#b4989d"/>
      <path d="M114.94,77.19c-.5,.07-1.22,.35-1.87,.23-.57-.1-1.31-.52-1.54-1.01-.54-1.13,.12-2.65,1.29-3.3,.68-.38,1.4-.8,2.15-.91,1.18-.17,2.93,1.23,3.04,2.42,.05,.47-.42,.97-.6,1.48-.4,1.1-1.23,1.31-2.46,1.1Z" fill="#b4989d"/>
    </g>
  </g>
</svg>