<?xml version="1.0" encoding="UTF-8"?>
<svg id="Layer_2" data-name="Layer 2" xmlns="http://www.w3.org/2000/svg" viewBox="0 0 169.23 158.36">
  <g id="Layer_2-2" data-name="Layer 2">
    <g>
      <path d="M169.23,61.68v15.08c-1.23-3.85-4.29-4.89-7.38-4.86-3.24,.03-5.95,1.32-8.41,3.27-.78,.62-1.46,1.36-2.21,2.06,1.53,.49,2.82,.92,4.11,1.32,3.08,.97,6.16,1.97,9.25,2.9,1.33,.4,2.55-.03,3.45-1.05,.51-.58,.8-1.35,1.19-2.04v80H98.88c.48-.61,1-.96,1.76-.42,.6,.42,.92,.17,1.2-.46,.19-.43,.58-.83,.98-1.08,.91-.57,2.1-.74,2.49-1.99,.06-.21,.46-.41,.71-.44,1.13-.11,2.26-.2,3.39-.22,1.16-.02,2.13-.34,2.96-1.2,.25-.26,.84-.34,1.22-.27,.67,.13,1.17,.04,1.58-.53,.69-.93,1.39-1.86,2.14-2.86,.24,.13,.52,.27,.79,.41-.86,1.9-.6,2.95,.97,4.03,.51,.35,2.79-.08,3.41-.6,1.07-.89,2.11-1.82,3.25-2.61,1.15-.8,2.38-1.48,3.84-1.58,.53-.04,1.24,.1,1.55-.19,1.2-1.08,2.75-1.15,4.15-1.62,1.59-.52,2.9-2.24,2.75-3.89-.03-.34-.35-.77-.66-.94-.57-.32-1.23-.45-1.84-.7-1.51-.63-3.03-1.03-4.66-.4-1.14,.44-2.31,.84-3.46,1.26-.11-.21-.22-.42-.33-.63-.02-.37-.14-.76-.05-1.09,.48-1.61-.09-3.04-.74-4.42-.35-.74-.9-1.38-1.38-2.05-.38-.53-.74-1.08-1.19-1.55-.93-.98-2.3-1.3-3.35-2.01-1.7-1.15-3.45-1.62-5.41-1.7-.2-.34-.39-.67-.59-1.01,.05-1.14,.21-2.29,.12-3.42-.06-.69-.56-1.34-.75-2.03-.38-1.38-.67-2.78-1-4.17,.65,.22,1.33,.38,1.95,.66,.88,.39,1.68,1.01,2.59,1.29,2.81,.89,5.73,1.45,8.41,2.77,.32,.16,.7,.21,1.07,.25,.9,.1,1.8,.12,2.7,.25,1.18,.18,2.34,.48,3.52,.66,.96,.15,1.97,.4,2.91,.26,1.67-.25,3.29-.78,4.94-1.14,.88-.19,3.34-2.29,3.56-3.16,.02-.06,.04-.13,.05-.19,.24-1.71,.43-3.36-.09-5.11-.84-2.83-3.24-4.68-6.19-4.47-.34,.02-.87-.09-1.03-.33-1.41-2.13-2.16-2.46-4.58-1.72-.29,.09-.63,.52-.66,.82-.18,1.64-.16,1.62-1.72,1.98-.82,.19-1.55,.21-2.31-.26-.3-.19-.77-.18-1.15-.14-.89,.1-1.78,.46-2.64,.39-2.15-.18-4.31-.47-6.44-.85-1.64-.29-3.26-.49-4.93-.5-.93,0-1.85-.61-2.77-.94,.35-.07,.69-.14,1.04-.22,.68-.14,1.4-.2,2.03-.45,1.48-.6,2.92-1.3,4.38-1.95,1.39-.62,2.78-1.23,4.18-1.81,2.39-1,4.85-1.86,7.16-3.02,1.4-.7,2.55-1.89,3.84-2.82,1.08-.78,2.22-1.46,3.3-2.24,.86-.62,1.69-1.29,2.49-1.99,.91-.8,1.96-1.48,2.3-2.77,.04-.15,.34-.21,.46-.37,.52-.64,1.29-1.24,1.47-1.98,.36-1.47,1.06-2.77,1.07-4.45,.03-2.67-.11-5.21-.84-7.78-.68-2.43-1.02-4.95-1.56-7.41-.16-.74-.25-1.68-.74-2.14-1.34-1.25-1.72-2.91-2.33-4.48-.37-.95-.58-1.95-.87-2.93,1.3-.62,2.6-1.23,3.9-1.86,.11-.05,.19-.19,.26-.3,.9-1.29,1.86-2.57,1.48-4.31-.02-.11,.07-.24,.12-.41,.2,.05,.36,.09,.51,.14,1.85,.51,3.69,1.73,5.58,.11,.07-.06,.22,0,.29-.06,.97-.75,2-1.44,2.86-2.3,.26-.26,.05-.99,.08-1.5,.01-.2,.05-.4,.13-.58,.41-.87,.32-1.67-.18-2.48-.28-.45-.47-.95-.76-1.58,.83-.07,1.55-.13,2.26-.19,.46-.03,.99,.09,1.39-.09,2.2-1,4.13-2.33,5.28-4.56,.2-.38,.42-.77,.7-1.09,1.22-1.38,1.42-3.1,1.58-4.81,.15-1.55,.11-3.11,.15-4.67,.01-.46,.1-.96-.03-1.38-.48-1.56-1.04-3.09-1.57-4.63-.51-1.47-1.22-2.92-1.46-4.43-.21-1.34-.84-2.28-1.67-3.21-.18-.2-.45-.4-.48-.63-.23-1.48-1.33-2.36-2.27-3.33-1.94-2.02-3.66-4.32-6.48-5.26-.15-.05-.24-.23-.38-.32-1.38-.85-2.67-2.07-4.18-2.47-2.8-.75-5.73-1.03-8.61-1.49-.15-.02-.31,.11-.47,.14-.87,.15-1.8,.55-2.61,.39-1.87-.39-3.47,.38-5.15,.85-.93,.26-1.85,.67-2.79,.73-1.19,.07-2.15,.52-3.16,1.08-1.5,.83-2.82,1.91-4.45,2.6-1.63,.69-3.17,1.89-4.38,3.2-1.22,1.32-1.98,3.06-2.96,4.61-.16,.25-.34,.5-.57,.67-1.48,1.16-1.94,2.76-2.14,4.53-.16,1.4-1.01,2.67-.75,4.15,0,.05-.07,.12-.08,.18-.13,.5-.26,1.01-.38,1.51-.58-.2-1.29-.26-1.7-.64-.86-.78-1.89-.71-2.89-.88-1.61-.28-3.39,.2-4.79-1.07-.13-.12-.37-.14-.56-.15-1.34-.08-2.69-.16-4.03-.21-.49-.02-1,.02-1.49,.08-1.17,.14-2.36,.55-3.44-.32,.03-1.06,.07-2.12,.07-3.18,0-1.61,.8-2.99,1.67-4.18,.55-.76,1.23-1.42,1.61-2.32,.22-.51,.59-.96,.89-1.43,.98,.83,2.02,1.38,3.37,.88,.32-.12,.72,0,1.08,0,.59,.01,1.25,.2,1.74,0,.79-.33,1.46-.96,2.21-1.41,1.29-.76,2.85-1.22,3.12-3.02,0-.03,.04-.05,.06-.08,.88-1.4,.32-2.46-1.32-2.6-.45-.04-.9-.22-1.32-.41-1.48-.68-2.98-1.16-4.64-.92-.76,.11-1.41,.31-1.76,1.11-.12,.27-.43,.49-.71,.66-.58,.36-1.2,.66-1.8,.99,.09-1.18-.84-1.76-1.5-2.46-2.07-2.22-4.75-3.52-7.49-4.7-.29-.12-.63-.12-.94-.17-.04,.35-.12,.7-.12,1.05,0,.55,.25,1.2,.03,1.62-.73,1.41-.26,2.81,.3,3.92,.93,1.83,2.58,3.18,4.28,4.37,1.16,.82,2.52,.48,3.79,.64-.46,.88-.75,1.92-1.41,2.6-1.64,1.67-2.51,3.61-2.66,5.91-.03,.4,.06,.8,.08,1.14-1.09-.45-2.29-.64-3.05-1.33-1.94-1.77-4.05-1.1-6.08-.61-1.17,.28-2.22,1.11-3.31,1.71-.13,.07-.24,.25-.26,.4-.15,1.21-.27,2.43-.41,3.65-.37,.14-.73,.33-1.11,.41-1.63,.33-3.29,.56-4.9,.94-1.84,.44-3.68,.95-5.48,1.55-1.51,.5-2.96,1.17-4.42,1.8-.85,.37-1.66,.85-2.52,1.19-.26,.1-.75,.01-.93-.18-.49-.52-.89-1.13-1.31-1.71-1.96-2.79-4.71-4.64-7.65-6.21-1.51-.81-3.14-1.39-4.72-2.05-.3-.12-.64-.12-.97-.17-.33-.05-.66-.06-.98-.14-1.44-.39-2.87-.81-4.31-1.18-.24-.06-.52,.08-.78,.08-.64,0-1.28-.04-1.92-.07-.86-.04-1.72-.13-2.57-.11-1.77,.04-3.53,.12-5.29,.22-1.15,.07-2.37,0-3.42,.39-1.68,.61-3.03,1.92-4.76,2.52-.37,.13-.66,.54-.96,.85-.53,.56-1.01,1.15-1.55,1.7-.76,.78-1.54,1.53-2.32,2.28-.58,.55-1.19,1.07-1.77,1.61-.19,.18-.42,.36-.54,.58-1.56,2.83-3.17,5.63-4.65,8.5-1.45,2.79-1.62,5.91-2.1,8.95-.29,1.83,.33,3.7-.35,5.5-.07,.19,.06,.45,.1,.68,.16,.87,.34,1.74,.46,2.61,.25,1.8,.46,3.61,.7,5.42,.03,.2,.04,.42,.15,.58,.99,1.41,1.65,2.93,1.62,4.7,0,.14,.2,.27,.26,.42,.72,1.6,1.35,3.25,2.17,4.8,.6,1.13,1.36,2.22,2.22,3.17,.84,.93,1.89,1.67,2.86,2.46,.3,.24,.65,.44,1.01,.56,.56,.18,1.15,.29,1.73,.41,.29,.06,.64,.24,.85,.14,1.45-.72,2.86-1.51,4.3-2.24,.21-.1,.62-.12,.75,0,.25,.24,.37,.62,.52,.95,.69,1.48,1.76,2.38,3.48,2.36,1.66-.01,3.16-.35,4.33-1.69,.44-.5,.98-1.27,1.84-.62,.99,.74,2.06,1.05,3.29,.91,.43-.05,.87-.02,1.31,0,1.32,.02,1.63,.27,1.59,1.57-.03,1.16-.15,2.33-.29,3.48-.34,2.8-.23,5.57,.51,8.3,.36,1.32,.64,2.65,1.01,3.97,.22,.78,.39,1.65,.86,2.26,.83,1.06,1.89,1.94,2.83,2.93,.31,.33,.48,.8,.8,1.11,1.09,1.04,2.17,2.12,3.37,3.03,.85,.65,1.9,1.05,2.83,1.61,.98,.59,1.71,1.63,3.06,1.5,.25-.02,.54,.23,.8,.36,2.02,1.01,3.91,2.24,6.26,2.53,3.53,.43,7.02,1.15,10.54,1.67,1.22,.18,2.46,.15,3.7,.2,.65,.03,1.31,.03,1.96,.04-1.82,.94-3.63,1.92-5.47,2.81-1.07,.52-2.2,.93-3.32,1.34-1.58,.59-3.15,1.28-4.78,1.67-1.83,.44-3.75,.48-5.58,.9-.95,.22-1.28-.09-1.58-.83-.14-.36-.28-.8-.57-1.01-1.16-.84-3.33-.18-3.87,1.15-.24,.58-.36,1.21-.52,1.78-.65-.4-1.17-.08-1.67,.34-.38,.32-.69,.76-1.12,1-2.36,1.31-2.96,3.45-2.7,5.89,.15,1.42,.21,2.97,1.47,4.03,.53,.44,1.04,.9,1.56,1.36,.51,.44,.96,1.06,1.55,1.29,2.18,.87,4.48,.45,6.67,.15,1.31-.18,2.8-.31,3.9-1.35,.15-.14,.44-.15,.67-.18,1.46-.22,2.82-.61,3.97-1.67,.59-.54,1.43-.81,2.14-1.23,1.23-.73,2.47-1.45,3.68-2.23,1.25-.81,2.47-1.68,3.7-2.53-.39,1.87-.95,3.68-.96,5.64,0,1.22-.54,2.44-.81,3.67-.06,.29-.09,.62-.02,.89,.36,1.25-.17,2.34-.52,3.48-.15,.47-.15,1.02-.08,1.51,.15,1.02,.54,2.02,.55,3.03,.01,1.15,.55,1.98,1.23,2.76,1.05,1.22,2.21,2.35,3.24,3.59,.85,1.02,1.83,1.61,3.18,1.58,.34,0,.77,.07,1.01,.28,1.31,1.15,2.87,1.54,4.52,1.5,1.53-.03,3.07-.48,4.57-.35,3.01,.26,6,.79,9.08,1.23-.16,.48-.22,.67-.28,.85-.57,1.78-.38,2.24,1.27,3.1,.12,.06,.22,.14,.33,.2H0V0H169.23V60.27c-.72-2.75-2.51-4.31-5.3-4.74-2.05-.31-3.91,.29-5.64,1.32-4.02,2.41-6.06,6.19-7.14,10.58-.26,1.03-.33,2.11-.5,3.27,1.02-.44,1.79-.84,2.6-1.11,3.54-1.19,7.11-2.32,10.65-3.5,2.34-.78,4.66-1.61,5.33-4.41Z" fill="#fff"/>
      <path d="M112.75,117.98c.33,1.39,.62,2.79,1,4.17,.19,.7,.7,1.34,.75,2.03,.09,1.13-.07,2.28-.12,3.42-.76,.18-1.53,.35-2.29,.54-.29,.07-.56,.23-.85,.26-3.78,.43-6.05,2.72-7.51,6.03-.14,.32-.24,.65-.32,.86-.61-.18-1.11-.29-1.58-.47-1.19-.45-2.37-.92-3.56-1.38,1.1-.51,2.13-1.13,2.56-2.34,.32-.9,.63-1.83,.77-2.77,.38-2.5,.09-4.92-1.25-7.14-.13-.22-.34-.44-.57-.54-.78-.34-1.58-.62-2.36-.94-.15-.06-.32-.12-.45-.22-1.41-1.12-2.83-.63-4.21,.04-.3,.14-.52,.48-.71,.78-.39,.61-.66,1.31-1.11,1.87-.77,.93-1.54,1.79-1.11,3.14,.07,.22-.11,.52-.12,.78-.06,1.5-.11,2.97,1.06,4.2,.55,.58,.87,1.38,1.3,2.08-.5,.34-1.09,1.03-1.49,.94-1.24-.3-2.04,.26-2.89,.95-.54,.44-1.11,1.01-1.74,1.11-1.16,.18-1.68,.78-1.91,1.84-.08,.35-.29,.85-.57,.96-1.21,.47-1.21,1.58-1.43,2.56-.05,.2,.19,.6,.39,.68,.22,.09,.76,0,.8-.14,.38-1.15,1.15-1.94,2.06-2.68,.24-.2,.16-.76,.32-1.12,.1-.24,.33-.46,.56-.6,.87-.52,1.74-1.03,2.65-1.49,.47-.24,1-.41,1.52-.51,.66-.12,1.34-.14,1.82-.19,.85-.15,1.48-.29,2.12-.37,.42-.05,.9-.14,1.28,0,2.06,.72,4.09,1.51,6.3,2.34-.24,1.29,.93,2.09,1.79,3.1,.51,.59,.97,1.31,1.17,2.05,.38,1.43,.55,2.92,.81,4.37-1.39,.74-2.06,1.77-1.89,3.01,.04,.26,.32,.68,.51,.68,.29,.01,.67-.19,.88-.43,.17-.19,.1-.59,.24-.84,.1-.19,.39-.44,.54-.41,1.68,.31,3.2,.06,4.52-1.11,.15-.13,.49-.05,.74-.06,1.09-.05,2.18-.09,3.26-.16,.37-.03,.73-.16,1.1-.24-.01,.37-.02,.73-.04,1.1,0,.1,0,.19,0,.29,2.13,.39,2.49-.04,2.46-1.34-.03-1.52-2.44-2.81-3.74-2.05-1.02,.59-1.97,.64-3.04,.22-.76-.3-1.49-.24-2.03,.56-.46,.68-1.1,.93-1.93,.59-.17-.85-.31-1.7-.53-2.53-.33-1.27-.58-2.59-1.11-3.77-.34-.75-1.12-1.3-1.69-1.95-.39-.45-.74-.88,.25-1.09,.28-.06,.58-.41,.73-.7,.23-.44,.3-.95,.49-1.42,.92-2.25,2.71-3.54,4.9-4.33,1.57-.57,3.17-1.05,4.75-1.57,1.96,.08,3.71,.55,5.41,1.7,1.05,.71,2.42,1.04,3.35,2.01,.45,.47,.81,1.02,1.19,1.55,.48,.67,1.04,1.31,1.38,2.05,.65,1.39,1.22,2.82,.74,4.42-.1,.33,.02,.73,.04,1.09-.98,.54-1.99,1.04-2.92,1.65-.21,.14-.15,.67-.22,1.02,.37,.07,.82,.3,1.11,.18,.63-.27,1.23-.66,1.75-1.11,.3-.26,.41-.73,.61-1.1,1.15-.42,2.32-.82,3.46-1.26,1.63-.63,3.14-.23,4.66,.4,.61,.25,1.27,.39,1.84,.7,.31,.17,.63,.6,.66,.94,.15,1.65-1.17,3.37-2.75,3.89-1.4,.46-2.95,.53-4.15,1.62-.32,.29-1.02,.15-1.55,.19-1.46,.1-2.69,.78-3.84,1.58-1.14,.79-2.18,1.72-3.25,2.61-.62,.52-2.9,.95-3.41,.6-1.56-1.08-1.83-2.13-.97-4.03-.27-.14-.55-.29-.79-.41-.75,1-1.45,1.92-2.14,2.86-.41,.56-.91,.65-1.58,.53-.39-.07-.97,.01-1.22,.27-.83,.86-1.8,1.18-2.96,1.2-1.13,.02-2.27,.1-3.39,.22-.26,.03-.65,.23-.71,.44-.39,1.25-1.59,1.42-2.49,1.99-.4,.25-.79,.65-.98,1.08-.28,.64-.6,.89-1.2,.46-.77-.54-1.29-.2-1.76,.42h-.4c-.11-.07-.22-.14-.33-.2-1.65-.86-1.84-1.32-1.27-3.1,.06-.19,.12-.37,.28-.85-3.09-.43-6.08-.97-9.08-1.23-1.5-.13-3.04,.32-4.57,.35-1.65,.04-3.22-.35-4.52-1.5-.24-.21-.67-.29-1.01-.28-1.35,.02-2.33-.56-3.18-1.58-1.03-1.24-2.19-2.37-3.24-3.59-.67-.78-1.21-1.6-1.23-2.76-.01-1.01-.4-2.01-.55-3.03-.07-.49-.07-1.04,.08-1.51,.36-1.14,.88-2.23,.52-3.48-.08-.28-.05-.61,.02-.89,.27-1.23,.81-2.44,.81-3.67,0-1.96,.58-3.78,.96-5.64,0,0-.01,0-.01,0,.07-.07,.14-.14,.21-.21h-.01c.07-.06,.14-.13,.21-.2,0,0-.01,.01-.01,.01,.07-.07,.14-.14,.21-.21,.32-.76,.64-1.52,.94-2.29,.36-.92,.77-1.84,1.03-2.79,.4-1.46,1.23-2.74,1.64-4.21,.35-1.22,1.33-2.26,2.03-3.38,.37-.49,.73-.98,1.16-1.55,.17,.05,.48,.16,.8,.23,.78,.18,1.66,.66,2.31,.44,1.24-.42,2.27-.02,3.39,.24,.64,.15,1.32,.25,1.97,.23,2.58-.1,5.2-.05,7.73-.47,1.3-.22,2.52-.45,3.86-.38,1.21,.06,2.44-.46,3.67-.73,.73-.16,1.65-.12,2.14-.55,.79-.7,1.53-.94,2.49-.66,.43,.54,.92,1.04,1.28,1.62,.56,.89,1.04,1.82,1.53,2.75,.24,.44,.33,.99,.64,1.36,.82,.98,1.38,2.03,1.38,3.33Z" fill="#aca3a3"/>
      <path d="M169.23,61.68c-.67,2.8-2.99,3.63-5.33,4.41-3.55,1.18-7.11,2.32-10.65,3.5-.81,.27-1.58,.67-2.6,1.11,.17-1.16,.25-2.24,.5-3.27,1.08-4.39,3.12-8.17,7.14-10.58,1.72-1.03,3.59-1.63,5.64-1.32,2.79,.43,4.58,1.99,5.3,4.74v1.41Z" fill="#7ed2ed"/>
      <path d="M169.23,78.37c-.39,.69-.68,1.46-1.19,2.04-.9,1.02-2.11,1.45-3.45,1.05-3.1-.93-6.17-1.92-9.25-2.9-1.29-.41-2.58-.83-4.11-1.32,.75-.71,1.43-1.45,2.21-2.06,2.46-1.95,5.17-3.24,8.41-3.27,3.09-.03,6.15,1.01,7.38,4.86v1.61Z" fill="#7ed2ed"/>
      <path d="M107.92,108.92c-.97-.27-1.7-.04-2.49,.66-.49,.44-1.41,.39-2.14,.55-1.22,.27-2.46,.78-3.67,.73-1.35-.06-2.56,.16-3.86,.38-2.53,.43-5.14,.38-7.73,.47-.66,.02-1.33-.08-1.97-.23-1.12-.26-2.15-.66-3.39-.24-.65,.22-1.53-.26-2.31-.44-.32-.07-.63-.18-.8-.23-.43,.57-.79,1.06-1.16,1.55-.28-.06-.58-.23-.84-.18-1.18,.23-2.36,.52-3.53,.79-.65-.01-1.31,0-1.96-.04-1.23-.05-2.48-.02-3.7-.2-3.52-.52-7.01-1.23-10.54-1.67-2.36-.29-4.25-1.52-6.26-2.53-.27-.13-.55-.39-.8-.36-1.35,.13-2.09-.91-3.06-1.5-.93-.56-1.98-.96-2.83-1.61-1.2-.92-2.27-1.99-3.37-3.03-.33-.31-.49-.78-.8-1.11-.94-.98-2-1.86-2.83-2.93-.48-.61-.64-1.48-.86-2.26-.37-1.31-.65-2.65-1.01-3.97-.74-2.74-.85-5.5-.51-8.3,.14-1.16,.26-2.32,.29-3.48,.03-1.3-.27-1.55-1.59-1.57-.44,0-.88-.04-1.31,0-1.23,.14-2.3-.17-3.29-.91-.86-.64-1.4,.12-1.84,.62-1.17,1.34-2.66,1.68-4.33,1.69-1.72,.02-2.79-.88-3.48-2.36-.15-.33-.27-.71-.52-.95-.13-.13-.54-.11-.75,0-1.44,.73-2.85,1.52-4.3,2.24-.21,.1-.57-.07-.85-.14-.58-.13-1.17-.23-1.73-.41-.36-.12-.72-.32-1.01-.56-.98-.79-2.03-1.54-2.86-2.46-.86-.95-1.62-2.04-2.22-3.17-.82-1.55-1.45-3.2-2.17-4.8-.07-.15-.26-.28-.26-.42,.03-1.77-.63-3.29-1.62-4.7-.11-.15-.12-.38-.15-.58-.23-1.81-.45-3.61-.7-5.42-.12-.88-.31-1.74-.46-2.61-.04-.23-.17-.49-.1-.68,.68-1.8,.06-3.67,.35-5.5,.48-3.04,.65-6.16,2.1-8.95,1.49-2.87,3.09-5.67,4.65-8.5,.12-.23,.35-.4,.54-.58,.59-.54,1.2-1.06,1.77-1.61,.79-.75,1.56-1.5,2.32-2.28,.54-.55,1.02-1.15,1.55-1.7,.3-.31,.59-.72,.96-.85,1.73-.59,3.08-1.9,4.76-2.52,1.05-.38,2.27-.32,3.42-.39,1.76-.11,3.53-.18,5.29-.22,.86-.02,1.72,.08,2.57,.11,.64,.03,1.28,.06,1.92,.07,.26,0,.54-.14,.78-.08,1.44,.37,2.87,.79,4.31,1.18,.32,.08,.65,.09,.98,.14,.33,.05,.67,.04,.97,.17,1.58,.66,3.21,1.24,4.72,2.05,2.94,1.57,5.69,3.42,7.65,6.21,.41,.59,.81,1.2,1.31,1.71,.18,.19,.68,.28,.93,.18,.86-.34,1.67-.82,2.52-1.19,1.46-.63,2.91-1.3,4.42-1.8,1.8-.6,3.63-1.11,5.48-1.55,1.62-.39,3.27-.62,4.9-.94,.38-.08,.74-.27,1.11-.41,.13,1.7,.76,2.85,2.54,3.56,2.73,1.08,5.38,1.31,8.15,.38,.18-.06,.37-.17,.52-.29,.86-.72,1.76-1.41,2.55-2.2,.3-.3,.42-.83,.51-1.27,.13-.65,.16-1.31,.23-1.97,1.08,.87,2.27,.46,3.44,.32,.49-.06,.99-.1,1.49-.08,1.34,.05,2.69,.13,4.03,.21,.19,.01,.43,.03,.56,.15,1.4,1.27,3.18,.79,4.79,1.07,1,.17,2.03,.1,2.89,.88,.42,.38,1.13,.43,1.7,.64,.43,.14,.85,.31,1.29,.42,.8,.21,1.84,.14,2.36,.63,1.41,1.31,3.32,1.66,4.8,2.79,.3,.21,.6,.41,.89,.65,1.13,.93,2.18,1.93,3.63,2.4,.57,.19,1.12,.62,1.54,1.07,1.09,1.15,2.16,2.33,3.13,3.58,1.5,1.94,2.92,3.95,4.36,5.93,.06,.08,.1,.18,.1,.28,.03,1.6,1.26,2.4,2.23,3.38,.44,.74,.88,1.47,1.31,2.22,.18,.31,.5,.65,.47,.96-.1,1.19,.6,1.92,1.34,2.65,.63,.62,1.24,1.21,1.14,2.22-.02,.23,.25,.51,.42,.75,.59,.79,1.19,1.56,1.79,2.34,.2,.26,.4,.51,.61,.77,.28,.98,.5,1.98,.87,2.93,.61,1.57,.99,3.24,2.33,4.48,.49,.45,.58,1.39,.74,2.14,.53,2.47,.88,4.99,1.56,7.41,.72,2.58,.87,5.12,.84,7.78-.02,1.68-.71,2.98-1.07,4.45-.18,.74-.95,1.33-1.47,1.98-.12,.15-.42,.21-.46,.37-.34,1.29-1.39,1.97-2.3,2.77-.8,.7-1.63,1.37-2.49,1.99-1.08,.78-2.22,1.47-3.3,2.24-1.29,.93-2.44,2.12-3.84,2.82-2.31,1.16-4.77,2.02-7.16,3.02-1.4,.59-2.79,1.2-4.18,1.81-1.46,.65-2.9,1.35-4.38,1.95-.64,.26-1.35,.31-2.03,.45-.35,.07-.69,.14-1.04,.22-.78-.44-1.41-.1-2.01,.4Zm23.31-27.94c.32,.94,.63,1.88,.96,2.82,.26,.73,.84,.68,1.4,.5,.57-.19,1.04-.52,.77-1.26-.44-1.22-.88-2.43-1.32-3.64,1.1-1.94,2.31-3.83,3.28-5.83,1.26-2.61,1.67-5.45,1.28-8.3-.73-5.2-3.82-8.95-7.94-11.91-4.24-3.04-9.04-4.81-14.09-6-4.56-1.08-9.17-1.59-13.83-1.74-4.14-.13-8.28-.04-12.38,.6-3.84,.59-7.7,1.12-11.48,1.98-7.32,1.67-14.34,4.23-20.91,7.92-3.82,2.14-7.42,4.61-10.65,7.6-2.31,2.14-4.34,4.56-5.85,7.33-1.79,3.29-2.98,6.73-2.51,10.61,.59,4.88,3.31,8.4,6.92,11.41,.26,.22,.66,.27,.99,.4,0,.26-.06,.54,0,.79,.08,.35,.17,.88,.4,.98,.37,.15,.94,.13,1.26-.07,.33-.2,.46-.72,.68-1.1,.44,.15,.89,.26,1.3,.45,1.63,.77,3.2,1.67,4.86,2.35,6.4,2.59,13.16,3.46,19.99,3.8,2.69,.14,5.4-.08,8.1-.18,.96-.04,1.91-.21,2.87-.33,1.91-.22,3.82-.45,5.73-.67,.48,.46,.93,.95,1.45,1.37,.5,.41,1.04,.77,1.61,1.09,1.66,.93,3.46,.52,5.17,.31,1.03-.12,2.08-.61,2.25-1.93,.13-1.01,.26-2.03,.39-3.04,.46-.07,.93-.09,1.37-.23,4.76-1.54,9.39-3.38,13.82-5.75,4.82-2.58,9.22-5.7,13.1-9.55,.3-.29,.68-.5,1.02-.75ZM46.57,38.09c-.84-.5-1.77-1.16-2.8-1.63-1.13-.52-2.32-.97-3.53-1.24-2.28-.52-4.57-1.23-6.96-.55-.2,.06-.48,0-.66-.11-.78-.47-1.55-.2-2.37-.18-1.3,.04-2.46,.55-3.65,.68-1.72,.17-3.21,.6-4.47,1.71-1.18,1.03-2.52,2-3.29,3.3-.58,.98-1.18,1.94-1.83,2.88-.4,.58-.7,1.25-.89,1.93-.38,1.37-.74,2.76-.94,4.17-.19,1.3-.16,2.64-.22,3.96,0,.06,.04,.14,.08,.18,.78,.68,.92,1.57,.85,2.54-.01,.17,.17,.34,.25,.52,.26,.56,.52,1.11,.78,1.67,.14,.3,.2,.68,.42,.89,.87,.81,1.75,1.62,2.71,2.32,1.13,.83,2.31,1.6,3.54,2.28,.86,.48,1.8,.86,2.75,1.11,.88,.24,1.9,.08,2.73,.41,2.38,.94,4.68,1.15,7.16,.26,.91-.33,.92-1.01,1.27-1.55,.28-.42,.47-1.04,.41-1.53-.13-1.08,.06-2.01,.63-2.92,.24-.37,.33-.85,.44-1.29,.38-1.47,.75-2.95,1.13-4.43,.15-.6,.3-1.19,.48-1.78,.16-.51,.35-1.02,.56-1.51,.34-.83,.76-1.62,1.03-2.47,.55-1.75,.44-3.75,2.06-5.06,.12-.1,.18-.28,.25-.43,.69-1.35,1.37-2.71,2.07-4.1Z" fill="#bbb0b1"/>
      <path d="M137.3,59.7c-.2-.25-.41-.51-.61-.77-.6-.78-1.2-1.55-1.79-2.34-.17-.23-.45-.51-.42-.75,.1-1.01-.51-1.6-1.14-2.22-.74-.72-1.44-1.46-1.34-2.65,.03-.3-.29-.65-.47-.96-.43-.74-.87-1.48-1.31-2.22,.89-.11,1.84-.06,2.65-.37,1.29-.48,2.5-1.2,3.75-1.79,.27-.13,.59-.13,.86-.25,.46-.21,.98-.38,1.34-.71,1.07-.97,2.32-1.71,3.41-2.68,1.36-1.21,2.53-2.39,3.07-4.14,.1-.31,.24-.64,.46-.87,1.87-1.96,2.1-4.52,2.01-6.92-.06-1.55-.22-3.24-1.19-4.82-1.7-2.78-3.05-5.72-6.48-6.79-.12-.04-.23-.14-.34-.21-1.2-.79-2.25-1.93-3.93-1.63-.27,.05-.59-.29-.9-.37-.83-.21-1.82-.76-2.47-.49-1.05,.42-2.01,.24-3.02,.29-.73,.04-1.47,.1-2.17,.27-1.38,.33-2.83,.56-4.08,1.18-1.39,.69-2.61,1.72-3.84,2.69-.88,.7-1.54,1.72-2.49,2.27-1.69,.99-1.47,3.06-2.69,4.26-.03,.03,0,.13,0,.2,.05,1.2,.1,2.4,.14,3.59-1.48-1.13-3.39-1.48-4.8-2.79-.53-.49-1.57-.42-2.36-.63-.44-.11-.86-.28-1.29-.42,.13-.5,.25-1.01,.38-1.51,.02-.06,.09-.13,.08-.18-.26-1.48,.59-2.76,.75-4.15,.2-1.77,.67-3.37,2.14-4.53,.23-.18,.41-.43,.57-.67,.98-1.55,1.74-3.29,2.96-4.61,1.21-1.31,2.75-2.51,4.38-3.2,1.63-.69,2.94-1.78,4.45-2.6,1.01-.56,1.97-1.01,3.16-1.08,.94-.06,1.86-.47,2.79-.73,1.68-.47,3.28-1.24,5.15-.85,.81,.17,1.74-.23,2.61-.39,.16-.03,.33-.16,.47-.14,2.88,.46,5.81,.74,8.61,1.49,1.51,.4,2.8,1.62,4.18,2.47,.14,.09,.24,.27,.38,.32,2.82,.94,4.54,3.24,6.48,5.26,.94,.98,2.04,1.85,2.27,3.33,.03,.23,.31,.43,.48,.63,.82,.93,1.46,1.87,1.67,3.21,.24,1.52,.95,2.96,1.46,4.43,.53,1.54,1.09,3.07,1.57,4.63,.13,.42,.04,.92,.03,1.38-.04,1.56,0,3.12-.15,4.67-.16,1.7-.36,3.43-1.58,4.81-.28,.32-.5,.7-.7,1.09-1.15,2.23-3.08,3.57-5.28,4.56-.39,.18-.92,.06-1.39,.09-.72,.05-1.43,.12-2.26,.19,.3,.63,.48,1.13,.76,1.58,.51,.81,.59,1.61,.18,2.48-.08,.18-.12,.38-.13,.58-.03,.51,.18,1.24-.08,1.5-.86,.86-1.89,1.55-2.86,2.3-.07,.05-.22,0-.29,.06-1.9,1.61-3.73,.4-5.58-.11-.15-.04-.31-.08-.51-.14-.05,.17-.14,.3-.12,.41,.38,1.74-.58,3.01-1.48,4.31-.08,.11-.15,.25-.26,.3-1.3,.63-2.6,1.24-3.9,1.86Z" fill="#aca3a3"/>
      <path d="M74.02,112.73c1.18-.27,2.35-.56,3.53-.79,.26-.05,.56,.11,.84,.18-.7,1.12-1.68,2.16-2.03,3.38-.42,1.48-1.25,2.75-1.64,4.21-.26,.95-.67,1.87-1.03,2.79-.3,.77-.63,1.53-.94,2.29-.07,.07-.14,.14-.21,.21,0,0,.01-.01,.01-.01-.07,.07-.14,.14-.21,.21h.01c-.07,.06-.14,.13-.21,.2,0,0,.01,0,.01,0-1.23,.85-2.44,1.72-3.7,2.53-1.2,.78-2.44,1.5-3.68,2.23-.71,.42-1.54,.69-2.14,1.23-1.15,1.05-2.51,1.44-3.97,1.67-.23,.04-.52,.04-.67,.18-1.1,1.04-2.59,1.17-3.9,1.35-2.2,.31-4.49,.72-6.67-.15-.59-.24-1.04-.85-1.55-1.29-.52-.45-1.03-.91-1.56-1.36-1.26-1.06-1.32-2.61-1.47-4.03-.26-2.43,.34-4.58,2.7-5.89,.43-.24,.73-.68,1.12-1,.49-.42,1.02-.74,1.67-.34,.16-.57,.28-1.2,.52-1.78,.54-1.33,2.71-1.98,3.87-1.15,.28,.21,.42,.65,.57,1.01,.3,.74,.63,1.05,1.58,.83,1.83-.42,3.75-.47,5.58-.9,1.63-.39,3.2-1.08,4.78-1.67,1.12-.42,2.25-.82,3.32-1.34,1.85-.89,3.65-1.87,5.47-2.81Z" fill="#a19797"/>
      <path d="M107.92,108.92c.6-.49,1.22-.83,2.01-.4,.92,.33,1.85,.93,2.77,.94,1.67,.01,3.29,.21,4.93,.5,2.13,.38,4.28,.67,6.44,.85,.86,.07,1.76-.29,2.64-.39,.38-.04,.85-.05,1.15,.14,.75,.47,1.49,.45,2.31,.26,1.55-.37,1.53-.34,1.72-1.98,.03-.3,.38-.73,.66-.82,2.42-.74,3.17-.41,4.58,1.72,.16,.24,.69,.36,1.03,.33,2.95-.21,5.35,1.64,6.19,4.47,.52,1.75,.33,3.41,.09,5.11,0,.07-.03,.13-.05,.19-.22,.87-2.68,2.97-3.56,3.16-1.65,.35-3.27,.89-4.94,1.14-.94,.14-1.94-.11-2.91-.26-1.18-.18-2.34-.48-3.52-.66-.89-.14-1.8-.15-2.7-.25-.36-.04-.75-.09-1.07-.25-2.68-1.32-5.6-1.88-8.41-2.77-.91-.29-1.71-.9-2.59-1.29-.62-.28-1.3-.44-1.95-.66,0-1.3-.55-2.35-1.38-3.33-.31-.37-.41-.92-.64-1.36-.49-.93-.98-1.86-1.53-2.75-.36-.58-.85-1.08-1.28-1.62Z" fill="#a19797"/>
      <path d="M87,23.49c-.07,.66-.1,1.33-.23,1.97-.09,.45-.21,.98-.51,1.27-.79,.79-1.69,1.48-2.55,2.2-.15,.12-.33,.23-.52,.29-2.76,.93-5.41,.7-8.15-.38-1.79-.71-2.41-1.86-2.54-3.56,.13-1.22,.26-2.43,.41-3.65,.02-.14,.14-.33,.26-.4,1.09-.6,2.14-1.43,3.31-1.71,2.03-.49,4.14-1.15,6.08,.61,.76,.69,1.97,.88,3.05,1.33-.03-.33-.11-.74-.08-1.14,.15-2.3,1.02-4.23,2.66-5.91,.66-.68,.95-1.72,1.41-2.6,.21-.08,.41-.15,.62-.23,.69-.2,.85,.28,1,.77-.3,.47-.67,.92-.89,1.43-.38,.9-1.06,1.56-1.61,2.32-.86,1.18-1.67,2.56-1.67,4.18,0,1.06-.05,2.12-.07,3.18Z" fill="#366334"/>
      <path d="M98.28,133.45c1.19,.46,2.37,.94,3.56,1.38,.48,.18,.98,.29,1.58,.47,.08-.21,.18-.55,.32-.86,1.46-3.31,3.73-5.6,7.51-6.03,.29-.03,.56-.19,.85-.26,.76-.19,1.53-.36,2.29-.54,.2,.34,.39,.67,.59,1.01-1.58,.52-3.18,1-4.75,1.57-2.19,.8-3.98,2.09-4.9,4.33-.19,.46-.26,.98-.49,1.42-.15,.29-.44,.64-.73,.7-.99,.21-.63,.64-.25,1.09,.57,.65,1.35,1.2,1.69,1.95,.53,1.19,.78,2.5,1.11,3.77,.22,.83,.35,1.69,.53,2.53,.83,.34,1.48,.09,1.93-.59,.53-.79,1.26-.85,2.03-.56,1.07,.42,2.02,.37,3.04-.22,1.3-.76,3.71,.53,3.74,2.05,.03,1.3-.33,1.73-2.46,1.34,0-.09,0-.19,0-.29,.01-.37,.02-.73,.04-1.1-.37,.08-.73,.22-1.1,.24-1.09,.08-2.17,.11-3.26,.16-.25,.01-.59-.07-.74,.06-1.32,1.17-2.84,1.42-4.52,1.11-.16-.03-.44,.22-.54,.41-.14,.25-.06,.65-.24,.84-.21,.23-.58,.44-.88,.43-.19,0-.47-.42-.51-.68-.17-1.24,.5-2.27,1.89-3.01-.26-1.45-.43-2.94-.81-4.37-.19-.74-.66-1.46-1.17-2.05-.87-1.01-2.03-1.81-1.79-3.1-2.21-.83-4.24-1.62-6.3-2.34-.38-.13-.86-.04-1.28,0-.64,.08-1.27,.22-2.12,.37-.49,.05-1.16,.06-1.82,.19-.52,.1-1.05,.27-1.52,.51-.9,.46-1.78,.97-2.65,1.49-.23,.14-.46,.36-.56,.6-.16,.36-.07,.92-.32,1.12-.91,.74-1.68,1.53-2.06,2.68-.04,.13-.58,.23-.8,.14-.2-.08-.44-.48-.39-.68,.23-.97,.22-2.08,1.43-2.56,.28-.11,.49-.6,.57-.96,.24-1.06,.75-1.65,1.91-1.84,.62-.1,1.2-.67,1.74-1.11,.85-.69,1.65-1.25,2.89-.95,.4,.1,.99-.6,1.49-.94,.81,.09,1.57,.4,2.44,.08,.37-.14,.93,.21,1.4,.33,.79,.22,1.58,.43,2.37,.65Z" fill="#a19797"/>
      <path d="M91.24,12.39c-.15-.49-.32-.97-1-.77,.51-1.3,.06-2.85,1.03-4.04,.6-.33,1.22-.63,1.8-.99,.27-.17,.59-.39,.71-.66,.35-.79,1-1,1.76-1.11,1.66-.23,3.16,.25,4.64,.92,.42,.19,.87,.37,1.32,.41,1.64,.15,2.2,1.21,1.32,2.6-.02,.03-.05,.05-.06,.08-.27,1.8-1.83,2.26-3.12,3.02-.75,.44-1.42,1.07-2.21,1.41-.5,.21-1.16,.02-1.74,0-.36,0-.76-.12-1.08,0-1.35,.5-2.39-.05-3.37-.88Z" fill="#6ea859"/>
      <path d="M91.26,7.58c-.96,1.19-.52,2.74-1.03,4.04-.21,.08-.41,.15-.62,.23-1.27-.16-2.63,.18-3.79-.64-1.7-1.2-3.35-2.54-4.28-4.37-.56-1.1-1.03-2.51-.3-3.92,.22-.42-.03-1.07-.03-1.62,0-.35,.08-.7,.12-1.05,.32,.05,.66,.05,.94,.17,2.74,1.18,5.42,2.48,7.49,4.7,.65,.7,1.59,1.28,1.5,2.46Z" fill="#78bf66"/>
      <path d="M127.43,142.08c-.2,.37-.31,.84-.61,1.1-.52,.45-1.12,.84-1.75,1.11-.29,.12-.73-.11-1.11-.18,.07-.35,.01-.88,.22-1.02,.93-.61,1.94-1.11,2.92-1.65,.11,.21,.22,.42,.33,.63Z" fill="#a19797"/>
      <path d="M98.28,133.45c-.79-.22-1.58-.44-2.37-.65-.47-.13-1.03-.47-1.4-.33-.87,.32-1.63,.01-2.44-.08-.43-.7-.75-1.5-1.3-2.08-1.17-1.23-1.12-2.7-1.06-4.2,.01-.26,.19-.56,.12-.78-.43-1.35,.34-2.21,1.11-3.14,.46-.55,.72-1.25,1.11-1.87,.19-.29,.41-.64,.71-.78,1.38-.66,2.8-1.16,4.21-.04,.13,.1,.29,.16,.45,.22,.79,.31,1.59,.6,2.36,.94,.23,.1,.44,.32,.57,.54,1.33,2.21,1.63,4.63,1.25,7.14-.14,.94-.45,1.87-.77,2.77-.43,1.21-1.45,1.84-2.56,2.34Z" fill="#dacccc"/>
      <path d="M72.34,125.2c.07-.07,.14-.14,.21-.21-.07,.07-.14,.14-.21,.21Z" fill="#fff"/>
      <path d="M72.14,125.4c.07-.07,.14-.14,.21-.21-.07,.07-.14,.14-.21,.21Z" fill="#fff"/>
      <path d="M72.54,125c.07-.07,.14-.14,.21-.21-.07,.07-.14,.14-.21,.21Z" fill="#fff"/>
      <path d="M114.35,30.52c-.05-1.2-.1-2.4-.14-3.59,0-.07-.04-.16,0-.2,1.22-1.2,1-3.27,2.69-4.26,.95-.55,1.61-1.57,2.49-2.27,1.23-.97,2.46-2,3.84-2.69,1.25-.62,2.7-.84,4.08-1.18,.71-.17,1.45-.23,2.17-.27,1-.06,1.97,.13,3.02-.29,.65-.26,1.64,.28,2.47,.49,.32,.08,.64,.42,.9,.37,1.68-.31,2.72,.84,3.93,1.63,.11,.07,.22,.17,.34,.21,3.43,1.07,4.78,4.01,6.48,6.79,.97,1.59,1.14,3.27,1.19,4.82,.09,2.4-.14,4.96-2.01,6.92-.22,.23-.36,.56-.46,.87-.54,1.75-1.71,2.93-3.07,4.14-1.09,.97-2.34,1.71-3.41,2.68-.36,.33-.88,.5-1.34,.71-.27,.12-.6,.12-.86,.25-1.25,.6-2.46,1.31-3.75,1.79-.82,.3-1.76,.26-2.65,.37-.97-.97-2.2-1.78-2.23-3.38,0-.09-.05-.2-.1-.28-1.45-1.98-2.86-3.99-4.36-5.93-.97-1.25-2.04-2.43-3.13-3.58-.42-.45-.97-.88-1.54-1.07-1.45-.47-2.51-1.48-3.63-2.4-.28-.23-.59-.43-.89-.65Z" fill="#eaaaab"/>
      <path d="M46.57,38.09c-.71,1.4-1.39,2.75-2.07,4.1-.08,.15-.13,.33-.25,.43-1.62,1.31-1.51,3.31-2.06,5.06-.27,.85-.69,1.65-1.03,2.47-.2,.5-.4,1-.56,1.51-.18,.59-.33,1.18-.48,1.78-.38,1.48-.74,2.95-1.13,4.43-.11,.44-.2,.91-.44,1.29-.57,.91-.76,1.85-.63,2.92,.06,.5-.13,1.11-.41,1.53-.36,.54-.37,1.22-1.27,1.55-2.47,.89-4.78,.68-7.16-.26-.83-.33-1.85-.17-2.73-.41-.95-.26-1.89-.64-2.75-1.11-1.22-.68-2.41-1.45-3.54-2.28-.96-.7-1.84-1.51-2.71-2.32-.22-.21-.29-.59-.42-.89-.26-.56-.52-1.12-.78-1.67-.08-.18-.27-.36-.25-.52,.07-.97-.07-1.85-.85-2.54-.05-.04-.08-.12-.08-.18,.06-1.32,.03-2.65,.22-3.96,.2-1.41,.56-2.79,.94-4.17,.19-.68,.49-1.35,.89-1.93,.65-.94,1.25-1.89,1.83-2.88,.76-1.3,2.11-2.28,3.29-3.3,1.26-1.1,2.75-1.53,4.47-1.71,1.19-.12,2.35-.64,3.65-.68,.82-.02,1.58-.29,2.37,.18,.18,.11,.46,.16,.66,.11,2.39-.68,4.68,.03,6.96,.55,1.21,.28,2.4,.73,3.53,1.24,1.03,.47,1.96,1.13,2.8,1.63Z" fill="#eaaaab"/>
      <path d="M45.87,93.45c-.33-.13-.73-.18-.99-.4-3.62-3-6.34-6.53-6.92-11.41-.47-3.88,.72-7.32,2.51-10.61,1.51-2.77,3.53-5.19,5.85-7.33,3.22-2.98,6.83-5.45,10.65-7.6,6.57-3.69,13.58-6.25,20.91-7.92,3.78-.86,7.64-1.39,11.48-1.98,4.1-.63,8.24-.73,12.38-.6,4.66,.15,9.28,.66,13.83,1.74,5.06,1.19,9.86,2.96,14.09,6,4.12,2.96,7.21,6.7,7.94,11.91,.4,2.85-.01,5.69-1.28,8.3-.97,2-2.18,3.89-3.28,5.83-.42-.74-.83-1.48-1.25-2.22,.25-.19,.58-.33,.73-.58,.51-.86,1.02-1.73,1.42-2.65,1.88-4.24,2.1-8.49-.02-12.73-2.1-4.18-5.58-6.93-9.62-9.02-6.51-3.37-13.56-4.77-20.79-5.13-5.55-.28-11.13-.16-16.67,.71-4.68,.74-9.3,1.66-13.82,3.06-6.27,1.96-12.29,4.48-17.83,8.07-5,3.24-9.52,6.99-12.53,12.26-2.93,5.13-3.59,10.36-.53,15.68,1.14,1.98,2.54,3.75,4.51,5-.26,.54-.52,1.07-.78,1.61Z" fill="#c0b0b1"/>
      <path d="M101.92,97.26c-.13,1.01-.26,2.03-.39,3.04-.17,1.32-1.21,1.81-2.25,1.93-1.72,.2-3.51,.62-5.17-.31-.56-.32-1.1-.68-1.61-1.09-.51-.42-.97-.91-1.45-1.37-.47-.8-.94-1.61-1.41-2.41-.2-.53-.4-1.07-.6-1.6-.15-.67-.3-1.34-.45-2.01,.09-.6,.18-1.2,.27-1.81,.04-.54,.09-1.08,.13-1.61l1.85-2.21c1.27-.39,2.53-.78,3.8-1.17,.67,.39,1.34,.79,2.01,1.18,.74,.41,1.48,.81,2.22,1.22,.26,.46,.53,.93,.79,1.39,.33,.4,.66,.81,1,1.21l1.25,1.8c.08,.6,.17,1.21,.25,1.81l-.23,2.01Z" fill="#f37f88"/>
      <path d="M89.65,97.05c.47,.8,.94,1.61,1.41,2.41-1.91,.22-3.82,.45-5.73,.67-.95,.11-1.91,.29-2.87,.33-2.7,.1-5.41,.32-8.1,.18-6.83-.34-13.58-1.21-19.99-3.8-1.66-.67-3.24-1.57-4.86-2.35-.41-.2-.87-.3-1.3-.45-.09-.66,.09-1.18,.58-1.68,.34-.35,.45-.92,.64-1.4,.27-.66,.53-1.33,.79-1.99,.87,.62,1.75,1.24,2.62,1.86,.05,1.41,.04,2.82,.16,4.22,.06,.69,.64,.92,1.27,.75,.62-.16,1.1-.51,.96-1.28-.04-.23-.1-.45-.15-.68,.35,.08,.73,.1,1.05,.24,6.42,2.79,13.21,3.72,20.11,3.95,2.43,.08,4.87-.03,7.29-.2,2.04-.15,4.07-.51,6.11-.78Z" fill="#beacae"/>
      <path d="M101.92,97.26c.08-.67,.16-1.34,.23-2.01,.52-.08,1.07-.08,1.57-.24,5.09-1.68,9.95-3.87,14.53-6.66,.65-.39,1.16-1.02,1.73-1.53,.21-.13,.42-.27,.63-.4,.5-.21,1.04-.35,1.49-.65,.92-.61,1.78-1.31,2.66-1.97,.62,.73,1.24,.29,1.84-.01,.67-.34,.3-.81,.1-1.25-.07-.15-.09-.31-.13-.47,.86-.97,1.7-1.95,2.58-2.9,.19-.2,.5-.29,.76-.43,.44,.75,.88,1.49,1.32,2.24-.34,.25-.73,.45-1.02,.75-3.88,3.86-8.28,6.97-13.1,9.55-4.42,2.37-9.06,4.21-13.82,5.75-.44,.14-.91,.16-1.37,.23Z" fill="#beacae"/>
      <path d="M50.22,88.97c-.26,.66-.52,1.33-.79,1.99-.2,.48-.3,1.05-.64,1.4-.49,.51-.67,1.02-.58,1.68-.22,.38-.35,.9-.68,1.1-.33,.2-.9,.22-1.26,.07-.23-.09-.32-.62-.4-.98-.06-.25,0-.52,0-.79,.26-.54,.52-1.07,.78-1.61,.21-.52,.41-1.03,.62-1.55,.23-.6,.45-1.21,.68-1.81,.24-.35,.47-.71,.71-1.06,.39-.28,.79-.56,1.18-.84,1.22,.14,1.34,.35,.82,1.4-.16,.32-.29,.66-.44,.99Z" fill="#e86868"/>
      <path d="M131.23,80.98c-.44-.75-.88-1.49-1.32-2.24-.56-1.57-.47-1.78,.94-2.06,.32,.17,.63,.33,.95,.5,.42,.74,.83,1.48,1.25,2.22,.44,1.21,.89,2.43,1.32,3.64,.26,.73-.2,1.07-.77,1.26-.56,.19-1.14,.23-1.4-.5-.33-.94-.64-1.88-.96-2.82Z" fill="#e86868"/>
      <path d="M131.79,77.18c-.32-.17-.63-.33-.95-.5,.09-.38,.15-.77,.29-1.12,.54-1.4,1.27-2.74,1.65-4.18,1.32-4.94,.11-9.32-3.26-13.1-3.01-3.38-6.91-5.44-11.08-6.99-6.45-2.39-13.2-3.09-20.02-3.25-1.63-.04-3.27,.11-4.9,.19-1.06,.05-2.14,.07-3.19,.23-3.18,.49-6.37,.98-9.53,1.58-5.96,1.14-11.67,3.09-17.16,5.66-4.55,2.14-8.82,4.71-12.61,8.06-3.8,3.36-6.94,7.15-8.28,12.13-.83,3.09-.79,6.25,.8,9.11,1.04,1.88,2.46,3.54,3.71,5.3-.21,.52-.41,1.03-.62,1.55-1.97-1.25-3.38-3.02-4.51-5-3.06-5.32-2.4-10.56,.53-15.68,3.01-5.27,7.53-9.02,12.53-12.26,5.54-3.58,11.56-6.11,17.83-8.07,4.52-1.41,9.14-2.33,13.82-3.06,5.54-.87,11.12-.99,16.67-.71,7.22,.36,14.28,1.76,20.79,5.13,4.04,2.09,7.52,4.83,9.62,9.02,2.12,4.24,1.9,8.49,.02,12.73-.4,.91-.91,1.79-1.42,2.65-.15,.25-.48,.39-.73,.58Z" fill="#beacae"/>
      <path d="M88.86,91.64c-.09,.6-.18,1.2-.27,1.81-1.32,.14-2.63,.32-3.95,.42-1.99,.15-3.97,.34-5.96,.35-1.65,0-3.3-.25-4.96-.37-3.06-.21-6.05-.76-8.97-1.7-1.17-.37-2.34-.74-3.51-1.11-.22-.48-.46-.96-.66-1.45-.64-1.57-1.38-1.73-2.72-.57-.16-.05-.34-.07-.47-.15-6.19-4-8.44-10.34-4.63-17.08,1.94-3.41,4.73-6.1,7.92-8.37,4.09-2.91,8.56-5.06,13.28-6.72,1.69-.59,3.46-.97,5.19-1.45-.39,.87-.78,1.75-1.16,2.62-.36,.04-.74,.03-1.08,.13-3.44,1.01-6.69,2.47-9.83,4.19-3.71,2.04-6.95,4.66-9.52,8-2.32,3.01-3.56,6.4-2.5,10.29,.88,3.24,3.16,5.38,5.85,7.1,3.66,2.34,7.79,3.44,12.05,4.04,1.64,.23,3.3,.37,4.96,.48,1.43,.09,2.87,.16,4.3,.08,2.22-.11,4.44-.35,6.66-.54Z" fill="#b6969b"/>
      <path d="M99.66,90.44c-.26-.46-.53-.93-.79-1.39,.21-.15,.39-.34,.62-.45,2.97-1.35,6.05-2.52,8.91-4.08,4.05-2.21,7.61-5.07,10.02-9.12,1.37-2.3,2.11-4.76,1.68-7.46-.59-3.7-2.95-6.16-5.94-8.04-4.97-3.12-10.56-4.13-16.3-4.44-1.74-.09-3.48-.03-5.22,0-.42,0-.84,.14-1.26,.22-.45-.55-.89-1.09-1.34-1.64,.48-.14,.96-.38,1.44-.39,6-.06,12.01-.21,17.86,1.57,4.11,1.25,8.01,2.84,10.99,6.08,2.92,3.17,4.11,6.81,2.71,11.06-1.42,4.3-4.34,7.47-7.81,10.18-4.66,3.63-9.94,6.1-15.55,7.89Z" fill="#b6969b"/>
      <path d="M90.84,87.81c-.62,.74-1.23,1.47-1.85,2.21-1.78,.08-3.56,.17-5.34,.22-2.22,.07-4.45,.31-6.65,.09-2.56-.25-5.12-.79-7.62-1.44-3.51-.9-6.68-2.51-9.14-5.27-2.29-2.58-3.09-5.53-2.06-8.89,1.03-3.35,3.18-5.88,5.83-8.07,3.92-3.23,8.33-5.5,13.16-7.01-.03,.26-.02,.52-.09,.77-.31,1.22-.65,2.43-.97,3.64-.35,.08-.73,.11-1.05,.26-2.75,1.26-5.25,2.92-7.39,5.05-.8,.8-1.33,1.87-1.98,2.81-1.82,.31-3.65,.6-5.45,.98-.3,.06-.55,.53-.77,.85-.91,1.35-1.15,2.88-.97,4.46,.2,1.82,.97,3.31,2.85,3.84,.87,.24,1.83,.16,2.75,.22,.17,.28,.27,.63,.51,.81,.9,.68,1.79,1.41,2.78,1.94,2.94,1.58,6.12,2.34,9.42,2.72,3.92,.45,7.81,.36,11.71-.2,.76-.11,1.54-.02,2.31-.02Z" fill="#b28891"/>
      <path d="M77.18,59.67c-4.83,1.5-9.25,3.77-13.16,7.01-2.65,2.19-4.81,4.72-5.83,8.07-1.03,3.35-.24,6.31,2.06,8.89,2.46,2.76,5.63,4.37,9.14,5.27,2.5,.64,5.06,1.18,7.62,1.44,2.19,.22,4.43-.03,6.65-.09,1.78-.05,3.56-.15,5.34-.22-.04,.54-.09,1.08-.13,1.61-2.22,.19-4.43,.43-6.66,.54-1.43,.07-2.87,0-4.3-.08-1.66-.11-3.32-.25-4.96-.48-4.26-.6-8.39-1.7-12.05-4.04-2.68-1.71-4.97-3.85-5.85-7.1-1.06-3.89,.19-7.28,2.5-10.29,2.57-3.34,5.8-5.96,9.52-8,3.14-1.72,6.39-3.18,9.83-4.19,.34-.1,.72-.09,1.08-.13-.27,.6-.54,1.2-.81,1.81Z" fill="#b48f96"/>
      <path d="M99.66,90.44c5.61-1.79,10.88-4.26,15.55-7.89,3.47-2.7,6.39-5.88,7.81-10.18,1.4-4.24,.21-7.88-2.71-11.06-2.98-3.24-6.88-4.83-10.99-6.08-5.85-1.79-11.86-1.64-17.86-1.57-.48,0-.96,.25-1.44,.39-.42-.46-.84-.92-1.26-1.38,2.15-.21,4.29-.61,6.44-.59,3.12,.03,6.24,.26,9.35,.57,4.93,.49,9.58,1.95,13.92,4.36,2.1,1.17,3.86,2.78,5.3,4.67,1.95,2.56,2.83,5.48,2.25,8.73-.63,3.52-2.23,6.52-4.85,8.97-.64-.42-1.35-.64-1.88,.05-.71,.91-1.23,1.93-.64,3.14-.53,.33-1.08,.62-1.58,.99-3.18,2.34-6.57,4.35-10.21,5.88-2.02,.85-4.13,1.49-6.2,2.22-.33-.4-.66-.81-1-1.21Z" fill="#b79a9f"/>
      <path d="M91.36,55.68c.42-.08,.84-.22,1.26-.22,1.74-.03,3.49-.09,5.22,0,5.75,.31,11.34,1.32,16.3,4.44,2.99,1.88,5.35,4.34,5.94,8.04,.43,2.7-.31,5.17-1.68,7.46-2.41,4.05-5.97,6.91-10.02,9.12-2.86,1.56-5.93,2.73-8.91,4.08-.23,.1-.41,.3-.62,.45-.74-.41-1.48-.81-2.22-1.22,.61-.26,1.21-.58,1.84-.79,3.76-1.25,7.31-2.93,10.55-5.22,2.89-2.04,5.44-4.42,7.02-7.66,1.66-3.41,1.5-6.69-.83-9.77-1.84-2.43-4.38-3.87-7.14-4.96-4.99-1.96-10.21-2.39-15.52-2.15-.4-.54-.8-1.07-1.2-1.61Z" fill="#b48f96"/>
      <path d="M90.84,87.81c-.77,0-1.56-.09-2.31,.02-3.9,.56-7.79,.66-11.71,.2-3.31-.38-6.49-1.14-9.42-2.72-.99-.53-1.88-1.26-2.78-1.94-.24-.18-.34-.54-.51-.81,1.52,.05,2.85-.44,4.01-1.39,.44,.36,.86,.74,1.31,1.07,3.77,2.71,8.14,3.38,12.6,3.52,2.31,.07,4.64-.24,6.94-.57,5.8-.82,11.17-2.82,15.79-6.5,1.08-.86,1.85-2.12,2.77-3.19,.29,.03,.62-.01,.87,.12,1.12,.59,2.01,.27,2.88-.54,.35-.32,.85-.48,1.28-.71-.2,.49-.29,1.06-.61,1.45-.98,1.21-1.93,2.5-3.11,3.5-3.88,3.29-8.42,5.35-13.23,6.88-.33,.11-.64,.3-.96,.45l-3.8,1.17Z" fill="#af828b"/>
      <path d="M94.64,86.64c.32-.15,.63-.35,.96-.45,4.81-1.53,9.36-3.59,13.23-6.88,1.18-1,2.13-2.28,3.11-3.5,.32-.39,.41-.96,.61-1.45,1.87-1.6,2.14-4.28,.6-5.86-.25-.81-.34-1.72-.78-2.41-1.18-1.87-2.9-3.21-4.86-4.2-4.25-2.16-8.85-2.72-13.54-2.79-.47-.6-.94-1.2-1.42-1.81,5.31-.24,10.52,.19,15.52,2.15,2.76,1.08,5.3,2.53,7.14,4.96,2.33,3.08,2.49,6.36,.83,9.77-1.58,3.24-4.13,5.62-7.02,7.66-3.24,2.28-6.79,3.96-10.55,5.22-.63,.21-1.23,.52-1.84,.79-.67-.39-1.34-.79-2.01-1.18Z" fill="#b28891"/>
      <path d="M89.65,97.05c-2.04,.27-4.06,.64-6.11,.78-2.42,.17-4.86,.29-7.29,.2-6.91-.23-13.7-1.16-20.11-3.95-.32-.14-.7-.16-1.05-.24,.02-.87,.03-1.74,.05-2.61,.37,.13,.75,.24,1.11,.39,.95,.39,1.89,.81,2.83,1.21,.25,.58,.43,1.59,.76,1.64,.6,.09,1.28-.39,1.93-.64,.16,.03,.33,.03,.49,.08,4.98,1.45,10.05,2.29,15.24,2.12,3.85-.13,7.7-.39,11.55-.59,.2,.53,.4,1.07,.6,1.6Z" fill="#baa3a7"/>
      <path d="M89.05,95.45c-3.85,.2-7.7,.46-11.55,.59-5.19,.17-10.26-.66-15.24-2.12-.16-.05-.33-.05-.49-.08-.18-.94-.35-1.87-.53-2.81,1.17,.37,2.34,.74,3.51,1.11,2.92,.93,5.91,1.49,8.97,1.7,1.65,.11,3.31,.37,4.96,.37,1.99,0,3.98-.2,5.96-.35,1.32-.1,2.63-.28,3.95-.42,.15,.67,.3,1.34,.45,2.01Z" fill="#b89ea2"/>
      <path d="M100.65,91.64c2.07-.73,4.18-1.37,6.2-2.22,3.64-1.53,7.02-3.54,10.21-5.88,.5-.37,1.05-.66,1.58-.99,.03,.28,.11,.57,.09,.84-.05,.8-.15,1.6-.22,2.4-.31,.1-.67,.14-.93,.32-2.95,2.03-6.08,3.72-9.4,5.06-2.06,.83-4.19,1.51-6.29,2.26l-1.25-1.8Z" fill="#b89fa3"/>
      <path d="M101.9,93.44c2.1-.75,4.22-1.43,6.29-2.26,3.32-1.33,6.45-3.03,9.4-5.06,.26-.18,.61-.22,.93-.32,.01,1.04,.74,1.03,1.47,1.01-.57,.52-1.08,1.14-1.73,1.53-4.58,2.79-9.45,4.97-14.53,6.66-.5,.16-1.04,.17-1.57,.24-.08-.6-.17-1.21-.25-1.81Z" fill="#bca8ab"/>
      <path d="M59.08,92.84c-.94-.4-1.89-.82-2.83-1.21-.36-.15-.74-.26-1.11-.39,0-.65-.1-1.32,0-1.95,.11-.77-.19-1.21-.9-1.2-.68,.01-1.3,.33-1.36,1.17-.03,.53-.03,1.06-.04,1.59-.87-.62-1.75-1.24-2.62-1.86,.15-.33,.28-.67,.44-.99,.52-1.04,.4-1.25-.82-1.4-.21-.41-.38-.85-.63-1.23-2.31-3.53-2.54-7.28-1.09-11.16,1.37-3.68,3.81-6.58,6.7-9.18,3.05-2.75,6.45-4.99,10.14-6.71,3.59-1.67,7.34-3.01,11.07-4.34,1.64-.58,3.42-.77,5.14-1.13-.35,.33-.64,.77-1.06,.98-.63,.32-1.02,.7-.96,1.44-1.73,.48-3.5,.86-5.19,1.45-4.71,1.65-9.19,3.81-13.28,6.72-3.19,2.27-5.99,4.96-7.92,8.37-3.82,6.73-1.57,13.08,4.63,17.08,.13,.09,.31,.1,.47,.15,.41,1.27,.81,2.55,1.22,3.82Z" fill="#b89ea2"/>
      <path d="M52.84,90.83c.01-.53,0-1.06,.04-1.59,.05-.83,.67-1.16,1.36-1.17,.7-.01,1.01,.43,.9,1.2-.09,.64,0,1.3,0,1.95-.02,.87-.03,1.74-.05,2.61,.05,.23,.11,.45,.15,.68,.13,.77-.34,1.12-.96,1.28-.63,.17-1.21-.07-1.27-.75-.12-1.4-.12-2.81-.16-4.22Z" fill="#e86868"/>
      <path d="M47.26,90.3c-1.25-1.76-2.67-3.43-3.71-5.3-1.59-2.86-1.63-6.02-.8-9.11,1.34-4.98,4.47-8.78,8.28-12.13,3.8-3.35,8.07-5.92,12.61-8.06,5.48-2.58,11.2-4.52,17.16-5.66,3.16-.61,6.35-1.09,9.53-1.58,1.05-.16,2.12-.18,3.19-.23,1.63-.08,3.27-.23,4.9-.19,6.82,.17,13.57,.86,20.02,3.25,4.18,1.55,8.07,3.61,11.08,6.99,3.36,3.78,4.57,8.16,3.26,13.1-.38,1.44-1.1,2.78-1.65,4.18-.14,.36-.19,.75-.29,1.12-1.41,.28-1.5,.49-.94,2.06-.25,.14-.57,.23-.76,.43-.88,.95-1.72,1.93-2.58,2.89-.19-.76-.38-1.53-.57-2.29,.32-.22,.75-.37,.95-.67,1.15-1.83,2.45-3.6,3.33-5.56,1.71-3.82,1.67-7.68-.24-11.5-1.94-3.87-5.22-6.3-8.91-8.2-6.69-3.45-13.96-4.56-21.37-4.77-3.52-.1-7.06,.2-10.57,.59-3.43,.38-6.86,.93-10.21,1.71-6.26,1.47-12.28,3.63-17.91,6.8-5.25,2.96-10.08,6.4-13.61,11.41-1.92,2.73-3.25,5.73-3.42,9.06-.19,3.8,1.27,7.09,3.9,9.85-.23,.6-.45,1.21-.68,1.81Z" fill="#bca8ab"/>
      <path d="M119.99,86.82c-.73,.02-1.46,.02-1.47-1.01,.08-.8,.17-1.6,.22-2.4,.02-.28-.06-.56-.09-.84-.59-1.21-.07-2.23,.64-3.14,.53-.69,1.24-.47,1.88-.05-.02,1.14-.72,2.28,.03,3.41-.19,1.21-.39,2.42-.58,3.63-.21,.13-.42,.27-.63,.4Z" fill="#e86868"/>
      <path d="M126.01,79.77c.19,.76,.38,1.53,.57,2.29,.04,.16,.06,.33,.13,.47,.2,.44,.57,.91-.1,1.25-.59,.3-1.22,.74-1.84,.01-.33-.94-.67-1.87-1-2.81-.29-2-.16-2.28,1.24-2.65,.26,.08,.52,.16,.78,.24,.07,.4,.14,.8,.21,1.2Z" fill="#e86868"/>
      <path d="M123.77,80.98c.33,.94,.67,1.87,1,2.81-.89,.66-1.75,1.36-2.66,1.97-.44,.3-.99,.44-1.49,.65,.19-1.21,.39-2.42,.58-3.63,.36-.19,.74-.35,1.07-.59,.52-.38,1-.81,1.5-1.22Z" fill="#bca8ab"/>
      <path d="M125.8,78.57c-.26-.08-.52-.16-.78-.24,.14-.3,.26-.61,.42-.89,.7-1.25,1.5-2.45,2.09-3.75,1.89-4.16,1.62-8.21-.84-12.09-2.08-3.29-5.19-5.29-8.61-6.9-6.09-2.87-12.59-3.81-19.22-4.05-2.06-.07-4.14,.08-6.2,.19-1.73,.09-3.45,.25-5.17,.43-.37,.04-.71,.35-1.07,.54-.69-.02-1.39-.07-2.08-.06-1.17,.01-2.38-.04-3.18,1.09-1.72,.36-3.5,.55-5.14,1.13-3.73,1.33-7.48,2.67-11.07,4.34-3.69,1.71-7.08,3.95-10.14,6.71-2.89,2.61-5.33,5.51-6.7,9.18-1.45,3.88-1.22,7.62,1.09,11.16,.25,.38,.42,.82,.63,1.23-.39,.28-.79,.56-1.18,.84-.2-.17-.45-.31-.61-.51-2.24-3.03-3.21-6.38-2.53-10.15,.81-4.51,3.43-8,6.56-11.11,1.66-1.66,3.6-3.07,5.54-4.42,4.67-3.25,9.82-5.55,15.18-7.37,6.62-2.24,13.45-3.56,20.41-4,3.22-.2,6.49-.1,9.71,.2,3.3,.31,6.61,.82,9.82,1.61,5.69,1.41,10.92,3.76,14.71,8.52,1.72,2.16,2.65,4.59,2.79,7.35,.16,3.23-.89,6.11-2.56,8.79-.51,.82-1.25,1.49-1.88,2.23Z" fill="#baa3a7"/>
      <path d="M125.8,78.57c.63-.74,1.38-1.41,1.88-2.23,1.67-2.68,2.72-5.56,2.56-8.79-.13-2.76-1.07-5.2-2.79-7.35-3.79-4.76-9.02-7.12-14.71-8.52-3.21-.79-6.52-1.3-9.82-1.61-3.22-.3-6.49-.4-9.71-.2-6.97,.43-13.79,1.76-20.41,4-5.37,1.81-10.52,4.12-15.18,7.37-1.94,1.35-3.88,2.76-5.54,4.42-3.12,3.11-5.74,6.6-6.56,11.11-.68,3.76,.29,7.11,2.53,10.15,.15,.21,.4,.34,.61,.51-.24,.35-.47,.71-.71,1.06-2.62-2.76-4.08-6.04-3.9-9.85,.16-3.33,1.49-6.33,3.42-9.06,3.53-5.01,8.36-8.45,13.61-11.41,5.63-3.17,11.65-5.33,17.91-6.8,3.36-.79,6.79-1.33,10.21-1.71,3.5-.39,7.05-.69,10.57-.59,7.4,.21,14.68,1.33,21.37,4.77,3.69,1.9,6.96,4.33,8.91,8.2,1.91,3.81,1.95,7.68,.24,11.5-.88,1.96-2.17,3.73-3.33,5.56-.19,.3-.62,.45-.95,.67-.07-.4-.14-.8-.21-1.2Z" fill="#bba5a9"/>
      <path d="M81.16,52.84c.8-1.13,2-1.08,3.18-1.09,.69,0,1.39,.04,2.08,.06,.78,.28,1.57,.57,2.35,.85,.42,.46,.84,.92,1.26,1.38,.45,.55,.89,1.09,1.34,1.64,.4,.54,.8,1.07,1.2,1.61,.47,.6,.94,1.2,1.42,1.81,.37,.86,.75,1.72,1.12,2.58-.4,1.07,.32,1.9,.61,2.82,.23,.95,.47,1.9,.7,2.85,.15,.57,.55,1.24,.39,1.7-.33,.92-.39,1.71,.02,2.59,.11,.24,0,.59-.04,.88-.18,1.68-.37,3.37-.55,5.05-.68,1.07-1.36,2.13-2.04,3.2-.53,.98-1.1,1.86-2.35,2.11-.71,.14-1.36,.57-2.04,.87-2.15,.55-4.32,.99-6.56,.64-.65-.46-1.33-.58-2.06-.2-.6-.06-1.2-.12-1.79-.18-1.15-.76-2.61-1.16-3.17-2.63-.24-.97-.46-1.95-.74-2.91-.18-.6-.64-1.16-.68-1.75-.13-2.11-.14-4.24-.19-6.36,.21-1.15,.42-2.3,.63-3.45,.14-.41,.28-.81,.4-1.22,.17-.53,.32-1.06,.48-1.59,.33-1.21,.66-2.43,.97-3.64,.06-.25,.06-.51,.09-.77,.27-.6,.54-1.2,.81-1.81,.39-.87,.78-1.75,1.16-2.62-.06-.74,.32-1.12,.96-1.44,.41-.21,.71-.64,1.06-.98Z" fill="#353636"/>
      <path d="M59.08,92.84c-.41-1.27-.81-2.55-1.22-3.82,1.34-1.17,2.08-1.01,2.72,.57,.2,.49,.44,.97,.66,1.45,.17,.94,.35,1.87,.52,2.81-.65,.24-1.33,.73-1.93,.64-.33-.05-.51-1.06-.76-1.64Z" fill="#e86868"/>
      <path d="M68.12,81.17c-1.17,.95-2.5,1.44-4.01,1.39-.92-.06-1.88,.02-2.75-.22-1.88-.53-2.64-2.02-2.85-3.84-.18-1.59,.06-3.11,.97-4.46,.22-.32,.46-.79,.77-.85,1.81-.38,3.63-.66,5.45-.98,.74,.51,1.48,1.02,2.23,1.53,.32,.76,.72,1.5,.96,2.28,.37,1.22,.85,2.46,.25,3.75-.34,.47-.68,.93-1.01,1.4Zm-4.72-.99c.7,0,1.14,.03,1.57,0,1.4-.11,2.26-1.19,1.92-2.51-.21-.83-.54-1.65-.93-2.41-.26-.51-.74-.84-1.42-.6-.75,.27-1.51,.65-2.27,.65-.87,0-1.17,.45-1.27,1.09-.12,.82-.2,1.68-.06,2.48,.16,.9,.8,1.44,1.82,1.34,.3-.03,.6-.03,.64-.03Z" fill="#120b0c"/>
      <path d="M67.93,73.74c-.74-.51-1.49-1.02-2.23-1.53,.65-.95,1.18-2.01,1.98-2.81,2.14-2.13,4.63-3.8,7.39-5.05,.32-.15,.7-.18,1.05-.26-.16,.53-.32,1.06-.48,1.59-.13,.41-.27,.81-.4,1.22-.25,.08-.53,.12-.74,.26-2.44,1.6-4.61,3.46-6.02,6.08-.11,.21-.36,.34-.54,.51Z" fill="#a77f86"/>
      <path d="M88.77,52.67c-.78-.28-1.57-.57-2.35-.85,.35-.19,.7-.5,1.07-.54,1.72-.19,3.44-.34,5.17-.43,2.07-.11,4.14-.26,6.2-.19,6.63,.23,13.14,1.18,19.22,4.05,3.42,1.61,6.53,3.61,8.61,6.9,2.46,3.89,2.73,7.93,.84,12.09-.59,1.3-1.39,2.5-2.09,3.75-.16,.29-.28,.6-.42,.89-1.41,.37-1.54,.65-1.24,2.65-.5,.41-.98,.84-1.5,1.22-.33,.24-.71,.39-1.07,.59-.75-1.13-.04-2.27-.03-3.41,2.61-2.45,4.22-5.44,4.85-8.97,.58-3.25-.3-6.17-2.25-8.73-1.44-1.89-3.2-3.5-5.3-4.67-4.34-2.41-8.99-3.87-13.92-4.36-3.11-.31-6.23-.55-9.35-.57-2.14-.02-4.29,.38-6.44,.59Z" fill="#b89fa3"/>
      <path d="M113.15,68.51c1.54,1.58,1.26,4.26-.6,5.86-.43,.23-.93,.39-1.28,.71-.87,.81-1.76,1.13-2.88,.54-.24-.13-.57-.08-.87-.12-.54-.05-1.08-.11-1.62-.16-.73-.49-1.46-.98-2.18-1.47-.8-1.65-.59-3.25,.19-4.84,.25-.34,.59-.65,.74-1.03,.43-1.03,1.18-1.58,2.26-1.75,.66,0,1.32-.09,1.97,0,1.7,.21,3.19,.85,4.26,2.26Zm-5.19-.15c-.38,.21-.84,.34-1.11,.63-.38,.4-.62,.93-.91,1.42-.43,.73-.76,1.86-.06,2.17,1.16,.51,2.56,.57,3.86,.64,.44,.02,.9-.5,1.36-.77,.57-.34,.9-1.61,.52-2.11-.89-1.19-2.08-1.81-3.66-1.97Z" fill="#120b0c"/>
      <path d="M105.92,75.34c.54,.05,1.08,.11,1.62,.16-.91,1.08-1.68,2.33-2.77,3.19-4.62,3.68-9.99,5.67-15.79,6.5-2.3,.33-4.64,.64-6.94,.57-4.45-.14-8.83-.81-12.6-3.52-.46-.33-.88-.71-1.31-1.07,.34-.47,.68-.93,1.01-1.4,.18,.08,.41,.11,.52,.24,1.85,2.12,4.3,3.18,6.96,3.79,.89,.2,1.84,.13,2.77,.18,.6,.06,1.2,.12,1.79,.18,.63,.64,1.34,.52,2.06,.2,2.24,.35,4.41-.09,6.56-.64,.3,.07,.63,.26,.89,.19,4.3-1.01,8.42-2.46,11.99-5.16,1.26-.95,2.58-1.88,3.23-3.42Z" fill="#a77f86"/>
      <path d="M113.15,68.51c-1.07-1.41-2.56-2.05-4.26-2.26-.65-.08-1.31,0-1.97,0-.31-.37-.57-.83-.95-1.11-3.24-2.36-6.98-3.15-10.87-3.47-.37-.86-.75-1.72-1.12-2.58,4.69,.07,9.29,.64,13.54,2.79,1.96,.99,3.67,2.34,4.86,4.2,.44,.69,.53,1.6,.78,2.41Z" fill="#af828b"/>
      <path d="M103.93,69.04c-.78,1.58-1,3.19-.19,4.84-1.26,2-2.84,3.71-4.92,4.84-1.47,.8-3.07,1.37-4.61,2.04,.68-1.07,1.36-2.13,2.04-3.2,1.73-.24,4.53-3.52,4.48-5.45-.06-2.29-1.74-4.24-4.3-4.76-.23-.95-.47-1.9-.7-2.85,2.26,.24,4.38,.94,6.21,2.27,.8,.58,1.34,1.5,2,2.27Z" fill="#96797c"/>
      <path d="M79.39,83.99c-.92-.05-1.88,.03-2.77-.18-2.66-.61-5.11-1.66-6.96-3.79-.12-.13-.35-.17-.52-.24,.59-1.29,.12-2.53-.25-3.75-.24-.78-.63-1.52-.96-2.28,.18-.17,.43-.3,.54-.51,1.41-2.62,3.58-4.48,6.02-6.08,.21-.14,.49-.17,.74-.26-.21,1.15-.42,2.3-.63,3.45-1.02-.01-1.35,.85-1.84,1.48-3.17,4.05-.77,8.36,3.46,9.53,.57,1.47,2.02,1.86,3.17,2.63Z" fill="#a07c82"/>
      <path d="M103.93,69.04c-.66-.77-1.2-1.69-2-2.27-1.83-1.33-3.96-2.03-6.21-2.27-.29-.92-1-1.75-.61-2.82,3.89,.32,7.64,1.11,10.87,3.47,.38,.28,.64,.73,.95,1.11-1.08,.16-1.83,.72-2.26,1.75-.16,.38-.49,.69-.74,1.03Z" fill="#a07c82"/>
      <path d="M94.2,80.75c1.54-.67,3.14-1.25,4.61-2.04,2.08-1.13,3.67-2.83,4.92-4.84,.73,.49,1.46,.98,2.18,1.47-.65,1.54-1.97,2.47-3.23,3.42-3.57,2.7-7.69,4.16-11.99,5.16-.27,.06-.6-.12-.89-.19,.68-.3,1.33-.73,2.04-.87,1.25-.25,1.82-1.12,2.35-2.11Z" fill="#a07c82"/>
      <path d="M96.41,67.34c2.56,.52,4.24,2.48,4.3,4.76,.05,1.93-2.75,5.21-4.48,5.45,.18-1.68,.37-3.37,.55-5.05,.03-.3,.15-.65,.04-.88-.42-.88-.35-1.67-.02-2.59,.17-.46-.24-1.12-.39-1.7Z" fill="#8d7576"/>
      <path d="M76.22,81.36c-4.23-1.17-6.63-5.49-3.46-9.53,.5-.63,.82-1.5,1.84-1.48,.05,2.12,.06,4.24,.19,6.36,.04,.59,.5,1.15,.68,1.75,.29,.96,.5,1.94,.74,2.91Z" fill="#96797c"/>
      <path d="M83.25,84.37c-.73,.32-1.43,.44-2.06-.2,.73-.38,1.41-.26,2.06,.2Z" fill="#a07c82"/>
      <path d="M63.41,80.17s-.34,0-.64,.03c-1.02,.1-1.66-.44-1.82-1.34-.14-.8-.06-1.66,.06-2.48,.09-.65,.4-1.08,1.27-1.09,.76,0,1.53-.39,2.27-.65,.68-.24,1.16,.08,1.42,.6,.39,.76,.71,1.58,.93,2.41,.34,1.32-.52,2.4-1.92,2.51-.43,.03-.87,0-1.57,0Z" fill="#af828b"/>
      <path d="M107.96,68.36c1.58,.16,2.77,.78,3.66,1.97,.38,.5,.04,1.78-.52,2.11-.46,.27-.92,.8-1.36,.77-1.31-.07-2.7-.12-3.86-.64-.7-.31-.37-1.44,.06-2.17,.29-.48,.53-1.01,.91-1.42,.28-.3,.74-.43,1.11-.63Z" fill="#a77f86"/>
    </g>
  </g>
</svg>