<?xml version="1.0" encoding="UTF-8"?>
<svg id="Layer_2" data-name="Layer 2" xmlns="http://www.w3.org/2000/svg" viewBox="0 0 65.46 59.15">
  <g id="Layer_2-2" data-name="Layer 2">
    <g>
      <path d="M25.37,0h4.09c2.32,1.46,4.64,2.11,6.96,0h4.09c2.32,1.12,4.17,2.73,5.43,5.03,.22,.4,.93,.75,1.41,.75,5.6-.01,7.78,1.51,9.72,6.84,.19,.53,.51,1.24,.95,1.43,4.37,1.87,5.42,5.37,5.04,9.71-.07,.78,.24,1.73,.7,2.38,1.59,2.27,2.02,4.69,1.49,7.38-.83,4.2-3.43,7.21-6.58,9.82-2.57,2.13-5.24,4.13-7.86,6.19-.15,.15-.31,.3-.46,.44l.11-.04,.04,.11c-3.76,2.31-7.53,4.61-11.29,6.92-.45,.13-.99,.15-1.33,.42-3.06,2.5-6.03,2.29-8.98-.2-.29-.25-.74-.32-1.11-.47-4.11-2.66-8.21-5.33-12.32-7.99h.09c-.13-.13-.25-.28-.38-.42C9.35,43.85,2.77,40.15,0,32.74,0,31.1,0,29.46,0,27.83c.97-.85,1.94-1.7,2.84-2.48,0-1.75-.12-3.65,.03-5.53,.22-2.68,1.76-4.56,4.31-5.02,1.51-.28,1.92-1.03,2.22-2.36,1.08-4.79,4.16-6.84,8.97-6.15,.38,.06,.77,.05,1.25,.08,.96-3.04,3.2-4.85,5.75-6.37Zm4.08,55.67c.05,.02,.1,.04,.15,.05-.04-.03-.08-.06-.12-.09-.13-.15-.25-.29-.38-.44-.25-.17-.5-.34-.74-.52-.45-.58-.87-1.2-1.36-1.75-6.42-7.21-12.85-14.41-19.27-21.62-.88-.99-1.72-2.01-2.58-3.02-.13,.69,.06,1.16,.31,1.6,3.45,6.25,7.9,11.75,12.93,16.74,3.02,3,6.51,5.52,9.79,8.26,.27,.14,.53,.29,.8,.43,.16,.12,.31,.23,.47,.35Zm.84-1.25l.11,.1-.12-.09c-.12-.29-.24-.57-.36-.86-.07-.19-.1-.41-.21-.57-7.15-10.91-13.07-22.49-18.58-34.29-.16-.35-.5-.61-.98-1.18,.04,.61,.01,.81,.07,1,3.05,9.75,7.28,18.95,13.1,27.35,1.92,2.77,4.29,5.22,6.45,7.81,.17,.24,.34,.49,.51,.73Zm30.57-26.69c-.52,.42-1.12,.77-1.55,1.27-4.81,5.57-9.59,11.16-14.37,16.75-2.36,2.76-4.69,5.54-7.03,8.31,.12,.13,.25,.27,.37,.4,.46-.32,.98-.58,1.36-.97,4.28-4.48,8.74-8.8,12.73-13.52,3.19-3.78,5.8-8.05,8.66-12.11,.05-.14,.11-.29,.16-.43-.11,.1-.22,.2-.32,.3Zm-24.05,26.29c.26-.31,.55-.6,.79-.93,7.75-10.81,13.45-22.69,18.33-35.01,.1-.25,.01-.56,.01-.85-.69,.55-1.07,1.17-1.41,1.81-4.89,9.35-9.75,18.72-14.67,28.05-1.04,1.96-2.29,3.81-3.45,5.71,.09-.47,.12-.95,.27-1.39,3.72-10.84,6.2-21.99,8.14-33.26,.46-2.69,.74-5.4,1.11-8.11l-.62-.1c-3.96,15.07-7.01,30.35-10.6,45.5,.25,.09,.51,.18,.76,.27,.45-.56,.89-1.13,1.34-1.69Zm-3.41,.09c.23-.01,.45-.02,.68-.04,1.95-16.84,1.43-33.64-.68-50.43V54.11ZM20.17,9.37c2.4,14.9,5.7,29.57,11.14,43.68-2.95-14.75-6.4-29.38-11.14-43.68Z" fill="#f58976"/>
      <path d="M36.81,54.01c-.45,.56-.89,1.13-1.34,1.69-.25-.09-.51-.18-.76-.27,3.6-15.15,6.64-30.43,10.6-45.5l.62,.1c-.36,2.7-.64,5.42-1.11,8.11-1.95,11.27-4.42,22.42-8.14,33.26-.15,.44-.19,.93-.27,1.39,0,0,.01-.02,.01-.02-.13,.42-.27,.83-.4,1.25,0,0-.13,.09-.13,.09l.1-.11c.11-.01,.23-.02,.34-.02,.16,0,.31,.02,.47,.03Z" fill="#f37147"/>
      <path d="M33.4,54.11V3.64c2.11,16.79,2.63,33.6,.68,50.43-.23,.01-.45,.02-.68,.04Z" fill="#f37045"/>
      <path d="M20.17,9.37c4.73,14.3,8.19,28.93,11.14,43.68-5.44-14.12-8.74-28.79-11.14-43.68Z" fill="#f37146"/>
      <path d="M36.81,54.01c-.16,0-.31-.02-.47-.03,.03-.4,.06-.8,.08-1.21,0,0-.01,.02-.01,.02,1.15-1.9,2.41-3.75,3.45-5.71,4.92-9.33,9.78-18.7,14.67-28.05,.34-.64,.71-1.26,1.41-1.81,0,.28,.09,.6-.01,.85-4.88,12.31-10.58,24.2-18.33,35.01-.24,.33-.52,.62-.79,.93Z" fill="#f37046"/>
      <path d="M29.77,53.69c-2.16-2.59-4.53-5.04-6.45-7.81-5.82-8.4-10.06-17.6-13.1-27.35-.06-.18-.03-.39-.07-1,.48,.57,.81,.83,.98,1.18,5.51,11.8,11.44,23.37,18.58,34.29,.11,.17,.14,.38,.21,.57l-.14,.12Z" fill="#f37046"/>
      <path d="M61.02,27.86c-2.87,4.05-5.47,8.33-8.66,12.11-3.99,4.72-8.45,9.04-12.73,13.52-.38,.4-.9,.65-1.36,.97-.12-.13-.25-.27-.37-.4,2.34-2.77,4.67-5.55,7.03-8.31,4.78-5.59,9.57-11.18,14.37-16.75,.43-.5,1.03-.85,1.55-1.27,.06,.05,.11,.09,.17,.14Z" fill="#f37046"/>
      <path d="M28.18,54.9c-3.28-2.74-6.77-5.26-9.79-8.26-5.03-4.99-9.48-10.5-12.93-16.74-.24-.44-.43-.91-.31-1.6,.86,1.01,1.7,2.03,2.58,3.02,6.42,7.21,12.85,14.41,19.27,21.62,.49,.55,.91,1.16,1.36,1.75-.06,.07-.12,.15-.18,.22Z" fill="#f37046"/>
      <path d="M27.78,56.71c-1.89,.51-3.78,1-5.66,1.53-1.45,.41-2.62-.03-3.22-1.35-1.22-2.69-2.3-5.45-3.44-8.18,4.11,2.66,8.21,5.33,12.32,7.99Z" fill="#d17162"/>
      <path d="M50.49,50.04c-1.08,2.46-2,5.01-3.33,7.32-.44,.76-2.03,1.33-3,1.2-1.7-.22-3.31-1.04-4.96-1.6,3.76-2.31,7.53-4.61,11.29-6.92Z" fill="#d17263"/>
      <path d="M60.86,27.73c.11-.1,.22-.2,.32-.3-.05,.14-.11,.29-.16,.43-.06-.05-.11-.09-.17-.14Z" fill="#f37046"/>
      <path d="M29.92,53.57c.12,.29,.24,.57,.36,.86h0c-.17-.25-.34-.5-.51-.74,0,0,.14-.12,.14-.12Z" fill="#f37046"/>
      <path d="M28.36,54.68c.25,.17,.5,.34,.74,.52,0,0-.13,.13-.13,.13-.27-.14-.53-.29-.8-.43,.06-.07,.12-.15,.18-.22Z" fill="#f37046"/>
      <path d="M15.55,48.73c-.13-.14-.25-.29-.38-.43,.13,.14,.25,.29,.38,.43Z" fill="#d17162"/>
      <path d="M50.81,49.52c-.15,.15-.31,.3-.46,.44,.15-.15,.31-.3,.46-.44Z" fill="#d17263"/>
      <polygon points="30.28 54.43 30.4 54.52 30.29 54.42 30.28 54.43" fill="#f37046"/>
      <path d="M29.45,55.67c-.16-.12-.31-.23-.47-.35,0,0,.12-.13,.12-.13,.13,.15,.25,.29,.38,.44l-.03,.03Z" fill="#f37046"/>
      <path d="M29.48,55.64s.08,.06,.12,.09c-.05-.02-.1-.04-.15-.05,0,0,.03-.03,.03-.03Z" fill="#f37046"/>
      <path d="M36.43,52.78c-.03,.4-.05,.8-.08,1.21-.11,0-.23,0-.34,.02l.02,.02c.13-.42,.27-.83,.4-1.25Z" fill="#f58976"/>
      <polygon points="36 54 35.9 54.11 36.03 54.03 36 54" fill="#f58976"/>
    </g>
  </g>
</svg>