<?xml version="1.0" encoding="UTF-8"?>
<svg id="Layer_2" data-name="Layer 2" xmlns="http://www.w3.org/2000/svg" viewBox="0 0 64.2 58.18">
  <g id="Layer_2-2" data-name="Layer 2">
    <g>
      <path d="M36.14,0h3.61c2.3,1.19,4.22,2.76,5.43,5.12,.17,.33,.86,.63,1.25,.57,4.43-.71,8.09,1.85,9.5,6.49,.19,.64,.63,1.44,1.17,1.69,3.86,1.77,5.02,4.84,4.82,8.84-.06,1.13,.6,2.31,.95,3.46,.44,1.45,1.24,2.88,1.3,4.34,.15,3.89-1.47,7.22-4.31,9.79-3.22,2.9-6.67,5.55-10.02,8.31-.15,.14-.3,.28-.45,.42h.03c-3.75,2.25-7.49,4.51-11.24,6.78-.94,.5-1.93,.92-2.8,1.51-1.77,1.21-3.43,1.13-5.17-.06-.92-.63-1.98-1.07-2.97-1.59-4.01-2.62-8.02-5.24-12.03-7.86l.04,.02c-.12-.14-.24-.28-.37-.41-2.85-2.19-5.64-4.45-8.55-6.55C3.25,38.62,1.6,35.41,0,32.13,0,30.52,0,28.91,0,27.31c.95-.84,1.9-1.68,3.04-2.68-.06-.49-.21-1.34-.26-2.19-.05-.93-.07-1.87,0-2.8,.22-2.64,1.62-4.61,4.06-5.07,1.66-.31,2.08-1.16,2.42-2.59,1-4.25,4.05-6.39,8.18-5.9,.52,.06,1.03,.16,1.68,.27,1.05-2.94,3.17-4.87,5.76-6.35h4.02c2.41,1.74,4.82,1.69,7.23,0Zm-7.23,54.62s.09,.05,.14,.07c-.04-.03-.09-.05-.13-.08-.12-.09-.25-.19,.02,.01-.32-.1-.17-.05-.02,0Zm.81-1.21l.13,.07s-.09-.05-.14-.07c-.13-.27-.26-.54-.39-.81-.16-.36-.27-.75-.48-1.08-6.6-9.98-11.88-20.67-17.16-31.38-.67-1.36-1.37-2.72-2.06-4.08-.04-.14-.09-.29-.01-.04-.15-.2-.07-.09,.02,.03,.09,.59,.1,1.2,.27,1.76,3.59,11.7,9.05,22.45,16.59,32.11,.79,1.01,1.86,1.8,2.8,2.69,.14,.26,.28,.53,.41,.79ZM4.42,27.31c.13,.14,.26,.28,.39,.41,.09,.39,.09,.82,.27,1.15,4.64,8.29,10.86,15.27,17.93,21.53,1.35,1.2,2.85,2.23,4.29,3.33,.11-.59-.02-.94-.26-1.2-2.09-2.24-4.23-4.43-6.29-6.71-3.04-3.35-6.03-6.75-9.01-10.15-2.32-2.64-4.6-5.32-6.91-7.98-.14-.13-.28-.26-.41-.39-.04-.14-.08-.29,0,0-.17-.24-.08-.12,0,0Zm55.41-.01c-.54,.36-1.19,.62-1.59,1.09-6.73,7.87-13.42,15.76-20.16,23.63-.4,.47-1.08,.7-1.63,1.04,.31-.68,.63-1.35,.94-2.03,.48-.55,1.02-1.05,1.42-1.65,5.2-7.8,9.48-16.1,13.23-24.67,1.17-2.67,2.01-5.48,2.99-8.23,.09-.13,.18-.25-.07,.1,.15-.41,.09-.26,.04-.12-1.22,2.05-2.54,4.06-3.64,6.17-4.84,9.31-9.62,18.64-14.43,27.97-.28,.22-.57,.43-.84,.64,1.88-7.25,3.95-14.35,5.54-21.56,1.59-7.22,2.69-14.55,4.01-21.83-.2-.04-.39-.08-.59-.12-.11,.3-.26,.59-.34,.9-3.49,14.87-6.99,29.74-10.45,44.62-.11,.46,.1,1,.2,1.82,.79-.8,1.24-1.26,1.7-1.73,.06,.36,.13,.72,.24,1.38,1.74-1.52,3.41-2.74,4.8-4.23,3.87-4.15,7.79-8.26,11.37-12.66,2.68-3.29,4.86-6.99,7.26-10.51,.09-.13,.18-.26-.06,.09,.13-.4,.08-.25,.04-.11ZM32.83,4.05V53.23c2.81-10.64,1.8-40.85,0-49.18Zm-12.38,5.17c-.22,.04-.43,.08-.65,.12-.31,5.89,8.79,40.87,11.8,43.81-3.72-14.64-7.44-29.29-11.15-43.93Zm-.9-1.22c0-.11,0-.23,0-.34,0,0-.09,0-.14,0,0,.11,0,.23,0,.34,.05,0,.1,0,.15,0Z" fill="#e982b5"/>
      <path d="M36.14,0c-2.41,1.69-4.82,1.74-7.23,0h7.23Z" fill="#fef6fa"/>
      <path d="M37.39,51.02c-.31,.68-.63,1.35-.94,2.03-.12,.07-.21,.16-.27,.28-.46,.46-.92,.93-1.7,1.73-.1-.82-.31-1.36-.2-1.82,3.46-14.88,6.95-29.75,10.45-44.62,.07-.31,.22-.6,.34-.9,.2,.04,.39,.08,.59,.12-1.32,7.28-2.42,14.61-4.01,21.83-1.59,7.21-3.65,14.32-5.54,21.56,.27-.21,.56-.42,.84-.64,.15,.14,.3,.29,.45,.43Zm-1.81,1.27s.03-.09,.05-.13c-.04-.01-.1-.05-.11-.04-.03,.03-.04,.08-.05,.13,.04,.01,.08,.03,.12,.04Z" fill="#ef5aa1"/>
      <path d="M32.83,4.05c1.8,8.33,2.81,38.54,0,49.18V4.05Z" fill="#ef59a0"/>
      <path d="M20.45,9.22c3.72,14.64,7.44,29.29,11.15,43.93-3.01-2.94-12.11-37.92-11.8-43.81,.22-.04,.43-.08,.65-.12Z" fill="#ef5aa1"/>
      <path d="M29.3,52.62c-.94-.89-2.01-1.68-2.8-2.69-7.55-9.66-13-20.41-16.59-32.11-.17-.56-.18-1.17-.27-1.76h-.01c.69,1.37,1.38,2.72,2.06,4.09,5.27,10.7,10.56,21.4,17.16,31.38,.21,.32,.32,.72,.48,1.08l-.02,.02Z" fill="#ef5aa0"/>
      <path d="M37.39,51.02c-.15-.14-.3-.29-.45-.43,4.8-9.33,9.58-18.66,14.43-27.97,1.1-2.12,2.42-4.12,3.64-6.17l.03,.02c-.99,2.75-1.83,5.56-2.99,8.23-3.75,8.57-8.03,16.87-13.23,24.67-.4,.6-.94,1.1-1.42,1.65Z" fill="#ef5aa0"/>
      <path d="M36.18,53.33c.06-.12,.15-.21,.27-.28,.55-.34,1.22-.57,1.62-1.04,6.73-7.86,13.42-15.76,20.16-23.63,.4-.47,1.06-.73,1.59-1.09l.02,.02c-2.4,3.52-4.58,7.22-7.26,10.51-3.58,4.39-7.5,8.51-11.37,12.66-1.39,1.49-3.06,2.71-4.8,4.23-.12-.66-.18-1.02-.24-1.38Z" fill="#ef5aa0"/>
      <path d="M4.83,27.7c2.3,2.66,4.58,5.34,6.9,7.98,2.99,3.4,5.98,6.8,9.01,10.15,2.06,2.27,4.2,4.46,6.29,6.71,.24,.25,.37,.61,.26,1.2-1.43-1.11-2.93-2.14-4.29-3.33-7.07-6.26-13.3-13.24-17.93-21.53-.18-.33-.19-.76-.27-1.15l.02-.02Z" fill="#ef59a0"/>
      <path d="M27.25,55.66c-1.85,.5-3.68,1.21-5.56,1.42-.98,.11-2.59-.39-2.98-1.12-1.38-2.61-2.36-5.42-3.49-8.16,4.01,2.62,8.02,5.24,12.03,7.86Z" fill="#c1629d"/>
      <path d="M49.43,49.01c-1.09,2.55-2.05,5.18-3.37,7.61-.34,.63-1.88,1.02-2.75,.86-1.75-.32-3.42-1.1-5.12-1.68,3.75-2.26,7.49-4.52,11.24-6.79Z" fill="#c1639d"/>
      <path d="M19.55,8s-.1,0-.15,0c0-.11,0-.23,0-.34,.05,0,.14,0,.14,0,0,.11,0,.23,0,.34Z" fill="#ef5aa1"/>
      <path d="M9.64,16.06c-.09-.12-.18-.24-.02-.03-.07-.25-.03-.1,.01,.04,0,0,.01,0,.01,0Z" fill="#ef5aa0"/>
      <path d="M55.01,16.45c.05-.14,.1-.29-.04,.12,.24-.35,.16-.23,.07-.1,0,0-.03-.02-.03-.02Z" fill="#ef5aa0"/>
      <path d="M4.42,27.31c-.09-.12-.17-.24,0,0-.08-.28-.04-.14,0,0,0,0,0,0,0,0Z" fill="#ef59a0"/>
      <path d="M59.82,27.29c.05-.15,.1-.29-.04,.11,.24-.34,.15-.21,.06-.09,0,0-.02-.02-.02-.02Z" fill="#ef5aa0"/>
      <path d="M29.33,52.6c.13,.27,.26,.54,.39,.81h0c-.14-.26-.28-.53-.41-.79,0,0,.02-.02,.02-.02Z" fill="#ef5aa0"/>
      <path d="M28.91,54.62c-.15-.05-.3-.1,.02,0-.27-.2-.14-.11-.02-.01h0Z" fill="#ef59a0"/>
      <path d="M4.8,27.72c-.13-.14-.26-.28-.39-.41,0,0,0,0,0,0,.14,.13,.28,.26,.41,.39,0,0-.02,.02-.02,.02Z" fill="#ef59a0"/>
      <path d="M15.26,47.82c-.12-.14-.24-.28-.37-.41,.12,.14,.24,.28,.37,.41Z" fill="#c1629d"/>
      <path d="M49.86,48.6c-.15,.14-.3,.28-.45,.42,.15-.14,.3-.28,.45-.42Z" fill="#c1639d"/>
      <path d="M29.72,53.41s.09,.05,.14,.07c-.04-.02-.09-.05-.13-.07,0,0,0,0,0,0Z" fill="#ef5aa0"/>
      <path d="M28.92,54.61s.09,.05,.13,.08c-.05-.02-.09-.05-.14-.07,0,0,0,0,0,0Z" fill="#ef59a0"/>
      <path d="M35.58,52.29s-.08-.03-.12-.04c.02-.04,.02-.1,.05-.13,.01-.01,.07,.02,.11,.04-.02,.04-.03,.09-.05,.13Z" fill="#e982b5"/>
    </g>
  </g>
</svg>