<?xml version="1.0" encoding="UTF-8"?>
<svg id="Layer_2" data-name="Layer 2" xmlns="http://www.w3.org/2000/svg" viewBox="0 0 65.71 59.4">
  <g id="Layer_2-2" data-name="Layer 2">
    <g>
      <path d="M65.71,29.54v4.51c-1.74,4.68-4.97,8.17-8.88,11.13-1.96,1.48-3.9,2.98-5.85,4.47-.14,.17-.27,.34-.41,.51l.11-.03,.03,.11c-.44,.1-.95,.09-1.32,.32-3.47,2.13-6.91,4.3-10.35,6.45-.66,.34-1.38,.6-1.97,1.04-2.38,1.78-4.67,1.84-7.02-.08-.61-.5-1.42-.77-2.14-1.14-4.15-2.65-8.31-5.31-12.46-7.96l.11,.04c-.12-.16-.24-.32-.36-.48-3.63-2.88-7.38-5.63-10.84-8.7C1.51,37.2,.03,33.8,0,29.92c-.02-2.53,.8-3.57,2.84-4.23,0-2.05-.14-4.02,.03-5.96,.22-2.57,1.81-4.48,4.23-4.88,1.6-.27,2.03-1.03,2.34-2.46,.97-4.5,4.05-6.68,8.43-6.17,.53,.06,1.06,.17,1.7,.28,1.05-3.02,3.2-5,5.87-6.5h4.11c2.33,1.46,4.66,2.12,6.98,0h3.7c2.55,.9,4.43,2.54,5.78,4.88,.26,.45,.99,.91,1.5,.9,5.49-.08,7.89,1.59,9.76,6.86,.21,.58,.61,1.3,1.11,1.52,3.99,1.76,5.23,4.93,4.92,9-.06,.79-.17,1.69,.14,2.37,.62,1.39,1.5,2.67,2.27,4ZM30.38,54.56l.11,.11-.12-.1-.09-.12s.11,.11,.11,.11Zm-1.25,.85c.05,.02,.1,.04,.15,.06l-.12-.09c-.26-.15-.52-.3-.79-.45-.28-.46-.49-.97-.85-1.36-2.28-2.44-4.64-4.82-6.88-7.29-3.07-3.38-6.08-6.81-9.09-10.24-2.24-2.56-4.43-5.16-6.64-7.74-.05-.02-.1-.04-.15-.06,.04,.03,.08,.06,.13,.09,.17,.51,.26,1.06,.51,1.52,4.58,8.36,11.03,15.18,18.01,21.54,1.49,1.36,3.25,2.43,4.89,3.63,.28,.13,.55,.27,.83,.4ZM61.16,27.88c-.49,.34-1.07,.59-1.45,1.03-5.71,6.59-11.4,13.2-17.08,19.81-1.87,2.17-3.7,4.38-5.54,6.57,.12,.12,.24,.24,.36,.36,1.67-1.45,3.48-2.78,4.99-4.39,3.86-4.13,7.76-8.24,11.32-12.62,2.73-3.37,4.97-7.13,7.43-10.72l.23-.27c-.06-.04-.12-.07-.18-.11-.03,.11-.06,.23-.08,.34Zm-4.92-11.07c-1.62,2.84-3.31,5.63-4.84,8.52-3.27,6.14-6.48,12.31-9.65,18.5-1.68,3.26-3.24,6.58-4.85,9.88l-.78,.46c.32-1.17,.59-2.37,.97-3.52,3.69-11.1,6.22-22.48,8.08-34.01,.35-2.19,.62-4.4,.92-6.6-.18-.03-.36-.05-.54-.08-.14,.44-.32,.87-.42,1.31-2.71,11.63-5.44,23.25-8.12,34.88-.64,2.78-1.15,5.6-1.72,8.4-.09,.12-.17,.24,.03-.04-.11,.33-.06,.19-.02,.05,.27-.14,.55-.28,.82-.42,.08,.16,.17,.31,.25,.47,.2-.28,.4-.55,.61-.83,.41-.45,.88-.85,1.23-1.35,6.17-8.66,10.98-18.06,15.19-27.78,1.1-2.55,1.91-5.22,2.86-7.83,.08-.12,.17-.23-.06,.09,.14-.37,.09-.24,.04-.1Zm-22.72,37.54c.19,0,.39,0,.58,0,2.08-16.93,1.47-33.83-.58-50.72V54.35Zm-2.24-1.13c.06-5.27-9.31-40.83-11.09-42.38,2.7,14.54,5.98,28.71,11.09,42.38Zm-1.72,.64c-6.54-12.18-12.91-24.04-19.29-35.9,3.95,13.21,9.99,25.28,19.29,35.9Z" fill="#fed803"/>
      <path d="M33.53,54.35V3.62c2.06,16.89,2.66,33.8,.58,50.72-.19,0-.39,0-.58,0Z" fill="#fcb23c"/>
      <path d="M35.3,54.57c.57-2.8,1.07-5.62,1.72-8.4,2.68-11.63,5.4-23.26,8.12-34.88,.1-.45,.28-.88,.42-1.31,.18,.03,.36,.05,.54,.08-.31,2.2-.57,4.4-.92,6.6-1.86,11.53-4.39,22.91-8.08,34.01-.38,1.15-.65,2.35-.97,3.52l.02-.02c-.27,.14-.55,.28-.82,.42h-.01Z" fill="#fcb33b"/>
      <path d="M31.28,53.22c-5.11-13.67-8.39-27.83-11.09-42.38,1.78,1.55,11.15,37.1,11.09,42.38Z" fill="#fcb23c"/>
      <path d="M36.9,53.71c1.61-3.29,3.18-6.62,4.85-9.88,3.18-6.19,6.39-12.36,9.65-18.5,1.53-2.88,3.22-5.68,4.84-8.52l.02,.02c-.95,2.61-1.76,5.28-2.86,7.83-4.21,9.72-9.02,19.13-15.19,27.78-.35,.49-.82,.9-1.23,1.35,0,0-.09-.08-.09-.08Z" fill="#fcb33b"/>
      <path d="M29.56,53.86c-9.3-10.62-15.34-22.69-19.29-35.9,6.37,11.86,12.75,23.72,19.29,35.9Z" fill="#fcb33b"/>
      <path d="M61.2,27.91c-2.46,3.59-4.7,7.36-7.43,10.72-3.56,4.38-7.46,8.5-11.32,12.62-1.51,1.61-3.32,2.93-4.99,4.39-.12-.12-.24-.24-.36-.36,1.85-2.19,3.68-4.4,5.54-6.57,5.68-6.61,11.37-13.22,17.08-19.81,.38-.43,.96-.69,1.45-1.03l.04,.03Z" fill="#fcb33b"/>
      <path d="M4.92,28.3c2.21,2.58,4.4,5.18,6.64,7.74,3.01,3.43,6.02,6.86,9.09,10.24,2.25,2.47,4.6,4.85,6.88,7.29,.36,.38,.57,.9,.84,1.36,0,0-.07,.09-.07,.09-1.64-1.2-3.4-2.27-4.89-3.63-6.97-6.36-13.43-13.18-18.01-21.54-.25-.46-.34-1.01-.51-1.52l.03-.03Z" fill="#fcb23c"/>
      <path d="M27.92,56.83c-1.9,.52-3.8,1.01-5.69,1.55-1.55,.44-2.71-.05-3.35-1.49-1.19-2.65-2.28-5.35-3.42-8.03,4.15,2.65,8.31,5.31,12.46,7.96Z" fill="#d6ae2d"/>
      <path d="M50.71,50.24c-1.05,2.35-2.06,4.71-3.15,7.03-.66,1.39-1.78,2.02-3.34,1.51-1.73-.57-3.45-1.18-5.18-1.77,3.45-2.16,6.89-4.32,10.35-6.45,.37-.22,.88-.22,1.32-.32Z" fill="#d6ae2d"/>
      <path d="M36.12,54.17c.26-.15,.52-.31,.78-.46,0,0,.09,.08,.09,.08-.2,.28-.4,.55-.61,.83-.08-.16-.17-.31-.25-.47,0,0-.02,.02-.02,.02Z" fill="#fcb33b"/>
      <path d="M56.25,16.81c.05-.13,.1-.27-.04,.1,.23-.32,.15-.2,.06-.09,0,0-.02-.02-.02-.02Z" fill="#fcb33b"/>
      <path d="M61.16,27.88c.03-.11,.06-.23,.08-.34,.06,.04,.12,.07,.18,.11-.08,.09-.15,.18-.23,.27,0,0-.04-.03-.04-.03Z" fill="#fcb33b"/>
      <path d="M35.31,54.57c-.05,.14-.09,.28,.02-.05-.2,.28-.11,.16-.03,.04,0,0,.01,0,.01,0Z" fill="#fcb33b"/>
      <path d="M29.13,55.41c-.28-.13-.55-.27-.83-.4,0,0,.07-.09,.07-.09,.26,.15,.52,.3,.79,.45l-.03,.03Z" fill="#fcb23c"/>
      <path d="M4.9,28.32s-.08-.06-.13-.09c.05,.02,.1,.04,.15,.06,0,0-.03,.03-.03,.03Z" fill="#fcb23c"/>
      <path d="M15.57,48.91c-.12-.16-.24-.32-.36-.48,.12,.16,.24,.32,.36,.48Z" fill="#d6ae2d"/>
      <path d="M50.98,49.65c-.14,.17-.27,.34-.41,.51,.14-.17,.27-.34,.41-.51Z" fill="#d6ae2d"/>
      <polygon points="30.38 54.56 30.28 54.45 30.37 54.57 30.38 54.56" fill="#fcb33b"/>
      <polygon points="30.37 54.57 30.49 54.67 30.38 54.56 30.37 54.57" fill="#fcb33b"/>
      <path d="M29.16,55.38l.12,.09c-.05-.02-.1-.04-.15-.06,0,0,.03-.03,.03-.03Z" fill="#fcb23c"/>
    </g>
  </g>
</svg>